<?xml version="1.0" encoding="utf-8"?>
<!-- Generator: Adobe Illustrator 23.0.2, SVG Export Plug-In . SVG Version: 6.00 Build 0)  -->
<svg version="1.1" xmlns="http://www.w3.org/2000/svg" xmlns:xlink="http://www.w3.org/1999/xlink" x="0px" y="0px"
	 viewBox="0 0 2880 1920" style="enable-background:new 0 0 2880 1920;" xml:space="preserve">
<style type="text/css">
	.st0{display:none;}
	.st1{fill:#0000FF;}
	.st2{opacity:0.53;}
	.st3{fill:#333333;}
	.st4{fill:#1A1A1A;}
	.st5{fill:#4D4D4D;}
</style>
<g id="Ebene_1" class="st0">
	
		<image style="display:inline;overflow:visible;" width="2880" height="1920" xlink:href="vorgabe.jpg"  transform="matrix(0.9976 0 0 0.9976 2 4.3333)">
	</image>
</g>
<g id="Ebene_2">
	<g>
		<g>
			<path class="st1" d="M634,967.3c0,0,0-0.1,0-0.1c-0.4,0.2-0.8,0.4-1.1,0.6c0,0,0.1,0,0.1,0.1c0.2,0.1,0.5,0.1,0.8,0
				c0.1,0,0.1-0.1,0.1-0.1c-0.3,0-0.5,0-0.8,0c0.3,0.2,0.5,0.2,0.9,0.1c-0.2-0.1-0.5-0.1-0.7-0.2c0.2,0.2,0.4,0.3,0.5,0.4
				c0.2,0.1,0.5,0.5,0.5,0.2c0.2-0.2,0.4-0.5,0.6-0.7C634.7,967.7,634.1,967.3,634,967.3c-0.2-0.2-0.9-0.2-1-0.3
				c-0.1,0.4-0.3,0.7-0.4,1.1c0.4-0.1,1.8-0.1,2.1,0.3c0.1-0.4,0.3-0.7,0.4-1.1c-0.5,0.1-0.8-0.2-1.3-0.3c-0.3-0.1-0.6-0.1-0.8-0.2
				c0.1,0.1,0.3,0.2,0.4,0.3c0-0.1-0.1-0.1-0.1-0.2c0,0.3,0,0.5,0,0.8c0,0,0,0,0,0c-0.2,0-0.4,0.1-0.6,0.1c0.6,0.1,1.2,0.1,1.9,0.1
				c0.7,0,1.2,0.3,1.9,0.4c0-0.5,0-1,0-1.5c-0.7,0-1.5-0.1-2.3,0c-0.4,0-0.6,0.1-1,0.1c-0.3,0-0.5-0.1-0.8,0
				c-0.4,0.1-0.7,0.5-0.5,0.9c0.2,0.6,0.7,1,1.3,1.3c0.3,0.1,0.5,0.2,0.8,0.2c0.1,0,0.3,0,0.4,0c0.2,0,0.3,0.1,0.2-0.1
				c0.1-0.3,0.2-0.7,0.3-1c-0.4,0.2-1.5-0.5-1.9-0.7c-0.2,0.5-0.4,0.9-0.6,1.4c0.3,0.1,0.6,0.1,0.9,0.2c0.5,0.1,0.9,0.3,1.3,0.5
				c0.3,0.1,0.5,0.2,0.8,0.3c0.1,0,0.3,0.1,0.4,0c0.2-0.1,0.2,0.2,0.1-0.2c0.2-0.3,0.5-0.6,0.7-0.9c-0.5-0.1-1-0.5-1.4-0.7
				c-0.2-0.1-0.5-0.2-0.7-0.3c-0.3-0.1-0.7,0-1-0.3c-0.2,0.4-0.4,0.9-0.5,1.3c1.1,0.1,2.8,0.4,3.5-0.7c-0.4,0-0.9,0-1.3,0
				c0.2,0.4,0.2,0.9,0.3,1.3c0.1,0.6,1.1,0.8,1.4,0.2c0.2-0.5,0.4-0.9,0.4-1.4c0-0.4-0.4-0.8-0.8-0.8c-0.2,0-0.4,0-0.5,0.1
				c-0.9,0.3-0.5,1.8,0.4,1.4c0,0,0.1,0,0.1,0c-0.3-0.3-0.5-0.5-0.8-0.8c0,0.2-0.1,0.5-0.2,0.7c0.5,0.1,0.9,0.1,1.4,0.2
				c-0.2-0.6-0.1-1.1-0.4-1.6c-0.3-0.5-1-0.5-1.3,0c0,0-0.8,0-0.8,0c-0.5,0-0.9,0-1.4-0.1c-0.6-0.1-1,0.9-0.5,1.3
				c0.7,0.6,1.5,0.5,2.3,0.9c0.6,0.3,1.2,0.7,1.9,0.7c0.5,0.1,0.9-0.5,0.7-0.9c-0.3-0.8-0.9-0.8-1.6-0.9c-0.5-0.1-1-0.4-1.5-0.6
				c-0.5-0.2-1-0.1-1.5-0.3c-0.8-0.3-1.3,1-0.6,1.4c1.1,0.6,2.2,1.3,3.4,0.7c0.4-0.2,0.4-0.7,0.3-1c-0.2-0.4-0.6-0.6-1.1-0.7
				c-0.4,0-1.3,0.1-1.5-0.4c-0.2,0.3-0.3,0.6-0.5,0.9c0.2-0.1,0.6,0.1,0.8,0c0.3,0,0.5-0.1,0.8-0.2c0.7-0.1,1.3,0,2,0
				c1,0,1-1.5,0-1.5c-0.5,0-0.9-0.2-1.3-0.3c-0.5-0.1-0.9,0-1.4,0c-0.7,0-1.6-0.3-1.9,0.6c-0.3,0.8,0.4,1.1,1,1.3
				c0.9,0.2,1.5,0.7,2.4,0.4c0.4-0.1,0.7-0.7,0.4-1.1c-0.8-1.1-2.6-1.3-3.8-1c-0.5,0.1-0.7,0.7-0.4,1.1c0.3,0.6,1,0.7,1.6,0.9
				c0.6,0.2,1.2,0.7,1.9,0.5c0.3-0.1,0.6-0.4,0.6-0.7c-0.1-0.9-1.5-2.1-2.4-1.8c0.2,0,0.4,0.1,0.6,0.1c-0.1,0-0.1-0.1-0.2-0.1
				c-0.2-0.1-0.5-0.2-0.8,0c0,0-0.1,0.1-0.1,0.1c0.3,0,0.5,0,0.8,0c0,0-0.1,0-0.1-0.1c-0.5-0.3-1.2,0.1-1.1,0.6c0,0,0,0.1,0,0.1
				C632.6,968.2,634.1,968.3,634,967.3L634,967.3z"/>
		</g>
	</g>
	<g>
		<g>
			<path class="st1" d="M634.9,956.3c-0.1,0.1,0.2,0,0.3,0c0.3,0,0.5,0.1,0.7,0.2c0.6,0.2,0.9,0.3,1.6,0.3c1,0,1-1.5,0-1.5
				c-0.6,0-1.2,0-1.8-0.1c-0.3-0.1-0.6-0.1-0.9,0c-0.3,0-0.5,0.1-0.8,0.2c-0.1,0-0.3,0.1-0.5,0.1c-0.4,0.2-0.3-0.2,0,0.3
				c0,0.3,0,0.5,0,0.8c-0.2,0.3,0,0.1,0.2,0.2c0.2,0.1,0.4,0.1,0.6,0.2c0.5,0.2,0.9,0.5,1.5,0.5c0.6,0,1.1-0.8,0.5-1.3
				c-0.8-0.7-1.8-0.6-2.7-1c-0.1,0.5-0.3,0.9-0.4,1.4c1.3-0.1,2.6-0.9,4-0.5c-0.1-0.5-0.1-0.9-0.2-1.4c-1.4,0.9-3.4-1-4.8,0.3
				c-0.2,0.2-0.3,0.5-0.2,0.7c0.3,0.8,1.2,1.2,2,1.3c0.4,0.1,0.8,0.1,1.3,0.1c0.2,0,1.1-0.2,1.3,0c0-0.3-0.1-0.6-0.1-0.9
				c0.2-0.2,0.1,0,0-0.1c-0.1-0.1-0.4-0.1-0.5-0.1c-0.2-0.1-0.5-0.1-0.7-0.1c-1-0.1-1,1.4,0,1.5c0.9,0.1,1.9,0.6,2.6-0.4
				c0.2-0.3,0.1-0.7-0.1-0.9c-0.5-0.5-1.4-0.5-2.1-0.4c-0.4,0-0.8,0-1.1,0c-0.2,0-0.4-0.1-0.6-0.2c-0.1,0-0.4-0.3-0.3-0.1
				c-0.1,0.2-0.1,0.5-0.2,0.7c0.2-0.2,1.7,0.2,2,0.3c0.9,0.1,1.7,0.2,2.5-0.3c0.5-0.4,0.5-1.2-0.2-1.4c-0.6-0.2-1.4-0.2-2-0.1
				c-0.4,0-0.7,0.1-1,0.2c-0.4,0.1-0.9,0.4-1.3,0.4c-0.7,0-1.1,1.1-0.4,1.4c0.4,0.2,0.9,0.4,1.3,0.5c0.3,0.1,0.8,0,1.1,0.3
				c0.2-0.4,0.4-0.9,0.5-1.3c-0.4,0-1-0.4-1.4-0.5c-0.4-0.1-0.8-0.2-1.2-0.2c-0.7,0.1-1.4,0.8-0.9,1.5c0.5,0.6,1.4,0.3,2,0.1
				c0.3-0.1,0.6-0.2,1-0.2c0.7,0,1.4,0.1,2.1,0.1c0-0.5,0-1,0-1.5c-0.7,0-1.3-0.4-2.1-0.4c-0.6,0-1.1,0.1-1.6,0.4
				C633.1,955.8,634.1,956.9,634.9,956.3L634.9,956.3z"/>
		</g>
	</g>
	<g>
		<g>
			<path class="st1" d="M637.7,940c0.1-0.1,0.1-0.2,0.2-0.3c0.3-0.5-0.1-1.1-0.6-1.1c-1.2-0.2-2.2,0.2-3.3,0.6
				c-0.8,0.3-1.8,0.7-2.5,1.4c-1.7,1.9-0.3,3.1,1.6,3.9c0.7,0.3,1.3,0.3,2,0.3c0.8,0,1.5,0.2,2.3,0.3c0.9,0,2.5,0,3.4-0.4
				c2-0.9-0.4-3.8-0.8-4.8c-0.2-0.4-0.7-0.4-1-0.3c-1,0.5-0.4,1.7-0.3,2.5c0.3-0.3,0.5-0.5,0.8-0.8c0.4,0-1-1.7-0.7-1.2
				c-0.4-0.6-1.7-0.3-1.4,0.6c0.3,0.6,0.5,1.3,0.8,1.9c0.4,0.8,1.5,0.2,1.4-0.6c-0.1-0.8-0.7-1.3-1-2.1c-0.4-0.8-1.5-0.2-1.4,0.6
				c0.2,1.2,1.1,1.8,1.7,2.8c0.4-0.3,0.8-0.6,1.2-0.9C639,941.6,638.6,940.6,637.7,940c-0.5-0.4-1.2,0-1.2,0.6
				c0,0.7,0.4,1.1,0.5,1.8c0.5-0.2,0.9-0.4,1.4-0.6c-0.4-0.7-0.5-1.4-1-2c-0.4-0.4-1.1-0.2-1.3,0.3c-0.2,0.9,0.6,1.5,0.5,2.3
				c0.4-0.1,0.8-0.2,1.3-0.3c-0.4-0.4-0.6-0.8-0.8-1.2c-0.3-0.5-1-0.5-1.3,0c-0.3,0.6-0.2,1.1-0.3,1.8c0.4-0.2,0.9-0.4,1.3-0.5
				c-0.2-0.2-0.3-0.4-0.3-0.7c-0.2-0.7-1.3-0.7-1.4,0c-0.1,0.3-0.1,0.6-0.2,0.8c0.3-0.2,0.6-0.3,0.9-0.5c-0.1,0-0.7-1-0.8-1.2
				c-0.4-0.3-1,0-1.1,0.4c0,0.2-0.1,0.5-0.2,0.6c0.4,0.1,0.8,0.1,1.2,0.2c-0.2-0.2-0.4-0.5-0.5-0.8c-0.4-0.6-1.4-0.4-1.4,0.4
				c0.1,0.2,0,0.3-0.1,0.5c0.4,0.1,0.8,0.1,1.2,0.2c-0.1-0.1-0.1-0.2-0.2-0.3c-0.3-0.5-1.3-0.5-1.4,0.2c0,0.1,0,0.3-0.1,0.4
				c0.5,0,1,0,1.4,0c0-0.1-0.1-0.3-0.1-0.4c-0.5,0.1-1,0.1-1.5,0.2c0.1,0.2,0.1,0.4,0.2,0.6c0.3,0.8,1.5,0.7,1.5-0.2
				c0-1.1,0.6-0.6,1-1c0.3-0.3,0.3-0.6,0.6-0.8c-0.3,0-0.6,0.1-0.9,0.1c0.3,0.2,0.4,0.6,0.6,0.9c0.4,0.7,1.3,0.3,1.4-0.4
				c0.1-0.3,0.1-0.7,0-1c-0.5,0.1-1,0.1-1.5,0.2c0.3,0.8,0.9,0.6,0,0.1c-0.3-0.2-0.6-0.2-1-0.1c-0.8,0.2-0.8,1.2-0.8,1.9
				c0,1,1.5,1,1.5,0c0,0.2,1.6,1.1,1.9,1.1c0.4,0,1.9-0.9,2.2-0.5c0-0.3,0.1-0.6,0.1-0.9c-1.2,1-2.1-0.9-3.2-0.7
				c-0.8,0.1-1,0.9-1.1,1.6c-0.1,1,1.4,1,1.5,0c0.1-0.1,0.1-0.2,0.2-0.2c-0.3,0-0.5,0-0.8,0c1.6,0.7,2.8,1.8,4.5,0.4
				c0.2-0.2,0.3-0.7,0.1-0.9c-0.5-0.7-0.8-0.8-1.7-0.8c-0.5,0-1,0.2-1.5,0.3c-0.7,0-0.1,0.3-0.8-0.4c-1.1-0.9-3-0.5-2.9,1
				c0.5,0,1,0,1.5,0c0-0.5-0.2-0.2,0-0.1c0.2,0.1,0.3,0.2,0.5,0.3c0.4,0.1,0.6,0.2,1,0c0.9-0.5,0.4-1.8,0.2-2.5
				c-0.2-0.8-1.5-0.7-1.5,0.2c0.1,0.3,0,0.7,0,1c0.5-0.1,0.9-0.3,1.4-0.4c-0.3-0.6-0.5-1.1-1.1-1.4c-0.3-0.2-0.7-0.1-0.9,0.1
				c-0.9,1.1-2,1.1-2,2.9c0.5-0.1,1-0.1,1.5-0.2c-0.1-0.2-0.1-0.4-0.2-0.6c-0.3-0.8-1.5-0.7-1.5,0.2c0,0.4,0,0.5,0.2,0.8
				c0.2,0.6,1.3,0.8,1.4,0c0-0.1,0-0.3,0.1-0.4c-0.5,0.1-0.9,0.1-1.4,0.2c0.1,0.1,0.1,0.2,0.2,0.3c0.3,0.4,0.8,0.5,1.2,0.2
				c0.4-0.4,0.5-1,0.5-1.5c-0.5,0.1-0.9,0.3-1.4,0.4c0.2,0.3,0.3,0.5,0.5,0.8c0.3,0.4,0.8,0.5,1.2,0.2c0.4-0.4,0.5-0.8,0.6-1.3
				c-0.4,0.1-0.7,0.3-1.1,0.4c0.5,0.4,0.3,1.2,1.2,1.3c0.4,0.1,0.8-0.1,0.9-0.5c0.1-0.3,0.1-0.6,0.2-0.8c-0.5,0-1,0-1.4,0
				c0.2,0.6,0.3,0.9,0.7,1.3c0.5,0.5,1.2,0.1,1.3-0.5c0-0.3-0.1-0.8,0.1-1c-0.4,0-0.9,0-1.3,0c0.3,0.6,0.6,1.1,1,1.5
				c0.4,0.4,1.1,0.3,1.3-0.3c0.1-0.8-0.6-1.6-0.5-2.3c-0.4,0.1-0.8,0.2-1.3,0.3c0.4,0.4,0.4,1.1,0.7,1.7c0.4,0.8,1.5,0.2,1.4-0.6
				c-0.1-0.5-0.4-0.9-0.5-1.4c-0.4,0.2-0.8,0.4-1.1,0.6c0.8,0.6,1.2,1.5,2,2.1c0.6,0.5,1.6-0.1,1.2-0.9c-0.5-0.8-1.4-1.4-1.5-2.4
				c-0.5,0.2-0.9,0.4-1.4,0.6c0.3,0.6,0.8,1,0.9,1.7c0.5-0.2,0.9-0.4,1.4-0.6c-0.2-0.5-0.5-1-0.7-1.5c-0.5,0.2-0.9,0.4-1.4,0.6
				c0.5,0.8,0.9,1.9,2,2c0.4,0,0.8-0.4,0.8-0.8c0-0.2-0.1-1.4-0.5-1.2c-0.3-0.1-0.7-0.2-1-0.3c0.3,0.6,0.6,1.2,0.9,1.8
				c0.4,0.8,0.6,0.7-0.2,1c-1.4,0.4-2.9,0-4.2-0.1c-0.8,0-1.8-0.1-2.4-0.7c-0.3,0-0.5-0.2-0.5-0.4c0.4-0.7,1.1-1.1,1.8-1.2
				c1.1-0.5,2-1,3.2-0.8c-0.2-0.4-0.4-0.8-0.6-1.1c-0.1,0.1-0.1,0.2-0.2,0.3C636,940.1,637.3,940.8,637.7,940L637.7,940z"/>
		</g>
	</g>
	<g>
		<g>
			<path class="st1" d="M629.8,976.7c0-0.1,0.1-0.1,0.1-0.2c-0.3,0.1-0.6,0.2-0.8,0.3c1.7,0.5,2.7,2.2,3,4.1
				c0.3,2.1,0.5,4.3,0.5,6.4c0,1,1.5,1,1.5,0c0-1.6-0.3-3.2-0.4-4.8c-0.1-1.3,0-2.7-0.5-3.8c-0.7-1.6-2.2-2.8-3.7-3.2
				c-0.3-0.1-0.7,0.1-0.8,0.3c0,0.1-0.1,0.1-0.1,0.2C627.9,976.7,629.2,977.5,629.8,976.7L629.8,976.7z"/>
		</g>
	</g>
	<g>
		<g>
			<path class="st1" d="M628.4,976.6C628.4,976.7,628.4,976.7,628.4,976.6c0.1-0.1,0.3-0.3,0.4-0.6c0,0-1.5-0.2-1.6-0.2
				c-0.8-0.1-1.2-0.3-2-0.1c-0.4,0.1-0.8,0.3-1.2,0.4c-0.4,0.1-0.6-0.1-1,0c-0.7,0.1-1,0.4-1.4,0.9c0.2-0.1,0.4-0.2,0.6-0.4
				c-0.7-0.1-0.6,0.5-1.1-0.1c-0.6-0.7-1.7,0.3-1.1,1.1c0.3,0.4,0.6,0.9,1.2,0.9c0.3,0,1-0.4,1-0.4c0.3,0,0.5-0.2,0.6-0.4
				c0.1-0.1,1.6-0.2,1.7-0.3c0.8-0.3,1.3-0.4,2.1-0.3c0.9,0.1,2,0.6,2.9,0.1c0.2-0.1,0.4-0.4,0.4-0.6c0,0,0-0.1,0-0.1
				C629.8,975.7,628.3,975.7,628.4,976.6L628.4,976.6z"/>
		</g>
	</g>
	<g>
		<g>
			<path class="st1" d="M629.5,975.2c-5.9-0.6-10.9,2.1-16.7,2.5c-1,0.1-1,1.6,0,1.5c5.8-0.4,10.8-3.1,16.7-2.5
				C630.5,976.8,630.4,975.3,629.5,975.2L629.5,975.2z"/>
		</g>
	</g>
	<g>
		<g>
			<path class="st1" d="M611.5,979.4c0.7,2.9,3.8,2.5,5.8,3.9c3.1,2.1,3.3,7.1,5.1,10.3c1,1.8,1.9,3,2.4,5.1c0.2,1,0.2,2.6,0.8,3.4
				c0.2,0.3,0.5,0.4,0.8,0.3c0.1,0,0.1,0,0.2,0c0.3-0.1,0.5-0.4,0.6-0.7c-0.1,0.1-0.1,0.2-0.2,0.3c0.9-0.4,0.1-1.7-0.8-1.3
				c-1.3,0.6,0.4,1.2,0.6,0.7c0.2-0.7-0.8-4.4-1.1-5.2c-0.6-1.6-1.7-3.2-2.5-4.7c-1-1.9-1.4-3.6-2.1-5.6c-0.8-2.2-2.2-3.8-4.4-4.9
				c-0.9-0.5-3.6-0.5-3.9-2.1C612.7,978,611.3,978.4,611.5,979.4L611.5,979.4z"/>
		</g>
	</g>
	<g>
		<g>
			<path class="st1" d="M626.8,1001.4c-0.1-0.7-0.6-1.8-0.2-2.4c0.3-0.5,1.3-0.6,1.7-1c1-1,1.6-2.5,2.6-3.6c1-1.1,1.3-2.4,2-3.7
				c0.5-1,0.4-2.2,1-3.1c0.5-0.8-0.8-1.6-1.3-0.8c-0.7,1.2-1,2.6-1.5,3.9c-0.6,1.5-1.6,2.6-2.5,3.9c-0.3,0.5-0.6,1-0.9,1.5
				c-0.7,1-1.8,1.2-2.4,2c-0.9,1.1-0.1,2,0.1,3.3C625.4,1002.4,626.9,1002.4,626.8,1001.4L626.8,1001.4z"/>
		</g>
	</g>
	<g>
		<g>
			<path class="st1" d="M613.8,979.9c0,0,0,0.1,0,0.1c0.1,0.3,0.3,0.5,0.5,0.5c2.1,0.6,4.1,2.2,5.6,3.8c1.7,1.8,2.5,3.9,3.4,6.1
				c0.4,0.9,1.8,0.5,1.4-0.4c-1-2.5-1.8-4.8-3.8-6.8c-0.8-0.8-1.8-1.8-2.7-2.5c-0.2-0.2-3.1-1.7-3.1-1.3
				C615.1,978.6,613.7,979,613.8,979.9L613.8,979.9z"/>
		</g>
	</g>
	<g>
		<g>
			<path class="st1" d="M621.1,986.2c0.8,1.1,1.2,3,1.6,4.3c0.5,1.5,1.2,3.4,1.3,4.9c0.1,1,1.6,1,1.5,0c-0.1-1.7-0.9-3.7-1.4-5.3
				c-0.5-1.5-0.8-3.4-1.8-4.6C621.8,984.7,620.5,985.4,621.1,986.2L621.1,986.2z"/>
		</g>
	</g>
	<g>
		<g>
			<path class="st1" d="M621.3,988.5c1.6,2.5,3.5,4.8,4.8,7.4c0.1-0.3,0.2-0.7,0.3-1c-0.1,0-0.2,0.1-0.2,0.1c0.3,0,0.6,0.1,0.9,0.1
				c-0.1-0.1,1.8-1.9,2-2.1c0.6-0.9,1.1-1.9,1.5-2.9c0.3-0.9-0.9-1.2-1.4-0.6c-1.4,1.9-3.8,4.5-2.9,7.1c0.2,0.5,1.1,0.8,1.4,0.2
				c0.5-1,1.1-2,1.4-3.1c0.3-0.9-1.1-1.3-1.4-0.4c-0.4,1-0.9,1.9-1.2,2.9c-0.1,0.4,0.1,0.8,0.5,0.9c2,0.4,3.4-2.9,4-4.3
				c1.2-2.6,2.2-6,0.8-8.5c-0.5-0.8-1.8-0.1-1.3,0.8c1,1.8,0.1,4-0.5,5.9c-0.2,0.7-1.7,4.9-2.7,4.8c0.2,0.3,0.3,0.6,0.5,0.9
				c0.3-1,0.8-1.9,1.2-2.9c-0.5-0.1-1-0.3-1.4-0.4c-0.3,0.8-0.9,2-1.3,2.8c0.5,0.1,0.9,0.1,1.4,0.2c-0.8-2.1,1.6-4.5,2.7-5.9
				c-0.5-0.2-0.9-0.4-1.4-0.6c-0.3,0.9-0.8,2-1.5,2.7c-0.5,0.6-1.2,0.8-1.6,1.3c-0.6,0.8-0.7,1.8,0,2.5c0.2,0.3,0.6,0.3,0.9,0.1
				c0.1,0,0.2-0.1,0.2-0.1c0.4-0.2,0.4-0.7,0.3-1c-1.4-2.6-3.2-4.9-4.8-7.4C622.1,987,620.8,987.7,621.3,988.5L621.3,988.5z"/>
		</g>
	</g>
	<g>
		<g>
			<path class="st1" d="M630.6,984.2c0.6,0.8,0.4,3.4,0,4.2c-0.4,0.8-0.9,1.8-1.5,2.6c-0.6,0.8,0.7,1.5,1.3,0.8
				c0.8-1.1,1.6-2.6,1.8-3.9c0.2-1.3,0.5-3.3-0.4-4.4C631.4,982.7,630.1,983.4,630.6,984.2L630.6,984.2z"/>
		</g>
	</g>
	<g>
		<g>
			<path class="st1" d="M629.7,981.3c0.8,0.7,0.5,2.3,0.5,3.3c0,1,0,2.7-0.7,3.5c-0.6,0.7,0.4,1.8,1.1,1.1c1.1-1.2,1.1-3.1,1.1-4.6
				c0-1.6,0.4-3.3-0.9-4.4C630,979.6,628.9,980.7,629.7,981.3L629.7,981.3z"/>
		</g>
	</g>
	<g>
		<g>
			<path class="st1" d="M629.9,978.6c0.8,1.9,0.4,4.4,0.2,6.4c-0.1,0.9-0.2,4-1.2,4.6c-0.8,0.5-0.1,1.8,0.8,1.3
				c1.4-0.9,1.7-3.3,1.9-4.7c0.3-2.7,0.8-5.8-0.3-8.4C630.8,977,629.5,977.8,629.9,978.6L629.9,978.6z"/>
		</g>
	</g>
	<g>
		<g>
			<path class="st1" d="M629.7,980.7c1.1,0.8,0.6,3.6,0.2,4.8c-0.4,1.5-0.9,3.2-2,4.3c-0.7,0.7,0.4,1.8,1.1,1.1
				c1.5-1.5,2.3-4.1,2.6-6.1c0.3-2,0.6-4-1.2-5.3C629.6,978.8,628.9,980.1,629.7,980.7L629.7,980.7z"/>
		</g>
	</g>
	<g>
		<g>
			<path class="st1" d="M629.5,980.6c-0.5,0.1-0.1-0.2-0.2,0.5c0,0.2,0,0.4,0,0.6c0,1.4-0.2,2.8-0.4,4.1c-0.2,0.8-0.7,5.1-1.5,5.4
				c-0.9,0.3-0.5,1.8,0.4,1.4c1-0.4,1.2-1.3,1.5-2.2c0.6-2,1.1-4.1,1.4-6.2c0.1-1.1,0.9-5.7-1.5-5.1
				C628.2,979.4,628.6,980.8,629.5,980.6L629.5,980.6z"/>
		</g>
	</g>
	<g>
		<g>
			<path class="st1" d="M628.4,982c0.3,0.1-1,9.9-2.2,10.2c-0.9,0.3-0.5,1.7,0.4,1.4c0.9-0.3,1.1-0.9,1.4-1.8
				c0.6-1.8,1.1-3.6,1.4-5.4c0.2-1.3,1.5-5.4-0.6-6C627.9,980.3,627.5,981.8,628.4,982L628.4,982z"/>
		</g>
	</g>
	<g>
		<g>
			<path class="st1" d="M628.2,979.9c0.1-0.1,0.2-0.2,0.3-0.3c-0.4-0.1-0.8-0.1-1.2-0.2c0.7,1.5,0,4.5-0.2,6.1
				c-0.2,1.4-0.5,5.2-1.8,6.1c-0.8,0.6,0,1.9,0.8,1.3c1.8-1.2,2.2-4.7,2.5-6.7c0.3-2.2,1.1-5.6,0.1-7.6c-0.2-0.4-0.8-0.5-1.2-0.2
				c-0.1,0.1-0.2,0.2-0.3,0.3C626.5,979.5,627.5,980.5,628.2,979.9L628.2,979.9z"/>
		</g>
	</g>
	<g>
		<g>
			<path class="st1" d="M626.1,979.8c0.6,0.3,0.2,4.2,0.2,4.7c-0.1,1.4-0.1,4.5-1.2,5.5c0.3,0,0.6-0.1,0.9-0.1
				c-0.1,0-0.1-0.1-0.2-0.1c-0.8-0.6-1.5,0.7-0.8,1.3c0.1,0,0.1,0.1,0.2,0.1c0.3,0.2,0.7,0.1,0.9-0.1c1.6-1.5,1.6-4.9,1.7-7
				c0.1-1.4,0.6-4.8-0.9-5.7C626,978,625.2,979.3,626.1,979.8L626.1,979.8z"/>
		</g>
	</g>
	<g>
		<g>
			<path class="st1" d="M625,978.6c0.8,0.9,0.6,4,0.7,5.1c0,0.6,0.1,5.1-0.7,5.6c-0.8,0.5-0.1,1.8,0.8,1.3c1.5-0.9,1.4-4.5,1.4-6
				c0.1-1.9,0.2-5.5-1.1-7.1C625.4,976.8,624.4,977.9,625,978.6L625,978.6z"/>
		</g>
	</g>
	<g>
		<g>
			<path class="st1" d="M623.3,979.9c1,2.2,1.4,5.3,1,7.7c0.2-0.2,0.3-0.3,0.5-0.5c0,0-0.1,0-0.1,0c-0.9,0.2-0.5,1.7,0.4,1.4
				c0,0,0.1,0,0.1,0c0.2-0.1,0.5-0.3,0.5-0.5c0.5-2.8,0.1-6.2-1.1-8.8C624.2,978.3,622.9,979,623.3,979.9L623.3,979.9z"/>
		</g>
	</g>
	<g>
		<g>
			<path class="st1" d="M621.8,980.3c0.7,1.4,1.1,2.9,1.4,4.4c0.1,0.3,0.4,3.2,0.8,3c-0.9,0.5-0.1,1.7,0.8,1.3
				c1.1-0.6,0.3-2.2,0.2-3.2c-0.4-2.2-0.8-4.4-1.9-6.3C622.7,978.7,621.4,979.4,621.8,980.3L621.8,980.3z"/>
		</g>
	</g>
	<g>
		<g>
			<path class="st1" d="M621.4,983.7c0.4,1.1,0.6,2.1,0.9,3.2c0.1,0.2,0.1,0.4,0.2,0.6c0.1,0.2,0.1,0.4,0.2,0.5
				c0.2,0.4-0.3,0.1,0.3-0.1c-0.9,0.4-0.1,1.7,0.8,1.3c0.8-0.4,0.5-1.4,0.2-2.1c-0.4-1.3-0.7-2.6-1.2-3.8
				C622.5,982.4,621.1,982.8,621.4,983.7L621.4,983.7z"/>
		</g>
	</g>
	<g>
		<g>
			<path class="st1" d="M619.9,981.7c0.4,0.8,0.7,1.7,1,2.5c0.3,0.8,0.8,1.6,0.9,2.5c0.5-0.1,0.9-0.3,1.4-0.4
				c-0.1-0.1-0.1-0.2-0.2-0.3c-0.5-0.8-1.8-0.1-1.3,0.8c0.1,0.1,0.1,0.2,0.2,0.3c0.4,0.6,1.5,0.4,1.4-0.4c-0.1-0.9-0.4-1.7-0.8-2.6
				c-0.4-1-0.8-2.1-1.3-3.1C620.7,980.1,619.5,980.8,619.9,981.7L619.9,981.7z"/>
		</g>
	</g>
	<g>
		<g>
			<path class="st1" d="M618.5,980.1c0.2,0.9,0.6,1.6,1,2.4c0.3,0.7,0.4,1.4,1,2c0.7,0.7,1.7-0.4,1.1-1.1c-0.1-0.1-0.2-0.2-0.3-0.3
				c-0.6-0.8-1.9,0-1.3,0.8c0.2,0.2,0.3,0.4,0.5,0.6c0.4-0.4,0.7-0.7,1.1-1.1c-0.4-0.4-0.5-1.1-0.8-1.7c-0.3-0.7-0.7-1.3-0.8-2
				C619.8,978.7,618.3,979.1,618.5,980.1L618.5,980.1z"/>
		</g>
	</g>
	<g>
		<g>
			<path class="st1" d="M618.7,979.3c-0.4,0-0.6,0.3-0.9,0.3c-0.5,0.1-0.7-0.4-1.1-0.8c-0.6-0.7-1.5,0.2-1.2,0.9
				c0.7,1.4,1.5,0.9,2.8,0.6c1-0.2,2.3,0,3.2,0.5c0.4,0.2,1.2,0.6,1.4,1c0-0.3,0-0.5,0-0.8c0.1-0.1,0.1-0.1,0.2-0.2
				c-0.9,0.2-0.5,1.6,0.4,1.4c1.9-0.4-0.1-2.1-0.8-2.5c-1-0.6-2-0.9-3.2-1.1c-0.6-0.1-1.1,0-1.6,0.1c-0.3,0.1-0.7,0.3-1,0.3
				c-0.2,0,0.2,0.4-0.1-0.2c-0.4,0.3-0.8,0.6-1.2,0.9c0.5,0.5,0.8,1.2,1.5,1.4c0.3,0.1,0.5,0.1,0.8,0c0.2-0.1,0.5-0.5,0.7-0.5
				C619.7,980.8,619.7,979.3,618.7,979.3L618.7,979.3z"/>
		</g>
	</g>
	<g>
		<g>
			<path class="st1" d="M618.5,981.4c1-0.6,2-1.1,3.2-0.9c0.5,0.1,1.2,0.4,1.5,0.9c0.1,0.1,0.2,0.9,0,1c-0.9,0.2-0.5,1.7,0.4,1.4
				c0.8-0.2,1.1-1,1.2-1.7c0.2-0.9-0.2-1.6-0.9-2.2c-1.9-1.6-4.2-0.9-6.1,0.2C617,980.6,617.7,981.9,618.5,981.4L618.5,981.4z"/>
		</g>
	</g>
	<g>
		<g>
			<path class="st1" d="M619.3,980.5c0.1-0.1,0.3-0.1,0.5-0.1c0.2-0.1,0.5-0.2,0.7-0.2c0.7-0.4,1-0.1,1,0.9c-0.8,0.1,2-1.8,2.1-1.8
				c0.1,0,5.2-0.5,4.9,0c0.4,0,0.7,0,1.1,0c0.5,0.5,1.6,3.6,1.1,2.1c-0.1-1.3,0.1-0.9,0.5,1.3c-0.5-0.5-0.7-1.1-0.8-1.8
				c-0.4,0.3-0.7,0.6-1.1,0.8c0.5,0.5,0.6,1.1,0.4,1.8c0.4,1.2-0.1,2-1.4,2.2c-2.3,1.5-0.9,0.6-2.8,0.3c-0.5-0.1-1-0.2-1.4,0.1
				c-1.4,1-0.6,4-0.3,5.4c0.5-0.1,1-0.3,1.4-0.4c-0.1-0.4-0.4-2.5-0.1-3.1c-0.3,0.1-0.7,0.2-1,0.3c0.6,0.3,1.4,4.4,1.4,4.9
				c0.1,0.9,1.5,1,1.5,0c0-1.8-0.5-3.6-0.9-5.3c-0.3-0.9-1.7-0.5-1.4,0.4c0.6,2.5,1.5,5.5,1.2,8.2c0.4-0.2,0.9-0.4,1.3-0.5
				c-0.1-0.2-1-1.8-0.9-1.7c-0.4-0.6-1.5-0.4-1.4,0.4c0.1,0.7,0.1,0.8,0.3,1.5c0.2,0.8,1.5,0.7,1.5-0.2c0-0.4-0.1-0.8-0.1-1.2
				c-0.5,0.1-1,0.1-1.5,0.2c0.1,0.5,0.1,1,0.2,1.5c0.5-0.1,1-0.1,1.5-0.2c-2-5.2-2.5-11.2-5.3-16.1c-0.4-0.8-1.5-0.2-1.4,0.6
				c0.1,1,0.4,1.9,0.7,2.8c0.5-0.2,0.9-0.4,1.4-0.6c-0.4-0.7-0.5-1.4-0.5-2.2c-0.4,0.1-0.8,0.2-1.3,0.3c1.1,0.9,1.5,2.3,1.9,3.7
				c0.5-0.1,1-0.3,1.4-0.4c-0.2-0.5-1.4-2.8-1.1-3.5c-0.4,0.1-0.8,0.1-1.2,0.2c0.6,0.8,0.9,1.7,1,2.8c0.4-0.2,0.8-0.4,1.1-0.6
				c-1.5-0.8-1.6-3.1-3.4-3.8c-0.3-0.1-0.7,0.1-0.8,0.3c-0.5,0.7,0.5-0.1-0.4-0.2c-0.1,0-0.9,0-1,0c-0.5-0.2-1.4-0.7-1.4-0.7
				c-0.1,0.3-0.2,0.7-0.3,1c0.3-0.1,3-0.9,3.1-0.5c0.3-0.3,0.6-0.6,0.9-0.9c-1.1-0.4-1.8-0.8-2.9,0c-0.7,0.5-0.3,1.5,0.6,1.4
				c0.4,0,0.8,0,1.2,0c-0.1-0.5-0.1-1-0.2-1.5c-0.2,0-0.3,0.1-0.5,0.1c-0.9,0.3-0.5,1.7,0.4,1.4c0.2,0,0.3-0.1,0.5-0.1
				c0.8-0.2,0.6-1.4-0.2-1.5c-0.8-0.1-0.8-0.1-1.6,0.1c0.2,0.5,0.4,0.9,0.6,1.4c0.7-0.5,1.2-0.1,1.7,0.1c0.6,0.2,1-0.4,0.9-0.9
				c0-0.2-0.1-0.4-0.1-0.5c-0.1-0.2-0.3-0.5-0.5-0.5c-1.6-0.3-3.2,0-4.7,0.7c-0.4,0.2-0.5,0.7-0.3,1c0.4,0.6,1.4,1.3,2,1.5
				c1,0.2,1.1-0.1,1.4,0.4c0.2,0.2,0.5,0.3,0.7,0.2c1.4-0.4,0.3-1.3,1.4,0.3c0.7,1,1,2,2,2.6c0.5,0.3,1.2-0.1,1.1-0.6
				c-0.1-1.3-0.4-3-1.5-3.8c-0.3-0.3-1-0.3-1.2,0.2c-0.6,1.4,0.4,3.4,0.9,4.7c0.3,0.9,1.8,0.5,1.4-0.4c-0.5-1.6-1-3.2-2.3-4.3
				c-0.4-0.4-1-0.2-1.3,0.3c-0.4,1.1,0.2,2.3,0.6,3.4c0.4,0.8,1.6,0.2,1.4-0.6c-0.3-0.9-0.6-1.8-0.7-2.8c-0.5,0.2-0.9,0.4-1.4,0.6
				c2.7,4.8,3.2,10.6,5.1,15.7c0.3,0.7,1.5,0.7,1.5-0.2c0-0.8-0.1-1-0.2-1.9c-0.1-0.8-1.5-0.6-1.5,0.2c0,0.4,0.1,0.8,0.1,1.2
				c0.5-0.1,1-0.1,1.5-0.2c-0.1-0.4-0.1-0.7-0.2-1.1c-0.5,0.1-0.9,0.3-1.4,0.4c0.5,0.9,0.6,1.3,1.1,2c0.4,0.6,1.2,0,1.3-0.5
				c0.3-2.8-0.6-5.9-1.3-8.6c-0.5,0.1-1,0.3-1.4,0.4c0.4,1.5,0.9,3.3,0.9,4.9c0.5,0,1,0,1.5,0c-0.2-1.6-0.6-5.3-2.2-6.2
				c-0.3-0.2-0.9-0.1-1,0.3c-0.6,1.3-0.4,3-0.1,4.3c0.3,0.9,1.6,0.5,1.4-0.4c-0.4-2.2-0.5-2.5,1.8-2.9c0.2,0,0.4,0.1,0.6,0.1
				c1.5-0.3,2.4-0.6,3.2-1.9c0.9-1.6,1.1-5-0.7-6.1c-0.6-0.4-1.2,0.2-1.1,0.8c0.3,1.3,1.2,3.6,2.9,3.2c1.4-0.3,1.6-2.2,1.2-3.3
				c-0.4-1.2-1.9-3-3.3-1.9c-1.3,1-0.5,3.7,0.2,4.7c0.2,0.2,0.5,0.5,0.8,0.3c2.1-0.8,1.4-5.9-0.4-6.8c-2.3-1.1-3.4,2.5-1.3,3.2
				c1.9,0.6,2.5-1.8,1.1-2.8c-2-1.5-3.3,0.8-1.8,2.4c0.3,0.3,0.8,0.3,1.1,0c0.1-0.1,0.2-0.3,0.3-0.4c0.2-0.3,0.3-0.6,0.1-0.9
				c-2.2-4-6.2,0.4-3.6,2.1c2.4,1.6,3.8-4,0.4-3.9c-4.4,0.1-3.2,7.1-0.6,5.8c2.8-1.5-0.9-6.9-3.9-5c-0.2,0.1-0.4,0.4-0.4,0.6
				c0.1,1.5,0.6,2.3,2,2.9c0.3,0.1,0.6,0.1,0.9-0.1c1.2-1.1,2.1-4-0.2-4.4c-2.2-0.4-3.1,2.8-2,4.2c2.7,3.7,5.4-5.1,0.5-3.1
				c-1.6,0.7-2.6,3.4-0.4,4.1c1.7,0.5,2.9-1.4,2.2-2.8c-2.3-4.9-7.5,3.2-3.3,3.5c0.3,0,0.5-0.2,0.6-0.4c0.7-1.2,0.8-4.6-1.5-4.1
				c-2.4,0.5-1.1,3.7,0.1,4.5c0.2,0.1,0.5,0.1,0.8,0c1.3-0.8,2.1-3.1,0.7-4.3c-1-0.8-2.7-0.2-3.8,0.4
				C617.7,979.7,618.4,981,619.3,980.5L619.3,980.5z"/>
		</g>
	</g>
	<g>
		<g>
			<path class="st1" d="M614.2,978.8c-0.7,0.2-0.4,0.3-0.3,0.2c-0.6,0.4-0.7,0.1-1.2,0.8c-0.6,0.8,0.7,1.5,1.3,0.8
				c0.2-0.2,3.5-0.6,4-0.7c0.9-0.3,1.9-0.6,2.8-0.7c1.4-0.2,1.9,0.6,3.3,0.3c1.3-0.3,2.6-1,3.8-1.3c1.5-0.4,1.8,0.1,2.4,1.8
				c0.3,0.9,1.7,0.5,1.4-0.4c-0.4-1.1-1-2.6-2.1-3.2c-0.2-0.1-0.5-0.1-0.8,0c-0.6,0.4-0.6-0.2-1.2,0c-0.5,0.2-0.7,0.5-1.2,0.7
				c-0.7,0.3-1.8,0.4-2.5,0.5c-0.2,0-0.5,0.4-0.7,0.4c0.1,0-1.5-1.1-1.3-1c-0.2-0.1-0.5-0.2-0.8,0c-1.9,1.3-4.2,1.6-6.4,2
				c-1.1,0.2-1.4-0.1-2.1,0.8c0.4,0.3,0.9,0.5,1.3,0.8c0,0,0,0,0,0c0.3,0.1,0.7,0,0.8-0.3c-0.1,0-0.1,0-0.2,0
				C615.5,980,615.1,978.6,614.2,978.8L614.2,978.8z"/>
		</g>
	</g>
	<g>
		<g>
			<path class="st1" d="M623.6,1013.1c-0.5,0.9-0.4,1.9-0.3,2.8c0.1,0.8,0.1,1.3,0,2.1c-0.1,0.7,0,1.5,0,2.2c0,1,1.5,1,1.5,0
				c0,0,0-0.1,0-0.1c0-1-1.5-1-1.5,0c0,0,0,0.1,0,0.1c0.5,0,1,0,1.5,0c0-1.1,0.2-2.2,0.2-3.3c0-1-0.6-2.2-0.1-3.1
				C625.4,1013,624.1,1012.3,623.6,1013.1L623.6,1013.1z"/>
		</g>
	</g>
	<g>
		<g>
			<path class="st1" d="M624.1,1014.9c0.7-0.4,0.1,1.3,0.1,1.7c-0.1,0.6-0.1,1.2-0.2,1.8c-0.1,1-0.5,2-0.6,3c-0.1,1,1.4,1,1.5,0
				c0.2-2,1.2-4.1,1-6.2c-0.1-1.6-1.1-2.4-2.5-1.7C622.5,1014,623.3,1015.3,624.1,1014.9L624.1,1014.9z"/>
		</g>
	</g>
	<g>
		<g>
			<path class="st1" d="M620.2,1029.7c-0.3,0.6-0.8,1.1-1.2,1.6c-0.4,0.6-0.6,1.2-0.9,1.9c-0.4,1.1-1.3,2.3-1.3,3.5
				c0,0.7,1,1.1,1.4,0.4c0.7-1.3,1.1-2.8,1.8-4.2c0.5-1,1.3-2.3,1.2-3.5c0-0.7-0.8-0.9-1.3-0.5c-1.2,1-1.2,3.2-1.9,4.6
				c-0.4,0.9,0.9,1.6,1.3,0.8c0.3-0.7,0.6-1.3,0.8-2.1c0.2-0.7,0.2-1.7,0.9-2.2c-0.4-0.2-0.9-0.4-1.3-0.5c0,1.1-1,2.7-1.5,3.6
				c-0.5,1.1-0.8,2.3-1.3,3.3c0.5,0.1,0.9,0.3,1.4,0.4c0-0.3,0.3-0.7,0.4-1c0.2-0.6,0.5-1.2,0.8-1.8c0.5-1.3,1.4-2.2,2-3.4
				C622,1029.6,620.7,1028.8,620.2,1029.7L620.2,1029.7z"/>
		</g>
	</g>
	<g>
		<g>
			<path class="st1" d="M671,1490.6c-0.8,0.3-1.5,0.7-2.3,0.9c-1.2,0.3-2.5,0.4-3.7,0.5c-1.5,0.2-3,0.3-4.5,0.7
				c-0.8,0.2-0.7,1.5,0.2,1.5c3-0.2,6.7-0.6,9.4-2.1c0.9-0.5,0.1-1.7-0.8-1.3c-0.3,0.2-6.3,1.5-6.3,1.5c0,0.3-0.1,0.6-0.1,0.9
				c0.5-0.4,1.8-0.6,2.4-0.8c1.3-0.4,2.7-0.6,4-0.9c0.6-0.1,0.7-1.1,0.2-1.4c-0.6-0.3-0.9-0.3-1.6-0.2c-1.4,0.2-2.7,0.5-4.1,0.3
				c0.1,0.4,0.2,0.8,0.3,1.3c0.7-0.7,3.5-0.8,4.4-1c0.8-0.2,0.7-1.5-0.2-1.5c-1.4,0.1-3.2,0.6-4.6,0.4c0.1,0.4,0.2,0.8,0.3,1.3
				c0.6-0.7,2.4-1,3.4-1.1c-0.1-0.5-0.3-1-0.4-1.4c-0.6,0.2-2,0.4-2.6,0.3c0.1,0.4,0.3,0.7,0.4,1.1c0.3-0.2,0.5-0.4,0.8-0.5
				c-0.1-0.5-0.3-1-0.4-1.4c-0.3,0.1-0.6,0.1-0.9,0.2c0.2,0.4,0.4,0.8,0.6,1.1c0.2-0.3,0.4-0.6,0.6-0.9c0.4-0.5-0.1-1.1-0.6-1.1
				c-0.7,0-1,0.1-1.7,0.1c0.2,0.3,0.5,0.6,0.7,0.9c0.1-0.2,0.3-0.5,0.4-0.7c0.4-0.5-0.1-1.1-0.6-1.1c-0.6,0-0.4-0.1-0.4,0.4
				c-0.1-0.6-0.6-0.9-1.1-0.6c-0.4,0.2-0.5,0.3-0.7,0.6c-0.3,0.5,0.1,1.1,0.6,1.1c0.2,0,0.4,0.1,0.6,0.1c-0.2-0.3-0.3-0.6-0.5-0.9
				c-0.2,0.4-0.5,0.7-0.9,1c0.3,0.4,0.6,0.8,0.9,1.2c0.2-0.2,0.5-0.3,0.7-0.5c-0.3-0.3-0.7-0.7-1-1c-0.2,0.3-0.4,0.6-0.6,1
				c-0.3,0.6,0.2,1.3,0.8,1.1c0.4-0.1,1-0.4,1.4-0.4c-0.2-0.3-0.5-0.6-0.7-0.9c-0.1,0.3-0.9,0.7-1.1,1c-0.4,0.5,0,1.6,0.7,1.3
				c0.3-0.1,0.6-0.2,0.9-0.3c-0.2-0.4-0.4-0.9-0.5-1.3c-0.5,0.5-0.9,0.9-1.3,1.4c-0.5,0.6,0,1.4,0.7,1.3c0.1,0,0.2,0,0.3,0
				c-0.3-0.2-0.6-0.5-0.9-0.7c0-0.1,0-0.1,0-0.2c0.2,0.5,0.4,0.9,0.6,1.4c0.1-0.1,0.2-0.2,0.3-0.3c0.5-0.4,0.4-1.4-0.4-1.4
				c-0.6,0-0.8,0.2-1.4,0.5c-0.7,0.4-0.3,1.7,0.6,1.4c0.6-0.2,1.3-0.8,1.5-0.2c0,0.3,0.3,0.4,0.5,0.5c0.5,0.2,1.1,0,1.6-0.3
				c0.8-0.5,0.1-1.8-0.8-1.3c-0.1,0.1-0.4,0.1-0.5,0.2c-0.2,0.3,0.5,0.2,0.5,0.2c0-0.3-0.3-0.7-0.6-0.8c-0.8-0.5-1.9,0-2.7,0.3
				c0.2,0.5,0.4,0.9,0.6,1.4c0.2-0.1,0.4-0.2,0.6-0.3c-0.1-0.5-0.3-0.9-0.4-1.4c-0.1,0.1-0.2,0.2-0.3,0.3c-0.6,0.5-0.3,1.6,0.6,1.4
				c0.7-0.2,1-0.5,1.1-1.3c0.1-0.5-0.5-0.8-0.9-0.7c-0.1,0-0.2,0-0.3,0c0.2,0.4,0.5,0.8,0.7,1.3c0.4-0.5,0.8-0.9,1.3-1.4
				c0.5-0.4,0.1-1.3-0.5-1.3c-0.5,0-0.9,0.1-1.3,0.3c0.2,0.4,0.5,0.8,0.7,1.3c0.5-0.6,1.3-0.9,1.5-1.7c0.1-0.4-0.2-1-0.7-0.9
				c-0.6,0.1-1.2,0.3-1.8,0.5c0.3,0.4,0.6,0.7,0.8,1.1c0.2-0.4,0.4-0.6,0.6-1c0.3-0.6-0.4-1.5-1-1c-0.4,0.2-0.7,0.5-1,0.7
				c-0.7,0.5,0.2,1.7,0.9,1.2c0.7-0.5,1.2-1,1.6-1.9c0.2-0.4-0.2-0.8-0.5-0.9c-0.4-0.1-0.5-0.2-1-0.2c0.2,0.4,0.4,0.8,0.6,1.1
				c0,0,0.1-0.1,0.1-0.1c-0.4-0.2-0.8-0.4-1.1-0.6c0.1,1.1,0.9,1.1,1.9,1.1c-0.2-0.4-0.4-0.8-0.6-1.1c-0.3,0.4-0.4,0.5-0.6,1
				c-0.2,0.5,0.3,1,0.7,0.9c0.5,0,1.3-0.2,1.7-0.1c-0.2-0.4-0.4-0.8-0.6-1.1c-0.2,0.3-0.4,0.6-0.6,0.9c-0.3,0.5,0.1,1.1,0.6,1.1
				c0.7,0,0.7,0,1.3-0.2c0.9-0.3,0.5-1.8-0.4-1.4c-0.7,0.2-1.3,0.5-1.7,1.2c-0.2,0.4-0.1,1,0.4,1.1c1.1,0.2,2.4,0,3.4-0.3
				c0.9-0.3,0.5-1.6-0.4-1.4c-1.3,0.2-3.1,0.5-4,1.5c-0.3,0.4-0.3,1.1,0.3,1.3c1.6,0.3,3.3-0.2,5-0.3c-0.1-0.5-0.1-1-0.2-1.5
				c-1.6,0.5-3.8,0.2-5.1,1.4c-0.4,0.4-0.2,1.2,0.3,1.3c0.9,0.1,1.8,0.1,2.8,0.1c0.6,0,2-0.6,2.5-0.3c0.1-0.5,0.1-0.9,0.2-1.4
				c-2.1,0.4-5.4,0.6-7.1,2c-0.2,0.2-0.3,0.7-0.1,0.9c0.7,0.9,2,0.5,3,0.3c1.7-0.4,3.7-0.5,5.3-1.2c-0.3-0.4-0.5-0.9-0.8-1.3
				c-2.4,1.3-5.9,1.7-8.6,1.9c0.1,0.5,0.1,1,0.2,1.5c1.7-0.5,3.5-0.5,5.2-0.8c1.9-0.3,3.5-0.8,5.3-1.4
				C672.3,1491.8,671.9,1490.3,671,1490.6L671,1490.6z"/>
		</g>
	</g>
	<g>
		<g>
			<path class="st1" d="M664.9,1494.8c1,0,1-1.5,0-1.5C663.9,1493.3,663.9,1494.8,664.9,1494.8L664.9,1494.8z"/>
		</g>
	</g>
	<g>
		<g>
			<path class="st1" d="M665.4,1495.7c0,0.5,0.1,0.9,0.2,1.3c0,0.4-0.1,0.8-0.1,1.2c-0.1,0.4,0.1,0.8,0.5,0.9
				c0.4,0.1,0.9-0.1,0.9-0.5c0.1-0.5,0.2-0.9,0.2-1.4c0-0.5-0.2-1-0.2-1.5C667,1494.7,665.5,1494.7,665.4,1495.7L665.4,1495.7z"/>
		</g>
	</g>
	<g>
		<g>
			<path class="st1" d="M665.4,1494.4c0,1,0.5,2,0.5,3c0,0.5,0,1.8-0.5,2.1c-0.9,0.4-0.1,1.7,0.8,1.3c0.9-0.4,1.1-1.5,1.2-2.4
				c0.1-0.5,0.1-1,0-1.6c-0.1-0.8-0.5-1.6-0.5-2.4C666.9,1493.4,665.4,1493.4,665.4,1494.4L665.4,1494.4z"/>
		</g>
	</g>
	<g>
		<g>
			<path class="st1" d="M667,1494.6c0.2,0.4,0.1,1.1,0.2,1.6c0.1,0.7,0.1,1.3,0.1,2c0,1,1.5,1,1.5,0c0-0.8,0-1.6-0.1-2.4
				c-0.1-0.7,0-1.3-0.3-1.9C667.8,1493,666.6,1493.7,667,1494.6L667,1494.6z"/>
		</g>
	</g>
	<g>
		<g>
			<path class="st1" d="M668,1493.2c0.5,0.6,0.8,1.1,0.8,1.9c0,0.8,0,1.6-0.2,2.4c-0.2,0.9,1.3,1.3,1.4,0.4c0.2-1.1,0.3-2.1,0.2-3.1
				c-0.1-0.9-0.5-1.6-1-2.3C668.8,1491.6,667.5,1492.4,668,1493.2L668,1493.2z"/>
		</g>
	</g>
	<g>
		<g>
			<path class="st1" d="M666.9,1492.6c0,0,0,0.1,0,0.1c0.1,0.2,0.3,0.5,0.5,0.5c0.5,0.1,0.7,0.9,0.8,1.3c0.1,0.3,0.5,1.5,0.2,1.8
				c-0.7,0.7,0.4,1.8,1.1,1.1c0.7-0.8,0.5-2.3,0.1-3.2c-0.3-1-0.7-2.2-1.9-2.4c0.2,0.2,0.3,0.3,0.5,0.5c0,0,0-0.1,0-0.1
				C668.1,1491.3,666.7,1491.7,666.9,1492.6L666.9,1492.6z"/>
		</g>
	</g>
	<g>
		<g>
			<path class="st1" d="M668.5,1492.2c0.5,0.5,1.2,1,1.5,1.7c0.4,0.8,0.3,1.7,0.3,2.5c0,1,1.5,1,1.5,0c0-1,0.1-2.1-0.4-3.1
				c-0.4-0.9-1.1-1.5-1.8-2.1C668.9,1490.5,667.8,1491.5,668.5,1492.2L668.5,1492.2z"/>
		</g>
	</g>
	<g>
		<g>
			<path class="st1" d="M669.6,1493.1c0.4,0.1,0.6,0.9,0.7,1.2c0.2,0.8,0,1.6,0,2.3c0,1,1.5,1,1.5,0c0-1.1,0.2-2.2-0.2-3.2
				c-0.3-0.7-0.7-1.7-1.6-1.8C669,1491.5,668.6,1493,669.6,1493.1L669.6,1493.1z"/>
		</g>
	</g>
	<g>
		<g>
			<path class="st1" d="M666.7,1494c-0.1-0.1-0.1-0.1-0.2-0.2c0,0.4,0.4,0.8,0.8,0.8c0.4,0,0.7-0.3,0.8-0.8c0.1-0.6-0.4-1.1-0.9-1.3
				C666.2,1492.3,665.8,1493.7,666.7,1494L666.7,1494z"/>
		</g>
	</g>
	<g>
		<g>
			<path class="st1" d="M666.2,1497.8c-0.1,0.2-0.4,0.4-0.5,0.6c-0.2,0.3-0.2,0.6-0.2,0.9c0.1,0.6,0.8,1,1.4,0.8
				c0.5-0.1,1.1-0.7,1.5-0.9c0.6-0.4,1.3-0.7,1.8-1.2c0.7-0.6-0.3-1.7-1.1-1.1c-0.6,0.5-1.3,0.8-2,1.2c-0.2,0.1-0.6,0.3-0.7,0.5
				c0.1,0.5,0.3,0.7,0.5,0.5c0.1-0.1,0.1-0.1,0.2-0.1c0.1-0.1,0.2-0.3,0.3-0.4C667.9,1497.7,666.6,1496.9,666.2,1497.8L666.2,1497.8
				z"/>
		</g>
	</g>
	<g>
		<g>
			<path class="st1" d="M666.9,1499.8c0.8,0,1.8-0.6,2.4-1c0.9-0.6,1.6-1.3,2.4-1.9c0.8-0.6-0.3-1.7-1.1-1.1
				c-0.6,0.5-1.2,1.1-1.9,1.5c-0.4,0.3-1.3,1-1.9,0.9C665.9,1498.3,665.9,1499.8,666.9,1499.8L666.9,1499.8z"/>
		</g>
	</g>
	<g>
		<g>
			<path class="st1" d="M661,1492.6c0-0.8,0.6-1.9,0.9-2.6c0.4-0.9,0.7-1.7,0.4-2.6c-0.1-0.6-1.1-0.8-1.4-0.2
				c-0.3,0.6-0.4,1.3-0.4,1.9c-0.1,0.8,0.4,1.5,0.4,2.3c0,0.8,1.3,1.1,1.5,0.2c0.1-0.4,0.3-0.8,0.4-1.2c0.1-0.5,0.2-1,0.2-1.5
				c0-1-1.5-1-1.5,0c0,0.8-0.4,1.5-0.5,2.2c0.5,0.1,1,0.1,1.5,0.2c0-1.1-0.7-2.3-0.1-3.4c-0.5-0.1-0.9-0.1-1.4-0.2
				c0.2,0.9-0.5,2-0.8,2.8c-0.2,0.6-0.6,1.4-0.6,2C659.5,1493.6,661,1493.6,661,1492.6L661,1492.6z"/>
		</g>
	</g>
</g>
<g id="Ebene_3">
	<g class="st2">
		<g>
			<path d="M634,941.4c0.1,0.5,0.2,1,0.1,1.5c0.2,0,0.5-0.1,0.7-0.1c-0.1-0.2-0.4-0.9-0.4-1.1c-0.2,0.1-0.4,0.2-0.6,0.3
				c-0.1,0-0.1,0.3-0.1,0.3c0.2-0.1,0.4-0.1,0.6-0.2c-0.3-0.2-0.3-0.9-0.3-1.2c-0.2,0.1-0.5,0.1-0.7,0.2c0.2,0.5,0.3,1.3,0.2,1.8
				c0.2-0.1,0.4-0.1,0.6-0.2c-0.4-0.4-0.4-1.1-0.6-1.6c-0.2-0.4-0.8-0.1-0.7,0.3c0,0.1,0.2,1.4,0.3,1.4c0.1,0,0.2,0.1,0.4,0.1
				c-0.2-0.2-0.5-1.1-0.5-1.3c-0.2,0-0.5,0.1-0.7,0.1c0.1,0.2,0.2,1,0,1.2c0.2,0,0.4,0,0.5,0c-0.4-0.4-0.2-1.1-0.7-1.6
				c-0.2-0.2-0.7-0.1-0.6,0.3c0,0.3,0.1,0.7,0.1,1c0.2-0.1,0.4-0.2,0.6-0.3c-0.4-0.3-0.3-0.7-0.6-1c-0.2-0.2-0.6,0-0.6,0.3
				c0,0.3,0,0.6,0,0.9c0.2-0.1,0.4-0.1,0.6-0.2c0,0,0,0,0,0c-0.1,0.1-0.3,0.3-0.4,0.4c0.1,0,0.4,0.8,0.5,0.9c0.3,0.3,0.8,0.1,1,0.3
				c0-0.2,0-0.4,0-0.5c0,0-0.4-0.3-0.5-0.4c-0.3-0.3-0.2-0.7,0-1.1c0.2-0.5,0.8-1.2,1.3-1.3c-0.1-0.2-0.2-0.4-0.3-0.6
				c-0.5,0.5-1.4,0.8-2.1,1c-0.3,0.1-0.4,0.7,0,0.7c0.7,0.1,1.2-0.6,1.6-1c0.3-0.3-0.2-0.9-0.5-0.5c-0.6,0.5-1.7,1-1.6,2
				c0.1,0.4,0.4,0.8,0.7,1.1c0.4,0.4,0.7,0.4,1.1,0.7c0.4,0.3,1.2,1.1,1.7,0.5c0.2-0.2,0.2-0.7,0.2-1c0.1-0.8,0-1.6,0-2.4
				c-0.3,0-0.5,0-0.8,0c0,0.8,0.1,1.7,0.4,2.4c0.2-0.1,0.5-0.2,0.7-0.3c-0.6-1-0.3-2.1-0.5-3.2c-0.1-0.3-0.5-0.4-0.7-0.1
				c-0.2,0.5-0.2,0.7-0.1,1.2c0.1,0.4,0,0.6,0,1c0,0.1,0,0.5,0,0.5c0.2,0,0.3,0,0.5,0.1c-0.1-0.1-0.6-1.5-0.4-1.7
				c-0.2,0-0.4,0-0.5,0c0.3,0.4-0.1,0.9-0.5,0.9c-0.2,0-0.5,0-0.7,0c-0.1,0-0.2,0.1-0.3,0.3c0,0.3-0.1,0.6,0.2,0.9
				c0.1,0.1,0.9,0.4,0.8,0.3c0.2-0.2,0.3-0.3,0.5-0.5c-0.3-0.1-0.7-0.1-1-0.3c-0.4-0.3-0.6-0.9-0.5-1.4c0.1-0.5,1-0.9,1.4-1.1
				c0.3-0.2,0.2-0.7-0.2-0.7c-0.6,0-1.1,0.3-1.6,0.8c-0.4,0.4-1,1.2-1,1.8c0,0.5,0.4,1,0.8,1.3c0.3,0.2,1.5,0.4,1.6,0.8
				c0.1,0.5,0.9,0.3,0.7-0.2c-0.2-0.7-0.8-0.7-1.4-0.9c-0.2-0.1-0.5-0.2-0.6-0.4c-0.4-0.3-0.3-0.6-0.1-1c0.3-0.6,0.9-1.4,1.6-1.4
				c-0.1-0.2-0.1-0.5-0.2-0.7c-1,0.5-1.9,1.1-1.7,2.3c0.2,1.2,0.9,1.5,2,1.8c0.3,0.1,0.6-0.2,0.5-0.5c-0.1-0.2-0.1-0.3-0.3-0.4
				c-0.2-0.1-0.8-0.1-0.7-0.4c-0.1,0.1-0.2,0.2-0.3,0.3c0.7-0.1,1.3,0.1,1.6-0.6c0.2-0.5,0.3-1.2-0.1-1.6c-0.1-0.2-0.4-0.1-0.5,0
				c-0.4,0.3-0.3,0.7-0.2,1.1c0.1,0.6,0.2,1.1,0.6,1.6c0.1,0.1,0.3,0.1,0.5,0.1c0.4-0.3,0.3-0.5,0.3-0.9c0-0.3,0.2-0.6,0.1-0.9
				c0-0.4-0.3-0.8-0.1-1.2c-0.2,0-0.5-0.1-0.7-0.1c0.1,0.6,0,1.2,0.1,1.8c0.1,0.5,0.2,1.1,0.5,1.5c0.2,0.4,0.8,0.1,0.7-0.3
				c-0.3-0.7-0.3-1.5-0.4-2.2c0-0.5-0.8-0.5-0.8,0c0,0.5,0,1.1,0,1.6c0,0.4,0,1-0.2,1.4c0.1-0.1,0.2-0.1,0.3-0.2
				c-0.4,0-0.7-0.4-0.9-0.6c-0.3-0.2-0.6-0.2-0.8-0.4c-0.5-0.4-0.7-0.9-0.3-1.4c0.3-0.3,0.7-0.5,1-0.8c-0.2-0.2-0.4-0.4-0.5-0.5
				c-0.1,0.1-0.7,0.9-0.9,0.8c0,0.2,0,0.5,0,0.7c0.8-0.2,1.8-0.6,2.5-1.2c0.2-0.2,0.1-0.7-0.3-0.6c-0.6,0.1-1.2,0.5-1.5,1
				c-0.4,0.4-0.9,1.2-0.8,1.8c0.1,0.7,1.3,2,2,1.3c0.1-0.1,0.2-0.4,0-0.5c-0.4-0.4-1-0.2-1.3-0.8c-0.2-0.3-0.4-0.7-0.8-0.7
				c-0.2,0-0.4,0.2-0.4,0.4c0,0.2,0.1,0.3,0.2,0.5c0.2,0.2,0.6,0.1,0.6-0.2c0.1-0.4,0.1-0.7,0.1-1.1c-0.2,0.1-0.4,0.2-0.6,0.3
				c0.1,0.1,0.1,0.4,0.2,0.5c0.1,0.2,0.3,0.4,0.4,0.5c0.3,0.2,0.6,0.1,0.6-0.3c0-0.4-0.1-0.6-0.1-1c-0.2,0.1-0.4,0.2-0.6,0.3
				c0.4,0.4,0.2,1.1,0.7,1.6c0.1,0.1,0.4,0.1,0.5,0c0.5-0.5,0.4-1.5,0.1-2.1c-0.1-0.3-0.6-0.2-0.7,0.1c-0.1,0.5,0.2,2,0.8,2.1
				c1.1,0.3,0.5-1.9,0.4-2.3c-0.2,0.1-0.5,0.2-0.7,0.3c0.3,0.6,0.3,1.2,0.7,1.8c0.2,0.2,0.6,0.1,0.6-0.2c0.1-0.8,0-1.7-0.3-2.4
				c-0.2-0.4-0.7-0.2-0.7,0.2c0,0.6,0.1,1.5,0.7,1.8c0.2,0.1,0.5,0,0.6-0.2c0.1-0.4,0.1-0.9-0.3-1.2c-0.2-0.2-0.6,0-0.6,0.3
				c0,0.5,0.3,1.1,0.5,1.5c0.2,0.3,0.6,0.2,0.7-0.1c0.2-0.7,0-1.3-0.1-1.9C634.7,940.7,633.9,940.9,634,941.4L634,941.4z"/>
		</g>
	</g>
	<g class="st2">
		<g>
			<path d="M634.3,954.7c0,0.1,0.1,0.2,0.2,0.3c0.1-0.2,0.2-0.4,0.3-0.6c-0.3,0-0.4,0.2-0.6,0.2c-0.1,0.1-0.3,0-0.5,0.1
				c-0.4,0.1-0.5,0.5-0.2,0.8c0.1,0.1,0.3,0.1,0.4,0.1c0.3-0.1,0.7-0.4,0.9-0.7c0.1-0.2,0-0.4-0.1-0.5c-0.4-0.3-0.9,0-1.3,0.2
				c-0.4,0.2-0.9,0.2-1.1,0.7c-0.2,0.4-0.1,0.9,0.2,1.2c0.2,0.2,0.5,0.3,0.7,0.3c0.4,0,0.7,0.1,1.1,0.1c0.4,0,0.5-0.5,0.2-0.7
				c-0.1-0.1-0.5-0.1-0.5-0.3c-0.1-0.2,0.3-0.4,0.4-0.5c-0.2-0.1-0.4-0.1-0.6-0.2c0.1,0.2,0.1,0.5,0,0.7c0.1-0.1,0.2-0.2,0.3-0.3
				c0,0,0.1,0.1,0.1,0.1c0,0,0-0.1,0-0.1c0,0,0-0.2,0.1-0.2c0.1,0,0.1,0.2,0,0.2c0,0.1-0.1,0.1-0.1,0.2c0,0.1-0.1,0.1-0.1,0
				c-0.2-0.1-0.4-0.2-0.6-0.3c0,0.1-0.1,0.2,0,0.3c0.2,0,0-0.1,0.1-0.2c-0.1,0.1-0.1,0.1-0.2,0.2c-0.1-0.1-0.1,0-0.1,0.1
				c0.1-0.1,0.1-0.1-0.1,0c0.1,0,0.2,0.1,0.3,0.1c0.2,0.1,0.4,0.1,0.6-0.1c0.3-0.3,0.4-0.8,0.3-1.2c0-0.2-0.3-0.3-0.5-0.3
				c-0.3,0.1-0.5,0.4-0.7,0.5c-0.3,0.1-0.5,0.1-0.6,0.5c-0.1,0.3,0.1,0.5,0.4,0.5c0.6,0,1.1-0.5,1.3-1c0.1-0.2-0.1-0.5-0.4-0.5
				c-0.4,0-0.7,0.1-0.9,0.4c-0.2,0.3-0.6,0.7-0.5,1.2c0,0.4,0.3,0.5,0.6,0.7c0.4,0.2,0.7,0.4,1.2,0.4c0.4,0,0.5-0.6,0.1-0.7
				c-0.2-0.1-0.3-0.2-0.4-0.3c-0.1-0.1-0.3-0.2-0.4-0.3c-0.1-0.1-0.2-0.3-0.1-0.5c0.1-0.1,0.2-0.1,0.4-0.1c0.3-0.1,0.4-0.6,0-0.7
				c-0.1,0-0.1,0-0.2-0.1c-0.4-0.2-0.8,0.4-0.4,0.6c0.1,0.1,0.2,0.1,0.4,0.1c0-0.2,0-0.5,0-0.7c-0.1,0.1-0.3,0-0.5,0.1
				c-0.1,0.1-0.2,0.2-0.3,0.3c-0.2,0.3-0.3,0.7-0.2,1.1c0.1,0.3,0.3,0.4,0.6,0.6c0.3,0.2,0.5,0.5,0.9,0.6c0-0.2,0.1-0.5,0.1-0.7
				c-0.2,0-0.3-0.1-0.5-0.2c-0.1,0-0.4-0.2-0.5-0.2c-0.1-0.1,0.1-0.3,0.2-0.4c0.1-0.2,0.2-0.3,0.4-0.3c-0.1-0.2-0.2-0.3-0.4-0.5
				c-0.1,0.2-0.3,0.4-0.5,0.4c0.1,0.2,0.2,0.3,0.4,0.5c0,0.1-0.2,0.1,0.1,0.1c0.1,0,0.2,0,0.3-0.1c0.2-0.1,0.3-0.4,0.5-0.4
				c-0.2-0.1-0.3-0.2-0.5-0.3c0,0.1,0,0.2,0,0.2c0,0.1,0,0.1,0,0.2c0,0,0.1,0,0.1-0.1c-0.2-0.1-0.3-0.1-0.5-0.1
				c-0.4,0.1-0.6,0.5-0.5,0.9c0.3,1,1.6,0.6,1.4-0.4c-0.1-0.4-0.4-0.7-0.8-0.6c-0.4,0.1-0.5,0.6-0.4,1c0.1,0.4,0.5,0.7,0.8,0.5
				c0.4-0.1,0.5-0.6,0.5-1c0-0.3-0.3-0.5-0.6-0.3c-0.7,0.5-0.3,1.8,0.6,1.5c0.8-0.3,1.1-1.6,0.1-1.9c-0.7-0.2-1.4,0.8-0.9,1.4
				c0.2,0.3,0.6,0.3,0.9,0.1c0.3-0.3,0.2-0.9,0.1-1.2c-0.1-0.2-0.4-0.4-0.6-0.2c-0.4,0.3-0.9,0.7-0.9,1.2c0,0.6,0.5,0.7,0.9,0.9
				c0.1-0.2,0.1-0.5,0.2-0.7c-0.2,0-0.4-0.1-0.6-0.1c-0.2,0-0.4,0-0.5,0c-0.2-0.1-0.3-0.4-0.1-0.6c0.1-0.1,1.1-0.5,1.2-0.5
				c0-0.2-0.1-0.3-0.1-0.5c-0.1,0.1-0.3,0.3-0.4,0.4c0.1,0,0.2,0.1,0.4,0.1c0,0.1,0,0.1,0,0.2c-0.1,0.1-0.1,0.1-0.2,0.2
				c0.1-0.1,0.3,0,0.4-0.1c0.2,0,0.4-0.2,0.5-0.2c0.3,0,0.5-0.4,0.3-0.6c0,0,0,0,0,0C634.9,954.1,634.2,954.3,634.3,954.7
				L634.3,954.7z"/>
		</g>
	</g>
	<g class="st2">
		<g>
			<path d="M633.7,966.8c0,0.4,0.2,1.3-0.1,1.7c0.2,0.1,0.4,0.1,0.6,0.2c0-0.2,0-0.5,0-0.7c0-0.2-0.1-0.4-0.1-0.6
				c-0.1-0.5-0.8-0.5-0.8,0c0,0.4-0.2,0.8-0.1,1.2c0,0.2,0.1,0.3,0.1,0.4c0,0.1-0.1,0.3-0.1,0.4c0.3,0,0.5,0,0.8,0
				c0.1-0.6-0.6-1.1-1-1.3c-0.1,0-0.1,0-0.2,0c-0.1-0.1-0.2-0.3-0.2-0.4c0-0.1-0.3-0.4-0.2-0.4c0.1-0.3,1-0.5,1.2-0.5
				c-0.1-0.1-0.3-0.3-0.4-0.4c0-0.2-0.1-0.2-0.3-0.1c-0.2,0-0.3,0.1-0.4,0.1c-0.3,0.1-0.6,0.4-0.8,0.7c-0.3,0.7,0.4,1.1,0.8,1.6
				c0.1-0.2,0.1-0.4,0.2-0.6c-0.3,0.1-0.4-0.5-0.2-0.6c0.2-0.1,0.5-0.2,0.7-0.1c-0.1-0.2-0.1-0.4-0.2-0.6c-0.3,0.4-0.5,1-0.5,1.6
				c0,0.5,0.8,0.5,0.8,0c0-0.1,0-0.6-0.1-0.7c-0.3-0.3-0.2,0.4-0.3,0.5c0.2,0,0.4,0.1,0.6,0.1c-0.2-0.5,0-1.2-0.6-1.3
				c-0.2,0-0.4,0.1-0.5,0.3c-0.1,0.3-0.2,0.5-0.2,0.8c0,0.1,0.3,0.6,0.3,0.4c0.1-0.1,0.2-0.2,0.4-0.3c-0.1,0-0.2,0-0.4,0
				c-0.1,0-0.2,0-0.3-0.1c0,0.1,0,0.1,0,0c-0.1-0.1-0.1-0.2-0.1-0.3c-0.1-0.1-0.2-0.2-0.3-0.3c-0.2,0.2-0.3,0.4-0.5,0.6
				c0.3,0.2,0.4,0.7,0.8,0.9c0.4,0.2,0.8-0.4,0.4-0.6c-0.3-0.2-0.5-0.5-0.6-0.9c-0.2-0.4-0.9-0.3-0.7,0.2c0.2,0.5,0.4,1,0.9,1.3
				c0.1-0.2,0.3-0.4,0.4-0.6c-0.2-0.1-0.3-0.4-0.4-0.5c-0.1-0.2-0.2-0.3-0.4-0.4c-0.4-0.3-0.7,0.3-0.5,0.6c0.2,0.3,0.2,0.6,0.5,0.8
				c0.3,0.1,0.7,0.2,1,0.2c0.2,0,0.3-0.1,0.4-0.3c0-0.2,0-0.4-0.1-0.5c-0.1-0.1-0.1-0.1-0.2-0.2c0-0.1,0.1-0.3,0.1-0.4
				c-0.2,0.1-0.3,0.2-0.5,0.3c-0.1,0,0-0.1,0,0c0,0.1,0,0.2,0,0.3c0,0.2,0.1,0.4,0.2,0.6c0.1,0.2,0.4,0.2,0.6,0.1
				c0.4-0.4,0.6-1.6-0.1-1.9c-0.3-0.1-0.7,0.1-0.8,0.4c-0.1,0.4,0.1,0.7,0.1,1c0.3,0,0.5,0,0.8,0c0-0.3,0-0.7,0.3-1
				c0.2-0.2,0.1-0.6-0.2-0.6c-0.6-0.2-1.7,0.1-1.8,0.8c-0.1,0.7,0.6,1.5,1.3,1.4c0.2,0,0.4-0.4,0.2-0.6c-0.3-0.4-1.3-1.1-0.2-1.3
				c0.5-0.1,1,0,1-0.6c0-0.2-0.2-0.4-0.4-0.4c-0.6,0-2.2,0.5-2,1.4c0.1,0.2,0.2,0.4,0.3,0.7c0.1,0.2,0.1,0.4,0.3,0.6
				c0.3,0.2,1,0.3,1,0.8c-0.1,0.5,0.7,0.5,0.8,0c0-0.3,0.2-0.4,0.1-0.8c-0.1-0.5,0.1-0.8,0-1.3c-0.3,0-0.5,0-0.8,0
				c0,0.2,0.1,0.5,0.1,0.7c0,0.3,0,0.5,0,0.8c0.1,0.3,0.4,0.4,0.6,0.2c0.5-0.6,0.3-1.5,0.3-2.2C634.5,966.3,633.7,966.3,633.7,966.8
				L633.7,966.8z"/>
		</g>
	</g>
</g>
<g id="Ebene_6">
	<g>
		<g>
			<path class="st3" d="M615.2,997.4c0,0,0-0.1,0.1-0.1c-0.2-0.1-0.5-0.2-0.7-0.3c-0.1,0.2-0.3,0.4-0.4,0.6c0.2,0.2,0.4,0.3,0.6,0.5
				c0.1-0.2,0.1-0.4,0.3-0.6c-0.2-0.1-0.5-0.2-0.7-0.3c-0.1,0.1-0.1,0.2-0.2,0.3c0.2,0.1,0.5,0.2,0.7,0.3c0-0.4,0.1-0.7,0.3-1.1
				c-0.2,0-0.5-0.1-0.7-0.1c-0.1,0.3-0.1,0.5-0.2,0.8c0.2,0.1,0.5,0.1,0.7,0.2c0.2-1,0.7-1.8,1-2.8c0.1-0.5-0.6-0.7-0.7-0.2
				c-0.2,0.6-0.4,1.2-0.6,1.8c0.2,0.1,0.5,0.1,0.7,0.2c0.4-1.3,1.4-2.3,2.1-3.4c0.2-0.4-0.3-0.8-0.6-0.5c-0.4,0.4-0.8,0.9-1.2,1.3
				c-0.3,0.4,0.2,0.9,0.5,0.5c1.1-1,2.8-2.4,3-4c0.1-0.4-0.3-0.6-0.6-0.4c-0.6,0.5-0.8,1.1-1,1.8c-0.1,0.3,0.4,0.7,0.6,0.4
				c1.1-1.4,1.3-2.7,1.9-4.3c-0.2,0-0.5-0.1-0.7-0.1c0,0.4,0,0.7,0,1.1c0,0.3,0.3,0.5,0.6,0.3c0.8-0.6,0.5-2.5,0.3-3.4
				c-0.1-0.4-0.6-0.4-0.7,0c-0.2,0.5-0.2,1-0.1,1.6c0.1,0.4,0.7,0.3,0.7-0.1c0-1.1-0.1-2.2,0.1-3.3c0.1-0.3-0.3-0.6-0.6-0.4
				c-1.2,0.6-1.3,2-0.9,3.1c0.1,0.5,0.9,0.3,0.7-0.2c-0.2-0.7-0.2-1.9,0.6-2.3c-0.2-0.1-0.4-0.3-0.6-0.4c-0.3,1.2-0.2,2.3-0.2,3.5
				c0.2,0,0.5-0.1,0.7-0.1c-0.1-0.4-0.1-0.8,0.1-1.2c-0.2,0-0.5,0-0.7,0c0.1,0.3,0.4,2.3,0.1,2.5c0.2,0.1,0.4,0.2,0.6,0.3
				c0-0.4,0-0.7,0-1.1c0-0.4-0.6-0.5-0.7-0.1c-0.5,1.4-0.7,2.7-1.7,3.9c0.2,0.1,0.4,0.2,0.6,0.4c0.2-0.5,0.4-1.1,0.8-1.4
				c-0.2-0.1-0.4-0.2-0.6-0.4c-0.2,1.3-1.9,2.7-2.8,3.7c0.2,0.2,0.4,0.4,0.5,0.5c0.4-0.5,0.8-0.9,1.2-1.3c-0.2-0.2-0.4-0.3-0.6-0.5
				c-0.8,1.2-1.7,2.1-2.1,3.6c-0.1,0.5,0.6,0.6,0.7,0.2c0.2-0.6,0.4-1.2,0.6-1.8c-0.2-0.1-0.5-0.1-0.7-0.2c-0.2,0.8-0.7,1.8-1,2.8
				c-0.1,0.5,0.6,0.7,0.7,0.2c0.2-0.5,0.2-0.5,0.2-1c0-0.4-0.6-0.5-0.7-0.1c-0.1,0.4-0.2,0.7-0.3,1.1c-0.1,0.4,0.4,0.6,0.7,0.3
				c0.2-0.2,0.2-0.2,0.2-0.5c0.1-0.4-0.4-0.6-0.7-0.3c-0.2,0.3-0.2,0.3-0.3,0.6c-0.2,0.4,0.3,0.8,0.6,0.5c0.3-0.3,0.4-0.6,0.6-0.9
				c0.2-0.4-0.5-0.6-0.7-0.3c0,0,0,0.1-0.1,0.1C614.3,997.4,615,997.8,615.2,997.4L615.2,997.4z"/>
		</g>
	</g>
</g>
<g id="Ebene_5">
	<g>
		<g>
			<path class="st3" d="M623.4,993.8c-0.1,1.2,0.5,0.6,0.6-0.2c0.1-0.4-0.7-0.5-0.7-0.1c-0.3,2,1.4-1.6,1.5-2.2
				c0.1-0.5-0.6-0.7-0.7-0.2c-0.2,0.8-0.4,1.6-0.6,2.5c-0.1,0.5,0.6,0.7,0.7,0.2c0.3-0.8,1.9-4.2,1.5-4.9c-0.4-0.9-1.6,3.1-1.7,3.4
				c-0.1,0.4,0.5,0.7,0.7,0.3c0.6-1.2,0.9-2.6,1.3-4c0.2-0.6,1.1-1.9,0.5-2.4c-0.5-0.4-1,1.4-0.9,1.9c0.4,1.7,1-0.9,1.1-1.2
				c0.2-0.9,0.7-2.1,0.7-3c0-0.3,0.7-2.1-0.5-1.2c-0.4,0.3-0.4,2.1-0.4,2.7c0,0.4,0.6,0.5,0.7,0.1c0.6-1.7,1.3-4.9,1-6.9
				c-0.1-0.5-0.8-0.3-0.7,0.2c0.1,0.9-0.9,2.6,0.1,2.7c0.6,0,0.5-2.2,0.5-2.8c0-0.4-0.7-0.5-0.7-0.1c-0.1,0.4-0.3,2.1,0.6,1.8
				c0.1,0,0.3-1.7,0.3-1.7c0.2-2.1-0.8-2.2-0.7-0.1c0,0.4,0.7,0.5,0.7,0.1c0.1-1,0.4-2.2,0.1-3.1c-0.1-0.3-0.6-0.4-0.7,0
				c0.2,0,0.3,0,0.5,0c-0.2-0.4-0.8-0.1-0.7,0.3c0,0.1,0,0.3,0.1,0.4c0.1,0.4,0.7,0.4,0.7,0c0.1-0.5-0.2-1-0.3-0.3
				c-0.1,1-0.1,2-0.2,3c0,0.2-0.4,3.2-0.1,2.5c0.5-1,0-1.7-0.2-2.5c0.1,0.5,0.8,0.3,0.7-0.2c0,0,0,0,0-0.1c-0.1-0.3-0.4-0.3-0.6-0.2
				c-0.8,0.7-0.6,2.9-0.7,4c0,0.3,0.4,0.5,0.6,0.3c1.1-1,1.8-6.6,1-7.8c-0.1-0.2-0.5-0.3-0.6,0c-0.2,0.4-0.5,0.8-0.3,1.2
				c0.2,0.3,0.6,0.2,0.7-0.1c-0.1,0.3-1.2,0.9-0.6,1.8c0.9,1.3,0.8-1.6,0.8-1.7c0-0.5-0.8-0.5-0.8,0c0,1.6-0.3,3.1-0.4,4.6
				c0,0.5,0.7,0.5,0.8,0c0.1-1-0.1-1.7-0.7-0.6c-0.3,0.5-0.1,1.7-0.1,2.2c0,0.5,0.7,0.5,0.8,0c0-0.2,0.6-3,0.3-3.2
				c-0.8-0.9-0.9,1.4-0.9,1.5c-0.3,0.9-0.8,2.6-0.6,3.5c0.3,1.8,0.9-0.4,0.9-1.2c0-0.3,0.1-0.6,0.1-0.9c0-0.4-0.7-0.5-0.7-0.1
				c-0.3,2.3-1.1,4.6-1.7,6.8c-0.1,0.5,0.6,0.6,0.7,0.2c0.4-1,0.7-2,0.9-3.1c0.1-0.5-0.6-0.7-0.7-0.2c-0.5,1.6-1.8,3.6-1.8,5.3
				c0,1.7,0.9-0.6,1.1-1.3c0.1-0.6,0.3-1,0.4-1.6c0-0.4-0.5-0.5-0.7-0.2c-0.3,0.5-0.4,1.2-0.6,1.7c-0.1,0.3-1.2,4.3-0.5,3.7
				c0.4-0.4,0.7-2.4-0.5-1.4c-0.6,0.5-0.6,2.1-0.7,2.8c0,0.5,0.7,0.5,0.8,0c0.1-1-0.9-0.9-0.4,0.2c0.1,0.3,0.7,0.2,0.7-0.2
				c0-0.3,0-0.6,0.1-1C624.2,993.3,623.5,993.3,623.4,993.8L623.4,993.8z"/>
		</g>
	</g>
	<g>
		<g>
			<path class="st3" d="M624.5,989.7c-0.1-0.4-0.5-0.6-0.8-0.6c-0.4,0-0.5,0.3-0.7,0.3c-0.3,0-0.6-0.3-0.8-0.5
				c-0.3-0.2-0.6-0.4-1.1-0.4c-0.5,0-0.5,0.7,0,0.8c0.3,0,0.5,0.3,0.7,0.4c0.2,0.2,0.4,0.3,0.7,0.4c0.2,0.1,0.3,0.2,0.6,0.1
				c0.2,0,0.3-0.1,0.4-0.2c0,0,0.2-0.3,0.3-0.1C623.9,990.4,624.7,990.2,624.5,989.7L624.5,989.7z"/>
		</g>
	</g>
	<g>
		<g>
			<path class="st3" d="M619.5,986.6C619.5,986.7,619.5,986.7,619.5,986.6c0.2,0,0.5,0,0.7-0.1c-0.5-1.9,2.1-1.1,2.6-1.1
				c1.4,0.1,2.7-0.5,4.1-0.7c1.1-0.2,1.5-0.3,2.3-1.3c1.1-1.4,2.6-3,4.3-3.8c-0.1-0.2-0.3-0.4-0.4-0.6c0,0-0.1,0-0.1,0
				c-0.4,0.2-0.1,0.9,0.4,0.6c0,0,0.1,0,0.1,0c0.4-0.2,0.1-0.8-0.4-0.6c-1.4,0.6-3.4,2-4.3,3.2c-0.3,0.4-0.2,0.7-0.6,1.2
				c-0.9,0.9-0.8,0.4-1.6,0.6c-0.5,0.1-1.1,0.3-1.6,0.4c-1.4,0.4-6.3-0.8-5.4,2.4c0.1,0.4,0.8,0.3,0.7-0.1c0,0,0,0,0,0
				C620.2,986.2,619.4,986.2,619.5,986.6L619.5,986.6z"/>
		</g>
	</g>
	<g>
		<g>
			<path class="st3" d="M623.9,987.2C623.9,987.2,623.9,987.2,623.9,987.2c-0.2-0.2-0.4-0.3-0.6-0.4c-0.2,0.5-0.5,1.2-0.4,1.8
				c0,0.3,0.1,0.4,0.2,0.2c0,0.1-0.2,0.2-0.3,0.3c-0.2,0.4,0,1.1,0,1.5c0,0.1,0.1,0.5,0.1,0.6c0,0-0.2,0.1-0.2,0.1
				c-0.1,0.2-0.3,0.6-0.5,0.8c-0.3,0.4,0.2,0.9,0.5,0.5c0.5-0.6,1-1.2,0.8-2.1c-0.1-0.3-0.2-0.8-0.1-1.1c0-0.1,0.2-0.1,0.2-0.3
				c0.1-0.2,0-0.3,0-0.5C623.6,988.2,623.8,987.5,623.9,987.2c0.2-0.5-0.3-0.9-0.6-0.4c0,0,0,0,0,0.1
				C623,987.3,623.6,987.6,623.9,987.2L623.9,987.2z"/>
		</g>
	</g>
	<g>
		<g>
			<path class="st3" d="M622.3,992c-0.1,0.2-0.2,0.3-0.3,0.5c0.2,0.1,0.5,0.2,0.7,0.3c0.9-2.3,1.9-5.3,1.6-7.8
				c0-0.3-0.6-0.4-0.7-0.1c0,0,0,0.1-0.1,0.1c-0.2,0.4,0.4,0.8,0.6,0.4c0,0,0-0.1,0.1-0.1c-0.2,0-0.5-0.1-0.7-0.1
				c0.2,1.1-0.2,3.1-0.5,4.2c-0.3,1.1-0.7,2.2-1.1,3.2c-0.2,0.4,0.5,0.7,0.7,0.3c0.1-0.2,0.2-0.3,0.3-0.5
				C623.2,992,622.6,991.6,622.3,992L622.3,992z"/>
		</g>
	</g>
	<g>
		<g>
			<path class="st4" d="M628.4,977.9c1,0.9,1.9,1.5,2.2,2.9c0.3,1.2,0,2.6,0.1,3.8c0.2,1.6,0.7,4.4,2,5.5c0.1-0.2,0.1-0.4,0.2-0.6
				c0,0,0,0,0,0c-0.5,0.1-0.3,0.9,0.2,0.7c0,0,0,0,0,0c0.3-0.1,0.4-0.4,0.2-0.6c-2.1-1.8-1.7-6-1.9-8.4c-0.2-1.9-1.2-2.7-2.5-3.9
				C628.6,977.1,628,977.6,628.4,977.9L628.4,977.9z"/>
		</g>
	</g>
	<g>
		<g>
			<path class="st4" d="M625.4,999.2c0.6-2.7,2.3-5,3.1-7.7c0.7-2.5,1.2-4.7,2.8-6.7c0.3-0.4-0.4-0.8-0.6-0.4c-1.5,2-2.1,4-2.8,6.5
				c-0.8,2.8-2.6,5.2-3.2,8.1C624.6,999.5,625.3,999.7,625.4,999.2L625.4,999.2z"/>
		</g>
	</g>
	<g>
		<g>
			<path class="st4" d="M616.5,982.2c0,0.1,0,0.2-0.1,0.2c0.2,0,0.5,0.1,0.7,0.1c0,0,0-0.1,0-0.1c-0.3,0-0.5,0-0.8,0
				c0,0.1,0,0.2,0,0.3c0,0.4,0.7,0.5,0.7,0.1c0.5-3.4,3.8-3.3,6.5-3.5c1.4-0.1,2.6-0.4,3.9-0.7c0.1,0,0.2-0.1,0.3-0.3c0,0,0,0,0-0.1
				c0.1-0.5-0.6-0.7-0.7-0.2c0,0.1-3,0.4-3.3,0.4c-1.1,0.1-2.3,0-3.4,0.2c-2.1,0.4-3.7,1.7-4,3.9c0.2,0,0.5,0.1,0.7,0.1
				c0-0.1,0-0.2,0-0.3c0-0.5-0.7-0.5-0.8,0c0,0,0,0.1,0,0.1c0,0.4,0.6,0.5,0.7,0.1c0-0.1,0.1-0.2,0.1-0.2
				C617.3,981.9,616.6,981.7,616.5,982.2L616.5,982.2z"/>
		</g>
	</g>
	<g>
		<g>
			<path class="st4" d="M623.2,976.7c0-0.2,0-0.4,0-0.7c-0.3,0-0.5,0-0.8,0c0,0,0,0.1,0,0.1c0,0.5,0.7,0.5,0.8,0c0-0.1,0-0.1,0-0.2
				c0-0.4-0.7-0.5-0.7-0.1c-0.2,1.3-0.4,2.6-0.5,4c-0.1,1.5-0.6,3-0.6,4.5c0,0.3,0.3,0.5,0.6,0.3c0,0,0,0,0.1,0
				c0.4-0.2,0-0.9-0.4-0.6c0,0,0,0-0.1,0c0.2,0.1,0.4,0.2,0.6,0.3c0-1.4,0.5-2.9,0.6-4.4c0.1-1.3,0.2-2.6,0.4-3.9
				c-0.2,0-0.5-0.1-0.7-0.1c0,0.1,0,0.1,0,0.2c0.3,0,0.5,0,0.8,0c0,0,0-0.1,0-0.1c0-0.5-0.8-0.5-0.8,0c0,0.2,0,0.4,0,0.7
				C622.5,977.2,623.2,977.2,623.2,976.7L623.2,976.7z"/>
		</g>
	</g>
	<g>
		<g>
			<path class="st4" d="M621.6,986.9c0.2-0.3,0-0.8,0.2-1.1c-0.1,0.1-0.3,0.1-0.4,0.2c0,0,0.1,0,0.1,0c-0.1-0.1-0.2-0.2-0.3-0.3
				c0.1,0.2,0.1,0,0,0.1c0,0.1-0.1,0.2-0.1,0.3c-0.1,0.4-0.2,0.7-0.3,1.1c-0.1,0.6-0.2,1.2-0.3,1.9c-0.1,0.5,0.7,0.5,0.8,0
				c0.1-0.9,0.3-1.8,0.6-2.6c0.1-0.4,0.3-1.1-0.3-1.2c-0.2,0-0.3,0-0.4,0.2c-0.2,0.3,0,0.8-0.2,1.1
				C620.7,986.9,621.4,987.3,621.6,986.9L621.6,986.9z"/>
		</g>
	</g>
	<g>
		<g>
			<path class="st4" d="M621.8,976.3C621.8,976.2,621.8,976.2,621.8,976.3c0-0.4-0.4-0.5-0.6-0.3c-0.8,1-0.7,2.7-0.9,3.9
				c-0.1,1-0.4,1.8-0.9,2.7c-0.3,0.5-0.7,1-0.9,1.6c-0.1,0.5,0.6,0.7,0.7,0.2c0.1-0.7,0.7-1.2,1-1.8c0.4-0.6,0.6-1.3,0.7-2.1
				c0.2-1.2-0.1-3.1,0.7-4.1c-0.2-0.1-0.4-0.2-0.6-0.3c0,0,0,0,0,0C621,976.7,621.8,976.7,621.8,976.3L621.8,976.3z"/>
		</g>
	</g>
	<g>
		<g>
			<path class="st4" d="M618.5,977.6c0.1-0.1,0.1-0.3,0.2-0.4c0.2-0.4-0.5-0.6-0.7-0.3c0,0,0,0.1-0.1,0.1c0.2,0.1,0.5,0.2,0.7,0.3
				c0-0.1,0-0.1,0-0.2c0.1-0.5-0.6-0.7-0.7-0.2c-0.4,1.1-0.8,2-1.5,2.9c-0.2,0.3-0.5,0.6-0.7,0.9c-0.3,0.4-0.3,0.9-0.6,1.4
				c-0.2,0.4,0.4,0.8,0.6,0.4c0.3-0.4,0.3-0.9,0.6-1.4c0.3-0.4,0.6-0.9,1-1.3c0.7-0.9,1-1.6,1.3-2.7c-0.2-0.1-0.5-0.1-0.7-0.2
				c0,0.1,0,0.1,0,0.2c-0.1,0.4,0.4,0.6,0.7,0.3c0,0,0-0.1,0.1-0.1c-0.2-0.1-0.5-0.2-0.7-0.3c0,0.1-0.1,0.1-0.1,0.2
				C617.7,977.7,618.3,978,618.5,977.6L618.5,977.6z"/>
		</g>
	</g>
	<g>
		<g>
			<path class="st4" d="M615.5,978.3c0.1-0.2,0.1-0.3,0.2-0.5c-0.2-0.1-0.5-0.2-0.7-0.3c-0.1,0.3-0.3,0.7-0.4,1
				c-0.2,0.3-0.4,1-0.7,1.2c-0.6,0.4-1.2,0.5-1.4,1.2c-0.1,0.5,0.6,0.7,0.7,0.2c0.2-0.7,1.3-0.7,1.6-1.3c0.3-0.7,0.6-1.4,0.9-2.1
				c0.2-0.4-0.5-0.7-0.7-0.3c-0.1,0.3-0.2,0.5-0.3,0.8C614.7,978.8,615.4,978.8,615.5,978.3L615.5,978.3z"/>
		</g>
	</g>
	<g>
		<g>
			<path class="st4" d="M618.8,977.3c0.1-0.1,0.1-0.2,0.2-0.3c0-0.3-0.3-0.6-0.6-0.4c0,0,0,0-0.1,0C618,977,618.3,977.6,618.8,977.3
				C618.8,977.3,618.8,977.3,618.8,977.3c-0.2-0.2-0.4-0.3-0.6-0.5c0,0,0,0,0-0.1C617.9,977.1,618.5,977.7,618.8,977.3L618.8,977.3z
				"/>
		</g>
	</g>
	<g>
		<g>
			<path class="st4" d="M633.5,983.6c0.1,0,0.1,0,0.2-0.1c-0.1-0.2-0.3-0.4-0.4-0.6c-1.4,2-1.7,4.2-2.5,6.5
				c-0.8,2.1-2.5,4.7-1.9,7.1c0.2-0.1,0.4-0.3,0.6-0.4c0,0,0,0-0.1,0c-0.4-0.3-0.8,0.4-0.4,0.6c0,0,0,0,0.1,0
				c0.3,0.2,0.6-0.1,0.6-0.4c-0.6-2.4,1.5-5.4,2.2-7.6c0.6-1.9,1-3.7,2.1-5.4c0.2-0.3-0.1-0.7-0.4-0.6c-0.1,0-0.1,0-0.2,0.1
				C632.8,983.1,633,983.8,633.5,983.6L633.5,983.6z"/>
		</g>
	</g>
	<g>
		<g>
			<path class="st4" d="M621.2,983.7c-0.8-0.6-1.9-0.7-2.7,0.2c-1.1,1.4,0.1,3.9-0.4,5.5c-0.6,1.8-2.1,2.8-3.1,4.3
				c-0.8,1.3-1.2,2.9-1.5,4.3c0,0.2,0.1,0.4,0.3,0.5c0.1,0,0.1,0,0.2,0.1c0.5,0.2,0.7-0.6,0.2-0.7c0.3,0.1,0.8-2.5,1.2-3.2
				c0.5-1,1.5-1.7,2.1-2.6c0.5-0.8,1.2-1.8,1.5-2.7c0.2-0.6,0.1-1.2,0.1-1.8c0-0.2-0.8-5.1,1.5-3.3
				C621.1,984.6,621.6,984,621.2,983.7L621.2,983.7z"/>
		</g>
	</g>
	<g>
		<g>
			<path class="st4" d="M615.6,998.4c0.6-1.6,1-2.9,1.9-4.3c0.6-0.8,1.2-1.6,1.7-2.4c0.6-0.9,1.1-1.9,1.3-3c0.2-1.4-0.5-2.9,0.4-4.1
				c0.1-0.1,0.1-0.3,0-0.4c0-0.1-0.1-0.1-0.1-0.2c-0.1-0.2-0.5-0.2-0.6,0c-0.1,0.2-0.2,0.3-0.3,0.5c-0.3,0.4,0.4,0.8,0.6,0.4
				c-0.6,0.9-0.2-1-0.8,0.4c-0.2,0.4,0,1.2,0,1.7c0.1,1.9-0.3,3.1-1.3,4.7c-0.8,1.1-1.7,2.2-2.5,3.4c-0.6,1-0.7,2.1-1.1,3.2
				C614.7,998.7,615.4,998.9,615.6,998.4L615.6,998.4z"/>
		</g>
	</g>
</g>
<g id="Ebene_4">
	<g>
		<g>
			<path class="st5" d="M622.9,993.7c-0.1,0.5,1-0.6,1-0.6c0-0.1,0.4-1.3,0.4-1.1c0.3-0.8,0.5-1.6,0.8-2.4c0.6-1.7,1.3-3.4,1.7-5.2
				c0.4-1.8,0.6-3.6,0.9-5.4c0.1-0.6,0.4-1.7,0.3-2.3c0-0.2,0.1-0.3,0.1-0.5c-0.1-2,0.1,2.2-0.6-0.8c0.1,0.5,0.8,0.3,0.7-0.2
				c0,0,0,0,0-0.1c-0.1-0.4-0.6-0.3-0.7,0c-0.8,2.7-0.8,5.7-1.3,8.4c-0.7,3.6-2.1,7.1-3.3,10.5c-0.2,0.4,0.5,0.6,0.7,0.3
				c0.1-0.2,0.1-0.3,0.2-0.5C623.8,993.4,623,993.2,622.9,993.7L622.9,993.7z"/>
		</g>
	</g>
	<g>
		<g>
			<path class="st5" d="M628.6,975.7c0,0,0,0.1,0,0.1c0,0.4,0.6,0.5,0.7,0.1c0.1-0.6-0.6,0.2-0.6,0c0,0.5,0.1,1.1,0,1.6
				c-0.1,0.8-0.3,1.7-0.4,2.5c-0.2,1.1-0.5,2.3-0.8,3.4c-0.3,1.5-0.7,3-1.2,4.5c-0.5,1.5-1,3.1-1.7,4.6c-0.2,0.4-0.7,1.1-0.7,1.6
				c-0.1,0.6,0.4,0.8,0.4,1.1c0-0.5-0.7-0.5-0.8,0c0,0,0,0,0,0c0,0.4,0.6,0.5,0.7,0.1c2-6.7,5.2-12.8,5.2-19.9
				c0-0.5-0.6-0.5-0.7-0.1c-0.2,0.3,0,0.4,0.6,0.4C629.3,975.2,628.6,975.2,628.6,975.7L628.6,975.7z"/>
		</g>
	</g>
</g>
<g id="Ebene_7">
	<g>
		<g>
			<path class="st1" d="M615.2,998.9c0,0,0-0.1-0.1-0.1c-0.1,0.2-0.2,0.3-0.4,0.5c0,0,0,0,0,0C615,999.4,615.4,999.1,615.2,998.9
				c0-0.3-0.2-0.5-0.5-0.4c-0.3,0.1-0.2,0.4-0.3,0.7c0.1-0.1,0.2-0.2,0.3-0.4c0,0,0,0-0.1,0c-0.5,0.1-0.3,0.8,0.2,0.7c0,0,0,0,0.1,0
				c0.2,0,0.3-0.2,0.3-0.4C615.1,999.1,615.1,999,615.2,998.9c-0.1,0.1-0.2,0.2-0.3,0.3c0,0,0,0,0.1,0c-0.1,0-0.2-0.1-0.4-0.1
				c0,0,0,0,0-0.1c0.2-0.1,0.4-0.3,0.6-0.4c-0.1-0.1-0.2-0.1-0.4-0.1c-0.2,0-0.5,0.3-0.4,0.5c0,0.1,0.1,0.2,0.1,0.3
				C614.8,999.6,615.5,999.2,615.2,998.9L615.2,998.9z"/>
		</g>
	</g>
	<g>
		<g>
			<path class="st1" d="M614.2,999.4C614.2,999.5,614.2,999.5,614.2,999.4c0.2,0.5,0.9,0.3,0.8-0.2c-0.1-0.2-0.1-0.2-0.2-0.4
				C614.4,998.6,613.8,999.1,614.2,999.4L614.2,999.4z"/>
		</g>
	</g>
	<g>
		<g>
			<path class="st1" d="M614.1,1002.4c-0.1,0-0.1,0-0.2,0c-0.3,0-0.5,0.3-0.3,0.6c0.1,0.1,0.1,0.2,0.2,0.3c0.4,0.3,0.9-0.2,0.5-0.5
				c0,0-0.1-0.1-0.1-0.1c-0.1,0.2-0.2,0.4-0.3,0.6c0.1,0,0.1,0,0.2,0C614.6,1003.1,614.6,1002.3,614.1,1002.4L614.1,1002.4z"/>
		</g>
	</g>
	<g>
		<g>
			<path class="st1" d="M614.2,1005c0.1,0.2,0.2,0.4,0.3,0.7c0.2,0.4,0.8,0.1,0.6-0.4c-0.1-0.2-0.2-0.5-0.3-0.7
				C614.7,1004.2,614,1004.5,614.2,1005L614.2,1005z"/>
		</g>
	</g>
	<g>
		<g>
			<path class="st1" d="M615.1,1009.2c0,0-0.2-0.2-0.2-0.1c-0.2,0.1-0.4,0.2-0.6,0.3c0.4,0.3,0.6,0.8,1,1.1c0.2,0.1,0.5,0,0.6-0.2
				c0-0.1,0.2-0.5,0.1-0.6c0,0-0.1,0.1-0.1,0.1c0,0,0.1,0.1,0.1,0.1c0.1,0.1,0.2,0.3,0.2,0.4c0.1-0.1,0.3-0.3,0.4-0.4
				c-0.1,0-0.4-0.4-0.5-0.5c-0.2-0.1-0.4-0.3-0.6-0.4c-0.2-0.1-0.5,0.1-0.5,0.4c0,0.2,0.1,0.3,0,0.5c0.2-0.1,0.4-0.2,0.6-0.3
				c-0.1,0-0.1-0.2-0.2-0.3c0-0.1-0.1-0.1-0.1-0.2c0-0.1-0.1-0.1-0.1,0.1c-0.1,0-0.2,0.1-0.3,0.1c0.2,0,0.6,0.4,0.8,0.4
				c0.3,0.1,0.7,0.3,1,0.4c0.4,0.2,0.8-0.4,0.4-0.6c-0.5-0.2-1-0.4-1.4-0.7c-0.3-0.2-0.6-0.4-1-0.2c-0.5,0.3,0,1.4,0.4,1.6
				c0.3,0.1,0.5,0,0.6-0.3c0-0.2-0.1-0.3,0-0.5c-0.2,0.1-0.3,0.2-0.5,0.4c0.2,0.1,0.5,0.4,0.6,0.5c0.2,0.2,0.4,0.3,0.7,0.3
				c0.2,0,0.4-0.2,0.4-0.4c0-0.5-0.4-1.2-0.9-1.3c-0.7-0.2-0.7,0.7-0.8,1.1c0.2-0.1,0.4-0.1,0.6-0.2c-0.4-0.2-0.5-0.7-0.9-1
				c-0.2-0.2-0.6-0.1-0.6,0.3c0,0.3,0.2,0.5,0.4,0.7C614.9,1010,615.5,1009.5,615.1,1009.2L615.1,1009.2z"/>
		</g>
	</g>
</g>
</svg>
