<?xml version="1.0" encoding="utf-8"?>
<!-- Generator: Adobe Illustrator 23.0.2, SVG Export Plug-In . SVG Version: 6.00 Build 0)  -->
<svg version="1.1" xmlns="http://www.w3.org/2000/svg" xmlns:xlink="http://www.w3.org/1999/xlink" x="0px" y="0px"
	 viewBox="0 0 2879 1620" style="enable-background:new 0 0 2879 1620;" xml:space="preserve">
<style type="text/css">
	.st0{display:none;}
	.st1{fill:#0000FF;}
	.st2{opacity:0.53;}
	.st3{fill:#333333;}
	.st4{fill:#1A1A1A;}
	.st5{fill:#4D4D4D;}
</style>
<g id="Ebene_1" class="st0">
	
		<image style="display:inline;overflow:visible;" width="2879" height="1620" xlink:href="background1.jpg"  transform="matrix(0.9993 0 0 0.9993 0 3)">
	</image>
	
		<image style="display:inline;overflow:visible;" width="2880" height="1619" xlink:href="adam1.png"  transform="matrix(0.9979 0 0 0.9979 -5 3)">
	</image>
</g>
<g id="Ebene_2">
	<g>
		<g>
			<g>
				<path class="st1" d="M627,666.3L627,666.3c-0.4,0.1-0.8,0.3-1.1,0.5c0,0,0.1,0,0.1,0.1c0.2,0.1,0.5,0.1,0.8,0
					c0.1,0,0.1-0.1,0.1-0.1c-0.3,0-0.5,0-0.8,0c0.3,0.2,0.5,0.2,0.9,0.1c-0.2-0.1-0.5-0.1-0.7-0.2c0.2,0.2,0.4,0.3,0.5,0.4
					c0.2,0.1,0.5,0.5,0.5,0.2c0.2-0.2,0.4-0.5,0.6-0.7C627.7,666.7,627.1,666.3,627,666.3c-0.2-0.2-0.9-0.2-1-0.3
					c-0.1,0.4-0.3,0.7-0.4,1.1c0.4-0.1,1.8-0.1,2.1,0.3c0.1-0.4,0.3-0.7,0.4-1.1c-0.5,0.1-0.8-0.2-1.3-0.3c-0.3-0.1-0.6-0.1-0.8-0.2
					c0.1,0.1,0.3,0.2,0.4,0.3c0-0.1-0.1-0.1-0.1-0.2c0,0.3,0,0.5,0,0.8l0,0c-0.2,0-0.4,0.1-0.6,0.1c0.6,0.1,1.2,0.1,1.9,0.1
					s1.2,0.3,1.9,0.4c0-0.5,0-1,0-1.5c-0.7,0-1.5-0.1-2.3,0c-0.4,0-0.6,0.1-1,0.1c-0.3,0-0.5-0.1-0.8,0c-0.4,0.1-0.7,0.5-0.5,0.9
					c0.2,0.6,0.7,1,1.3,1.3c0.3,0.1,0.5,0.2,0.8,0.2c0.1,0,0.3,0,0.4,0c0.2,0,0.3,0.1,0.2-0.1c0.1-0.3,0.2-0.7,0.3-1
					c-0.4,0.2-1.5-0.5-1.9-0.7c-0.2,0.5-0.4,0.9-0.6,1.4c0.3,0.1,0.6,0.1,0.9,0.2c0.5,0.1,0.9,0.3,1.3,0.5c0.3,0.1,0.5,0.2,0.8,0.3
					c0.1,0,0.3,0.1,0.4,0c0.2-0.1,0.2,0.2,0.1-0.2c0.2-0.3,0.5-0.6,0.7-0.9c-0.5-0.1-1-0.5-1.4-0.7c-0.2-0.1-0.5-0.2-0.7-0.3
					c-0.3-0.1-0.7,0-1-0.3c-0.2,0.4-0.4,0.9-0.5,1.3c1.1,0.1,2.8,0.4,3.5-0.7c-0.4,0-0.9,0-1.3,0c0.2,0.4,0.2,0.9,0.3,1.3
					c0.1,0.6,1.1,0.8,1.4,0.2c0.2-0.5,0.4-0.9,0.4-1.4c0-0.4-0.4-0.8-0.8-0.8c-0.2,0-0.4,0-0.5,0.1c-0.9,0.3-0.5,1.8,0.4,1.4h0.1
					c-0.3-0.3-0.5-0.5-0.8-0.8c0,0.2-0.1,0.5-0.2,0.7c0.5,0.1,0.9,0.1,1.4,0.2c-0.2-0.6-0.1-1.1-0.4-1.6c-0.3-0.5-1-0.5-1.3,0h-0.8
					c-0.5,0-0.9,0-1.4-0.1c-0.6-0.1-1,0.9-0.5,1.3c0.7,0.6,1.5,0.5,2.3,0.9c0.6,0.3,1.2,0.7,1.9,0.7c0.5,0.1,0.9-0.5,0.7-0.9
					c-0.3-0.8-0.9-0.8-1.6-0.9c-0.5-0.1-1-0.4-1.5-0.6c-0.5-0.2-1-0.1-1.5-0.3c-0.8-0.3-1.3,1-0.6,1.4c1.1,0.6,2.2,1.3,3.4,0.7
					c0.4-0.2,0.4-0.7,0.3-1c-0.2-0.4-0.6-0.6-1.1-0.7c-0.4,0-1.3,0.1-1.5-0.4c-0.2,0.3-0.3,0.6-0.5,0.9c0.2-0.1,0.6,0.1,0.8,0
					c0.3,0,0.5-0.1,0.8-0.2c0.7-0.1,1.3,0,2,0c1,0,1-1.5,0-1.5c-0.5,0-0.9-0.2-1.3-0.3c-0.5-0.1-0.9,0-1.4,0c-0.7,0-1.6-0.3-1.9,0.6
					c-0.3,0.8,0.4,1.1,1,1.3c0.9,0.2,1.5,0.7,2.4,0.4c0.4-0.1,0.7-0.7,0.4-1.1c-0.8-1.1-2.6-1.3-3.8-1c-0.5,0.1-0.7,0.7-0.4,1.1
					c0.3,0.6,1,0.7,1.6,0.9s1.2,0.7,1.9,0.5c0.3-0.1,0.6-0.4,0.6-0.7c-0.1-0.9-1.5-2.1-2.4-1.8c0.2,0,0.4,0.1,0.6,0.1
					c-0.1,0-0.1-0.1-0.2-0.1c-0.2-0.1-0.5-0.2-0.8,0l-0.1,0.1c0.3,0,0.5,0,0.8,0c0,0-0.1,0-0.1-0.1c-0.5-0.3-1.2,0.1-1.1,0.6v0.1
					C625.6,667.2,627.1,667.3,627,666.3L627,666.3z"/>
			</g>
		</g>
		<g>
			<g>
				<path class="st1" d="M627.9,655.3c-0.1,0.1,0.2,0,0.3,0c0.3,0,0.5,0.1,0.7,0.2c0.6,0.2,0.9,0.3,1.6,0.3c1,0,1-1.5,0-1.5
					c-0.6,0-1.2,0-1.8-0.1c-0.3-0.1-0.6-0.1-0.9,0c-0.3,0-0.5,0.1-0.8,0.2c-0.1,0-0.3,0.1-0.5,0.1c-0.4,0.2-0.3-0.2,0,0.3
					c0,0.3,0,0.5,0,0.8c-0.2,0.3,0,0.1,0.2,0.2c0.2,0.1,0.4,0.1,0.6,0.2c0.5,0.2,0.9,0.5,1.5,0.5s1.1-0.8,0.5-1.3
					c-0.8-0.7-1.8-0.6-2.7-1c-0.1,0.5-0.3,0.9-0.4,1.4c1.3-0.1,2.6-0.9,4-0.5c-0.1-0.5-0.1-0.9-0.2-1.4c-1.4,0.9-3.4-1-4.8,0.3
					c-0.2,0.2-0.3,0.5-0.2,0.7c0.3,0.8,1.2,1.2,2,1.3c0.4,0.1,0.8,0.1,1.3,0.1c0.2,0,1.1-0.2,1.3,0c0-0.3-0.1-0.6-0.1-0.9
					c0.2-0.2,0.1,0,0-0.1s-0.4-0.1-0.5-0.1c-0.2-0.1-0.5-0.1-0.7-0.1c-1-0.1-1,1.4,0,1.5c0.9,0.1,1.9,0.6,2.6-0.4
					c0.2-0.3,0.1-0.7-0.1-0.9c-0.5-0.5-1.4-0.5-2.1-0.4c-0.4,0-0.8,0-1.1,0c-0.2,0-0.4-0.1-0.6-0.2c-0.1,0-0.4-0.3-0.3-0.1
					c-0.1,0.2-0.1,0.5-0.2,0.7c0.2-0.2,1.7,0.2,2,0.3c0.9,0.1,1.7,0.2,2.5-0.3c0.5-0.4,0.5-1.2-0.2-1.4c-0.6-0.2-1.4-0.2-2-0.1
					c-0.4,0-0.7,0.1-1,0.2c-0.4,0.1-0.9,0.4-1.3,0.4c-0.7,0-1.1,1.1-0.4,1.4c0.4,0.2,0.9,0.4,1.3,0.5c0.3,0.1,0.8,0,1.1,0.3
					c0.2-0.4,0.4-0.9,0.5-1.3c-0.4,0-1-0.4-1.4-0.5s-0.8-0.2-1.2-0.2c-0.7,0.1-1.4,0.8-0.9,1.5c0.5,0.6,1.4,0.3,2,0.1
					c0.3-0.1,0.6-0.2,1-0.2c0.7,0,1.4,0.1,2.1,0.1c0-0.5,0-1,0-1.5c-0.7,0-1.3-0.4-2.1-0.4c-0.6,0-1.1,0.1-1.6,0.4
					C626.1,654.8,627.1,655.9,627.9,655.3L627.9,655.3z"/>
			</g>
		</g>
		<g>
			<g>
				<path class="st1" d="M630.7,639c0.1-0.1,0.1-0.2,0.2-0.3c0.3-0.5-0.1-1.1-0.6-1.1c-1.2-0.2-2.2,0.2-3.3,0.6
					c-0.8,0.3-1.8,0.7-2.5,1.4c-1.7,1.9-0.3,3.1,1.6,3.9c0.7,0.3,1.3,0.3,2,0.3c0.8,0,1.5,0.2,2.3,0.3c0.9,0,2.5,0,3.4-0.4
					c2-0.9-0.4-3.8-0.8-4.8c-0.2-0.4-0.7-0.4-1-0.3c-1,0.5-0.4,1.7-0.3,2.5c0.3-0.3,0.5-0.5,0.8-0.8c0.4,0-1-1.7-0.7-1.2
					c-0.4-0.6-1.7-0.3-1.4,0.6c0.3,0.6,0.5,1.3,0.8,1.9c0.4,0.8,1.5,0.2,1.4-0.6s-0.7-1.3-1-2.1c-0.4-0.8-1.5-0.2-1.4,0.6
					c0.2,1.2,1.1,1.8,1.7,2.8c0.4-0.3,0.8-0.6,1.2-0.9C632,640.6,631.6,639.6,630.7,639c-0.5-0.4-1.2,0-1.2,0.6
					c0,0.7,0.4,1.1,0.5,1.8c0.5-0.2,0.9-0.4,1.4-0.6c-0.4-0.7-0.5-1.4-1-2c-0.4-0.4-1.1-0.2-1.3,0.3c-0.2,0.9,0.6,1.5,0.5,2.3
					c0.4-0.1,0.8-0.2,1.3-0.3c-0.4-0.4-0.6-0.8-0.8-1.2c-0.3-0.5-1-0.5-1.3,0c-0.3,0.6-0.2,1.1-0.3,1.8c0.4-0.2,0.9-0.4,1.3-0.5
					c-0.2-0.2-0.3-0.4-0.3-0.7c-0.2-0.7-1.3-0.7-1.4,0c-0.1,0.3-0.1,0.6-0.2,0.8c0.3-0.2,0.6-0.3,0.9-0.5c-0.1,0-0.7-1-0.8-1.2
					c-0.4-0.3-1,0-1.1,0.4c0,0.2-0.1,0.5-0.2,0.6c0.4,0.1,0.8,0.1,1.2,0.2c-0.2-0.2-0.4-0.5-0.5-0.8c-0.4-0.6-1.4-0.4-1.4,0.4
					c0.1,0.2,0,0.3-0.1,0.5c0.4,0.1,0.8,0.1,1.2,0.2c-0.1-0.1-0.1-0.2-0.2-0.3c-0.3-0.5-1.3-0.5-1.4,0.2c0,0.1,0,0.3-0.1,0.4
					c0.5,0,1,0,1.4,0c0-0.1-0.1-0.3-0.1-0.4c-0.5,0.1-1,0.1-1.5,0.2c0.1,0.2,0.1,0.4,0.2,0.6c0.3,0.8,1.5,0.7,1.5-0.2
					c0-1.1,0.6-0.6,1-1c0.3-0.3,0.3-0.6,0.6-0.8c-0.3,0-0.6,0.1-0.9,0.1c0.3,0.2,0.4,0.6,0.6,0.9c0.4,0.7,1.3,0.3,1.4-0.4
					c0.1-0.3,0.1-0.7,0-1c-0.5,0.1-1,0.1-1.5,0.2c0.3,0.8,0.9,0.6,0,0.1c-0.3-0.2-0.6-0.2-1-0.1c-0.8,0.2-0.8,1.2-0.8,1.9
					c0,1,1.5,1,1.5,0c0,0.2,1.6,1.1,1.9,1.1c0.4,0,1.9-0.9,2.2-0.5c0-0.3,0.1-0.6,0.1-0.9c-1.2,1-2.1-0.9-3.2-0.7
					c-0.8,0.1-1,0.9-1.1,1.6c-0.1,1,1.4,1,1.5,0c0.1-0.1,0.1-0.2,0.2-0.2c-0.3,0-0.5,0-0.8,0c1.6,0.7,2.8,1.8,4.5,0.4
					c0.2-0.2,0.3-0.7,0.1-0.9c-0.5-0.7-0.8-0.8-1.7-0.8c-0.5,0-1,0.2-1.5,0.3c-0.7,0-0.1,0.3-0.8-0.4c-1.1-0.9-3-0.5-2.9,1
					c0.5,0,1,0,1.5,0c0-0.5-0.2-0.2,0-0.1c0.2,0.1,0.3,0.2,0.5,0.3c0.4,0.1,0.6,0.2,1,0c0.9-0.5,0.4-1.8,0.2-2.5
					c-0.2-0.8-1.5-0.7-1.5,0.2c0.1,0.3,0,0.7,0,1c0.5-0.1,0.9-0.3,1.4-0.4c-0.3-0.6-0.5-1.1-1.1-1.4c-0.3-0.2-0.7-0.1-0.9,0.1
					c-0.9,1.1-2,1.1-2,2.9c0.5-0.1,1-0.1,1.5-0.2c-0.1-0.2-0.1-0.4-0.2-0.6c-0.3-0.8-1.5-0.7-1.5,0.2c0,0.4,0,0.5,0.2,0.8
					c0.2,0.6,1.3,0.8,1.4,0c0-0.1,0-0.3,0.1-0.4c-0.5,0.1-0.9,0.1-1.4,0.2c0.1,0.1,0.1,0.2,0.2,0.3c0.3,0.4,0.8,0.5,1.2,0.2
					c0.4-0.4,0.5-1,0.5-1.5c-0.5,0.1-0.9,0.3-1.4,0.4c0.2,0.3,0.3,0.5,0.5,0.8c0.3,0.4,0.8,0.5,1.2,0.2c0.4-0.4,0.5-0.8,0.6-1.3
					c-0.4,0.1-0.7,0.3-1.1,0.4c0.5,0.4,0.3,1.2,1.2,1.3c0.4,0.1,0.8-0.1,0.9-0.5c0.1-0.3,0.1-0.6,0.2-0.8c-0.5,0-1,0-1.4,0
					c0.2,0.6,0.3,0.9,0.7,1.3c0.5,0.5,1.2,0.1,1.3-0.5c0-0.3-0.1-0.8,0.1-1c-0.4,0-0.9,0-1.3,0c0.3,0.6,0.6,1.1,1,1.5
					s1.1,0.3,1.3-0.3c0.1-0.8-0.6-1.6-0.5-2.3c-0.4,0.1-0.8,0.2-1.3,0.3c0.4,0.4,0.4,1.1,0.7,1.7c0.4,0.8,1.5,0.2,1.4-0.6
					c-0.1-0.5-0.4-0.9-0.5-1.4c-0.4,0.2-0.8,0.4-1.1,0.6c0.8,0.6,1.2,1.5,2,2.1c0.6,0.5,1.6-0.1,1.2-0.9c-0.5-0.8-1.4-1.4-1.5-2.4
					c-0.5,0.2-0.9,0.4-1.4,0.6c0.3,0.6,0.8,1,0.9,1.7c0.5-0.2,0.9-0.4,1.4-0.6c-0.2-0.5-0.5-1-0.7-1.5c-0.5,0.2-0.9,0.4-1.4,0.6
					c0.5,0.8,0.9,1.9,2,2c0.4,0,0.8-0.4,0.8-0.8c0-0.2-0.1-1.4-0.5-1.2c-0.3-0.1-0.7-0.2-1-0.3c0.3,0.6,0.6,1.2,0.9,1.8
					c0.4,0.8,0.6,0.7-0.2,1c-1.4,0.4-2.9,0-4.2-0.1c-0.8,0-1.8-0.1-2.4-0.7c-0.3,0-0.5-0.2-0.5-0.4c0.4-0.7,1.1-1.1,1.8-1.2
					c1.1-0.5,2-1,3.2-0.8c-0.2-0.4-0.4-0.8-0.6-1.1c-0.1,0.1-0.1,0.2-0.2,0.3C629,639.1,630.3,639.8,630.7,639L630.7,639z"/>
			</g>
		</g>
		<g>
			<g>
				<path class="st1" d="M622.8,675.7c0-0.1,0.1-0.1,0.1-0.2c-0.3,0.1-0.6,0.2-0.8,0.3c1.7,0.5,2.7,2.2,3,4.1
					c0.3,2.1,0.5,4.3,0.5,6.4c0,1,1.5,1,1.5,0c0-1.6-0.3-3.2-0.4-4.8c-0.1-1.3,0-2.7-0.5-3.8c-0.7-1.6-2.2-2.8-3.7-3.2
					c-0.3-0.1-0.7,0.1-0.8,0.3c0,0.1-0.1,0.1-0.1,0.2C620.9,675.7,622.2,676.5,622.8,675.7L622.8,675.7z"/>
			</g>
		</g>
		<g>
			<g>
				<path class="st1" d="M621.4,675.6C621.4,675.7,621.4,675.7,621.4,675.6c0.1-0.1,0.3-0.3,0.4-0.6c0,0-1.5-0.2-1.6-0.2
					c-0.8-0.1-1.2-0.3-2-0.1c-0.4,0.1-0.8,0.3-1.2,0.4c-0.4,0.1-0.6-0.1-1,0c-0.7,0.1-1,0.4-1.4,0.9c0.2-0.1,0.4-0.2,0.6-0.4
					c-0.7-0.1-0.6,0.5-1.1-0.1c-0.6-0.7-1.7,0.3-1.1,1.1c0.3,0.4,0.6,0.9,1.2,0.9c0.3,0,1-0.4,1-0.4c0.3,0,0.5-0.2,0.6-0.4
					c0.1-0.1,1.6-0.2,1.7-0.3c0.8-0.3,1.3-0.4,2.1-0.3c0.9,0.1,2,0.6,2.9,0.1c0.2-0.1,0.4-0.4,0.4-0.6v-0.1
					C622.8,674.7,621.3,674.7,621.4,675.6L621.4,675.6z"/>
			</g>
		</g>
		<g>
			<g>
				<path class="st1" d="M622.5,674.2c-5.9-0.6-10.9,2.1-16.7,2.5c-1,0.1-1,1.6,0,1.5c5.8-0.4,10.8-3.1,16.7-2.5
					C623.5,675.8,623.4,674.3,622.5,674.2L622.5,674.2z"/>
			</g>
		</g>
		<g>
			<g>
				<path class="st1" d="M604.5,678.4c0.7,2.9,3.8,2.5,5.8,3.9c3.1,2.1,3.3,7.1,5.1,10.3c1,1.8,1.9,3,2.4,5.1c0.2,1,0.2,2.6,0.8,3.4
					c0.2,0.3,0.5,0.4,0.8,0.3c0.1,0,0.1,0,0.2,0c0.3-0.1,0.5-0.4,0.6-0.7c-0.1,0.1-0.1,0.2-0.2,0.3c0.9-0.4,0.1-1.7-0.8-1.3
					c-1.3,0.6,0.4,1.2,0.6,0.7c0.2-0.7-0.8-4.4-1.1-5.2c-0.6-1.6-1.7-3.2-2.5-4.7c-1-1.9-1.4-3.6-2.1-5.6c-0.8-2.2-2.2-3.8-4.4-4.9
					c-0.9-0.5-3.6-0.5-3.9-2.1C605.7,677,604.3,677.4,604.5,678.4L604.5,678.4z"/>
			</g>
		</g>
		<g>
			<g>
				<path class="st1" d="M619.8,700.4c-0.1-0.7-0.6-1.8-0.2-2.4c0.3-0.5,1.3-0.6,1.7-1c1-1,1.6-2.5,2.6-3.6s1.3-2.4,2-3.7
					c0.5-1,0.4-2.2,1-3.1c0.5-0.8-0.8-1.6-1.3-0.8c-0.7,1.2-1,2.6-1.5,3.9c-0.6,1.5-1.6,2.6-2.5,3.9c-0.3,0.5-0.6,1-0.9,1.5
					c-0.7,1-1.8,1.2-2.4,2c-0.9,1.1-0.1,2,0.1,3.3C618.4,701.4,619.9,701.4,619.8,700.4L619.8,700.4z"/>
			</g>
		</g>
		<g>
			<g>
				<path class="st1" d="M606.8,678.9L606.8,678.9c0.1,0.4,0.3,0.6,0.5,0.6c2.1,0.6,4.1,2.2,5.6,3.8c1.7,1.8,2.5,3.9,3.4,6.1
					c0.4,0.9,1.8,0.5,1.4-0.4c-1-2.5-1.8-4.8-3.8-6.8c-0.8-0.8-1.8-1.8-2.7-2.5c-0.2-0.2-3.1-1.7-3.1-1.3
					C608.1,677.6,606.7,678,606.8,678.9L606.8,678.9z"/>
			</g>
		</g>
		<g>
			<g>
				<path class="st1" d="M614.1,685.2c0.8,1.1,1.2,3,1.6,4.3c0.5,1.5,1.2,3.4,1.3,4.9c0.1,1,1.6,1,1.5,0c-0.1-1.7-0.9-3.7-1.4-5.3
					c-0.5-1.5-0.8-3.4-1.8-4.6C614.8,683.7,613.5,684.4,614.1,685.2L614.1,685.2z"/>
			</g>
		</g>
		<g>
			<g>
				<path class="st1" d="M614.3,687.5c1.6,2.5,3.5,4.8,4.8,7.4c0.1-0.3,0.2-0.7,0.3-1c-0.1,0-0.2,0.1-0.2,0.1c0.3,0,0.6,0.1,0.9,0.1
					c-0.1-0.1,1.8-1.9,2-2.1c0.6-0.9,1.1-1.9,1.5-2.9c0.3-0.9-0.9-1.2-1.4-0.6c-1.4,1.9-3.8,4.5-2.9,7.1c0.2,0.5,1.1,0.8,1.4,0.2
					c0.5-1,1.1-2,1.4-3.1c0.3-0.9-1.1-1.3-1.4-0.4c-0.4,1-0.9,1.9-1.2,2.9c-0.1,0.4,0.1,0.8,0.5,0.9c2,0.4,3.4-2.9,4-4.3
					c1.2-2.6,2.2-6,0.8-8.5c-0.5-0.8-1.8-0.1-1.3,0.8c1,1.8,0.1,4-0.5,5.9c-0.2,0.7-1.7,4.9-2.7,4.8c0.2,0.3,0.3,0.6,0.5,0.9
					c0.3-1,0.8-1.9,1.2-2.9c-0.5-0.1-1-0.3-1.4-0.4c-0.3,0.8-0.9,2-1.3,2.8c0.5,0.1,0.9,0.1,1.4,0.2c-0.8-2.1,1.6-4.5,2.7-5.9
					c-0.5-0.2-0.9-0.4-1.4-0.6c-0.3,0.9-0.8,2-1.5,2.7c-0.5,0.6-1.2,0.8-1.6,1.3c-0.6,0.8-0.7,1.8,0,2.5c0.2,0.3,0.6,0.3,0.9,0.1
					c0.1,0,0.2-0.1,0.2-0.1c0.4-0.2,0.4-0.7,0.3-1c-1.4-2.6-3.2-4.9-4.8-7.4C615.1,686,613.8,686.7,614.3,687.5L614.3,687.5z"/>
			</g>
		</g>
		<g>
			<g>
				<path class="st1" d="M623.6,683.2c0.6,0.8,0.4,3.4,0,4.2s-0.9,1.8-1.5,2.6s0.7,1.5,1.3,0.8c0.8-1.1,1.6-2.6,1.8-3.9
					c0.2-1.3,0.5-3.3-0.4-4.4C624.4,681.7,623.1,682.4,623.6,683.2L623.6,683.2z"/>
			</g>
		</g>
		<g>
			<g>
				<path class="st1" d="M622.7,680.3c0.8,0.7,0.5,2.3,0.5,3.3s0,2.7-0.7,3.5c-0.6,0.7,0.4,1.8,1.1,1.1c1.1-1.2,1.1-3.1,1.1-4.6
					c0-1.6,0.4-3.3-0.9-4.4C623,678.6,621.9,679.7,622.7,680.3L622.7,680.3z"/>
			</g>
		</g>
		<g>
			<g>
				<path class="st1" d="M622.9,677.6c0.8,1.9,0.4,4.4,0.2,6.4c-0.1,0.9-0.2,4-1.2,4.6c-0.8,0.5-0.1,1.8,0.8,1.3
					c1.4-0.9,1.7-3.3,1.9-4.7c0.3-2.7,0.8-5.8-0.3-8.4C623.8,676,622.5,676.8,622.9,677.6L622.9,677.6z"/>
			</g>
		</g>
		<g>
			<g>
				<path class="st1" d="M622.7,679.7c1.1,0.8,0.6,3.6,0.2,4.8c-0.4,1.5-0.9,3.2-2,4.3c-0.7,0.7,0.4,1.8,1.1,1.1
					c1.5-1.5,2.3-4.1,2.6-6.1s0.6-4-1.2-5.3C622.6,677.8,621.9,679.1,622.7,679.7L622.7,679.7z"/>
			</g>
		</g>
		<g>
			<g>
				<path class="st1" d="M622.5,679.6c-0.5,0.1-0.1-0.2-0.2,0.5c0,0.2,0,0.4,0,0.6c0,1.4-0.2,2.8-0.4,4.1c-0.2,0.8-0.7,5.1-1.5,5.4
					c-0.9,0.3-0.5,1.8,0.4,1.4c1-0.4,1.2-1.3,1.5-2.2c0.6-2,1.1-4.1,1.4-6.2c0.1-1.1,0.9-5.7-1.5-5.1
					C621.2,678.4,621.6,679.8,622.5,679.6L622.5,679.6z"/>
			</g>
		</g>
		<g>
			<g>
				<path class="st1" d="M621.4,681c0.3,0.1-1,9.9-2.2,10.2c-0.9,0.3-0.5,1.7,0.4,1.4s1.1-0.9,1.4-1.8c0.6-1.8,1.1-3.6,1.4-5.4
					c0.2-1.3,1.5-5.4-0.6-6C620.9,679.3,620.5,680.8,621.4,681L621.4,681z"/>
			</g>
		</g>
		<g>
			<g>
				<path class="st1" d="M621.2,678.9c0.1-0.1,0.2-0.2,0.3-0.3c-0.4-0.1-0.8-0.1-1.2-0.2c0.7,1.5,0,4.5-0.2,6.1
					c-0.2,1.4-0.5,5.2-1.8,6.1c-0.8,0.6,0,1.9,0.8,1.3c1.8-1.2,2.2-4.7,2.5-6.7c0.3-2.2,1.1-5.6,0.1-7.6c-0.2-0.4-0.8-0.5-1.2-0.2
					c-0.1,0.1-0.2,0.2-0.3,0.3C619.5,678.5,620.5,679.5,621.2,678.9L621.2,678.9z"/>
			</g>
		</g>
		<g>
			<g>
				<path class="st1" d="M619.1,678.8c0.6,0.3,0.2,4.2,0.2,4.7c-0.1,1.4-0.1,4.5-1.2,5.5c0.3,0,0.6-0.1,0.9-0.1
					c-0.1,0-0.1-0.1-0.2-0.1c-0.8-0.6-1.5,0.7-0.8,1.3c0.1,0,0.1,0.1,0.2,0.1c0.3,0.2,0.7,0.1,0.9-0.1c1.6-1.5,1.6-4.9,1.7-7
					c0.1-1.4,0.6-4.8-0.9-5.7C619,677,618.2,678.3,619.1,678.8L619.1,678.8z"/>
			</g>
		</g>
		<g>
			<g>
				<path class="st1" d="M618,677.6c0.8,0.9,0.6,4,0.7,5.1c0,0.6,0.1,5.1-0.7,5.6s-0.1,1.8,0.8,1.3c1.5-0.9,1.4-4.5,1.4-6
					c0.1-1.9,0.2-5.5-1.1-7.1C618.4,675.8,617.4,676.9,618,677.6L618,677.6z"/>
			</g>
		</g>
		<g>
			<g>
				<path class="st1" d="M616.3,678.9c1,2.2,1.4,5.3,1,7.7c0.2-0.2,0.3-0.3,0.5-0.5h-0.1c-0.9,0.2-0.5,1.7,0.4,1.4h0.1
					c0.2-0.1,0.5-0.3,0.5-0.5c0.5-2.8,0.1-6.2-1.1-8.8C617.2,677.3,615.9,678,616.3,678.9L616.3,678.9z"/>
			</g>
		</g>
		<g>
			<g>
				<path class="st1" d="M614.8,679.3c0.7,1.4,1.1,2.9,1.4,4.4c0.1,0.3,0.4,3.2,0.8,3c-0.9,0.5-0.1,1.7,0.8,1.3
					c1.1-0.6,0.3-2.2,0.2-3.2c-0.4-2.2-0.8-4.4-1.9-6.3C615.7,677.7,614.4,678.4,614.8,679.3L614.8,679.3z"/>
			</g>
		</g>
		<g>
			<g>
				<path class="st1" d="M614.4,682.7c0.4,1.1,0.6,2.1,0.9,3.2c0.1,0.2,0.1,0.4,0.2,0.6c0.1,0.2,0.1,0.4,0.2,0.5
					c0.2,0.4-0.3,0.1,0.3-0.1c-0.9,0.4-0.1,1.7,0.8,1.3c0.8-0.4,0.5-1.4,0.2-2.1c-0.4-1.3-0.7-2.6-1.2-3.8
					C615.5,681.4,614.1,681.8,614.4,682.7L614.4,682.7z"/>
			</g>
		</g>
		<g>
			<g>
				<path class="st1" d="M612.9,680.7c0.4,0.8,0.7,1.7,1,2.5s0.8,1.6,0.9,2.5c0.5-0.1,0.9-0.3,1.4-0.4c-0.1-0.1-0.1-0.2-0.2-0.3
					c-0.5-0.8-1.8-0.1-1.3,0.8c0.1,0.1,0.1,0.2,0.2,0.3c0.4,0.6,1.5,0.4,1.4-0.4c-0.1-0.9-0.4-1.7-0.8-2.6c-0.4-1-0.8-2.1-1.3-3.1
					C613.7,679.1,612.5,679.8,612.9,680.7L612.9,680.7z"/>
			</g>
		</g>
		<g>
			<g>
				<path class="st1" d="M611.5,679.1c0.2,0.9,0.6,1.6,1,2.4c0.3,0.7,0.4,1.4,1,2c0.7,0.7,1.7-0.4,1.1-1.1c-0.1-0.1-0.2-0.2-0.3-0.3
					c-0.6-0.8-1.9,0-1.3,0.8c0.2,0.2,0.3,0.4,0.5,0.6c0.4-0.4,0.7-0.7,1.1-1.1c-0.4-0.4-0.5-1.1-0.8-1.7c-0.3-0.7-0.7-1.3-0.8-2
					C612.8,677.7,611.3,678.1,611.5,679.1L611.5,679.1z"/>
			</g>
		</g>
		<g>
			<g>
				<path class="st1" d="M611.7,678.3c-0.4,0-0.6,0.3-0.9,0.3c-0.5,0.1-0.7-0.4-1.1-0.8c-0.6-0.7-1.5,0.2-1.2,0.9
					c0.7,1.4,1.5,0.9,2.8,0.6c1-0.2,2.3,0,3.2,0.5c0.4,0.2,1.2,0.6,1.4,1c0-0.3,0-0.5,0-0.8c0.1-0.1,0.1-0.1,0.2-0.2
					c-0.9,0.2-0.5,1.6,0.4,1.4c1.9-0.4-0.1-2.1-0.8-2.5c-1-0.6-2-0.9-3.2-1.1c-0.6-0.1-1.1,0-1.6,0.1c-0.3,0.1-0.7,0.3-1,0.3
					c-0.2,0,0.2,0.4-0.1-0.2c-0.4,0.3-0.8,0.6-1.2,0.9c0.5,0.5,0.8,1.2,1.5,1.4c0.3,0.1,0.5,0.1,0.8,0c0.2-0.1,0.5-0.5,0.7-0.5
					C612.7,679.8,612.7,678.3,611.7,678.3L611.7,678.3z"/>
			</g>
		</g>
		<g>
			<g>
				<path class="st1" d="M611.5,680.4c1-0.6,2-1.1,3.2-0.9c0.5,0.1,1.2,0.4,1.5,0.9c0.1,0.1,0.2,0.9,0,1c-0.9,0.2-0.5,1.7,0.4,1.4
					c0.8-0.2,1.1-1,1.2-1.7c0.2-0.9-0.2-1.6-0.9-2.2c-1.9-1.6-4.2-0.9-6.1,0.2C610,679.6,610.7,680.9,611.5,680.4L611.5,680.4z"/>
			</g>
		</g>
		<g>
			<g>
				<path class="st1" d="M612.3,679.5c0.1-0.1,0.3-0.1,0.5-0.1c0.2-0.1,0.5-0.2,0.7-0.2c0.7-0.4,1-0.1,1,0.9c-0.8,0.1,2-1.8,2.1-1.8
					s5.2-0.5,4.9,0c0.4,0,0.7,0,1.1,0c0.5,0.5,1.6,3.6,1.1,2.1c-0.1-1.3,0.1-0.9,0.5,1.3c-0.5-0.5-0.7-1.1-0.8-1.8
					c-0.4,0.3-0.7,0.6-1.1,0.8c0.5,0.5,0.6,1.1,0.4,1.8c0.4,1.2-0.1,2-1.4,2.2c-2.3,1.5-0.9,0.6-2.8,0.3c-0.5-0.1-1-0.2-1.4,0.1
					c-1.4,1-0.6,4-0.3,5.4c0.5-0.1,1-0.3,1.4-0.4c-0.1-0.4-0.4-2.5-0.1-3.1c-0.3,0.1-0.7,0.2-1,0.3c0.6,0.3,1.4,4.4,1.4,4.9
					c0.1,0.9,1.5,1,1.5,0c0-1.8-0.5-3.6-0.9-5.3c-0.3-0.9-1.7-0.5-1.4,0.4c0.6,2.5,1.5,5.5,1.2,8.2c0.4-0.2,0.9-0.4,1.3-0.5
					c-0.1-0.2-1-1.8-0.9-1.7c-0.4-0.6-1.5-0.4-1.4,0.4c0.1,0.7,0.1,0.8,0.3,1.5c0.2,0.8,1.5,0.7,1.5-0.2c0-0.4-0.1-0.8-0.1-1.2
					c-0.5,0.1-1,0.1-1.5,0.2c0.1,0.5,0.1,1,0.2,1.5c0.5-0.1,1-0.1,1.5-0.2c-2-5.2-2.5-11.2-5.3-16.1c-0.4-0.8-1.5-0.2-1.4,0.6
					c0.1,1,0.4,1.9,0.7,2.8c0.5-0.2,0.9-0.4,1.4-0.6c-0.4-0.7-0.5-1.4-0.5-2.2c-0.4,0.1-0.8,0.2-1.3,0.3c1.1,0.9,1.5,2.3,1.9,3.7
					c0.5-0.1,1-0.3,1.4-0.4c-0.2-0.5-1.4-2.8-1.1-3.5c-0.4,0.1-0.8,0.1-1.2,0.2c0.6,0.8,0.9,1.7,1,2.8c0.4-0.2,0.8-0.4,1.1-0.6
					c-1.5-0.8-1.6-3.1-3.4-3.8c-0.3-0.1-0.7,0.1-0.8,0.3c-0.5,0.7,0.5-0.1-0.4-0.2c-0.1,0-0.9,0-1,0c-0.5-0.2-1.4-0.7-1.4-0.7
					c-0.1,0.3-0.2,0.7-0.3,1c0.3-0.1,3-0.9,3.1-0.5c0.3-0.3,0.6-0.6,0.9-0.9c-1.1-0.4-1.8-0.8-2.9,0c-0.7,0.5-0.3,1.5,0.6,1.4
					c0.4,0,0.8,0,1.2,0c-0.1-0.5-0.1-1-0.2-1.5c-0.2,0-0.3,0.1-0.5,0.1c-0.9,0.3-0.5,1.7,0.4,1.4c0.2,0,0.3-0.1,0.5-0.1
					c0.8-0.2,0.6-1.4-0.2-1.5s-0.8-0.1-1.6,0.1c0.2,0.5,0.4,0.9,0.6,1.4c0.7-0.5,1.2-0.1,1.7,0.1c0.6,0.2,1-0.4,0.9-0.9
					c0-0.2-0.1-0.4-0.1-0.5c-0.1-0.2-0.3-0.5-0.5-0.5c-1.6-0.3-3.2,0-4.7,0.7c-0.4,0.2-0.5,0.7-0.3,1c0.4,0.6,1.4,1.3,2,1.5
					c1,0.2,1.1-0.1,1.4,0.4c0.2,0.2,0.5,0.3,0.7,0.2c1.4-0.4,0.3-1.3,1.4,0.3c0.7,1,1,2,2,2.6c0.5,0.3,1.2-0.1,1.1-0.6
					c-0.1-1.3-0.4-3-1.5-3.8c-0.3-0.3-1-0.3-1.2,0.2c-0.6,1.4,0.4,3.4,0.9,4.7c0.3,0.9,1.8,0.5,1.4-0.4c-0.5-1.6-1-3.2-2.3-4.3
					c-0.4-0.4-1-0.2-1.3,0.3c-0.4,1.1,0.2,2.3,0.6,3.4c0.4,0.8,1.6,0.2,1.4-0.6c-0.3-0.9-0.6-1.8-0.7-2.8c-0.5,0.2-0.9,0.4-1.4,0.6
					c2.7,4.8,3.2,10.6,5.1,15.7c0.3,0.7,1.5,0.7,1.5-0.2c0-0.8-0.1-1-0.2-1.9c-0.1-0.8-1.5-0.6-1.5,0.2c0,0.4,0.1,0.8,0.1,1.2
					c0.5-0.1,1-0.1,1.5-0.2c-0.1-0.4-0.1-0.7-0.2-1.1c-0.5,0.1-0.9,0.3-1.4,0.4c0.5,0.9,0.6,1.3,1.1,2c0.4,0.6,1.2,0,1.3-0.5
					c0.3-2.8-0.6-5.9-1.3-8.6c-0.5,0.1-1,0.3-1.4,0.4c0.4,1.5,0.9,3.3,0.9,4.9c0.5,0,1,0,1.5,0c-0.2-1.6-0.6-5.3-2.2-6.2
					c-0.3-0.2-0.9-0.1-1,0.3c-0.6,1.3-0.4,3-0.1,4.3c0.3,0.9,1.6,0.5,1.4-0.4c-0.4-2.2-0.5-2.5,1.8-2.9c0.2,0,0.4,0.1,0.6,0.1
					c1.5-0.3,2.4-0.6,3.2-1.9c0.9-1.6,1.1-5-0.7-6.1c-0.6-0.4-1.2,0.2-1.1,0.8c0.3,1.3,1.2,3.6,2.9,3.2c1.4-0.3,1.6-2.2,1.2-3.3
					c-0.4-1.2-1.9-3-3.3-1.9c-1.3,1-0.5,3.7,0.2,4.7c0.2,0.2,0.5,0.5,0.8,0.3c2.1-0.8,1.4-5.9-0.4-6.8c-2.3-1.1-3.4,2.5-1.3,3.2
					c1.9,0.6,2.5-1.8,1.1-2.8c-2-1.5-3.3,0.8-1.8,2.4c0.3,0.3,0.8,0.3,1.1,0c0.1-0.1,0.2-0.3,0.3-0.4c0.2-0.3,0.3-0.6,0.1-0.9
					c-2.2-4-6.2,0.4-3.6,2.1c2.4,1.6,3.8-4,0.4-3.9c-4.4,0.1-3.2,7.1-0.6,5.8c2.8-1.5-0.9-6.9-3.9-5c-0.2,0.1-0.4,0.4-0.4,0.6
					c0.1,1.5,0.6,2.3,2,2.9c0.3,0.1,0.6,0.1,0.9-0.1c1.2-1.1,2.1-4-0.2-4.4c-2.2-0.4-3.1,2.8-2,4.2c2.7,3.7,5.4-5.1,0.5-3.1
					c-1.6,0.7-2.6,3.4-0.4,4.1c1.7,0.5,2.9-1.4,2.2-2.8c-2.3-4.9-7.5,3.2-3.3,3.5c0.3,0,0.5-0.2,0.6-0.4c0.7-1.2,0.8-4.6-1.5-4.1
					c-2.4,0.5-1.1,3.7,0.1,4.5c0.2,0.1,0.5,0.1,0.8,0c1.3-0.8,2.1-3.1,0.7-4.3c-1-0.8-2.7-0.2-3.8,0.4
					C610.7,678.7,611.4,680,612.3,679.5L612.3,679.5z"/>
			</g>
		</g>
		<g>
			<g>
				<path class="st1" d="M607.2,677.8c-0.7,0.2-0.4,0.3-0.3,0.2c-0.6,0.4-0.7,0.1-1.2,0.8c-0.6,0.8,0.7,1.5,1.3,0.8
					c0.2-0.2,3.5-0.6,4-0.7c0.9-0.3,1.9-0.6,2.8-0.7c1.4-0.2,1.9,0.6,3.3,0.3c1.3-0.3,2.6-1,3.8-1.3c1.5-0.4,1.8,0.1,2.4,1.8
					c0.3,0.9,1.7,0.5,1.4-0.4c-0.4-1.1-1-2.6-2.1-3.2c-0.2-0.1-0.5-0.1-0.8,0c-0.6,0.4-0.6-0.2-1.2,0c-0.5,0.2-0.7,0.5-1.2,0.7
					c-0.7,0.3-1.8,0.4-2.5,0.5c-0.2,0-0.5,0.4-0.7,0.4c0.1,0-1.5-1.1-1.3-1c-0.2-0.1-0.5-0.2-0.8,0c-1.9,1.3-4.2,1.6-6.4,2
					c-1.1,0.2-1.4-0.1-2.1,0.8c0.4,0.3,0.9,0.5,1.3,0.8l0,0c0.3,0.1,0.7,0,0.8-0.3c-0.1,0-0.1,0-0.2,0
					C608.5,679,608.1,677.6,607.2,677.8L607.2,677.8z"/>
			</g>
		</g>
		<g>
			<g>
				<path class="st1" d="M616.6,712.1c-0.5,0.9-0.4,1.9-0.3,2.8c0.1,0.8,0.1,1.3,0,2.1c-0.1,0.7,0,1.5,0,2.2c0,1,1.5,1,1.5,0v-0.1
					c0-1-1.5-1-1.5,0v0.1c0.5,0,1,0,1.5,0c0-1.1,0.2-2.2,0.2-3.3c0-1-0.6-2.2-0.1-3.1C618.4,712,617.1,711.3,616.6,712.1
					L616.6,712.1z"/>
			</g>
		</g>
		<g>
			<g>
				<path class="st1" d="M617.1,713.9c0.7-0.4,0.1,1.3,0.1,1.7c-0.1,0.6-0.1,1.2-0.2,1.8c-0.1,1-0.5,2-0.6,3s1.4,1,1.5,0
					c0.2-2,1.2-4.1,1-6.2c-0.1-1.6-1.1-2.4-2.5-1.7C615.5,713,616.3,714.3,617.1,713.9L617.1,713.9z"/>
			</g>
		</g>
		<g>
			<g>
				<path class="st1" d="M613.2,728.7c-0.3,0.6-0.8,1.1-1.2,1.6c-0.4,0.6-0.6,1.2-0.9,1.9c-0.4,1.1-1.3,2.3-1.3,3.5
					c0,0.7,1,1.1,1.4,0.4c0.7-1.3,1.1-2.8,1.8-4.2c0.5-1,1.3-2.3,1.2-3.5c0-0.7-0.8-0.9-1.3-0.5c-1.2,1-1.2,3.2-1.9,4.6
					c-0.4,0.9,0.9,1.6,1.3,0.8c0.3-0.7,0.6-1.3,0.8-2.1c0.2-0.7,0.2-1.7,0.9-2.2c-0.4-0.2-0.9-0.4-1.3-0.5c0,1.1-1,2.7-1.5,3.6
					c-0.5,1.1-0.8,2.3-1.3,3.3c0.5,0.1,0.9,0.3,1.4,0.4c0-0.3,0.3-0.7,0.4-1c0.2-0.6,0.5-1.2,0.8-1.8c0.5-1.3,1.4-2.2,2-3.4
					C615,728.6,613.7,727.8,613.2,728.7L613.2,728.7z"/>
			</g>
		</g>
		<g>
			<g>
				<path class="st1" d="M664,1189.6c-0.8,0.3-1.5,0.7-2.3,0.9c-1.2,0.3-2.5,0.4-3.7,0.5c-1.5,0.2-3,0.3-4.5,0.7
					c-0.8,0.2-0.7,1.5,0.2,1.5c3-0.2,6.7-0.6,9.4-2.1c0.9-0.5,0.1-1.7-0.8-1.3c-0.3,0.2-6.3,1.5-6.3,1.5c0,0.3-0.1,0.6-0.1,0.9
					c0.5-0.4,1.8-0.6,2.4-0.8c1.3-0.4,2.7-0.6,4-0.9c0.6-0.1,0.7-1.1,0.2-1.4c-0.6-0.3-0.9-0.3-1.6-0.2c-1.4,0.2-2.7,0.5-4.1,0.3
					c0.1,0.4,0.2,0.8,0.3,1.3c0.7-0.7,3.5-0.8,4.4-1c0.8-0.2,0.7-1.5-0.2-1.5c-1.4,0.1-3.2,0.6-4.6,0.4c0.1,0.4,0.2,0.8,0.3,1.3
					c0.6-0.7,2.4-1,3.4-1.1c-0.1-0.5-0.3-1-0.4-1.4c-0.6,0.2-2,0.4-2.6,0.3c0.1,0.4,0.3,0.7,0.4,1.1c0.3-0.2,0.5-0.4,0.8-0.5
					c-0.1-0.5-0.3-1-0.4-1.4c-0.3,0.1-0.6,0.1-0.9,0.2c0.2,0.4,0.4,0.8,0.6,1.1c0.2-0.3,0.4-0.6,0.6-0.9c0.4-0.5-0.1-1.1-0.6-1.1
					c-0.7,0-1,0.1-1.7,0.1c0.2,0.3,0.5,0.6,0.7,0.9c0.1-0.2,0.3-0.5,0.4-0.7c0.4-0.5-0.1-1.1-0.6-1.1c-0.6,0-0.4-0.1-0.4,0.4
					c-0.1-0.6-0.6-0.9-1.1-0.6c-0.4,0.2-0.5,0.3-0.7,0.6c-0.3,0.5,0.1,1.1,0.6,1.1c0.2,0,0.4,0.1,0.6,0.1c-0.2-0.3-0.3-0.6-0.5-0.9
					c-0.2,0.4-0.5,0.7-0.9,1c0.3,0.4,0.6,0.8,0.9,1.2c0.2-0.2,0.5-0.3,0.7-0.5c-0.3-0.3-0.7-0.7-1-1c-0.2,0.3-0.4,0.6-0.6,1
					c-0.3,0.6,0.2,1.3,0.8,1.1c0.4-0.1,1-0.4,1.4-0.4c-0.2-0.3-0.5-0.6-0.7-0.9c-0.1,0.3-0.9,0.7-1.1,1c-0.4,0.5,0,1.6,0.7,1.3
					c0.3-0.1,0.6-0.2,0.9-0.3c-0.2-0.4-0.4-0.9-0.5-1.3c-0.5,0.5-0.9,0.9-1.3,1.4c-0.5,0.6,0,1.4,0.7,1.3c0.1,0,0.2,0,0.3,0
					c-0.3-0.2-0.6-0.5-0.9-0.7c0-0.1,0-0.1,0-0.2c0.2,0.5,0.4,0.9,0.6,1.4c0.1-0.1,0.2-0.2,0.3-0.3c0.5-0.4,0.4-1.4-0.4-1.4
					c-0.6,0-0.8,0.2-1.4,0.5c-0.7,0.4-0.3,1.7,0.6,1.4c0.6-0.2,1.3-0.8,1.5-0.2c0,0.3,0.3,0.4,0.5,0.5c0.5,0.2,1.1,0,1.6-0.3
					c0.8-0.5,0.1-1.8-0.8-1.3c-0.1,0.1-0.4,0.1-0.5,0.2c-0.2,0.3,0.5,0.2,0.5,0.2c0-0.3-0.3-0.7-0.6-0.8c-0.8-0.5-1.9,0-2.7,0.3
					c0.2,0.5,0.4,0.9,0.6,1.4c0.2-0.1,0.4-0.2,0.6-0.3c-0.1-0.5-0.3-0.9-0.4-1.4c-0.1,0.1-0.2,0.2-0.3,0.3c-0.6,0.5-0.3,1.6,0.6,1.4
					c0.7-0.2,1-0.5,1.1-1.3c0.1-0.5-0.5-0.8-0.9-0.7c-0.1,0-0.2,0-0.3,0c0.2,0.4,0.5,0.8,0.7,1.3c0.4-0.5,0.8-0.9,1.3-1.4
					c0.5-0.4,0.1-1.3-0.5-1.3c-0.5,0-0.9,0.1-1.3,0.3c0.2,0.4,0.5,0.8,0.7,1.3c0.5-0.6,1.3-0.9,1.5-1.7c0.1-0.4-0.2-1-0.7-0.9
					c-0.6,0.1-1.2,0.3-1.8,0.5c0.3,0.4,0.6,0.7,0.8,1.1c0.2-0.4,0.4-0.6,0.6-1c0.3-0.6-0.4-1.5-1-1c-0.4,0.2-0.7,0.5-1,0.7
					c-0.7,0.5,0.2,1.7,0.9,1.2s1.2-1,1.6-1.9c0.2-0.4-0.2-0.8-0.5-0.9c-0.4-0.1-0.5-0.2-1-0.2c0.2,0.4,0.4,0.8,0.6,1.1l0.1-0.1
					c-0.4-0.2-0.8-0.4-1.1-0.6c0.1,1.1,0.9,1.1,1.9,1.1c-0.2-0.4-0.4-0.8-0.6-1.1c-0.3,0.4-0.4,0.5-0.6,1c-0.2,0.5,0.3,1,0.7,0.9
					c0.5,0,1.3-0.2,1.7-0.1c-0.2-0.4-0.4-0.8-0.6-1.1c-0.2,0.3-0.4,0.6-0.6,0.9c-0.3,0.5,0.1,1.1,0.6,1.1c0.7,0,0.7,0,1.3-0.2
					c0.9-0.3,0.5-1.8-0.4-1.4c-0.7,0.2-1.3,0.5-1.7,1.2c-0.2,0.4-0.1,1,0.4,1.1c1.1,0.2,2.4,0,3.4-0.3c0.9-0.3,0.5-1.6-0.4-1.4
					c-1.3,0.2-3.1,0.5-4,1.5c-0.3,0.4-0.3,1.1,0.3,1.3c1.6,0.3,3.3-0.2,5-0.3c-0.1-0.5-0.1-1-0.2-1.5c-1.6,0.5-3.8,0.2-5.1,1.4
					c-0.4,0.4-0.2,1.2,0.3,1.3c0.9,0.1,1.8,0.1,2.8,0.1c0.6,0,2-0.6,2.5-0.3c0.1-0.5,0.1-0.9,0.2-1.4c-2.1,0.4-5.4,0.6-7.1,2
					c-0.2,0.2-0.3,0.7-0.1,0.9c0.7,0.9,2,0.5,3,0.3c1.7-0.4,3.7-0.5,5.3-1.2c-0.3-0.4-0.5-0.9-0.8-1.3c-2.4,1.3-5.9,1.7-8.6,1.9
					c0.1,0.5,0.1,1,0.2,1.5c1.7-0.5,3.5-0.5,5.2-0.8c1.9-0.3,3.5-0.8,5.3-1.4C665.3,1190.8,664.9,1189.3,664,1189.6L664,1189.6z"/>
			</g>
		</g>
		<g>
			<g>
				<path class="st1" d="M657.9,1193.8c1,0,1-1.5,0-1.5S656.9,1193.8,657.9,1193.8L657.9,1193.8z"/>
			</g>
		</g>
		<g>
			<g>
				<path class="st1" d="M658.4,1194.7c0,0.5,0.1,0.9,0.2,1.3c0,0.4-0.1,0.8-0.1,1.2c-0.1,0.4,0.1,0.8,0.5,0.9s0.9-0.1,0.9-0.5
					c0.1-0.5,0.2-0.9,0.2-1.4s-0.2-1-0.2-1.5C660,1193.7,658.5,1193.7,658.4,1194.7L658.4,1194.7z"/>
			</g>
		</g>
		<g>
			<g>
				<path class="st1" d="M658.4,1193.4c0,1,0.5,2,0.5,3c0,0.5,0,1.8-0.5,2.1c-0.9,0.4-0.1,1.7,0.8,1.3c0.9-0.4,1.1-1.5,1.2-2.4
					c0.1-0.5,0.1-1,0-1.6c-0.1-0.8-0.5-1.6-0.5-2.4C659.9,1192.4,658.4,1192.4,658.4,1193.4L658.4,1193.4z"/>
			</g>
		</g>
		<g>
			<g>
				<path class="st1" d="M660,1193.6c0.2,0.4,0.1,1.1,0.2,1.6c0.1,0.7,0.1,1.3,0.1,2c0,1,1.5,1,1.5,0c0-0.8,0-1.6-0.1-2.4
					c-0.1-0.7,0-1.3-0.3-1.9C660.8,1192,659.6,1192.7,660,1193.6L660,1193.6z"/>
			</g>
		</g>
		<g>
			<g>
				<path class="st1" d="M661,1192.2c0.5,0.6,0.8,1.1,0.8,1.9s0,1.6-0.2,2.4c-0.2,0.9,1.3,1.3,1.4,0.4c0.2-1.1,0.3-2.1,0.2-3.1
					c-0.1-0.9-0.5-1.6-1-2.3C661.8,1190.6,660.5,1191.4,661,1192.2L661,1192.2z"/>
			</g>
		</g>
		<g>
			<g>
				<path class="st1" d="M659.9,1191.6L659.9,1191.6c0.1,0.3,0.3,0.6,0.5,0.6c0.5,0.1,0.7,0.9,0.8,1.3c0.1,0.3,0.5,1.5,0.2,1.8
					c-0.7,0.7,0.4,1.8,1.1,1.1c0.7-0.8,0.5-2.3,0.1-3.2c-0.3-1-0.7-2.2-1.9-2.4c0.2,0.2,0.3,0.3,0.5,0.5v-0.1
					C661.1,1190.3,659.7,1190.7,659.9,1191.6L659.9,1191.6z"/>
			</g>
		</g>
		<g>
			<g>
				<path class="st1" d="M661.5,1191.2c0.5,0.5,1.2,1,1.5,1.7c0.4,0.8,0.3,1.7,0.3,2.5c0,1,1.5,1,1.5,0s0.1-2.1-0.4-3.1
					c-0.4-0.9-1.1-1.5-1.8-2.1C661.9,1189.5,660.8,1190.5,661.5,1191.2L661.5,1191.2z"/>
			</g>
		</g>
		<g>
			<g>
				<path class="st1" d="M662.6,1192.1c0.4,0.1,0.6,0.9,0.7,1.2c0.2,0.8,0,1.6,0,2.3c0,1,1.5,1,1.5,0c0-1.1,0.2-2.2-0.2-3.2
					c-0.3-0.7-0.7-1.7-1.6-1.8C662,1190.5,661.6,1192,662.6,1192.1L662.6,1192.1z"/>
			</g>
		</g>
		<g>
			<g>
				<path class="st1" d="M659.7,1193c-0.1-0.1-0.1-0.1-0.2-0.2c0,0.4,0.4,0.8,0.8,0.8c0.4,0,0.7-0.3,0.8-0.8
					c0.1-0.6-0.4-1.1-0.9-1.3C659.2,1191.3,658.8,1192.7,659.7,1193L659.7,1193z"/>
			</g>
		</g>
		<g>
			<g>
				<path class="st1" d="M659.2,1196.8c-0.1,0.2-0.4,0.4-0.5,0.6c-0.2,0.3-0.2,0.6-0.2,0.9c0.1,0.6,0.8,1,1.4,0.8
					c0.5-0.1,1.1-0.7,1.5-0.9c0.6-0.4,1.3-0.7,1.8-1.2c0.7-0.6-0.3-1.7-1.1-1.1c-0.6,0.5-1.3,0.8-2,1.2c-0.2,0.1-0.6,0.3-0.7,0.5
					c0.1,0.5,0.3,0.7,0.5,0.5c0.1-0.1,0.1-0.1,0.2-0.1c0.1-0.1,0.2-0.3,0.3-0.4C660.9,1196.7,659.6,1195.9,659.2,1196.8
					L659.2,1196.8z"/>
			</g>
		</g>
		<g>
			<g>
				<path class="st1" d="M659.9,1198.8c0.8,0,1.8-0.6,2.4-1c0.9-0.6,1.6-1.3,2.4-1.9c0.8-0.6-0.3-1.7-1.1-1.1
					c-0.6,0.5-1.2,1.1-1.9,1.5c-0.4,0.3-1.3,1-1.9,0.9C658.9,1197.3,658.9,1198.8,659.9,1198.8L659.9,1198.8z"/>
			</g>
		</g>
		<g>
			<g>
				<path class="st1" d="M654,1191.6c0-0.8,0.6-1.9,0.9-2.6c0.4-0.9,0.7-1.7,0.4-2.6c-0.1-0.6-1.1-0.8-1.4-0.2
					c-0.3,0.6-0.4,1.3-0.4,1.9c-0.1,0.8,0.4,1.5,0.4,2.3s1.3,1.1,1.5,0.2c0.1-0.4,0.3-0.8,0.4-1.2c0.1-0.5,0.2-1,0.2-1.5
					c0-1-1.5-1-1.5,0c0,0.8-0.4,1.5-0.5,2.2c0.5,0.1,1,0.1,1.5,0.2c0-1.1-0.7-2.3-0.1-3.4c-0.5-0.1-0.9-0.1-1.4-0.2
					c0.2,0.9-0.5,2-0.8,2.8c-0.2,0.6-0.6,1.4-0.6,2C652.5,1192.6,654,1192.6,654,1191.6L654,1191.6z"/>
			</g>
		</g>
	</g>
	<g id="Ebene_3">
		<g class="st2">
			<g>
				<path d="M627,640.4c0.1,0.5,0.2,1,0.1,1.5c0.2,0,0.5-0.1,0.7-0.1c-0.1-0.2-0.4-0.9-0.4-1.1c-0.2,0.1-0.4,0.2-0.6,0.3
					c-0.1,0-0.1,0.3-0.1,0.3c0.2-0.1,0.4-0.1,0.6-0.2c-0.3-0.2-0.3-0.9-0.3-1.2c-0.2,0.1-0.5,0.1-0.7,0.2c0.2,0.5,0.3,1.3,0.2,1.8
					c0.2-0.1,0.4-0.1,0.6-0.2c-0.4-0.4-0.4-1.1-0.6-1.6c-0.2-0.4-0.8-0.1-0.7,0.3c0,0.1,0.2,1.4,0.3,1.4s0.2,0.1,0.4,0.1
					c-0.2-0.2-0.5-1.1-0.5-1.3c-0.2,0-0.5,0.1-0.7,0.1c0.1,0.2,0.2,1,0,1.2c0.2,0,0.4,0,0.5,0c-0.4-0.4-0.2-1.1-0.7-1.6
					c-0.2-0.2-0.7-0.1-0.6,0.3c0,0.3,0.1,0.7,0.1,1c0.2-0.1,0.4-0.2,0.6-0.3c-0.4-0.3-0.3-0.7-0.6-1c-0.2-0.2-0.6,0-0.6,0.3
					s0,0.6,0,0.9c0.2-0.1,0.4-0.1,0.6-0.2l0,0c-0.1,0.1-0.3,0.3-0.4,0.4c0.1,0,0.4,0.8,0.5,0.9c0.3,0.3,0.8,0.1,1,0.3
					c0-0.2,0-0.4,0-0.5c0,0-0.4-0.3-0.5-0.4c-0.3-0.3-0.2-0.7,0-1.1c0.2-0.5,0.8-1.2,1.3-1.3c-0.1-0.2-0.2-0.4-0.3-0.6
					c-0.5,0.5-1.4,0.8-2.1,1c-0.3,0.1-0.4,0.7,0,0.7c0.7,0.1,1.2-0.6,1.6-1c0.3-0.3-0.2-0.9-0.5-0.5c-0.6,0.5-1.7,1-1.6,2
					c0.1,0.4,0.4,0.8,0.7,1.1c0.4,0.4,0.7,0.4,1.1,0.7c0.4,0.3,1.2,1.1,1.7,0.5c0.2-0.2,0.2-0.7,0.2-1c0.1-0.8,0-1.6,0-2.4
					c-0.3,0-0.5,0-0.8,0c0,0.8,0.1,1.7,0.4,2.4c0.2-0.1,0.5-0.2,0.7-0.3c-0.6-1-0.3-2.1-0.5-3.2c-0.1-0.3-0.5-0.4-0.7-0.1
					c-0.2,0.5-0.2,0.7-0.1,1.2c0.1,0.4,0,0.6,0,1c0,0.1,0,0.5,0,0.5c0.2,0,0.3,0,0.5,0.1c-0.1-0.1-0.6-1.5-0.4-1.7
					c-0.2,0-0.4,0-0.5,0c0.3,0.4-0.1,0.9-0.5,0.9c-0.2,0-0.5,0-0.7,0c-0.1,0-0.2,0.1-0.3,0.3c0,0.3-0.1,0.6,0.2,0.9
					c0.1,0.1,0.9,0.4,0.8,0.3c0.2-0.2,0.3-0.3,0.5-0.5c-0.3-0.1-0.7-0.1-1-0.3c-0.4-0.3-0.6-0.9-0.5-1.4s1-0.9,1.4-1.1
					c0.3-0.2,0.2-0.7-0.2-0.7c-0.6,0-1.1,0.3-1.6,0.8c-0.4,0.4-1,1.2-1,1.8c0,0.5,0.4,1,0.8,1.3c0.3,0.2,1.5,0.4,1.6,0.8
					c0.1,0.5,0.9,0.3,0.7-0.2c-0.2-0.7-0.8-0.7-1.4-0.9c-0.2-0.1-0.5-0.2-0.6-0.4c-0.4-0.3-0.3-0.6-0.1-1c0.3-0.6,0.9-1.4,1.6-1.4
					c-0.1-0.2-0.1-0.5-0.2-0.7c-1,0.5-1.9,1.1-1.7,2.3s0.9,1.5,2,1.8c0.3,0.1,0.6-0.2,0.5-0.5c-0.1-0.2-0.1-0.3-0.3-0.4
					c-0.2-0.1-0.8-0.1-0.7-0.4c-0.1,0.1-0.2,0.2-0.3,0.3c0.7-0.1,1.3,0.1,1.6-0.6c0.2-0.5,0.3-1.2-0.1-1.6c-0.1-0.2-0.4-0.1-0.5,0
					c-0.4,0.3-0.3,0.7-0.2,1.1c0.1,0.6,0.2,1.1,0.6,1.6c0.1,0.1,0.3,0.1,0.5,0.1c0.4-0.3,0.3-0.5,0.3-0.9c0-0.3,0.2-0.6,0.1-0.9
					c0-0.4-0.3-0.8-0.1-1.2c-0.2,0-0.5-0.1-0.7-0.1c0.1,0.6,0,1.2,0.1,1.8c0.1,0.5,0.2,1.1,0.5,1.5c0.2,0.4,0.8,0.1,0.7-0.3
					c-0.3-0.7-0.3-1.5-0.4-2.2c0-0.5-0.8-0.5-0.8,0s0,1.1,0,1.6c0,0.4,0,1-0.2,1.4c0.1-0.1,0.2-0.1,0.3-0.2c-0.4,0-0.7-0.4-0.9-0.6
					c-0.3-0.2-0.6-0.2-0.8-0.4c-0.5-0.4-0.7-0.9-0.3-1.4c0.3-0.3,0.7-0.5,1-0.8c-0.2-0.2-0.4-0.4-0.5-0.5c-0.1,0.1-0.7,0.9-0.9,0.8
					c0,0.2,0,0.5,0,0.7c0.8-0.2,1.8-0.6,2.5-1.2c0.2-0.2,0.1-0.7-0.3-0.6c-0.6,0.1-1.2,0.5-1.5,1c-0.4,0.4-0.9,1.2-0.8,1.8
					c0.1,0.7,1.3,2,2,1.3c0.1-0.1,0.2-0.4,0-0.5c-0.4-0.4-1-0.2-1.3-0.8c-0.2-0.3-0.4-0.7-0.8-0.7c-0.2,0-0.4,0.2-0.4,0.4
					s0.1,0.3,0.2,0.5c0.2,0.2,0.6,0.1,0.6-0.2c0.1-0.4,0.1-0.7,0.1-1.1c-0.2,0.1-0.4,0.2-0.6,0.3c0.1,0.1,0.1,0.4,0.2,0.5
					c0.1,0.2,0.3,0.4,0.4,0.5c0.3,0.2,0.6,0.1,0.6-0.3c0-0.4-0.1-0.6-0.1-1c-0.2,0.1-0.4,0.2-0.6,0.3c0.4,0.4,0.2,1.1,0.7,1.6
					c0.1,0.1,0.4,0.1,0.5,0c0.5-0.5,0.4-1.5,0.1-2.1c-0.1-0.3-0.6-0.2-0.7,0.1c-0.1,0.5,0.2,2,0.8,2.1c1.1,0.3,0.5-1.9,0.4-2.3
					c-0.2,0.1-0.5,0.2-0.7,0.3c0.3,0.6,0.3,1.2,0.7,1.8c0.2,0.2,0.6,0.1,0.6-0.2c0.1-0.8,0-1.7-0.3-2.4c-0.2-0.4-0.7-0.2-0.7,0.2
					c0,0.6,0.1,1.5,0.7,1.8c0.2,0.1,0.5,0,0.6-0.2c0.1-0.4,0.1-0.9-0.3-1.2c-0.2-0.2-0.6,0-0.6,0.3c0,0.5,0.3,1.1,0.5,1.5
					c0.2,0.3,0.6,0.2,0.7-0.1c0.2-0.7,0-1.3-0.1-1.9C627.7,639.7,626.9,639.9,627,640.4L627,640.4z"/>
			</g>
		</g>
		<g class="st2">
			<g>
				<path d="M627.3,653.7c0,0.1,0.1,0.2,0.2,0.3c0.1-0.2,0.2-0.4,0.3-0.6C627.5,653.4,627.4,653.6,627.3,653.7c-0.2,0-0.4-0.1-0.6,0
					c-0.4,0.1-0.5,0.5-0.2,0.8c0.1,0.1,0.3,0.1,0.4,0.1c0.3-0.1,0.7-0.4,0.9-0.7c0.1-0.2,0-0.4-0.1-0.5c-0.4-0.3-0.9,0-1.3,0.2
					c-0.4,0.2-0.9,0.2-1.1,0.7c-0.2,0.4-0.1,0.9,0.2,1.2c0.2,0.2,0.5,0.3,0.7,0.3c0.4,0,0.7,0.1,1.1,0.1c0.4,0,0.5-0.5,0.2-0.7
					c-0.1-0.1-0.5-0.1-0.5-0.3c-0.1-0.2,0.3-0.4,0.4-0.5c-0.2-0.1-0.4-0.1-0.6-0.2c0.1,0.2,0.1,0.5,0,0.7c0.1-0.1,0.2-0.2,0.3-0.3
					l0.1,0.1v-0.1c0,0,0-0.2,0.1-0.2s0.1,0.2,0,0.2c0,0.1-0.1,0.1-0.1,0.2c0,0.1-0.1,0.1-0.1,0c-0.2-0.1-0.4-0.2-0.6-0.3
					c0,0.1-0.1,0.2,0,0.3c0.2,0,0-0.1,0.1-0.2c-0.1,0.1-0.1,0.1-0.2,0.2c-0.1-0.1-0.1,0-0.1,0.1c0.1-0.1,0.1-0.1-0.1,0
					c0.1,0,0.2,0.1,0.3,0.1c0.2,0.1,0.4,0.1,0.6-0.1c0.3-0.3,0.4-0.8,0.3-1.2c0-0.2-0.3-0.3-0.5-0.3c-0.3,0.1-0.5,0.4-0.7,0.5
					c-0.3,0.1-0.5,0.1-0.6,0.5c-0.1,0.3,0.1,0.5,0.4,0.5c0.6,0,1.1-0.5,1.3-1c0.1-0.2-0.1-0.5-0.4-0.5c-0.4,0-0.7,0.1-0.9,0.4
					c-0.2,0.3-0.6,0.7-0.5,1.2c0,0.4,0.3,0.5,0.6,0.7c0.4,0.2,0.7,0.4,1.2,0.4c0.4,0,0.5-0.6,0.1-0.7c-0.2-0.1-0.3-0.2-0.4-0.3
					c-0.1-0.1-0.3-0.2-0.4-0.3c-0.1-0.1-0.2-0.3-0.1-0.5c0.1-0.1,0.2-0.1,0.4-0.1c0.3-0.1,0.4-0.6,0-0.7c-0.1,0-0.1,0-0.2-0.1
					c-0.4-0.2-0.8,0.4-0.4,0.6c0.1,0.1,0.2,0.1,0.4,0.1c0-0.2,0-0.5,0-0.7c-0.1,0.1-0.3,0-0.5,0.1c-0.1,0.1-0.2,0.2-0.3,0.3
					c-0.2,0.3-0.3,0.7-0.2,1.1c0.1,0.3,0.3,0.4,0.6,0.6c0.3,0.2,0.5,0.5,0.9,0.6c0-0.2,0.1-0.5,0.1-0.7c-0.2,0-0.3-0.1-0.5-0.2
					c-0.1,0-0.4-0.2-0.5-0.2c-0.1-0.1,0.1-0.3,0.2-0.4c0.1-0.2,0.2-0.3,0.4-0.3c-0.1-0.2-0.2-0.3-0.4-0.5c-0.1,0.2-0.3,0.4-0.5,0.4
					c0.1,0.2,0.2,0.3,0.4,0.5c0,0.1-0.2,0.1,0.1,0.1c0.1,0,0.2,0,0.3-0.1c0.2-0.1,0.3-0.4,0.5-0.4c-0.2-0.1-0.3-0.2-0.5-0.3
					c0,0.1,0,0.2,0,0.2c0,0.1,0,0.1,0,0.2c0,0,0.1,0,0.1-0.1c-0.2-0.1-0.3-0.1-0.5-0.1c-0.4,0.1-0.6,0.5-0.5,0.9
					c0.3,1,1.6,0.6,1.4-0.4c-0.1-0.4-0.4-0.7-0.8-0.6c-0.4,0.1-0.5,0.6-0.4,1s0.5,0.7,0.8,0.5c0.4-0.1,0.5-0.6,0.5-1
					c0-0.3-0.3-0.5-0.6-0.3c-0.7,0.5-0.3,1.8,0.6,1.5c0.8-0.3,1.1-1.6,0.1-1.9c-0.7-0.2-1.4,0.8-0.9,1.4c0.2,0.3,0.6,0.3,0.9,0.1
					c0.3-0.3,0.2-0.9,0.1-1.2c-0.1-0.2-0.4-0.4-0.6-0.2c-0.4,0.3-0.9,0.7-0.9,1.2c0,0.6,0.5,0.7,0.9,0.9c0.1-0.2,0.1-0.5,0.2-0.7
					c-0.2,0-0.4-0.1-0.6-0.1c-0.2,0-0.4,0-0.5,0c-0.2-0.1-0.3-0.4-0.1-0.6c0.1-0.1,1.1-0.5,1.2-0.5c0-0.2-0.1-0.3-0.1-0.5
					c-0.1,0.1-0.3,0.3-0.4,0.4c0.1,0,0.2,0.1,0.4,0.1c0,0.1,0,0.1,0,0.2c-0.1,0.1-0.1,0.1-0.2,0.2c0.1-0.1,0.3,0,0.4-0.1
					c0.2,0,0.4-0.2,0.5-0.2c0.3,0,0.5-0.4,0.3-0.6l0,0C627.9,653.1,627.2,653.3,627.3,653.7L627.3,653.7z"/>
			</g>
		</g>
		<g class="st2">
			<g>
				<path d="M626.7,665.8c0,0.4,0.2,1.3-0.1,1.7c0.2,0.1,0.4,0.1,0.6,0.2c0-0.2,0-0.5,0-0.7s-0.1-0.4-0.1-0.6
					c-0.1-0.5-0.8-0.5-0.8,0c0,0.4-0.2,0.8-0.1,1.2c0,0.2,0.1,0.3,0.1,0.4c0,0.1-0.1,0.3-0.1,0.4c0.3,0,0.5,0,0.8,0
					c0.1-0.6-0.6-1.1-1-1.3c-0.1,0-0.1,0-0.2,0c-0.1-0.1-0.2-0.3-0.2-0.4c0-0.1-0.3-0.4-0.2-0.4C625.5,666,626.4,665.8,626.7,665.8
					c-0.2-0.1-0.4-0.3-0.5-0.4c0-0.2-0.1-0.2-0.3-0.1c-0.2,0-0.3,0.1-0.4,0.1c-0.3,0.1-0.6,0.4-0.8,0.7c-0.3,0.7,0.4,1.1,0.8,1.6
					c0.1-0.2,0.1-0.4,0.2-0.6c-0.3,0.1-0.4-0.5-0.2-0.6s0.5-0.2,0.7-0.1c-0.1-0.2-0.1-0.4-0.2-0.6c-0.3,0.4-0.5,1-0.5,1.6
					c0,0.5,0.8,0.5,0.8,0c0-0.1,0-0.6-0.1-0.7c-0.3-0.3-0.2,0.4-0.3,0.5c0.2,0,0.4,0.1,0.6,0.1c-0.2-0.5,0-1.2-0.6-1.3
					c-0.2,0-0.4,0.1-0.5,0.3c-0.1,0.3-0.2,0.5-0.2,0.8c0,0.1,0.3,0.6,0.3,0.4c0.1-0.1,0.2-0.2,0.4-0.3c-0.1,0-0.2,0-0.4,0
					c-0.1,0-0.2,0-0.3-0.1c0,0.1,0,0.1,0,0c-0.1-0.1-0.1-0.2-0.1-0.3c-0.1-0.1-0.2-0.2-0.3-0.3c-0.2,0.2-0.3,0.4-0.5,0.6
					c0.3,0.2,0.4,0.7,0.8,0.9c0.4,0.2,0.8-0.4,0.4-0.6c-0.3-0.2-0.5-0.5-0.6-0.9c-0.2-0.4-0.9-0.3-0.7,0.2s0.4,1,0.9,1.3
					c0.1-0.2,0.3-0.4,0.4-0.6c-0.2-0.1-0.3-0.4-0.4-0.5c-0.1-0.2-0.2-0.3-0.4-0.4c-0.4-0.3-0.7,0.3-0.5,0.6s0.2,0.6,0.5,0.8
					c0.3,0.1,0.7,0.2,1,0.2c0.2,0,0.3-0.1,0.4-0.3c0-0.2,0-0.4-0.1-0.5s-0.1-0.1-0.2-0.2c0-0.1,0.1-0.3,0.1-0.4
					c-0.2,0.1-0.3,0.2-0.5,0.3c-0.1,0,0-0.1,0,0s0,0.2,0,0.3c0,0.2,0.1,0.4,0.2,0.6c0.1,0.2,0.4,0.2,0.6,0.1
					c0.4-0.4,0.6-1.6-0.1-1.9c-0.3-0.1-0.7,0.1-0.8,0.4c-0.1,0.4,0.1,0.7,0.1,1c0.3,0,0.5,0,0.8,0c0-0.3,0-0.7,0.3-1
					c0.2-0.2,0.1-0.6-0.2-0.6c-0.6-0.2-1.7,0.1-1.8,0.8s0.6,1.5,1.3,1.4c0.2,0,0.4-0.4,0.2-0.6c-0.3-0.4-1.3-1.1-0.2-1.3
					c0.5-0.1,1,0,1-0.6c0-0.2-0.2-0.4-0.4-0.4c-0.6,0-2.2,0.5-2,1.4c0.1,0.2,0.2,0.4,0.3,0.7c0.1,0.2,0.1,0.4,0.3,0.6
					c0.3,0.2,1,0.3,1,0.8c-0.1,0.5,0.7,0.5,0.8,0c0-0.3,0.2-0.4,0.1-0.8c-0.1-0.5,0.1-0.8,0-1.3c-0.3,0-0.5,0-0.8,0
					c0,0.2,0.1,0.5,0.1,0.7c0,0.3,0,0.5,0,0.8c0.1,0.3,0.4,0.4,0.6,0.2c0.5-0.6,0.3-1.5,0.3-2.2
					C627.5,665.3,626.7,665.3,626.7,665.8L626.7,665.8z"/>
			</g>
		</g>
	</g>
	<g id="Ebene_6">
		<g>
			<g>
				<path class="st3" d="M608.2,696.4C608.2,696.4,608.2,696.3,608.2,696.4c-0.1-0.2-0.4-0.3-0.6-0.4c-0.1,0.2-0.3,0.4-0.4,0.6
					c0.2,0.2,0.4,0.3,0.6,0.5c0.1-0.2,0.1-0.4,0.3-0.6c-0.2-0.1-0.5-0.2-0.7-0.3c-0.1,0.1-0.1,0.2-0.2,0.3c0.2,0.1,0.5,0.2,0.7,0.3
					c0-0.4,0.1-0.7,0.3-1.1c-0.2,0-0.5-0.1-0.7-0.1c-0.1,0.3-0.1,0.5-0.2,0.8c0.2,0.1,0.5,0.1,0.7,0.2c0.2-1,0.7-1.8,1-2.8
					c0.1-0.5-0.6-0.7-0.7-0.2c-0.2,0.6-0.4,1.2-0.6,1.8c0.2,0.1,0.5,0.1,0.7,0.2c0.4-1.3,1.4-2.3,2.1-3.4c0.2-0.4-0.3-0.8-0.6-0.5
					c-0.4,0.4-0.8,0.9-1.2,1.3c-0.3,0.4,0.2,0.9,0.5,0.5c1.1-1,2.8-2.4,3-4c0.1-0.4-0.3-0.6-0.6-0.4c-0.6,0.5-0.8,1.1-1,1.8
					c-0.1,0.3,0.4,0.7,0.6,0.4c1.1-1.4,1.3-2.7,1.9-4.3c-0.2,0-0.5-0.1-0.7-0.1c0,0.4,0,0.7,0,1.1c0,0.3,0.3,0.5,0.6,0.3
					c0.8-0.6,0.5-2.5,0.3-3.4c-0.1-0.4-0.6-0.4-0.7,0c-0.2,0.5-0.2,1-0.1,1.6c0.1,0.4,0.7,0.3,0.7-0.1c0-1.1-0.1-2.2,0.1-3.3
					c0.1-0.3-0.3-0.6-0.6-0.4c-1.2,0.6-1.3,2-0.9,3.1c0.1,0.5,0.9,0.3,0.7-0.2c-0.2-0.7-0.2-1.9,0.6-2.3c-0.2-0.1-0.4-0.3-0.6-0.4
					c-0.3,1.2-0.2,2.3-0.2,3.5c0.2,0,0.5-0.1,0.7-0.1c-0.1-0.4-0.1-0.8,0.1-1.2c-0.2,0-0.5,0-0.7,0c0.1,0.3,0.4,2.3,0.1,2.5
					c0.2,0.1,0.4,0.2,0.6,0.3c0-0.4,0-0.7,0-1.1c0-0.4-0.6-0.5-0.7-0.1c-0.5,1.4-0.7,2.7-1.7,3.9c0.2,0.1,0.4,0.2,0.6,0.4
					c0.2-0.5,0.4-1.1,0.8-1.4c-0.2-0.1-0.4-0.2-0.6-0.4c-0.2,1.3-1.9,2.7-2.8,3.7c0.2,0.2,0.4,0.4,0.5,0.5c0.4-0.5,0.8-0.9,1.2-1.3
					c-0.2-0.2-0.4-0.3-0.6-0.5c-0.8,1.2-1.7,2.1-2.1,3.6c-0.1,0.5,0.6,0.6,0.7,0.2c0.2-0.6,0.4-1.2,0.6-1.8
					c-0.2-0.1-0.5-0.1-0.7-0.2c-0.2,0.8-0.7,1.8-1,2.8c-0.1,0.5,0.6,0.7,0.7,0.2c0.2-0.5,0.2-0.5,0.2-1c0-0.4-0.6-0.5-0.7-0.1
					c-0.1,0.4-0.2,0.7-0.3,1.1c-0.1,0.4,0.4,0.6,0.7,0.3c0.2-0.2,0.2-0.2,0.2-0.5c0.1-0.4-0.4-0.6-0.7-0.3c-0.2,0.3-0.2,0.3-0.3,0.6
					c-0.2,0.4,0.3,0.8,0.6,0.5s0.4-0.6,0.6-0.9c0.2-0.4-0.5-0.6-0.7-0.3c0,0,0,0.1-0.1,0.1C607.3,696.4,608,696.8,608.2,696.4
					L608.2,696.4z"/>
			</g>
		</g>
	</g>
	<g id="Ebene_5">
		<g>
			<g>
				<path class="st3" d="M616.4,692.8c-0.1,1.2,0.5,0.6,0.6-0.2c0.1-0.4-0.7-0.5-0.7-0.1c-0.3,2,1.4-1.6,1.5-2.2
					c0.1-0.5-0.6-0.7-0.7-0.2c-0.2,0.8-0.4,1.6-0.6,2.5c-0.1,0.5,0.6,0.7,0.7,0.2c0.3-0.8,1.9-4.2,1.5-4.9c-0.4-0.9-1.6,3.1-1.7,3.4
					c-0.1,0.4,0.5,0.7,0.7,0.3c0.6-1.2,0.9-2.6,1.3-4c0.2-0.6,1.1-1.9,0.5-2.4c-0.5-0.4-1,1.4-0.9,1.9c0.4,1.7,1-0.9,1.1-1.2
					c0.2-0.9,0.7-2.1,0.7-3c0-0.3,0.7-2.1-0.5-1.2c-0.4,0.3-0.4,2.1-0.4,2.7c0,0.4,0.6,0.5,0.7,0.1c0.6-1.7,1.3-4.9,1-6.9
					c-0.1-0.5-0.8-0.3-0.7,0.2c0.1,0.9-0.9,2.6,0.1,2.7c0.6,0,0.5-2.2,0.5-2.8c0-0.4-0.7-0.5-0.7-0.1c-0.1,0.4-0.3,2.1,0.6,1.8
					c0.1,0,0.3-1.7,0.3-1.7c0.2-2.1-0.8-2.2-0.7-0.1c0,0.4,0.7,0.5,0.7,0.1c0.1-1,0.4-2.2,0.1-3.1c-0.1-0.3-0.6-0.4-0.7,0
					c0.2,0,0.3,0,0.5,0c-0.2-0.4-0.8-0.1-0.7,0.3c0,0.1,0,0.3,0.1,0.4c0.1,0.4,0.7,0.4,0.7,0c0.1-0.5-0.2-1-0.3-0.3
					c-0.1,1-0.1,2-0.2,3c0,0.2-0.4,3.2-0.1,2.5c0.5-1,0-1.7-0.2-2.5c0.1,0.5,0.8,0.3,0.7-0.2c0,0,0,0,0-0.1
					c-0.1-0.3-0.4-0.3-0.6-0.2c-0.8,0.7-0.6,2.9-0.7,4c0,0.3,0.4,0.5,0.6,0.3c1.1-1,1.8-6.6,1-7.8c-0.1-0.2-0.5-0.3-0.6,0
					c-0.2,0.4-0.5,0.8-0.3,1.2c0.2,0.3,0.6,0.2,0.7-0.1c-0.1,0.3-1.2,0.9-0.6,1.8c0.9,1.3,0.8-1.6,0.8-1.7c0-0.5-0.8-0.5-0.8,0
					c0,1.6-0.3,3.1-0.4,4.6c0,0.5,0.7,0.5,0.8,0c0.1-1-0.1-1.7-0.7-0.6c-0.3,0.5-0.1,1.7-0.1,2.2s0.7,0.5,0.8,0c0-0.2,0.6-3,0.3-3.2
					c-0.8-0.9-0.9,1.4-0.9,1.5c-0.3,0.9-0.8,2.6-0.6,3.5c0.3,1.8,0.9-0.4,0.9-1.2c0-0.3,0.1-0.6,0.1-0.9c0-0.4-0.7-0.5-0.7-0.1
					c-0.3,2.3-1.1,4.6-1.7,6.8c-0.1,0.5,0.6,0.6,0.7,0.2c0.4-1,0.7-2,0.9-3.1c0.1-0.5-0.6-0.7-0.7-0.2c-0.5,1.6-1.8,3.6-1.8,5.3
					s0.9-0.6,1.1-1.3c0.1-0.6,0.3-1,0.4-1.6c0-0.4-0.5-0.5-0.7-0.2c-0.3,0.5-0.4,1.2-0.6,1.7c-0.1,0.3-1.2,4.3-0.5,3.7
					c0.4-0.4,0.7-2.4-0.5-1.4c-0.6,0.5-0.6,2.1-0.7,2.8c0,0.5,0.7,0.5,0.8,0c0.1-1-0.9-0.9-0.4,0.2c0.1,0.3,0.7,0.2,0.7-0.2
					c0-0.3,0-0.6,0.1-1C617.2,692.3,616.5,692.3,616.4,692.8L616.4,692.8z"/>
			</g>
		</g>
		<g>
			<g>
				<path class="st3" d="M617.5,688.7c-0.1-0.4-0.5-0.6-0.8-0.6c-0.4,0-0.5,0.3-0.7,0.3c-0.3,0-0.6-0.3-0.8-0.5
					c-0.3-0.2-0.6-0.4-1.1-0.4s-0.5,0.7,0,0.8c0.3,0,0.5,0.3,0.7,0.4c0.2,0.2,0.4,0.3,0.7,0.4c0.2,0.1,0.3,0.2,0.6,0.1
					c0.2,0,0.3-0.1,0.4-0.2c0,0,0.2-0.3,0.3-0.1C616.9,689.4,617.7,689.2,617.5,688.7L617.5,688.7z"/>
			</g>
		</g>
		<g>
			<g>
				<path class="st3" d="M612.5,685.6C612.5,685.7,612.5,685.7,612.5,685.6c0.2,0,0.5,0,0.7-0.1c-0.5-1.9,2.1-1.1,2.6-1.1
					c1.4,0.1,2.7-0.5,4.1-0.7c1.1-0.2,1.5-0.3,2.3-1.3c1.1-1.4,2.6-3,4.3-3.8c-0.1-0.2-0.3-0.4-0.4-0.6H626
					c-0.4,0.2-0.1,0.9,0.4,0.6h0.1c0.4-0.2,0.1-0.8-0.4-0.6c-1.4,0.6-3.4,2-4.3,3.2c-0.3,0.4-0.2,0.7-0.6,1.2
					c-0.9,0.9-0.8,0.4-1.6,0.6c-0.5,0.1-1.1,0.3-1.6,0.4c-1.4,0.4-6.3-0.8-5.4,2.4c0.1,0.4,0.8,0.3,0.7-0.1l0,0
					C613.2,685.2,612.4,685.2,612.5,685.6L612.5,685.6z"/>
			</g>
		</g>
		<g>
			<g>
				<path class="st3" d="M616.9,686.2L616.9,686.2c-0.2-0.2-0.4-0.3-0.6-0.4c-0.2,0.5-0.5,1.2-0.4,1.8c0,0.3,0.1,0.4,0.2,0.2
					c0,0.1-0.2,0.2-0.3,0.3c-0.2,0.4,0,1.1,0,1.5c0,0.1,0.1,0.5,0.1,0.6l-0.2,0.1c-0.1,0.2-0.3,0.6-0.5,0.8
					c-0.3,0.4,0.2,0.9,0.5,0.5c0.5-0.6,1-1.2,0.8-2.1c-0.1-0.3-0.2-0.8-0.1-1.1c0-0.1,0.2-0.1,0.2-0.3c0.1-0.2,0-0.3,0-0.5
					C616.6,687.2,616.8,686.5,616.9,686.2c0.2-0.5-0.3-0.9-0.6-0.4c0,0,0,0,0,0.1C616,686.3,616.6,686.6,616.9,686.2L616.9,686.2z"
					/>
			</g>
		</g>
		<g>
			<g>
				<path class="st3" d="M615.3,691c-0.1,0.2-0.2,0.3-0.3,0.5c0.2,0.1,0.5,0.2,0.7,0.3c0.9-2.3,1.9-5.3,1.6-7.8
					c0-0.3-0.6-0.4-0.7-0.1c0,0,0,0.1-0.1,0.1c-0.2,0.4,0.4,0.8,0.6,0.4c0,0,0-0.1,0.1-0.1c-0.2,0-0.5-0.1-0.7-0.1
					c0.2,1.1-0.2,3.1-0.5,4.2c-0.3,1.1-0.7,2.2-1.1,3.2c-0.2,0.4,0.5,0.7,0.7,0.3c0.1-0.2,0.2-0.3,0.3-0.5
					C616.2,691,615.6,690.6,615.3,691L615.3,691z"/>
			</g>
		</g>
		<g>
			<g>
				<path class="st4" d="M621.4,676.9c1,0.9,1.9,1.5,2.2,2.9c0.3,1.2,0,2.6,0.1,3.8c0.2,1.6,0.7,4.4,2,5.5c0.1-0.2,0.1-0.4,0.2-0.6
					l0,0c-0.5,0.1-0.3,0.9,0.2,0.7l0,0c0.3-0.1,0.4-0.4,0.2-0.6c-2.1-1.8-1.7-6-1.9-8.4c-0.2-1.9-1.2-2.7-2.5-3.9
					C621.6,676.1,621,676.6,621.4,676.9L621.4,676.9z"/>
			</g>
		</g>
		<g>
			<g>
				<path class="st4" d="M618.4,698.2c0.6-2.7,2.3-5,3.1-7.7c0.7-2.5,1.2-4.7,2.8-6.7c0.3-0.4-0.4-0.8-0.6-0.4c-1.5,2-2.1,4-2.8,6.5
					c-0.8,2.8-2.6,5.2-3.2,8.1C617.6,698.5,618.3,698.7,618.4,698.2L618.4,698.2z"/>
			</g>
		</g>
		<g>
			<g>
				<path class="st4" d="M609.5,681.2c0,0.1,0,0.2-0.1,0.2c0.2,0,0.5,0.1,0.7,0.1v-0.1c-0.3,0-0.5,0-0.8,0c0,0.1,0,0.2,0,0.3
					c0,0.4,0.7,0.5,0.7,0.1c0.5-3.4,3.8-3.3,6.5-3.5c1.4-0.1,2.6-0.4,3.9-0.7c0.1,0,0.2-0.1,0.3-0.3c0,0,0,0,0-0.1
					c0.1-0.5-0.6-0.7-0.7-0.2c0,0.1-3,0.4-3.3,0.4c-1.1,0.1-2.3,0-3.4,0.2c-2.1,0.4-3.7,1.7-4,3.9c0.2,0,0.5,0.1,0.7,0.1
					c0-0.1,0-0.2,0-0.3c0-0.5-0.7-0.5-0.8,0v0.1c0,0.4,0.6,0.5,0.7,0.1c0-0.1,0.1-0.2,0.1-0.2C610.3,680.9,609.6,680.7,609.5,681.2
					L609.5,681.2z"/>
			</g>
		</g>
		<g>
			<g>
				<path class="st4" d="M616.2,675.7c0-0.2,0-0.4,0-0.7c-0.3,0-0.5,0-0.8,0v0.1c0,0.5,0.7,0.5,0.8,0c0-0.1,0-0.1,0-0.2
					c0-0.4-0.7-0.5-0.7-0.1c-0.2,1.3-0.4,2.6-0.5,4c-0.1,1.5-0.6,3-0.6,4.5c0,0.3,0.3,0.5,0.6,0.3c0,0,0,0,0.1,0
					c0.4-0.2,0-0.9-0.4-0.6c0,0,0,0-0.1,0c0.2,0.1,0.4,0.2,0.6,0.3c0-1.4,0.5-2.9,0.6-4.4c0.1-1.3,0.2-2.6,0.4-3.9
					c-0.2,0-0.5-0.1-0.7-0.1c0,0.1,0,0.1,0,0.2c0.3,0,0.5,0,0.8,0V675c0-0.5-0.8-0.5-0.8,0c0,0.2,0,0.4,0,0.7
					C615.5,676.2,616.2,676.2,616.2,675.7L616.2,675.7z"/>
			</g>
		</g>
		<g>
			<g>
				<path class="st4" d="M614.6,685.9c0.2-0.3,0-0.8,0.2-1.1c-0.1,0.1-0.3,0.1-0.4,0.2h0.1c-0.1-0.1-0.2-0.2-0.3-0.3
					c0.1,0.2,0.1,0,0,0.1c0,0.1-0.1,0.2-0.1,0.3c-0.1,0.4-0.2,0.7-0.3,1.1c-0.1,0.6-0.2,1.2-0.3,1.9c-0.1,0.5,0.7,0.5,0.8,0
					c0.1-0.9,0.3-1.8,0.6-2.6c0.1-0.4,0.3-1.1-0.3-1.2c-0.2,0-0.3,0-0.4,0.2c-0.2,0.3,0,0.8-0.2,1.1
					C613.7,685.9,614.4,686.3,614.6,685.9L614.6,685.9z"/>
			</g>
		</g>
		<g>
			<g>
				<path class="st4" d="M614.8,675.3C614.8,675.2,614.8,675.2,614.8,675.3c0-0.4-0.4-0.5-0.6-0.3c-0.8,1-0.7,2.7-0.9,3.9
					c-0.1,1-0.4,1.8-0.9,2.7c-0.3,0.5-0.7,1-0.9,1.6c-0.1,0.5,0.6,0.7,0.7,0.2c0.1-0.7,0.7-1.2,1-1.8c0.4-0.6,0.6-1.3,0.7-2.1
					c0.2-1.2-0.1-3.1,0.7-4.1c-0.2-0.1-0.4-0.2-0.6-0.3l0,0C614,675.7,614.8,675.7,614.8,675.3L614.8,675.3z"/>
			</g>
		</g>
		<g>
			<g>
				<path class="st4" d="M611.5,676.6c0.1-0.1,0.1-0.3,0.2-0.4c0.2-0.4-0.5-0.6-0.7-0.3c0,0,0,0.1-0.1,0.1c0.2,0.1,0.5,0.2,0.7,0.3
					c0-0.1,0-0.1,0-0.2c0.1-0.5-0.6-0.7-0.7-0.2c-0.4,1.1-0.8,2-1.5,2.9c-0.2,0.3-0.5,0.6-0.7,0.9c-0.3,0.4-0.3,0.9-0.6,1.4
					c-0.2,0.4,0.4,0.8,0.6,0.4c0.3-0.4,0.3-0.9,0.6-1.4c0.3-0.4,0.6-0.9,1-1.3c0.7-0.9,1-1.6,1.3-2.7c-0.2-0.1-0.5-0.1-0.7-0.2
					c0,0.1,0,0.1,0,0.2c-0.1,0.4,0.4,0.6,0.7,0.3c0,0,0-0.1,0.1-0.1c-0.2-0.1-0.5-0.2-0.7-0.3c0,0.1-0.1,0.1-0.1,0.2
					C610.7,676.7,611.3,677,611.5,676.6L611.5,676.6z"/>
			</g>
		</g>
		<g>
			<g>
				<path class="st4" d="M608.5,677.3c0.1-0.2,0.1-0.3,0.2-0.5c-0.2-0.1-0.5-0.2-0.7-0.3c-0.1,0.3-0.3,0.7-0.4,1
					c-0.2,0.3-0.4,1-0.7,1.2c-0.6,0.4-1.2,0.5-1.4,1.2c-0.1,0.5,0.6,0.7,0.7,0.2c0.2-0.7,1.3-0.7,1.6-1.3c0.3-0.7,0.6-1.4,0.9-2.1
					c0.2-0.4-0.5-0.7-0.7-0.3c-0.1,0.3-0.2,0.5-0.3,0.8C607.7,677.8,608.4,677.8,608.5,677.3L608.5,677.3z"/>
			</g>
		</g>
		<g>
			<g>
				<path class="st4" d="M611.8,676.3c0.1-0.1,0.1-0.2,0.2-0.3c0-0.3-0.3-0.6-0.6-0.4c0,0,0,0-0.1,0
					C611,676,611.3,676.6,611.8,676.3L611.8,676.3c-0.2-0.2-0.4-0.3-0.6-0.5c0,0,0,0,0-0.1C610.9,676.1,611.5,676.7,611.8,676.3
					L611.8,676.3z"/>
			</g>
		</g>
		<g>
			<g>
				<path class="st4" d="M626.5,682.6c0.1,0,0.1,0,0.2-0.1c-0.1-0.2-0.3-0.4-0.4-0.6c-1.4,2-1.7,4.2-2.5,6.5
					c-0.8,2.1-2.5,4.7-1.9,7.1c0.2-0.1,0.4-0.3,0.6-0.4c0,0,0,0-0.1,0c-0.4-0.3-0.8,0.4-0.4,0.6c0,0,0,0,0.1,0
					c0.3,0.2,0.6-0.1,0.6-0.4c-0.6-2.4,1.5-5.4,2.2-7.6c0.6-1.9,1-3.7,2.1-5.4c0.2-0.3-0.1-0.7-0.4-0.6c-0.1,0-0.1,0-0.2,0.1
					C625.8,682.1,626,682.8,626.5,682.6L626.5,682.6z"/>
			</g>
		</g>
		<g>
			<g>
				<path class="st4" d="M614.2,682.7c-0.8-0.6-1.9-0.7-2.7,0.2c-1.1,1.4,0.1,3.9-0.4,5.5c-0.6,1.8-2.1,2.8-3.1,4.3
					c-0.8,1.3-1.2,2.9-1.5,4.3c0,0.2,0.1,0.4,0.3,0.5c0.1,0,0.1,0,0.2,0.1c0.5,0.2,0.7-0.6,0.2-0.7c0.3,0.1,0.8-2.5,1.2-3.2
					c0.5-1,1.5-1.7,2.1-2.6c0.5-0.8,1.2-1.8,1.5-2.7c0.2-0.6,0.1-1.2,0.1-1.8c0-0.2-0.8-5.1,1.5-3.3
					C614.1,683.6,614.6,683,614.2,682.7L614.2,682.7z"/>
			</g>
		</g>
		<g>
			<g>
				<path class="st4" d="M608.6,697.4c0.6-1.6,1-2.9,1.9-4.3c0.6-0.8,1.2-1.6,1.7-2.4c0.6-0.9,1.1-1.9,1.3-3
					c0.2-1.4-0.5-2.9,0.4-4.1c0.1-0.1,0.1-0.3,0-0.4c0-0.1-0.1-0.1-0.1-0.2c-0.1-0.2-0.5-0.2-0.6,0s-0.2,0.3-0.3,0.5
					c-0.3,0.4,0.4,0.8,0.6,0.4c-0.6,0.9-0.2-1-0.8,0.4c-0.2,0.4,0,1.2,0,1.7c0.1,1.9-0.3,3.1-1.3,4.7c-0.8,1.1-1.7,2.2-2.5,3.4
					c-0.6,1-0.7,2.1-1.1,3.2C607.7,697.7,608.4,697.9,608.6,697.4L608.6,697.4z"/>
			</g>
		</g>
	</g>
	<g id="Ebene_4">
		<g>
			<g>
				<path class="st5" d="M615.9,692.7c-0.1,0.5,1-0.6,1-0.6c0-0.1,0.4-1.3,0.4-1.1c0.3-0.8,0.5-1.6,0.8-2.4c0.6-1.7,1.3-3.4,1.7-5.2
					s0.6-3.6,0.9-5.4c0.1-0.6,0.4-1.7,0.3-2.3c0-0.2,0.1-0.3,0.1-0.5c-0.1-2,0.1,2.2-0.6-0.8c0.1,0.5,0.8,0.3,0.7-0.2c0,0,0,0,0-0.1
					c-0.1-0.4-0.6-0.3-0.7,0c-0.8,2.7-0.8,5.7-1.3,8.4c-0.7,3.6-2.1,7.1-3.3,10.5c-0.2,0.4,0.5,0.6,0.7,0.3c0.1-0.2,0.1-0.3,0.2-0.5
					C616.8,692.4,616,692.2,615.9,692.7L615.9,692.7z"/>
			</g>
		</g>
		<g>
			<g>
				<path class="st5" d="M621.6,674.7L621.6,674.7c0,0.5,0.6,0.6,0.7,0.2c0.1-0.6-0.6,0.2-0.6,0c0,0.5,0.1,1.1,0,1.6
					c-0.1,0.8-0.3,1.7-0.4,2.5c-0.2,1.1-0.5,2.3-0.8,3.4c-0.3,1.5-0.7,3-1.2,4.5s-1,3.1-1.7,4.6c-0.2,0.4-0.7,1.1-0.7,1.6
					c-0.1,0.6,0.4,0.8,0.4,1.1c0-0.5-0.7-0.5-0.8,0l0,0c0,0.4,0.6,0.5,0.7,0.1c2-6.7,5.2-12.8,5.2-19.9c0-0.5-0.6-0.5-0.7-0.1
					c-0.2,0.3,0,0.4,0.6,0.4C622.3,674.2,621.6,674.2,621.6,674.7L621.6,674.7z"/>
			</g>
		</g>
	</g>
	<g id="Ebene_7">
		<g>
			<g>
				<path class="st1" d="M608.2,697.9C608.2,697.9,608.2,697.8,608.2,697.9c-0.2,0.1-0.3,0.2-0.5,0.4l0,0
					C608,698.4,608.4,698.1,608.2,697.9c0-0.3-0.2-0.5-0.5-0.4s-0.2,0.4-0.3,0.7c0.1-0.1,0.2-0.2,0.3-0.4c0,0,0,0-0.1,0
					c-0.5,0.1-0.3,0.8,0.2,0.7c0,0,0,0,0.1,0c0.2,0,0.3-0.2,0.3-0.4C608.1,698.1,608.1,698,608.2,697.9c-0.1,0.1-0.2,0.2-0.3,0.3
					c0,0,0,0,0.1,0c-0.1,0-0.2-0.1-0.4-0.1c0,0,0,0,0-0.1c0.2-0.1,0.4-0.3,0.6-0.4c-0.1-0.1-0.2-0.1-0.4-0.1s-0.5,0.3-0.4,0.5
					c0,0.1,0.1,0.2,0.1,0.3C607.8,698.6,608.5,698.2,608.2,697.9L608.2,697.9z"/>
			</g>
		</g>
		<g>
			<g>
				<path class="st1" d="M607.2,698.4C607.2,698.5,607.2,698.5,607.2,698.4c0.2,0.5,0.9,0.3,0.8-0.2c-0.1-0.2-0.1-0.2-0.2-0.4
					C607.4,697.6,606.8,698.1,607.2,698.4L607.2,698.4z"/>
			</g>
		</g>
		<g>
			<g>
				<path class="st1" d="M607.1,701.4c-0.1,0-0.1,0-0.2,0c-0.3,0-0.5,0.3-0.3,0.6c0.1,0.1,0.1,0.2,0.2,0.3c0.4,0.3,0.9-0.2,0.5-0.5
					l-0.1-0.1c-0.1,0.2-0.2,0.4-0.3,0.6c0.1,0,0.1,0,0.2,0C607.6,702.1,607.6,701.3,607.1,701.4L607.1,701.4z"/>
			</g>
		</g>
		<g>
			<g>
				<path class="st1" d="M607.2,704c0.1,0.2,0.2,0.4,0.3,0.7c0.2,0.4,0.8,0.1,0.6-0.4c-0.1-0.2-0.2-0.5-0.3-0.7
					C607.7,703.2,607,703.5,607.2,704L607.2,704z"/>
			</g>
		</g>
		<g>
			<g>
				<path class="st1" d="M608.1,708.2c0,0-0.2-0.2-0.2-0.1c-0.2,0.1-0.4,0.2-0.6,0.3c0.4,0.3,0.6,0.8,1,1.1c0.2,0.1,0.5,0,0.6-0.2
					c0-0.1,0.2-0.5,0.1-0.6l-0.1,0.1l0.1,0.1c0.1,0.1,0.2,0.3,0.2,0.4c0.1-0.1,0.3-0.3,0.4-0.4c-0.1,0-0.4-0.4-0.5-0.5
					c-0.2-0.1-0.4-0.3-0.6-0.4c-0.2-0.1-0.5,0.1-0.5,0.4c0,0.2,0.1,0.3,0,0.5c0.2-0.1,0.4-0.2,0.6-0.3c-0.1,0-0.1-0.2-0.2-0.3
					c0-0.1-0.1-0.1-0.1-0.2c0-0.1-0.1-0.1-0.1,0.1c-0.1,0-0.2,0.1-0.3,0.1c0.2,0,0.6,0.4,0.8,0.4c0.3,0.1,0.7,0.3,1,0.4
					c0.4,0.2,0.8-0.4,0.4-0.6c-0.5-0.2-1-0.4-1.4-0.7c-0.3-0.2-0.6-0.4-1-0.2c-0.5,0.3,0,1.4,0.4,1.6c0.3,0.1,0.5,0,0.6-0.3
					c0-0.2-0.1-0.3,0-0.5c-0.2,0.1-0.3,0.2-0.5,0.4c0.2,0.1,0.5,0.4,0.6,0.5c0.2,0.2,0.4,0.3,0.7,0.3c0.2,0,0.4-0.2,0.4-0.4
					c0-0.5-0.4-1.2-0.9-1.3c-0.7-0.2-0.7,0.7-0.8,1.1c0.2-0.1,0.4-0.1,0.6-0.2c-0.4-0.2-0.5-0.7-0.9-1c-0.2-0.2-0.6-0.1-0.6,0.3
					c0,0.3,0.2,0.5,0.4,0.7C607.9,709,608.5,708.5,608.1,708.2L608.1,708.2z"/>
			</g>
		</g>
	</g>
</g>
</svg>
