<?xml version="1.0" encoding="utf-8"?>
<!-- Generator: Adobe Illustrator 23.0.2, SVG Export Plug-In . SVG Version: 6.00 Build 0)  -->
<svg version="1.1" xmlns="http://www.w3.org/2000/svg" xmlns:xlink="http://www.w3.org/1999/xlink" x="0px" y="0px"
	 viewBox="0 0 4500 3002" style="enable-background:new 0 0 4500 3002;" xml:space="preserve">
<style type="text/css">
	.st0{display:none;}
	.st1{fill:#999999;}
	.st2{fill:#FF1D25;}
	.st3{fill:#FF0000;}
	.st4{opacity:0.25;}
	.st5{fill:#FFFFFF;}
	.st6{opacity:0.3;}
	.st7{fill:#F2F2F2;}
</style>
<g id="Ebene_1" class="st0">
	
		<image style="display:inline;overflow:visible;" width="4500" height="3002" xlink:href="../krankenhaus_scene01.png"  transform="matrix(0.9985 0 0 0.9985 4.7755 -1)">
	</image>
	
		<image style="display:inline;overflow:visible;" width="4500" height="3002" xlink:href="../Adam_03.png"  transform="matrix(1.0007 0 0 1.0007 -4 -7.5213)">
	</image>
</g>
<g id="Ebene_4">
	<g>
		<g>
			<path class="st1" d="M2074.3,1113.2c0,0.3,0,0.5-0.2,0.7c1.2-0.2,2.4-0.3,3.6-0.5c0.6,1,0.7,1,0.4-0.1c0.4-2-0.6-2.9-2.9-2.8
				c0.1,1.3-0.2,2.5-0.9,3.6c0.8,1.1,1.1,1.3,0.8,0.5c-0.4-1.5,0.1-5.1-2.8-4.7c0.9-0.1-3.7,5.6-0.4,2.9c-1,0.3-1.9,0.5-2.9,0.8
				c0.2,0-2,1.4-2.2,1.8c-0.4,1.1,1.4,0.7,0.7,0.4c-1.5-0.9-4.1-0.2-4.4,1.8c-0.2,1.4-0.2,2.3,0.6,3.4c1.9,2.7,6.4,1.1,5.5-2.3
				c-0.7-2.4-1.7-3.9-1.5-6.5c0.2-2.9,0.6-5.6,0.3-8.4c-0.4-3.8-6-3.9-6,0c0,2.3-0.1,4.8,0.1,7.1c0.2,3.2,5.1,4.3,5.9,0.8
				c0.2-1,0.6-4.6,0.9-5c0.5,0,1-0.1,1.5-0.4c1.4-0.9,0.7-1-2.2-0.3c1,0.3,1.9,0.5,2.9,0.8c0.2,1.1,0.6,1,1-0.4
				c1.4-1.3,3-2.4,4.6-3.4c-0.3,1-0.5,1.9-0.8,2.9c0.6,0.3,1.2,0.6,1.8,1.1c-0.9-3.2,1.1-3.3,5.9-0.2c0-1,0-2,0-3
				c1,0.9,2.1,1.3,3.4,1.3c0.8,0.3,1,0.1,0.6-0.7c0.9-0.5,1.7-1,2.6-1.5c-0.2,0-0.4,0-0.6-0.1c1,0.7,1.9,1.5,2.9,2.2
				c-0.3,0.2-0.7,0.5-1,0.7c1.5-0.9,3-1.7,4.5-2.6c0.1,0.2,0.3,0.3,0.4,0.5c-0.3,1-0.5,1.9-0.8,2.9c0.2-0.2,0.4-0.4,0.6-0.7
				c-1,0.3-1.9,0.5-2.9,0.8c1.9,0.4,2.7,2.5,5,2.4c0.8,0,1.4-0.3,2-0.7c1.1-0.8,0.8-0.7-1.1,0c0.9,0.2,1,0.3,0.3,0.4
				c1.2-0.7,2.5-1.4,3.7-2.1c0.2,0,0.5,0,0.7,0c-0.7,1-1.5,1.9-2.2,2.9c0.2-0.1,0.5-0.2,0.7-0.2c-1-0.3-1.9-0.5-2.9-0.8
				c1.8,1.6,0.3,3.8,0.3,5.7c0,1.5,0.5,2.7,0.9,4.1c0.7,2.5-0.3,4.2,0.2,6.8c0.7,3.4,5.9,2.5,5.9-0.8c0-2-0.2-4.5,0.3-6.5
				c-1,0.7-1.9,1.5-2.9,2.2c0.2,0,0.3,0,0.5,0c-1-0.7-1.9-1.5-2.9-2.2c0.4,1.7,0.4,3.6,0.7,5.4c0.6,3.3,6.1,2.6,5.9-0.8
				c-0.2-3.1-1.1-6.4-0.7-9.5c-2,0.3-3.9,0.5-5.9,0.8c0.4,2.1,1.3,6.6,0.5,8.5c1.5-0.6,2.9-1.2,4.4-1.8c0.8,0.6,0.2-2.3,0.1-2.9
				c-0.3-2-0.9-4.1-1-6.1c-1.9,0.5-3.7,1-5.6,1.5c1,1.9,0.8,6.7,1.1,8.6c0.1,0.7,0.2,1.3,0.3,2c0.1,0.5,0.1,1,0.1,1.4
				c-0.2,1.3,0.2,1.3,1.4-0.1c1.1,0.5,2.3,0.9,3.4,1.4c-2-4.6-1.5-10-3.2-14.6c-1.2-3.2-5.6-2.6-5.9,0.8c-0.3,3.5,0.8,7,0.4,10.5
				c1.7-0.7,3.4-1.4,5.1-2.1c-0.7-0.8-0.8-5.6-1.1-7c-0.5-2.3-0.6-5.1-1.9-7.1c-1.4-2.2-4.6-1.7-5.5,0.7c-0.8,2.3,0,5.1,0.1,7.5
				c0.1,2.1,1.3,6.6,0.1,8.6c1.6-0.2,3.1-0.4,4.7-0.6c-1.1-1.2-1.1-4.8-1.3-6.3c-0.5-2.9-0.7-5.8-1.4-8.7c-1-3.8-6.4-2.1-5.8,1.6
				c0.5,3.1,2.1,10.7,0.1,13.5c1.4-0.4,2.7-0.7,4.1-1.1c-0.8-0.5-0.9-5.1-1.1-6.1c-0.5-2.6-0.9-5.4-1.8-7.9c-1-3.1-6.1-2.7-5.9,0.8
				c0.1,2.3,0.2,4.6,0.3,7c0,0.8-0.1,5.3,0.3,4.7c1-0.3,1.9-0.5,2.9-0.8c1.5,0.5-0.2-3.9-0.4-4.5c-0.5-1.9-0.8-3.9-1.3-5.8
				c-0.7-2.7-5.2-3-5.8,0c-0.3,1.6,0,2.6,0,4.3c-0.1,1-0.2,2-0.2,3.1c-0.7,1.5-0.1,2.1,1.6,1.7c2.6,0.5,1.4-0.7,0.8-2.6
				c-0.4-1.2-0.7-2.4-1.3-3.5c-1.1-2.1-4-1.8-5.2,0c-0.8,1.2-0.9,2.6-0.9,4c-0.1,0.9-0.2,2.1,0,2.9c0.4,2.2-1.3,1.3,1.4,0.6
				c1,0.3,1.9,0.5,2.9,0.8c-0.7-0.7-0.9-4.1-1.1-5.1c-0.4-1.7-0.7-3.4-1.6-4.9c-1.5-2.3-4.5-1.6-5.5,0.7c-1.1,2.8-0.1,6.4-0.4,9.4
				c0.5-0.9,1-1.7,1.5-2.6c-0.2,0.1-0.3,0.2-0.5,0.2c1,0,2,0,3,0c0,0-0.7-2.7-0.9-3.2c-0.7-1.5-1.4-2.2-3-2.8
				c-1.6-0.6-3.2,0.7-3.7,2.1c-0.5,1.4-0.3,6.3-1.5,6.9c1,0,2,0,3,0c0.1-0.2,0.2-0.4,0.2-0.6c-1.9,0.5-3.7,1-5.6,1.5
				c0.3,0.9,0.6,1.9,0.8,2.8c0.8,2.8,5.1,2.9,5.8,0c0.4-1.6,0.4-3.3,0.6-4.9c0.1-0.7,1-3.9,0.1-3c-0.7,0.7,1.1,0.2,1.6,0.1
				c1.5-0.2,3-1,4.3-1.7c0.7-0.3,3.5-2.8,4-2.9c-0.9-0.5-1.7-1-2.6-1.5c0,0.3,0,0.6-0.1,0.9c1.2-0.7,2.5-1.4,3.7-2.1
				c0.1-0.1,0.1-0.2,0.2-0.3c-1.9-3.3-7.1-0.3-5.2,3c0.9,1.5,1.7,2.5,3.4,3.1c1.6,0.5,3.2-0.6,3.7-2.1c0.7-2.3,0.6-5.7-2-6.7
				c-3.2-1.3-5.6,2.2-8.1,3.4c-2.5,1.2-5.6,0.6-7.4,2.9c-2.2,2.8-1.2,7-2,10.2c1.9,0,3.9,0,5.8,0c-0.4-1.5-0.6-2.9-1.4-4.2
				c-1.5-2.6-5.6-1.4-5.6,1.5c0,2.7,0.6,4.3,2.7,5.8c0.9,0.7,2.1,0.4,3,0c4.1-1.9,3-6.9,4.2-10.5c-1.2,0.7-2.5,1.4-3.7,2.1
				c-1.5-0.5-0.2,1.8,0.1,2.5c0.6,1.2,1.2,2.1,2.3,2.9c0.9,0.6,2.1,0.5,3,0c3.9-2.1,0.8-7.4,2.1-10.7c-1.8,0.2-3.7,0.5-5.5,0.7
				c2.1,3.3,0.8,8.3,3.7,11.2c0.8,0.8,1.9,1,2.9,0.8c5.2-1.4,1.1-7.5,3.1-10.4c-1.7,0-3.5,0-5.2,0c1.4,2.8,1.7,9.7,6.7,8.5
				c5.1-1.2,2.8-9.7,3.4-13c-1.9,0-3.9,0-5.8,0c1.1,4.1,1.1,12.8,5.9,14.5c0.9,0.3,2.3,0,2.9-0.8c3.1-3.8,1.4-11.4,1.2-15.9
				c-2,0.3-3.9,0.5-5.9,0.8c1.7,5.2,0.8,14.1,5.7,17.6c1.4,1,3.3,0.1,4.1-1.1c3-4.3,1.2-13.3,0.5-18.1c-1.9,0.5-3.9,1.1-5.8,1.6
				c1.4,5.3,0.4,13.4,4.3,17.6c1.4,1.5,3.7,1,4.7-0.6c1.3-2.1,1.1-4.7,1-7.1c-0.1-2.9-1.5-7.8-0.6-10.4c-1.8,0.2-3.7,0.5-5.5,0.7
				c1.4,2.2,1.4,6.7,1.9,9.3c0.4,2.1,0.6,4.3,2,6c1.9,2.2,4.9,0.2,5.1-2.1c0.4-3.5-0.7-7-0.4-10.5c-2,0.3-3.9,0.5-5.9,0.8
				c1.9,5.2,1.6,10.9,3.8,16c0.5,1.2,2.2,1.7,3.4,1.4c3.6-0.9,3.1-5.2,2.8-8c-0.5-4-0.2-9.2-2.1-12.8c-1.4-2.6-5.8-1.4-5.6,1.5
				c0.2,2.9,0.9,5.9,1.3,8.8c0.3,2.2,0.7,4,2.6,5.4c1.8,1.2,3.7-0.2,4.4-1.8c1.3-3.1,0.2-8.5-0.5-11.7c-0.8-3.6-5.5-2.3-5.9,0.8
				c-0.4,3.1,0.6,6.4,0.7,9.5c2-0.3,3.9-0.5,5.9-0.8c-0.3-1.8-0.3-3.6-0.7-5.4c-0.3-1.4-1.6-2.1-2.9-2.2c-0.2,0-0.3,0-0.5,0
				c-1.3-0.1-2.5,1-2.9,2.2c-0.7,2.5-0.6,5.5-0.6,8.1c2-0.3,3.9-0.5,5.9-0.8c-0.2-0.8,0.7-2.2,0.7-3.1c0-2.7-1.5-4.9-1.3-7.7
				c0.3-3.3,0.3-6-2.4-8.4c-0.8-0.7-1.9-1.1-2.9-0.8c-0.2,0.1-0.5,0.2-0.7,0.2c-1.3,0.5-2.1,1.5-2.2,2.9c-0.2,2.8,1,4.9,3.7,5.8
				c1.4,0.5,3.5-0.5,3.7-2.1c0.5-3.5-0.4-6.9-4.2-7.8c-1.8-0.4-2.5,0.6-3.9,0.7c3.9-0.2-0.9-2.1-2.2-2.4c-1-0.2-2.2-0.1-2.9,0.8
				c-2,2.3-1.9,5.1,1,6.7c2.2,1.2,4.2-0.4,4.5-2.6c1.2-9.1-14.1-7.2-10.7,0.9c0.6,1.4,1.4,2.1,2.9,2.2c0.2,0,0.4,0,0.6,0.1
				c1,0.1,2.1-0.6,2.6-1.5c3.9-6.6-4.4-10-9.8-7.9c-5.9,2.3-2.4,11.9,3.4,9.5c6.4-2.6,0.2-10.2-5.1-8.9c-5.5,1.4-5.7,9.5,0.5,9.4
				c6,0,7-8.6,1.1-10c-6-1.5-11.7,8-5.3,10.9c2.3,1,4.3-0.3,5.3-2.3c1.5-3.1-0.4-5.3-3.1-6.8c-2.3-1.3-5.1-2-7.4-0.2
				c-2.2,1.7-1.9,4.5-0.2,6.5c4.8,5.6,10.9-3.2,4.9-7.4c-5.8-4.1-15.4,5.6-10.3,11c0.7,0.7,2,1.1,2.9,0.8c4.7-1.8,6.3-10.4,0.3-11.7
				c-5.6-1.2-8,7.9-2.7,9.7c4.9,1.7,8.7-6.5,4.1-9.1c-1.1-0.6-2.2-0.4-3.3-0.2c-0.3,0.1-1.6,1-0.4,0.5c1.3-0.6-0.7,0.1-1,0.2
				c-3.9,1.9-3.8,5.1-4.6,8.9c2,0.3,3.9,0.5,5.9,0.8c-0.2-2.3-0.1-4.8-0.1-7.1c-2,0-4,0-6,0c0.3,3.2-0.4,6.3-0.4,9.5
				c-0.1,2.8,1.1,4.5,1.8,7c1.8-0.8,3.7-1.5,5.5-2.3c0,0.4,0,0.8,0,1.2c-1.5,0.6-2.9,1.2-4.4,1.8c4.6,2.6,9.3-2.6,8.9-7.3
				c-0.5-6.3-8.6-6-9.5,0.1c-0.7,5.2,5.7,9.2,9.4,4.9c2.8-3.3,1.5-12.2-4.2-10.7c-5,1.3-5.1,11,0,12.2c5.7,1.4,10.5-7.1,9-11.9
				c-1.8-6.3-8.6-3.1-9.3,1.9c-0.7,4.4,1.6,13.3,7.9,10c4.2-2.2,7.5-13.6,0.9-15c-6.5-1.4-7.5,11.1-2.9,13.5
				c1.1,0.6,2.7,0.5,3.6-0.5c0.9-1,1.4-2,1.7-3.4C2080.8,1111.1,2075,1109.5,2074.3,1113.2L2074.3,1113.2z"/>
		</g>
	</g>
	<g>
		<g>
			<path class="st1" d="M2067.8,1118.4c-0.8,4.6-1.1,9.2-1.5,13.9c-0.2,2.5-0.5,5-0.8,7.5c-0.2,1.8,0,5.4-1.2,6.9
				c1.7,0.7,3.4,1.4,5.1,2.1c-0.4-4,0-8.2,0-12.2c0-3.9-0.2-8.1,0.4-11.9c-2-0.3-3.9-0.5-5.9-0.8c-0.5,5.1-1.3,10.1-1.9,15.2
				c-0.6,4.4-0.9,8.8-2.5,13c1.8-0.2,3.7-0.5,5.5-0.7c-0.7-1.1-0.1-5.4,0-6.6c0.3-3,0.5-6.6,2.4-9.2c-1.7,0-3.5,0-5.2,0
				c-0.3-0.6-1.1,3.9-1.1,3.4c-0.2,1.4-0.4,2.9-0.6,4.3c-0.3,3.6-0.2,7.3,0,10.8c0.3,6.7,0.7,13.6-1.1,20.2c2,0.3,3.9,0.5,5.9,0.8
				c0.1-4.1-0.9-9,0.1-13c0.8-3.2-4-5.5-5.5-2.3c-2.3,4.9-1.2,11.9-1.4,17.2c2,0,4,0,6,0c0-7-0.7-13.9,0.1-20.9
				c-2,0.3-3.9,0.5-5.9,0.8c0.9,2.4,0.5,5.8,0.7,8.3c0.2,2.6,0.8,6.4,0.1,9.1c1.9,0,3.9,0,5.8,0c-0.5-3.9,0.1-8.6,0.7-12.4
				c0.2-1.2,0.7-8.1,1.6-8.8c-1,0-2,0-3,0c-0.9-0.5-0.3,3.6-0.2,4.2c0.1,1.7,0.1,3.4,0.1,5.1c0,3.5-0.2,7.2-0.7,10.6
				c2,0.3,3.9,0.5,5.9,0.8c0.5-7.3,1.3-14.6,2-21.9c0.4-3.7,0.7-7.5,0.9-11.2c0.1-1.5-0.6-8.3,0.7-9.2c-1.5-0.9-3-1.7-4.5-2.6
				c0.3,3.3,0.1,6.7,0,10c-0.1,3.2,0.1,7.6-1.4,10.3c1.9,0.5,3.7,1,5.6,1.5c0.5-5.1,1.3-10.1,2-15.2c0.3-2.2,0.5-4.4,0.7-6.5
				c0.1-1.2-0.3-4.1,0.2-5.1c-1.7,0-3.5,0-5.2,0c1.7,2.4,0.3,8.7,0.1,11.4c-0.3,4.6-0.6,9.2-1.1,13.8c-0.5,4.2-0.7,8.5-1.1,12.7
				c-0.1,1.5-0.3,3.1-0.5,4.6c0,0.4-0.1,0.9-0.2,1.3c-0.4,1.2-0.1,1.1,1.1-0.2c1,0.3,1.9,0.5,2.9,0.8c0.9,0.9,1-2.9,1.1-3.3
				c0.3-1.9,0.7-3.8,1-5.7c0.6-3.7,1.1-7.4,1.4-11.2c0.3-3.4,0.4-6.8,0.5-10.3c0.1-3-0.8-7.7,0.4-10.5c-1.6,0.2-3.1,0.4-4.7,0.6
				c0.1,0.1,0.8,5.2,0.9,5.9c0.4,3.4,0.4,6.8,0.4,10.3c0,5.3,0.9,12.5-0.9,17.5c2,0.3,3.9,0.5,5.9,0.8c-0.2-3.3,0.5-7,0.7-10.2
				c0.3-4,0.4-8,0.6-12c0.1-3.7,0.5-7.3,0.5-11c0-1.2,0-2.3,0.1-3.5c0.1-1,0.9-3-0.5-2.3c-1.5-0.6-2.9-1.2-4.4-1.8
				c2,6.5,1.5,14.5,1.5,21.3c0,6.5-0.3,13-0.8,19.5c2,0,4,0,6,0c0.2-6.4,0.8-12.7,1.1-19.1c0.1-2.9,0.2-5.9,0.2-8.8
				c0-1.1-0.5-8,0.1-8.6c-1,0.3-1.9,0.5-2.9,0.8c-2.3-0.7-0.6-0.8-0.7,0.8c0,0.4,0.2,1.1,0.3,1.5c0.9,4.1,1.3,8.4,1.7,12.6
				c0.3,3.8,0.5,7.6,0.6,11.4c0.1,2.9,0.5,7.1-0.4,10c1.9,0,3.9,0,5.8,0c-0.9-2.2-0.2-6-0.2-8.4c0-3.2-0.2-6.3-0.3-9.5
				c-0.1-3.5,0-7,0-10.6c0-1.8-0.8-6.6,0.2-8.2c-1.7,0-3.5,0-5.2,0c3,4,2.3,11.5,2.6,16.3c0.2,2.6,0.3,5.2,0.4,7.8
				c0,1.8,0.5,4.5-0.2,6.2c1.8,0.2,3.7,0.5,5.5,0.7c-0.6-2.8-0.1-6.2-0.1-9c0-3.4,0-6.7,0-10.1c0-3.2,0-6.4,0-9.5c0-1,0.1-2-0.1-2.9
				c-0.3-1.7,0.9-1.7-0.8-0.7c-1.4-0.4-2.7-0.7-4.1-1.1c3,5.4,3.2,12.6,3.8,18.6c0.3,2.8,0.7,5.7,0.9,8.5c0.1,1.3,0.8,5.7,0.3,6.7
				c1.7,0,3.5,0,5.2,0c-0.8-1.9-0.3-6.1-0.4-8.2c-0.1-2.4-0.2-4.7-0.3-7.1c-0.2-3-0.5-5.9-0.4-8.9c0-2.2,1.2-3.8-1.6-3.2
				c-2.7,0.7-1.6,0.9-1,3c0.5,1.6,0.8,3.2,1.1,4.9c0.7,3.4,1.2,6.8,1.5,10.2c0.3,2.7,1.5,7.5,0.4,10.1c1.7,0,3.5,0,5.2,0
				c-0.8-1.1-0.6-3.8-0.7-5.2c-0.2-2.5-0.4-5-0.5-7.5c-0.2-2.9-0.3-5.9-0.4-8.8c0-1.8,0.5-4.7-0.1-6.4c-0.5-1.5,1.5-1.9-1.8-0.9
				c-3,0.9-1.3,0.3-1.4,2.3c-0.1,1.7,0.9,3.7,1.2,5.3c0.6,2.9,0.9,5.9,1.2,8.8c0.2,1.9,0.9,5.5-0.2,7.1c1.7,0,3.5,0,5.2,0
				c-1.4-2.9-0.6-8.3-0.8-11.5c-0.1-2.3-0.4-4.7-0.5-7c-0.1-0.9,0.4-4.4,0-5.1c0-0.3,0-0.6,0-0.9c-2.5,0.4-3.4,1.4-2.7,3
				c-0.1,1.9,1.2,4.5,1.6,6.4c0.5,2.7,0.8,5.5,0.9,8.2c0.1,1.6,0.7,4.8-0.1,6.3c1.4-0.4,2.7-0.7,4.1-1.1c1,0.7,0.4-2.3,0.4-3.2
				c-0.1-2.7,0-5.3,0.2-8c0.3-4.3,1.2-8.6,2-12.8c-1.9,0-3.9,0-5.8,0c1.4,7.1,1.2,14.6,1,21.9c-0.2,6.5-0.6,13.1-1.5,19.5
				c-0.5,3.8,5.3,5.4,5.8,1.6c2-14.4,3.4-30.3,0.5-44.7c-0.6-2.8-5.2-2.9-5.8,0c-1.1,5.9-2.1,11.6-2.5,17.6
				c-0.2,3.8-1,10.6,2.7,13.1c1.3,0.9,3.4,0.3,4.1-1.1c3-5.5,0.7-15.3-0.6-21c-0.8-3.4-1.8-12.1-7.1-11c-4.2,0.9-3.4,7.9-3.2,11
				c0.2,4.2,0.6,8.4,0.8,12.7c0.2,2.9,0,6.2,1.3,8.9c1,2.2,4,1.6,5.2,0c1.6-2.2,1.3-5.9,1.2-8.4c-0.2-4.4-0.8-8.8-1.7-13.1
				c-0.7-3.1-1.3-11.2-6.2-10.5c-5.3,0.8-3.4,11.1-3.3,14.4c0.1,4.6,0.4,9.1,0.8,13.7c0.2,2.9-0.1,6.6,1.6,9c1.1,1.7,4.2,2.2,5.2,0
				c1.6-3.8,0.9-8.1,0.5-12.2c-0.4-4.9-1.1-9.8-2.2-14.6c-0.6-2.8-3.6-14.1-8.6-8.3c-2.7,3.2-1.4,9.9-1.2,13.6
				c0.2,2.8,0.3,5.7,0.5,8.5c0.2,3.9-0.3,8.5,1.3,12.2c0.9,2.1,4.2,1.8,5.2,0c2.7-4.9,0.1-14-0.5-19.2c-0.8-6.8-1.2-14.6-4.6-20.7
				c-0.8-1.4-2.7-1.9-4.1-1.1c-3.9,2.2-2.1,11.4-2.1,14.9c0,4.5,0,9.1,0,13.6c0,3.4-0.5,7.2,0.3,10.6c0.5,2.4,4.4,3.1,5.5,0.7
				c2.3-5.2,1-12.3,0.6-17.9c-0.4-5.5,0.1-13.8-3.4-18.4c-1.4-1.8-3.8-2-5.2,0c-1.4,2.1-1.1,5.3-1.1,7.6c0,4.2-0.1,8.3,0,12.5
				c0.1,3.7,0.3,7.4,0.3,11.1c0,3-0.8,7.1,0.4,9.9c1.1,2.6,4.8,3,5.8,0c1.1-3.5,0.7-8,0.6-11.6c-0.1-5.6-0.5-11.2-1.2-16.8
				c-0.5-3.8-0.4-13.8-5.2-15.3c-1-0.3-2.2,0-2.9,0.8c-1.5,1.5-1.5,3.6-1.6,5.6c-0.3,3.9-0.3,7.7-0.4,11.6
				c-0.2,7.8-0.9,15.6-1.2,23.5c-0.1,3.9,5.7,3.8,6,0c0.6-7.1,0.8-14.2,0.8-21.3c0-6.8,0.3-14.5-1.7-21c-0.6-1.9-2.7-2.7-4.4-1.8
				c-3.9,2.1-2.5,11.7-2.7,15c-0.3,5.1-0.5,10.1-0.8,15.2c-0.3,4.5-1.3,9.5-0.9,13.9c0.3,3.4,4.7,4,5.9,0.8c1.1-3,0.8-6.7,0.9-9.8
				c0.2-3.9,0.2-7.8,0.2-11.7c0-4.1-0.4-8.2-1-12.2c-0.3-2-0.4-4.4-2-5.8c-1.3-1.1-3.9-1.3-4.7,0.6c-1.8,4.1-1.1,9.1-1.2,13.5
				c-0.1,6-0.5,12-1.4,18c-0.6,4.1-3,10.1-2.1,14.2c0.5,2.4,2.7,4.4,5.2,2.9c2-1.2,2.2-4.2,2.4-6.2c0.6-4.9,0.8-9.9,1.3-14.8
				c0.6-6.1,1.2-12.3,1.5-18.4c0.2-3.7,1.2-9.3-1-12.6c-1.2-1.6-4.2-2.2-5.2,0c-1.6,3.6-1,8.4-1.4,12.3c-0.7,5.9-1.7,11.8-2.3,17.6
				c-0.3,3,4.2,4,5.6,1.5c3.5-6.3,2.9-16.5,2.2-23.4c-0.2-2.1-2.5-4-4.5-2.6c-5.2,3.5-3.7,13.6-4.1,19c-0.7,9.5-1.9,18.9-2.5,28.4
				c-0.2,3.3,5.4,4.2,5.9,0.8c0.9-5.4,1-10.9,0.9-16.4c-0.1-3,0.5-8.6-2.8-10.3c-0.9-0.5-2.2-0.6-3,0c-3.4,2.6-3.6,7.7-4.3,11.6
				c-0.9,5.3-1.6,11-0.8,16.3c0.4,3.1,5.1,2.6,5.8,0c0.9-3.3,0.3-7.3,0.1-10.7c-0.2-3.2,0.2-6.9-0.9-9.9c-1.2-3.3-5.5-2.6-5.9,0.8
				c-0.8,7-0.1,13.9-0.1,20.9c0,3.9,5.9,3.9,6,0c0.1-2.7,0.2-5.4,0.2-8.2c0-1.7-0.4-4.4,0.3-6c-1.8-0.8-3.7-1.5-5.5-2.3
				c-1.1,4.7-0.1,9.8-0.3,14.6c-0.1,3.4,5,4,5.9,0.8c2.1-7.4,1.6-15.1,1.3-22.6c-0.2-4.4-0.2-8.8,0.5-13.1c0.4-2.6,1.7-5.1,0.4-7.6
				c-1.1-2.2-4-1.7-5.2,0c-2.3,3.2-2.7,7.6-3.1,11.4c-0.3,2.9-0.9,7.8,0.7,10.3c1.5,2.3,4.6,1.7,5.5-0.7c1.6-4.2,2-8.7,2.5-13.1
				c0.7-5.5,1.6-11.1,2.1-16.6c0.3-3.3-5.3-4.1-5.9-0.8c-1.3,8.1-1.4,17.6-0.6,25.7c0.2,2.2,3.3,4.4,5.1,2.1
				c2.7-3.4,2.6-8.3,3.1-12.5c0.8-6.1,0.8-12.3,1.9-18.4C2074.3,1116.2,2068.5,1114.6,2067.8,1118.4L2067.8,1118.4z"/>
		</g>
	</g>
	<g>
		<g>
			<path class="st1" d="M2102.7,1160.1c0.3-0.3,0.5-0.7,0.8-1c-1.7-0.7-3.4-1.4-5.1-2.1c-0.2,3.9,1,7.7,1,11.5
				c0,3.8-0.3,7.4,0.2,11.3c0.3,2,2.9,2.7,4.4,1.8c4-2.4,3.4-9.4,4.3-13.3c-2-0.3-3.9-0.5-5.9-0.8c-0.2,2.4-0.6,4.6-0.5,6.9
				c0,0.9,0.4,5,0.6,4.6c1.8,0.2,3.7,0.5,5.5,0.7c-0.7-2.9,0.3-7.5,0.8-10.4c0.4-2.9,1.3-5.7,1.5-8.6c0.2-2.9-4.4-4.2-5.6-1.5
				c-1.5,3.4-2.1,6.9-2.7,10.6c-0.3,1.6-0.6,3.2-0.9,4.8c-0.1,1-0.3,2-0.5,3c-0.6,0.6-0.2,0.5,1-0.3c0.9,0.5,1.7,1,2.6,1.5
				c-1.6-3.2-0.8-8.8-0.6-12.2c0.1-3.3-5.3-4.2-5.9-0.8c-0.2,1.4-0.3,12.1-1,12.4c1.5,0.6,2.9,1.2,4.4,1.8c-1.2-5.2-0.7-11.3-1-16.6
				c-2,0.3-3.9,0.5-5.9,0.8c0.9,2.6,1.4,10.4-0.3,12.9c1.7,0,3.5,0,5.2,0c-2.1-3.8-0.5-10.9-0.4-15.1c0.1-3.9-5.9-3.9-6,0
				c-0.1,3.2-0.4,6.3-0.8,9.5c-0.1,0.5-0.7,3.7-0.5,4.2c1.1,0.1,2.2,0.2,3.2,0.2c0-0.4-0.1-0.8-0.1-1.2c0.3-1.9-0.7-4.3-0.9-6.2
				c-0.1-0.8-0.1-1.7-0.2-2.5c-0.3-1.7,1-2-0.9-0.8c-1.4-0.4-2.7-0.7-4.1-1.1c1,1.6,1.2,4.2,1.4,6.1c0.1,0.6,0.3,5.2,0.2,5.3
				c1.2,0.2,2.4,0.3,3.6,0.5c-2.2-2.3-2.7-12.2-1.4-14.9c-1.7,0-3.5,0-5.2,0c1.2,2.2,0.4,6.5,0.2,8.9c-0.1,1.5,0.5,6-0.5,7
				c1.4,0,2.8,0,4.2,0c-1.6-1.9-2.2-8.7-1.9-11c-1.9,0-3.9,0-5.8,0c0.6,1.6,0.1,4.3,0,5.8c-0.1,1.1-0.4,2.2-0.4,3.3
				c0,1.5-0.9,1.5,0.3,1.3c1.2,0.7,2.5,1.4,3.7,2.1c-0.7-1.7-0.6-4.2-0.9-6.1c-0.4-2.8-0.8-5.5-0.9-8.3c-0.1-3.8-6-3.9-6,0
				c0,2.5-0.3,5.2-0.5,7.8c-0.1,1.1,0.1,4.3-0.5,5.1c1.6,0.2,3.1,0.4,4.7,0.6c-0.7-1.1-0.5-4-0.7-5.2c-0.3-2.6-0.3-5.1-0.5-7.7
				c-0.4-3.8-6-3.9-6,0c0,2.1,0.5,9.8-0.7,11.2c1.6,0.2,3.1,0.4,4.7,0.6c-2-3.8-0.2-8.4-1.4-12.3c-0.9-2.9-4.9-2.8-5.8,0
				c-0.6,1.9-0.7,4.2-1,6.1c-0.1,1-0.3,1.9-0.4,2.9c-0.1,0.7-0.2,1.3-0.3,2c-0.3,1-0.3,1.1,0.1,0.4c1.4,0.4,2.7,0.7,4.1,1.1
				c-1.1-2-0.2-5.6-0.4-7.8c-0.4-3.1-5-4.3-5.9-0.8c-0.5,1.9-0.4,6.7-1.9,8.1c1.6,0.2,3.1,0.4,4.7,0.6c-0.7-1.5-0.5-2.9-1.3-4.4
				c-1-1.8-4.3-2.1-5.2,0c-0.4,0.8-0.7,1.5-0.8,2.3c-0.3,1.8-0.8,1.2,0.6,0.5c1.4,0.4,2.7,0.7,4.1,1.1c-0.8-1.8-0.3-3.5-1.9-4.9
				c-1.5-1.3-3.6-1.1-4.7,0.6c0,0,0,0,0,0c-3.2,2.1-0.2,7.3,3,5.2c1-0.6,1.5-1.2,2.2-2.2c-1.6,0.2-3.1,0.4-4.7,0.6
				c0.2,0.2,0.6,2.9,1,3.7c0.7,1.6,2.7,1.7,4.1,1.1c2.4-1,1.5-3.1,2.4-5c-1.7,0-3.5,0-5.2,0c0.7,1.2,0.6,3.1,1.3,4.4
				c0.9,1.8,3.4,1.9,4.7,0.6c2.7-2.6,2.5-7.3,3.4-10.8c-2-0.3-3.9-0.5-5.9-0.8c0.4,3.7-0.7,7.5,1.3,10.8c0.8,1.4,2.7,1.9,4.1,1.1
				c4.5-2.5,2.9-10.7,4.3-15c-1.9,0-3.9,0-5.8,0c1.4,4.6-0.3,9.3,2,13.8c0.9,1.6,3.5,2,4.7,0.6c3.1-3.5,2.5-11,2.5-15.4
				c-2,0-4,0-6,0c0.4,4.5-0.6,12,2,15.9c0.9,1.4,3.4,2.2,4.7,0.6c3.2-4,2.8-12.3,2.8-17.1c-2,0-4,0-6,0c0.1,2.8,0.4,5.6,0.9,8.4
				c0.4,2.5,0.2,5.2,1.1,7.5c0.7,1.6,1.9,2.4,3.7,2.1c2.8-0.5,3.6-3.4,4-5.8c0.6-3.5,1.6-8.6,0.3-12c-0.9-2.5-5.3-3.2-5.8,0
				c-0.8,4.8,0.1,12.9,3.4,16.8c1,1.2,3.2,1.1,4.2,0c2.6-2.6,2-7.1,2.2-10.4c0.2-4,1.1-9.1-0.9-12.8c-1-1.9-4.2-2-5.2,0
				c-2.7,5.4-2.1,17.7,2.3,22.2c1,1,2.5,1.1,3.6,0.5c5.3-2.8,3.2-15.4,0.6-19.6c-0.8-1.3-2.7-2-4.1-1.1c-2.7,1.8-2.2,5.2-2,8
				c0.3,3.3,0.1,8.7,2.1,11.4c2,2.7,5.7,1.8,7.1-1c0.8-1.7,0.8-3.7,1-5.6c0.4-3.7,0.9-7.2,1-10.9c-2,0-4,0-6,0
				c-0.1,5.6-1.6,13,1.2,18.1c1.2,2.1,3.9,1.8,5.2,0c2.6-3.8,2.2-13.4,0.9-17.5c-1-3.1-6.1-2.7-5.9,0.8c0.3,5.9-0.2,12.4,1.2,18.2
				c0.5,2,2.8,2.6,4.4,1.8c4.6-2.4,3-11.9,3.8-16c-2-0.3-3.9-0.5-5.9-0.8c-0.1,3.1-1.6,18.7,5.3,16.7c2.9-0.9,3.5-4.3,3.9-6.8
				c0.8-4.6,1.1-9.9,3-14.2c-1.9-0.5-3.7-1-5.6-1.5c-0.5,6.7-3.7,13.8-2.1,20.6c0.6,2.4,4.3,3,5.5,0.7c0.9-1.8,0.6-3,0.4-4.9
				c-0.4-3.3,0-6.4,0.4-9.7c0.3-3.4-5.2-4.1-5.9-0.8c-0.3,1.4-0.6,9.2-1.6,9.7c1.5,0.6,2.9,1.2,4.4,1.8c-0.6-4.1,0-5.9,0-10.4
				c0-3.6-1.2-7.2-1-10.8c0.1-2.5-3.5-4.1-5.1-2.1c-0.3,0.3-0.5,0.7-0.8,1C2096,1158.8,2100.3,1163.1,2102.7,1160.1L2102.7,1160.1z"
				/>
		</g>
	</g>
	<g>
		<g>
			<path class="st1" d="M2103.2,1187.3c0.2-0.5,1.2-3,0.5-1.9c-1.9-0.5-3.7-1-5.6-1.5c0.2,2,0.2,4,0.3,6c0.2,3.1,5.4,4.4,5.9,0.8
				c0.3-2.3,0.2-6.6,1.3-8.5c-1.7,0-3.5,0-5.2,0c0.7,1,0,3.9-0.3,4.8c2,0.3,3.9,0.5,5.9,0.8c0.1-0.9,0.2-2.2,0.4-3
				c-1.9,0-3.9,0-5.8,0c0.5,2.5-0.9,5.4-0.9,8c-0.1,3.3-1,6.2-1.5,9.4c-0.5,3.7,4.7,5.4,5.8,1.6c0.5-1.7,0.7-3.3,0.9-5.1
				c0.1-0.7-0.2-3.8,0.2-4.3c-1.6-0.2-3.1-0.4-4.7-0.6c0.8,1.3,0.1,6.3-0.8,7.2c0.4-0.4-2.7,0.1-3.5,0.1c-1.8,0-3.4-0.7-5.1-0.9
				c-2.1-0.3-4-0.9-6-1.2c-2.4-0.4-4.5,0.2-6.8,0.3c-1.8,0.1-3.8-0.5-5.7-0.4c-0.8,0-1.5,0.2-2.2,0.3c-0.6,0.1-4-0.5-2.3,0.3
				c1.4,0.7-0.5-1.1-0.8-1.3c-0.8-0.5-1.5-0.3-2.2-0.6c-0.7-0.3,2,0.1-0.3-0.2c-0.9-0.2-1.7-0.1-2.6,0c1,0.7,1.9,1.5,2.9,2.2
				c-0.1-0.2-0.1-0.4-0.2-0.5c-1.7,1-3.3,1.9-5,2.9c0.9,1,1.7,1.5,2.9,2.1c-0.5-1.1-0.9-2.3-1.4-3.4c0,0.2-0.1,0.3-0.1,0.5
				c1.5-0.6,2.9-1.2,4.4-1.8c-2.1-1.1-1.2-7.5-1.2-9.1c0-3.1-1-6.1-0.8-9.2c-2,0-4,0-6,0c0.6,5,1.7,10.1,2.6,15.1c0.5,3,5,2.7,5.8,0
				c0.7-2.6,0.2-5.3,0.3-7.9c0-1.2-0.2-6.7,0.7-7.5c-1.4,0-2.8,0-4.2,0c1,1.2,0.9,5.4,1.1,7c0.4,3.1,0.9,6.1,0.3,9.3
				c1.9,0,3.9,0,5.8,0c-0.7-2.4-0.1-6-0.1-8.5c0-1.4-0.5-4.8,0.1-6c-1.7,0-3.5,0-5.2,0c1,1.5,0.9,5,1,6.5c0.2,1.8,1.1,5,0.3,6.8
				c1.6-0.2,3.1-0.4,4.7-0.6c1.2,1.2,0.8-1.4,1-2.6c0.2-1,0.4-4.1,1.3-4.7c-1.4-0.4-2.7-0.7-4.1-1.1c0.8,1.2,2,8.5,1,9.7
				c1.7,0.4,3.3,0.9,5,1.3c-0.5-1.5,0-8.9,1.9-9.8c-1,0-2,0-3,0c0.9,0.4,0.4,7.3-0.1,7.6c1,0,2,0,3,0c1,0.6,0.3,0.2,0.4-0.9
				c0.1-1.2-0.2-2.6-0.2-3.8c0-1.3-0.4-6.1,0.5-6.8c-1,0.3-1.9,0.5-2.9,0.8c-1-0.2-0.3-0.9-0.5,0.1c-0.1,0.8,0.6,2.3,0.8,3.1
				c0.2,1.2,0.4,2.4,0.4,3.6c0,0.4-0.2,2.6,0.4,1.9c1.6,0.2,3.1,0.4,4.7,0.6c0.6,0.9,0.4-2,0.5-2.9c0.1-1,0-2.8,0.8-3.6
				c-1,0.3-1.9,0.5-2.9,0.8c-0.7-0.1-3,9.1,1.5,6.6c1.1-0.6-1.1-6.5,1.1-6.9c-1-0.3-1.9-0.5-2.9-0.8c2.6,2.3,1.5,5.1,2.5,7.8
				c0.3,0.7,0.4,2.6,2,1.1c0.6-0.5,0.2-3.1,0.4-4.1c0.3-1.1,0.8-2.2,1.1-3.2c0.4-1.4,0.2-1.4,0.2,0.1c0,0.6,0.6,5.6,0.2,5.8
				c1,0,2,0,3,0c0.7,0.4-0.3-6.2,0.7-6.1c2.2,0.1,2.3,9.3,1.4,10.1c1-0.3,1.9-0.5,2.9-0.8c1.4,0.4,0.7-1.7,0.7-2.8
				c0-1.1,0.1-2.1,0.2-3.2c0.3-3.2,0.8-1.2,1,0.9c0.1,0.7-0.5,3.4-0.2,3.8c0.7,1.2,1.4-1.4,1.6-2.3c0.2-0.9,0.2-2,0.4-2.9
				c0.3-1.5,0-1.5,0-0.2c0,0.7,0,7.5,2.3,6c0.4-0.3-1.7-8.3-0.9-8.6c-1-0.3-1.9-0.5-2.9-0.8c-0.6-0.5-0.6,2-0.6,2.6
				c-0.1,0.4-0.3,0.8-0.5,1.1c-0.6,0.8-0.1,1,1.5,0.7c-2.4-3-6.6,1.3-4.2,4.2c4.6,5.7,9.1-2.9,9.6-7c0.3-2.2,0.2-5.2-2.1-6.4
				c-2.5-1.2-5,0.7-5.9,3c-1.5,3.5-1.1,12.4,1.8,15.4c4.9,5.2,8.2-3.7,8.3-7.5c0.1-3-0.4-6.9-3-8.9c-2.3-1.8-5.4-1.2-7.2,1
				c-3,3.6-4,14.1,1,16.5c6.7,3.3,7.7-8.1,7.1-11.9c-0.5-2.9-1.5-6.2-4.4-7.4c-2.9-1.1-5.8,0.4-7.2,3c-1.9,3.4-2.2,11.2-0.5,14.7
				c1,2,3,3.2,5.2,2.2c2.8-1.3,3.3-5.5,3.1-8.2c-0.3-4.7-3.1-15-9.9-12.9c-5.2,1.6-5.8,11.1-3.8,15.3c0.9,2,2.8,3.2,5,2.2
				c2.7-1.2,2.8-4.7,2.9-7.3c0.3-4.4-1.9-14.5-8.4-10.6c-4.7,2.8-7.2,13.3-4.4,18c1.3,2.1,3.6,3.1,6,2.2c2.8-1.1,3.1-4.1,3.1-6.7
				c0.1-4.6-3.9-19-10.5-11.3c-2.7,3.2-4.3,19,3.2,16.4c5.2-1.8,6.8-16.8,0.7-18c-5.6-1-7.3,11.3-5.2,14.5c1,1.5,3.4,2.1,4.7,0.6
				c2.9-3.3,1.7-20.7-5.4-18.8c-3.8,1-3.4,7.3-3.5,10.2c-0.1,3.4-0.8,9.6,2.7,11.6c0.9,0.5,2.2,0.6,3,0c4.2-3,5.5-14.6,0.6-17.7
				c-7.1-4.6-9.6,12.4-8.2,16.3c0.7,1.9,3.5,3.2,5,1.3c3.1-3.9,2.6-12.9,0-17c-0.9-1.3-2.7-2-4.1-1.1c-3.5,2.2-6.9,13.3-3.6,16.7
				c1.2,1.3,3.9,1.2,4.7-0.6c1.5-3.5,0.8-7,0.4-10.7c-0.3-2.7-0.2-6.2-1.8-8.6c-1.1-1.8-4.1-2.1-5.2,0c-1.2,2.4-0.8,5.6-0.9,8.2
				c-0.1,3.4-0.7,7.6,0.3,10.9c0.8,2.7,5.2,3,5.8,0c0.9-4.5,0.2-8.7-0.4-13.3c-0.4-3.1-0.5-6.3-2.5-8.8c-1.1-1.3-3.1-1-4.2,0
				c-4.6,4.2-1.1,12.9-2.5,18.1c1.9,0,3.9,0,5.8,0c-0.8-4.5-1.9-9-2.4-13.5c-0.4-3.8-5.8-3.9-6,0c-0.1,2,0.2,3.9,0.5,5.9
				c0.5,3.2-0.1,6.4,0.3,9.6c0.3,2.7,1.7,6.6,4.2,8c1.7,0.9,3.9,0.2,4.4-1.8c0-0.2,0.1-0.3,0.1-0.5c0.3-1.2-0.2-2.8-1.4-3.4
				c-1.1-0.5-0.9-0.4-1.7-1.2c-2-2.2-6,0.1-5,2.9c0.1,0.2,0.1,0.4,0.2,0.5c0.4,1.2,1.5,2.2,2.9,2.2c1.4,0,2.7,0.4,4.1,0.1
				c-1-0.3-1.9-0.5-2.9-0.8c1.9,1.8,2.1,2.5,5,2.6c2.6,0.1,3.7-0.3,5.5-0.2c4.5,0.2,8.7,0,13.1,0.8c5.2,1,11.9,2.7,16.6-0.4
				c3.6-2.4,4.5-11.1,2.3-14.5c-1-1.5-3.4-2.1-4.7-0.6c-2.7,3.1-1.6,8.2-2.7,12c1.9,0.5,3.9,1.1,5.8,1.6c0.3-1.9,1-3.8,1.4-5.7
				c0.4-1.8,0.2-3.4,0.3-5.3c0.2-3.2,1.4-6.3,0.7-9.5c-0.6-2.9-5.1-2.8-5.8,0c-0.4,1.5-0.4,3.1-0.6,4.6c-0.4,3.5,4.9,3.8,5.9,0.8
				c0.9-2.7,1.5-7-0.3-9.5c-1.3-1.8-3.9-2.1-5.2,0c-1.7,2.9-1.5,6.7-1.9,10c2,0.3,3.9,0.5,5.9,0.8c-0.1-2-0.1-4-0.3-6
				c-0.3-2.9-3.9-4.2-5.6-1.5c-0.3,0.5-0.4,1.8-0.5,1.9C2096.5,1187.8,2101.6,1190.8,2103.2,1187.3L2103.2,1187.3z"/>
		</g>
	</g>
	<g>
		<g>
			<path class="st1" d="M2104.2,1191.4c0-0.1,0-0.3,0-0.4c0-0.1,0-0.1,0-0.2c0,0.6-0.2,1-0.6,1.5c-1.7-0.4-3.3-0.9-5-1.3
				c0,0.1,0.1,0.2,0.1,0.2c0,0.2,0,0.1-0.1-0.4c0,0.1,0,0.4,0,0.6c0,0.4-0.1,0.7-0.1,1.1c2,0,4,0,6,0c0-0.2,0-0.4,0-0.5
				c0-0.3-0.1,0.7,0,0.4c0.1-0.2,0-0.1-0.3,0.4c-0.2,0.6-0.7,0.9-1.3,1.1c-0.8-0.1-1.5-0.2-2.3-0.3c-0.3-0.3-0.5-0.5-0.8-0.8
				c0.1,0.2,0.1,0.2,0-0.1c-0.3-0.6,0,0,0,0.1c0,0,0-0.8-0.1-0.4c0,0.1,0,0.3,0,0.4c2,0,4,0,6,0c0-0.1,0-0.3,0-0.4
				c0-0.1,0.1-0.7,0-0.1c-0.1,0.5,0,0.1,0,0c0-0.2,0.2-0.6-0.1,0.1c-1.6,0.2-3.1,0.4-4.7,0.6c-0.1-0.1-0.2-0.3-0.3-0.4
				c-0.2-0.5-0.3-0.6-0.2-0.4c0.1,0.3,0.2,0.6,0.4,0.9c0.5,1.1,1.9,1.6,3,1.4c1.2-0.2,2.2-1,2.5-2.1c0.1-0.5,0.2-1,0.4-1.5
				c-1.7,0.4-3.3,0.9-5,1.3c-0.2-0.4-0.3-0.4-0.1-0.1c0.1,0.1,0.1,0.2,0.2,0.4c0.5,1.2,2.2,1.7,3.4,1.4c1.3-0.4,2.2-1.5,2.2-2.9
				c0-0.5-0.1-1-0.2-1.5c-0.4-1.7-2.9-2.9-4.4-1.8c-0.7,0.5-1.2,1-1.6,1.7c-0.7,1.4-0.4,3.3,1.1,4.1c1.4,0.7,3.3,0.4,4.1-1.1
				c0.2-0.3,0.1-0.2-0.2,0.1c0.5-0.6,0.9-1.3,0.9-2.1c0-0.7-0.3-1.6-0.9-2.1c-1.1-1-3.2-1.3-4.2,0c-0.3,0.3-0.6,0.7-0.8,1.1
				c1.7,1,3.5,2,5.2,3c0.1-0.2,0.1-0.2-0.1,0c-0.1,0.2-0.3,0.3-0.5,0.4c-1.5-0.6-2.9-1.2-4.4-1.8c0-0.4,0-0.5,0-0.1
				c1.9-0.5,3.7-1,5.6-1.5c-0.2-0.5-0.6-1-1-1.4c-1.6-1.6-4.4-0.9-5,1.3c-0.1,0.5-0.2,1-0.4,1.5c1.8-0.2,3.7-0.5,5.5-0.7
				c0.5,1.1-0.1-0.3-0.2-0.5c-0.2-0.3-0.4-0.6-0.7-0.9c-1.3-1.2-3.9-1.2-4.7,0.6c-0.5,1.1-0.7,2.2-0.7,3.5c0,1.6,1.4,3.1,3,3
				c1.8-0.1,2.8-1.3,3-3c0.2-2-1.2-4.8-3.5-4.7c-2.3,0.1-3.8,2.3-3.5,4.5c0.1,0.8,0.3,1.5,0.9,2.1c0.5,0.5,1.4,0.9,2.1,0.9
				c1.6-0.1,3-1.3,3-3c0-1,0.2-2-0.2-3.1c-0.3-1-1-1.8-2.1-2.1c-1-0.3-2.2,0-2.9,0.8c-0.9,1-1.1,2.1-1.1,3.4c0,1.6,1.4,3.1,3,3
				C2102.8,1194.4,2104.2,1193.1,2104.2,1191.4L2104.2,1191.4z"/>
		</g>
	</g>
</g>
<g id="Ebene_3">
	<g>
		<g>
			<path class="st2" d="M2080.4,1191.2c0,0.1,0,0.2,0,0.3c0,1.6,1.4,3.1,3,3c1.6-0.1,3-1.3,3-3c0-0.1,0-0.2,0-0.3c0-1.6-1.4-3.1-3-3
				C2081.7,1188.2,2080.4,1189.5,2080.4,1191.2L2080.4,1191.2z"/>
		</g>
	</g>
	<g>
		<g>
			<path class="st2" d="M2078.2,1193.1c0,0.2-0.1,0.3-0.1,0.5c2,0.3,3.9,0.5,5.9,0.8c-0.2-3.2-4.1,1.5-3.8,1.5
				c0.8,0.1,1.5,0.2,2.3,0.3c1,0.7,0.8-1.1,1.2-1.7c0.1-0.2,2.6-1.4,0.5-0.9c0.3,0.3,0.7,0.7,1,1c0-0.4,0-0.9,0-1.3
				c0.4-0.5,0.9-1,1.3-1.5c-1.5,0.8-1.6,1.3-0.2,1.4c2,0.8,0.3-0.3,1.6,0c0.3-0.2,0.6-0.2,1-0.1c0.5-0.1,0.8,0.1,0.9,0.7
				c1.3,0.5,0.5,0.6,2.1,0.4c0.4-0.1,4.1-0.6,4.4,0c-0.1-0.8-0.2-1.5-0.3-2.3c-0.4,0.6-0.9,1.1-1.3,1.7c0.8-0.1,1.5-0.2,2.3-0.3
				c0.9,0.4,1.3-0.2,1.1-1.8c1.5-1.3,2-1.1,1.4,0.8c0,0.2,0,3.2-0.5,3.4c0.8,0.1,1.5,0.2,2.3,0.3c0.6,1.3,0.9,1.4,1.1,0.3
				c-3.3,0.7-3.4,1.8-0.2,3.4c-0.8,0.1-1.5,0.2-2.3,0.3c-0.6-0.6-0.4-0.7,0.8-0.2c-0.1,0.8-0.2,1.5-0.3,2.3c1.1-2.4-2.1-1.7-2.1-3
				c-0.5,0.9-1,1.7-1.5,2.6c0.1-0.1,0.2-0.2,0.4-0.2c-1.4-0.4-2.7-0.7-4.1-1.1c0.1,0.2,0.3,0.4,0.4,0.6c-0.1-0.8-0.2-1.5-0.3-2.3
				c-1.2-0.3-2.5-0.4-3.7-0.5c0.3-1,0.5-1.9,0.8-2.9c-0.8,0.2-1.5,0.3-2.3,0.5c-0.8-0.1-1.5-0.2-2.3-0.3c0-0.9,0-1.9-0.1-2.8
				c0.8-0.1,1.5-0.2,2.3-0.3c0.8,0.2-1.1-1.1-1.4-1.2c-3.5-1.6-6.5,3.5-3,5.2c0.8,0.4,2.2,2.4,4.4,1.8c2.3-0.6,3.6-3.5,2.8-5.6
				c-2.1-5.5-9.4-1.2-7.4,3.9c2,5,9.5,4.8,10.8-0.6c1.4-5.5-6.4-7.3-8.9-3c-2.7,4.7,2.2,10.4,7.2,8.2c5.5-2.4,1.9-9.2-3.2-8.2
				c-5.2,1-5.6,8.7-1.4,11.2c4.4,2.6,11.8-2.5,9.1-7.5c-3.1-6-12.1-1.7-8.6,4.6c1.5,2.6,4.5,4.2,7.4,3.1c2.8-1.1,4.3-4.3,2.5-6.9
				c-0.9-1.3-2.7-2-4.1-1.1c-6.5,4.1,6.4,15.3,10.5,6c1.5-3.4-0.7-7.9-4.8-7.2c-3.8,0.7-6.2,5.3-3.9,8.5c6,8.1,15.4-8.4,5.5-9.4
				c-4.1-0.4-6.8,4.3-4.2,7.7c2.4,3.1,6.5,1.5,7.9-1.5c1.6-3.3,0.8-8.3-3.7-8.2c-3.6,0-6.3,4.7-4.4,7.9c2.2,3.8,7.6,1.9,8.6-1.8
				c0.8-3.2-1.3-8.2-5.2-7.5c-3,0.5-4.9,4.8-4.3,7.6c0.9,4.4,5.6,3.4,7.7,0.7c1.9-2.6,2.3-6.8,0.4-9.5c-2.2-3.1-7.1-2.7-9.1,0.5
				c-1.8,2.9-0.2,7.6,3.6,7.7c3.7,0.1,6.5-4.4,6.1-7.7c-1.4-10.3-15-3.6-13.1,4.9c2.6,11,16.9-3.6,6.2-6.8c-4-1.2-8.9,1.4-10.1,5.4
				c-1.2,3.8,1.4,7.6,5.6,7.2c10-1,7.2-16.2-2.8-12.5c-3.4,1.2-6.6,5-5.7,8.8c1,4.3,5.8,5.1,8.8,2.5c7.6-6.6-1.6-15.8-9.3-11.4
				c-3.1,1.7-4.4,7.3-1.4,9.8c3.2,2.7,7.3,0.1,8.9-3.1c1.8-3.8-0.3-8.5-4.6-8.8c-4.1-0.4-7.2,2.9-7.8,6.9c-0.5,3.5,1.4,8,5.6,7.3
				c3.6-0.5,6.6-5.1,5.4-8.6c-3.2-9.5-17.5,0.8-12.6,8.4c5,7.7,15.2-8.8,6.4-11.3c-3.5-1-6.3,2.7-6.2,5.9c0.2,3.5,4.7,3.9,5.9,0.8
				c0.3-0.7,0.3-1.3,0.3-2.1C2084.1,1189.2,2078.1,1189.2,2078.2,1193.1L2078.2,1193.1z"/>
		</g>
	</g>
	<g>
		<g>
			<path class="st3" d="M2074.3,1195.6c-0.1,0.3-0.2,0.5-0.3,0.8c1.7,0,3.5,0,5.2,0c-0.1-0.1-0.2-0.3-0.3-0.4c0,1,0,2,0,3
				c0.7-0.3,0.9-0.6,0.5-1.2c0.9,0.5,1.7,1,2.6,1.5c-1.2-1.7,3.6,5.3,3.5,2.5c0.5-0.9,1-1.7,1.5-2.6c-0.2,0.1-0.3,0.2-0.5,0.4
				c1.5,1.1,2.9,2.3,4.4,3.4c0.1-0.2,0.2-0.4,0.2-0.6c-0.7,0.7-1.4,1.4-2.1,2.1c1.4-0.6,5.8,1.2,5.1-2.8c-0.3,1-0.5,1.9-0.8,2.9
				c-0.1-0.5-0.3-1-0.4-1.5c0.5-0.9,1-1.7,1.5-2.6c-0.2,0.1-0.4,0.3-0.6,0.4c1.2,1.6,2.4,3.1,3.6,4.7c-1.4-0.6-1.6-0.6-0.6,0.1
				c0.4,0.2,0.8,0.4,1.3,0.4c0.8,0.2,1.6,0,2.3-0.1c1.9-0.3,3.5-0.9,4.4-2.8c1.2-2.6,1.1-6,2.1-8.8c1-2.8,1.2-5.3,1-8.2
				c-0.1-1.6-1.3-3-3-3c0.4,0,1.7,0.5,0.4,0.2c-0.3,0-0.6-0.4-0.9-0.4c-1.2-0.1-1.7,0.3-2.8,0.5c-2.5,0.5-4.9,0.3-7.4,0.2
				c-2.1-0.1-4.2-0.1-6.3-0.2c-1.4-0.1-2.8,0.1-4.2,0.1c-0.6,0-1.4-0.3-2-0.2c-2.8,0.4,0.8-0.9,0.8,2c-0.7,1-1.5,1.9-2.2,2.9
				c1-0.3,2.5,0.2,3.6,0.2c1.4-0.1,2.7-0.4,4.2-0.2c0.7,0.1,0,0,1.3,0.3c0.1,0,3.5,0.2,3.3-0.1c0.4-1.7,0.9-3.3,1.3-5
				c-1.5,0.3-3.5-0.3-5-0.5c-2.6-0.4-5.5-0.2-7.9-0.8c-2.8-0.6-5.4-1.5-8.3-1.5c-2.3-0.1-5.3,0.1-6.9,0.2c-0.2,0-2.4-0.1-1.2,0
				c1.1,0.1-0.9-0.4-1.1-0.4c-4-0.2,3.8,2-0.4-0.6c-1.3-0.8-3.4-0.3-4.1,1.1c-1.6,3.1-0.5,7.3-1,10.8c-0.4,3.2-1.8,6.9,0.3,9.7
				c1.3,1.8,4,3.3,6.2,3.6c1.2,0.2,2.1,0.3,3.2-0.5c1.8-1.2-1.6,0.1-1.6-0.2c0,0.3,1.4,0.6,1.6,0.7c1.4,0.4,3.5,0.2,5.1,0.1
				c0.8,0,1-0.2,0-0.2c0.5,0,1,0.4,1.5,0.4c1.3,0.1,2.9,0.2,4.2,0c2-0.2,5-1.3,6-3.1c0.5-1,0.4-2.2,0.3-3.3
				c-0.1-1.1-0.5-2.2-0.6-3.3c-0.2-1.4,0.7-4-1.2-3.5c-1.1-0.5-2.3-0.9-3.4-1.4c-0.7-1.2-0.4,0.5-0.8,1.2c-0.7,1.3-1,2.8-2.2,3.7
				c1-0.3,1.9-0.5,2.9-0.8c2,0.8,0.9-1.1,1.5-2.3c-1.9-0.5-3.7-1-5.6-1.5c-0.2,1.5-0.4,4.1-1.4,5.3c1-0.3,1.9-0.5,2.9-0.8
				c-0.2,0-0.4-0.1-0.5-0.1c0.7,0.7,1.4,1.4,2.1,2.1c-0.2-0.6-0.5-6,0.3-6.5c-1.5-0.9-3-1.7-4.5-2.6c0,0.6-1.5,5.5-2.5,5.9
				c1,0,2,0,3,0c1.3,0.6,0.2,0.7,0.9-1.1c0.4-0.8,0.3-1.9,1-2.5c-1.6-0.2-3.1-0.4-4.7-0.6c0.4,0.9-1.3,5-1.8,5.3
				c1.2-0.2,2.4-0.3,3.6-0.5c-3.1-1.6,3.2-5.7-1-5.5c-1-1-2-2-3-3c0.2,2.3-0.6,8.2-2.6,9.7c1.2,0.2,2.4,0.3,3.6,0.5
				c-0.9-0.7,0.7-7,1.4-7.9c-1.9-0.5-3.7-1-5.6-1.5c0.1,1.8-0.3,7-1.8,8.3c1.4,0,2.8,0,4.2,0c-0.8-0.8-0.5-7-0.1-7.8
				c-1.7,0-3.5,0-5.2,0c-0.4-0.8,0.1-1-0.3-0.1c-0.4,0.9-0.3,2.1-0.4,3.1c-0.1,0.8-1,5.3-0.4,4.9c1.5,0.6,2.9,1.2,4.4,1.8
				c-0.7-2.4,0.1-6.1,0.1-8.6c0-3.9-6-3.9-6,0c0,2.3,0.1,4.6,0.3,6.9c0.2,2.9,4,4.2,5.6,1.5c1.2-2,2.2-5.9,5.2-5.4
				c2,0.3,3.1,3.6,4.9,4.7c1.2,0.7,2.6,0.4,3.6-0.5c0.6-0.5,1.8-3,1.4-1.2c1.9,0.5,3.9,1.1,5.8,1.6c0-1.3,0.5-2.3,1.4-3.3
				c-1.4,0-2.8,0-4.2,0c0.5,0.8,0.6,1.6,0.2,2.5c1.6-0.2,3.1-0.4,4.7-0.6c0.6,0.5,0.6-1.2,0.6-1.5c-0.5-2-1.4,1.4-1.4,1.4
				c1.4,0,2.8,0,4.2,0c0.5-0.2,0.7-0.6,0.6-1.2c-0.1,0.7-0.4,1.4-0.8,2c1.4,0,2.8,0,4.2,0c-0.3-0.3,1.7-5.5-1.2-4.4
				c-0.5,0.2-0.4,3.1,0.8,3.1c0.9,0.5,1.7,1,2.6,1.5c-0.6-0.8,0.7-1.7,0.6-2.4c-0.2-1.3-1.7,1.3-2.6,1.5c1,0.3,1.9,0.5,2.9,0.8
				c0.1,0.9,0.2,0.8,0.2-0.4c0.2-3.9-5.8-3.8-6,0c-0.2,3.5,2.4,7,6.2,4.8c3-1.8,4.8-7.5,3.2-10.6c-3.9-7.5-12.3,2.1-10.5,7.7
				c1.1,3.4,4.7,4,6.8,1.3c2.1-2.7,2.8-7.6,0.9-10.6c-4.9-7.8-13.9,6.3-8.2,11.9c1.1,1.1,3.1,1.2,4.2,0c3.5-3.8,2.8-13.4-4.1-12.9
				c-5,0.3-7.4,8.8-4.2,12.1c1.1,1.1,3.2,1.2,4.2,0c3.4-3.8,2.8-13.3-4.2-12.1c-4.5,0.8-6.8,9.1-3.5,12.2c1.4,1.3,3.7,1.2,4.7-0.6
				c1.6-3,1.6-7.5-1.1-9.8c-1.2-1-3-1.2-4.2,0c-1.7,1.7-2.6,3.5-2.9,5.9c-0.6,3.7,4.9,5.4,5.8,1.6c0.7-3.4,0.3-7.6-3.6-8.8
				c-4.1-1.3-5.4,2.1-7.8,4.2c1.2-0.2,2.4-0.3,3.6-0.5c-0.5-0.3-2.7-3.5-4.1-4.5c-1.6-1.1-3.6-1.6-5.5-1.1c-4.8,1.3-6.4,4.7-8.7,8.5
				c1.9,0.5,3.7,1,5.6,1.5c-0.2-2.3-0.3-4.6-0.3-6.9c-2,0-4,0-6,0c0,3.3-0.9,7.1,0.1,10.2c0.6,1.9,2.7,2.8,4.4,1.8
				c2.8-1.6,2.6-5.1,3-7.9c0.4-2.7,1.4-5.8,0.2-8.3c-1-2.1-4.1-1.8-5.2,0c-2.1,3.6-2,12,1,15.1c1.2,1.2,3,1,4.2,0
				c3-2.5,3.7-8.9,3.5-12.5c-0.1-3.1-3.9-3.9-5.6-1.5c-2.3,3.1-3.9,12.4-0.4,15.2c1,0.8,2.5,1.3,3.6,0.5c4-2.9,6-10.2,5.6-14.9
				c-0.2-1.6-1.2-3.1-3-3c-6.6,0.3-7,14.2-2,16.7c1.3,0.7,2.5,0.4,3.6-0.5c3.1-2.5,4.4-9,2.7-12.6c-0.9-1.9-3.4-1.7-4.7-0.6
				c-2.9,2.4-5.3,11.6-0.4,13.2c4.9,1.6,8.3-7.7,8.1-11.3c-0.1-2.2-2.5-3.9-4.5-2.6c-3.8,2.5-6.1,13.9-0.5,15.5c1,0.3,2.2,0,2.9-0.8
				c2.3-2.6,2.8-6.2,3.2-9.5c0.3-3-4.3-4.1-5.6-1.5c-1.6,3.1-2.1,13,4,10.9c3.5-1.2,6.9-9.5,5-12.8c-0.7-1.2-2.1-1.7-3.4-1.4
				c-2,0.5-2.7,2.1-3.2,3.9c-0.4,1.6-0.4,2.9-0.2,4.5c0.1,0.9,1.1,3.8,0.7,4.4c-0.6,0.9-5.6-0.3-7.7-0.3c-0.9,0-0.6,0-1.4,0
				c-2.6,0-0.1-0.1-1-0.3c-1-0.2-1.2-0.5-2.3-0.3c-0.5,0-0.9,0.2-1.3,0.4c-1,0.7-0.8,0.7,0.6,0.1c-0.7-0.4-2-0.3-2.4-1.1
				c-0.7-1,0.6-4.7,0.7-5.9c0.2-1.6,0.4-3.2,0.4-4.8c0-0.1,0.1-4.1-0.3-3.2c-1.4,0.4-2.7,0.7-4.1,1.1c1,0.6,2.7,2.1,5,1
				c-1,0-2,0-3,0c2.3,1.2,4.2,0.6,6.6,0.5c-1.9,0.1,1.8,0.2,2.6,0.1c1.7,0,2.3,0.3,3.9,0.5c2.9,0.5,5.9,0.7,9,1
				c3.8,0.4,7.7,1.6,11.5,1c2.3-0.4,2.8-3.5,1.3-5c-1.4-1.4-3.1-2-5.1-1.6c-2.5,0.5,1.2,0.5-0.8,0.1c-0.6-0.1-1.2-0.4-1.8-0.5
				c-1.6-0.3-3.2,0-4.8,0.2c-1.9,0.1-3.8-0.4-5.7,0.2c-1.3,0.4-2.2,1.6-2.2,2.9c0,5.8,9.5,4.3,13.2,4.5c5.1,0.3,10.8,0.6,15.5-1.4
				c-1,0-2,0-3,0c0,0,1.7,0.7,2.9,0.7c-1-1-2-2-3-3c0.2,3.1-0.5,5.3-1.4,8.2c-0.4,1.4-0.7,2.5-0.9,4c-0.6,4.1-0.3,0.8,0.8,1.4
				c-0.2-0.1-3.4,0.1-0.3,0.7c-0.7-0.1-1.4-1-2.3-1.1c-1.8-0.3-3.4,0.6-4.6,1.9c-2.2,2.4,0.7,6.8,3.6,4.7c3.9-2.9,1.5-8.3-3.2-8
				c-3.9,0.2-7.8,4.9-3.6,7.9c3.6,2.5,8.3-2,5.6-5.6c-2.5-3.4-9-2.9-10.5,1c-1,2.3,2.4,4.9,4.4,3.4c3.4-2.6,1.7-6.9-1.9-8.5
				c-3.8-1.7-9.1,1.4-7.8,5.8c1.3,4.5,7.2,4.8,8.7,0.3c1.5-4.3-2.5-7.2-6.5-6.5c-3.4,0.6-6.9,4.3-4,7.6c2.7,3,8.2,1.7,9.1-2.3
				c1-4.2-3.6-8-7.6-6.6c-3.7,1.3-5.4,7-1.3,8.9c4.7,2.2,8.3-4.3,6-8c-2.6-4.2-8.3-3.7-10.6,0.4c-0.5,0.9-0.6,2.2,0,3
				c0.1,0.1,0.2,0.3,0.3,0.4c1.2,1.6,4.2,2.3,5.2,0c0.1-0.3,0.2-0.5,0.3-0.8C2081,1195.1,2075.8,1192,2074.3,1195.6L2074.3,1195.6z"
				/>
		</g>
	</g>
	<g class="st4">
		<g>
			<path class="st5" d="M2098.7,1187.8c-0.3,2.3-1,4.5-1,6.8c0,0.8,0.2,2.3-0.1,3c0-0.1-0.7,0.5-0.3,0.4c0.3-0.2-1.4,0-1.4,0
				c-3.3-0.1-5.9-0.1-9.6-0.3c0.9,0.5,1.7,1,2.6,1.5c0-0.1-0.1-0.2-0.1-0.2c-0.9,1.5-1.7,3-2.6,4.5c3,0.1,2.9-0.5,5.5-0.3
				c2.5,0.2,4.1,0.1,6.4-1.2c0.4-0.2,1-0.6,1.4-0.8c-1.1,0.6-0.2,0.2,0.4-0.2c0.9-0.6,1.7-1.2,2.3-2.2c1.3-2.1,2-4.6,2.3-7
				c0.4-3.5-4.9-3.8-5.9-0.8c-0.4,1.4-0.5,2.8-1.1,4.1c-1.5,3.6,4.3,5.1,5.8,1.6c0.5-1.3,0.6-2.8,1.1-4.1c-2-0.3-3.9-0.5-5.9-0.8
				c-0.2,1.5-1.1,2.7-1.6,4c-0.9,0.6-0.8,0.6,0.2,0c-0.4,0.1-0.7,0.3-1,0.5c-0.6,0.3-1.4,1-2,1.2c0.9-0.3-0.4-0.1-0.7-0.2
				c-1-0.2-1.8-0.1-2.8-0.1c-1.5,0-2.9,0.2-4.3,0.2c-2.4,0-3.5,2.5-2.6,4.5c0,0.1,0.1,0.2,0.1,0.2c0.5,1,1.6,1.4,2.6,1.5
				c2.3,0.1,4.6-0.1,6.9,0c-1.1-0.1-0.3,0,0.4,0.1c0.6,0.1,1.2,0.2,1.9,0.2c1.1,0,2.6-0.1,3.7-0.4c2.3-0.8,3.7-2.8,4.2-5.1
				c0.3-1.5,0.1-2.9,0.3-4.4c0.2-1.5,0.6-3.1,0.8-4.7C2105,1185.6,2099.2,1184,2098.7,1187.8L2098.7,1187.8z"/>
		</g>
	</g>
	<g>
		<g>
			<path class="st2" d="M2092,1192.6c0,0,0,0.1,0,0.1c0.8-0.1,1.5-0.2,2.3-0.3c-0.1,0-0.3-0.1-0.4-0.1c0.7,0.7,1.4,1.4,2.1,2.1
				c0-0.2-0.1-0.4-0.1-0.6c-0.1,0.8-0.2,1.5-0.3,2.3c0.4-0.5,0.4-0.6,0-0.4c-0.8,0.1-1.5,0.2-2.3,0.3c0.1-0.8,0.2-1.5,0.3-2.3
				c0.6,0.5,1.2,0.9,1.8,1.4c0.3,0.6,0.1,0.4-0.5-0.6c0.6,0.5,1.2,0.9,1.8,1.4c-1.9,0-1.9,0.1,0,0.5c0.1,0.8,0.2,1.5,0.3,2.3
				c0.3-2,0.5,1.9,0.2,1.1c0-1,0-2,0-3c-0.2,0.4-0.7,0.4-1.1,0.7c-0.2,0-0.3,0.1-0.5,0.1c-0.6-0.1-0.7,0.3-0.3,1
				c-0.5,0.9,0.3,1.5-1.3,0.3c-0.6-0.5-1-1.2-1.5-1.8c-0.8-0.9-2.6-1.2-3.6-0.5c-0.7,0.5-2.8,0.7-3.4,0.3c-2.1-1.3-5.4,0.9-4.4,3.4
				c1,2.5,2.4,3.7,5.1,4.1c1.8,0.3,3-0.3,4.7-0.4c1.2-0.1,2.3,0.3,3.5-0.1c2.6-0.8,3.6-3.6,4.1-6c0.3-1.4,0.2-3,0.6-4.4
				c0.2-0.7,0.6-1.2,0.9-1.8c0.7-1.4,1.5-1.3,0-0.7c-0.8-0.1-1.5-0.2-2.3-0.3c0.9,0.4,1.5,0.7,2.5,0.8c1,0.1,2.2-0.6,2.6-1.5
				c0.1-0.2,0.2-0.4,0.3-0.5c-1,0.3-1.9,0.5-2.9,0.8c0.2,0.1,0.4,0.1,0.6,0.2c-0.6-0.5-1.2-0.9-1.8-1.4c0,0.1-0.2,3.6-0.2,4.5
				c-0.1,0.9,0,4.2-0.4,4.8c-2.4,3,1.8,7.3,4.2,4.2c1.7-2.2,1.6-4,1.9-6.6c0.3-2.4,0.7-5,0.4-7.5c-0.5-4.2-5.2-5.7-7.2-1.6
				c0.9-0.5,1.7-1,2.6-1.5c1.9,0.1-0.6-0.4-1-0.4c-0.8,0-1.8,0.4-2.4,0.9c-1.3,1-2.9,3.3-3.4,4.9c-0.4,1.3-0.3,2.7-0.4,4
				c-0.1,0.6-1.3,4,0.4,3.2c-0.5,0.2-2.5-0.3-3.2-0.2c-0.6,0.2-1.1,0.4-1.7,0.6c-2-0.4-2.6-0.4-1.5,0.2c-1.5,1.1-2.9,2.3-4.4,3.4
				c2.7,1.7,7,1.4,9.5-0.3c-1.2-0.2-2.4-0.3-3.6-0.5c2,2.3,4.7,5.2,8.1,4.4c3.1-0.7,5.9-4.4,5-7.6c-0.9-3.2-5.2-4.5-7.9-2.7
				c-2.5,1.7-3.6,5.9-0.5,7.6c5,2.9,14.1-4.9,7.2-8.7c-2.4-1.3-6-0.7-7.3,1.8c-1.6,3.3,1.5,7.4,5.1,6.7c7.9-1.5,3-15.1-4.4-9.4
				c-2.6,2-3.6,5.5-0.6,7.7c3,2.1,7.3-0.3,8.2-3.6c2.4-8.2-12.7-7.4-10.5,0.1c2.5,8.4,16.5-3,6.8-7.6c-3.5-1.7-6.7,0.1-7.8,3.8
				c-1.1,3.8,2,7.4,5.9,5.6c3.4-1.6,3.8-6.6,0.6-8.6c-3.6-2.3-6.5,2.1-6,5.3c0.1,1,1.2,1.9,2.1,2.1c1.6,0.4,2.9,0,4-1.3
				C2098.6,1193.8,2094.4,1189.5,2092,1192.6L2092,1192.6z"/>
		</g>
	</g>
	<g>
		<g>
			<path class="st3" d="M2078.6,1196.6c0.1,0.6,0.3,1.2,0.7,1.8c1,1.2,0.1,0.4,0.6-0.5c0.6-0.5,1.2-0.9,1.8-1.4
				c-0.2,0-0.3,0.1-0.5,0.1c1,0.3,1.9,0.5,2.9,0.8c0.3,0.1,0.5,0,0.4-0.4c-0.7-0.3-1.4-0.6-2.1-0.9c-0.3,0.2-0.5,0.4-0.8,0.5
				c0.8,0.1,1.5,0.2,2.3,0.3c1.1,0.7-0.1,1.5-1.4,2c0.8-0.1,1.5-0.2,2.3-0.3c0.1,0,2.3-2.5,2.9-1.9c0.8,0.9-1.4,2.9-1.4,3.4
				c0.1-1.4,2.3-2.2,3.3-2.6c0.5,0.1,0.9,0.2,1.4,0.3c0.1-0.2,0-0.4,0-0.6c0.8-0.1,1.5-0.2,2.3-0.3c-0.2-0.1-0.5-0.1-0.7-0.2
				c0.7,0.7,1.4,1.4,2.1,2.1c-0.5-0.4-0.9-0.8-1.4-1.2c0.8-0.1,1.5-0.2,2.3-0.3c-0.2-0.1-0.3-0.1-0.5-0.2c0.7,0.7,1.4,1.4,2.1,2.1
				c0.1-0.3,0.1-0.6,0.2-0.9c-1-1.2-1.4-1.4-1.1-0.5c-0.6,0.3-0.6,2.3-1.9,2.9c0.8-0.1,1.5-0.2,2.3-0.3c0.5-0.2,1-0.4,1.5-0.6
				c-0.1-0.8-0.2-1.5-0.3-2.3c-0.2,0.9-1.7,3-2.9,1.7c0.3,0.7,0.6,1.4,0.9,2.1c0-0.2,0-0.4,0-0.6c-0.3,0.7-0.6,1.4-0.9,2.1
				c0.5-0.5,1.6-0.5,1.9-1c0.2-0.1,0.5-0.2,0.7-0.3c-0.7-1.6-1.6-1.8-2.6-0.7c-2.6,1.2-1.5,4.7,0.7,5.5c2.7,1,6.8-0.8,7.6-3.5
				c1.4-4.7,0.2-10.2,1.5-15c-1.9,0-3.9,0-5.8,0c0.4,0.9,0.4,2,0.5,2.9c0.1,0.5-0.5,1.7,0.2,1.3c1.5,0.6,2.9,1.2,4.4,1.8
				c-0.7-1.7,0.4-4,0.6-5.8c0.3-3-4.2-4-5.6-1.5c-0.3,0.5-0.6,1.1-0.9,1.6c0.6-0.5,1.2-0.9,1.8-1.4c-0.6,0.3-2.7,0.8-1.6,0.9
				c0.9,0.5,1.7,1,2.6,1.5c0.3,0.4,0.1,0,0.3-0.8c1.2-3.2-3.8-5.2-5.5-2.3c-0.3,0.6-0.8,1.3-1.1,1.9c-0.4,1,1.1,0.9,0,0.3
				c-1-0.5-2.2-0.8-3.3-0.4c0.8,0.1,1.5,0.2,2.3,0.3c-0.1,0-0.2-0.1-0.3-0.1c0.5,0.9,1,1.7,1.5,2.6c0-1.4,0.1-2.1-0.5-3.4
				c-0.4-0.9-1.6-1.6-2.6-1.5c-0.4,0-4.1,1.6-3.3,1.9c0.7,1,1.5,1.9,2.2,2.9c0.1,1.5-0.1,0.4,1.1,0.2c1.2-0.2,2.3-1.2,3.6-0.7
				c-0.7-0.7-1.4-1.4-2.1-2.1c-0.4,0.7-0.9,1.3-1.5,1.8c-2.8,2.7,1.4,6.9,4.2,4.2c3.1-3,5.6-10.2-1.3-10.1c-3.2,0-10.4,2.5-10.1,6.8
				c0.1,1.5,0.9,2.4,2.2,2.9c2.6,1,4.7-0.9,6.5-2.5c-0.7,0.3-1.4,0.6-2.1,0.9c0.2,0,0.4,0,0.6-0.1c-0.9-0.5-1.7-1-2.6-1.5
				c0.1,0.2,0.2,0.4,0.3,0.6c-0.1-0.8-0.2-1.5-0.3-2.3c-0.2,0.7-0.3,1.4-0.3,2.1c0,1,0.5,2.2,1.5,2.6c0.5,0.2,0.9,0.4,1.4,0.5
				c0.4,0.1,0.8,0.1,1.2-0.1c-0.4,0-0.8-0.1-1.2-0.1c1.2,0.7,2.2,1.4,3.7,1.1c2.8-0.5,4.3-3.4,5.5-5.6c-1.8-0.8-3.7-1.5-5.5-2.3
				c-1,2.6-0.7,6.1,2.4,6.8c2.7,0.6,5.2-1.9,6.3-4c-1.9-0.5-3.7-1-5.6-1.5c-0.3,2.6-1.5,4.8-0.4,7.4c0.7,1.8,2.5,2.8,4.4,1.8
				c3.5-1.9,3.2-8,2-11c-1-2.6-4.9-3.1-5.8,0c-0.7,2.6-0.6,5.1-0.9,7.8c-0.3,2.5,0,5.5-0.8,7.9c0.7-0.7,1.4-1.4,2.1-2.1
				c-0.8,0.2-2.8,0.4-2.1,0.7c0.2,1.8,0.5,3.7,0.7,5.5c3.9-1.8,6.6-8.9,0.8-10.4c-3.5-0.9-10.6,2.5-8.8,6.8
				c2.1,5.2,9.6,2.9,12.2-0.3c3.8-4.8-1.3-10.2-6.6-8.1c-4.3,1.7-6.8,10-1.4,12c5.4,2,9.1-6,7.7-10.2c-1.7-5.3-7.8-5-10-0.2
				c-0.8,1.8-1.4,4.4,0,6.1c1.4,1.8,4,1.6,5.6,0.1c4.1-3.9-0.4-10.6-5.5-8.4c-4,1.8-4.9,10.1,0.9,9.2c5.3-0.8,5.1-7.8,1.1-10.1
				c-4.5-2.7-10.7-0.6-12.5,4.3c-1.8,4.6,0.7,12.4,6.9,9.2c4.7-2.5,7.3-9.2,3.4-13.5c-3.8-4.3-11.1-0.4-12.8,4.2
				c-2.2,5.8,5.2,10.3,9.3,5.5c1.8-2.1,3.1-5.5,2-8.1c-1.1-2.5-3.8-3.9-6.4-3.1c-4.7,1.4-8.5,11.1-1.3,11.5
				c5.9,0.4,9.2-9.4,2.9-11.4c-5.6-1.8-9.1,7-5.4,10.6c0.7,0.7,1.9,1.1,2.9,0.8c1.7-0.6,2.8-1.8,3-3.6c0.1-0.9,0-1.4-0.3-2.2
				c-0.2-0.4-1.1-2-1-1.6C2083.6,1191.2,2077.8,1192.8,2078.6,1196.6L2078.6,1196.6z"/>
		</g>
	</g>
</g>
<g id="Ebene_5">
	<g class="st6">
		<g>
			<path class="st7" d="M2085.2,1108.2c2.1,0.1,4.3,0.5,6.4,0.8c0.9,0.1,4.1,0.3,4.8,0.8c1.2,1,1.2,4.6,1.4,6
				c0.3,2.6,0.6,5.1,0.7,7.7c0.3,8.2,1.3,16.5,1.3,24.7c0,4.1-0.6,8.2-0.9,12.3c-0.3,4.9-0.2,9.8-0.5,14.7
				c-0.5,8.3-1.2,16.9-2.2,25.2c-0.4,3.8,5.6,3.8,6,0c1.1-9.5,1.7-19.2,2.3-28.7c0.6-10.2,1.4-20.6,1.1-30.8
				c-0.1-4.5-0.6-8.9-1-13.4c-0.4-4.7-0.2-9.5-1.1-14.2c-0.7-4-1.5-8.1-5.8-9.5c-3.8-1.3-8.6-1.6-12.5-1.7
				C2081.4,1102.1,2081.4,1108.1,2085.2,1108.2L2085.2,1108.2z"/>
		</g>
	</g>
</g>
<g id="Ebene_2">
	<g>
		<g>
			<path d="M2109.2,1189.2c1.4-16.8,2.4-33.6,1.9-50.4c-0.2-8.4-0.8-16.7-1.7-25c-0.7-5.7-0.8-10.4-6.7-12.9
				c-1.8-0.8-3.3,1.8-1.5,2.6c4.8,2,4.8,6.7,5.3,11.3c0.4,3.2,0.7,6.4,0.9,9.7c0.5,7.3,0.8,14.7,0.8,22c0,14.3-0.8,28.5-2,42.7
				C2106,1191.2,2109,1191.2,2109.2,1189.2L2109.2,1189.2z"/>
		</g>
	</g>
	<g>
		<g>
			<path d="M2061.4,1122.3c-0.1,5.1-1.8,9.6-2.7,14.5c-0.8,4.4-0.9,9.1-1.2,13.6c-0.7,10.7-1,21.4-1.4,32.2
				c-0.2,6.5-2.8,16.7,2.2,22c1.8,2,4.6,2.2,7.2,2.5c5.9,0.7,11.7-0.2,17.6,0.9c1.9,0.3,2.7-2.5,0.8-2.9c-3.8-0.7-7.5-0.7-11.3-0.7
				c-4.5,0-11.6,0.8-13.5-4.4c-1.3-3.8-0.3-8.6-0.2-12.6c0.2-4.7,0.3-9.5,0.5-14.2c0.3-8.8,0.7-17.7,1.3-26.5c0.3-4.6,0.8-9,2-13.5
				c0.9-3.6,1.6-7.1,1.7-10.8C2064.5,1120.4,2061.5,1120.4,2061.4,1122.3L2061.4,1122.3z"/>
		</g>
	</g>
	<g>
		<g>
			<path d="M2099.2,1100.6c-3.9-5.1-8.8-1.1-13.8-2.2c-1.9-0.4-2.7,2.5-0.8,2.9c1.8,0.4,3.6,0.2,5.4-0.1c2.2-0.4,5-1.2,6.6,0.9
				C2097.8,1103.6,2100.4,1102.1,2099.2,1100.6L2099.2,1100.6z"/>
		</g>
	</g>
	<g>
		<g>
			<path d="M2102.5,1100.8c-0.9-0.8-2.2-0.9-3.4-1.2c-0.7-0.2-1.4-0.3-2.1-0.5c-0.3-0.1-0.6-0.1-0.8-0.1c-0.1,0-0.3,0-0.4,0.1
				c-0.7,0.2-0.5,0.3,0.7,0.3c-1.3-1.5-3.4,0.7-2.1,2.1c0.5,0.5,1.1,0.8,1.8,0.6c0.2,0,0.8-0.2,0.4-0.2c-0.4,0,0.5,0.2,0.7,0.2
				c0.7,0.1,1.3,0.3,1.9,0.5c0.3,0.1,0.6,0.2,0.9,0.3c0.1,0,0.3,0,0.4,0.1c0.4,0.1,0.3,0-0.2-0.2
				C2101.8,1104.3,2103.9,1102.2,2102.5,1100.8L2102.5,1100.8z"/>
		</g>
	</g>
	<g>
		<g>
			<path d="M2062.5,1135.3c-0.1-4.1,0.5-8.3,0.8-12.4c0.4-5.5-1.1-11.8,0-17.2c1.1-5.4,7.5-4.3,11.7-4.7c3.6-0.3,7.5-0.5,11.1-0.1
				c1.9,0.2,1.9-2.8,0-3c-5-0.5-9.9,0.1-14.9,0.3c-3.3,0.1-7.2,0-9.5,2.9c-1.3,1.7-1.3,3.9-1.3,5.9c-0.1,3.7,0,7.4,0,11.1
				c0,5.7-1,11.4-0.8,17.1C2059.5,1137.3,2062.5,1137.3,2062.5,1135.3L2062.5,1135.3z"/>
		</g>
	</g>
	<g>
		<g>
			<path d="M2078.7,1098.1c-0.1-0.6,0-1.2,0-1.8c-0.4,0.5-0.7,1-1.1,1.4c2.4-0.6,4.8,0.1,7.2,0.1c1.1,0,2.2-0.2,3.3-0.1
				c0.9,0.1,2.1,0.6,3.1,0.8c-0.3-0.3-0.7-0.7-1-1c-0.4-1.6,0.5-0.5-0.6-0.8c-0.5-0.1-1.2,0-1.8,0c-0.7,0-1.1,0-1.8-0.1
				c-0.4,0-6.2-0.5-6.2-0.7c0,0.5,0,1,0,1.5c0.5-0.9,10.4-0.3,10.4-0.4c0.1,1.9,3.1,1.9,3,0c-0.2-4-5.9-3.3-8.7-3
				c-1.6,0.1-9.6,0-7.1,3.9c0.9,1.5,3,1.3,4.5,1.3c1.7,0.1,3.2,0.5,4.9,0.6c2.3,0.2,7.1,0.4,6.3-3.2c-0.1-0.5-0.6-0.9-1-1
				c-1-0.2-2-0.7-3.1-0.8c-1.4-0.2-2.8,0-4.2,0c-2.7,0-5.3-0.7-8,0c-0.7,0.2-1,0.8-1.1,1.4c-0.1,0.6-0.1,1.2,0,1.8
				C2075.7,1100.1,2078.7,1100.1,2078.7,1098.1L2078.7,1098.1z"/>
		</g>
	</g>
	<g>
		<g>
			<path d="M2059.1,1181.6c16.3,0,32.5,3,48.8,3c1.9,0,1.9-3,0-3c-16.3,0-32.5-2.9-48.8-3
				C2057.2,1178.6,2057.2,1181.6,2059.1,1181.6L2059.1,1181.6z"/>
		</g>
	</g>
	<g>
		<g>
			<path d="M2059.1,1153c16.3,0.8,32.4,3.5,48.8,3.5c1.9,0,1.9-3,0-3c-16.3,0-32.5-2.7-48.8-3.5
				C2057.2,1149.9,2057.2,1152.9,2059.1,1153L2059.1,1153z"/>
		</g>
	</g>
	<g>
		<g>
			<path d="M2063.1,1121.7c-0.1,0-0.1,0-0.2,0c-1.9,0-1.9,3,0,3c7.8,0,15.7,0.8,23.5,1.3c6.9,0.5,14.5,1.9,21.4,1.1
				c1.9-0.2,1.9-3.2,0-3c-7.1,0.8-14.9-0.8-22-1.2c-7.6-0.5-15.3-1.2-22.9-1.2c-1.9,0-1.9,3,0,3c0.1,0,0.1,0,0.2,0
				C2065.1,1124.7,2065.1,1121.7,2063.1,1121.7L2063.1,1121.7z"/>
		</g>
	</g>
	<g>
		<g>
			<path d="M2083.6,1207.5c4.3-0.1,8.8,0.8,13.1,1c2.8,0.2,6.2,0.3,8.6-1.3c2.3-1.5,3.1-3.5,3.2-6.2c0.1-4.1,0.4-8.2,0.9-12.3
				c0.2-1.9-2.8-1.9-3,0c-0.3,2.7-0.5,5.3-0.8,8c-0.1,1.2,0.1,2.6-0.2,3.7c-1,3.6-2.1,5-5.8,5.1c-5.3,0.2-10.6-1.2-16-1.1
				C2081.7,1204.5,2081.7,1207.5,2083.6,1207.5L2083.6,1207.5z"/>
		</g>
	</g>
</g>
</svg>
