<?xml version="1.0" encoding="utf-8"?>
<!-- Generator: Adobe Illustrator 23.0.2, SVG Export Plug-In . SVG Version: 6.00 Build 0)  -->
<svg version="1.1" xmlns="http://www.w3.org/2000/svg" xmlns:xlink="http://www.w3.org/1999/xlink" x="0px" y="0px"
	 viewBox="0 0 4096 2160" style="enable-background:new 0 0 4096 2160;" xml:space="preserve">
<style type="text/css">
	.st0{display:none;}
	.st1{display:inline;}
</style>

<g id="Ebene_5">
	<g>
		<g>
			<path d="M2847.5,945.4c3.5-3.3,4.5-9.1,7.2-13c0.4-0.5,1.6-2.7,2.5-2.6c1.5,0.1,2.5,4.2,2.9,5.1c0.9,2.3,1.7,4.7,2.3,7.2
				c0.7,3,2.2,5.2,3.2,8.1c0.6,1.8,3.5,1,2.9-0.8c-0.5-1.4-1.2-2.6-1.8-3.9c-1-2.1-1.3-4.2-1.9-6.3c-0.9-3-2-6.2-3.4-9
				c-1.1-2.2-3-4.1-5.6-2.9c-6,2.8-5.8,12-10.2,16.1C2844,944.6,2846.1,946.8,2847.5,945.4L2847.5,945.4z"/>
		</g>
	</g>
</g>
</svg>
