<?xml version="1.0" encoding="utf-8"?>
<!-- Generator: Adobe Illustrator 23.0.2, SVG Export Plug-In . SVG Version: 6.00 Build 0)  -->
<svg version="1.1" xmlns="http://www.w3.org/2000/svg" xmlns:xlink="http://www.w3.org/1999/xlink" x="0px" y="0px"
	 viewBox="0 0 4096 2160" style="enable-background:new 0 0 4096 2160;" xml:space="preserve">
<style type="text/css">
	.st0{display:none;}
	.st1{display:inline;}
</style>
<g id="Ebene_8">
	<g>
		<g>
			<path d="M2756.2,897.3c0.8-2,1.9-2.1,3.5-0.8c1,0.9,1.8,2,2.2,3.3c0.5,1.9,1.1,7.5-1.3,8.3c-1.6,0.5-4.8-0.8-6.2-1.5
				c-1.5-0.7-2.3-1.9-2.5-3.6c-0.1-1.1-0.1-3.2,1.2-3.6c1.8-0.6,1-3.5-0.8-2.9c-4.3,1.5-4.3,8.2-1.5,11.1c1.7,1.8,4.3,2.5,6.6,3.1
				c1.8,0.5,3.9,0.7,5.5-0.5c3.8-2.8,2.9-11,0.4-14.3c-1.2-1.6-3.2-3.5-5.4-3.5c-2.5-0.1-3.7,2-4.6,4
				C2752.6,898.3,2755.5,899.1,2756.2,897.3L2756.2,897.3z"/>
		</g>
	</g>
</g>
</svg>
