<?xml version="1.0" encoding="utf-8"?>
<!-- Generator: Adobe Illustrator 23.0.2, SVG Export Plug-In . SVG Version: 6.00 Build 0)  -->
<svg version="1.1" xmlns="http://www.w3.org/2000/svg" xmlns:xlink="http://www.w3.org/1999/xlink" x="0px" y="0px"
	 viewBox="0 0 4096 2160" style="enable-background:new 0 0 4096 2160;" xml:space="preserve">
<style type="text/css">
	.st0{display:none;}
	.st1{display:inline;}
</style>
<g id="Ebene_13">
	<g>
		<g>
			<path d="M2807.6,855.9c0.9-0.9,1.3-1.7,1.6-2.9c0.9-3.2,3.2-4,6.3-2.4c4.6,2.3,6.8,7,6.8,11.9c0,3.2-0.7,7.1-4.6,7.2
				c-2.2,0.1-4.9-0.9-6.8-1.9c-2.8-1.4-4.5-3.7-3.9-7c0.5-2.6,2-5.6,5-5.5c1.9,0,1.9-3,0-3c-6.5-0.1-10,8.9-7,14.2
				c2.9,5,13.2,8.7,17.9,4.4c5.6-5.1,2.2-16.4-2.7-20.7c-2.5-2.2-6-4.1-9.4-3.5c-1.2,0.2-2.3,0.8-3.1,1.7c-1.3,1.6-0.8,3.9-2.2,5.4
				C2804.2,855.2,2806.3,857.3,2807.6,855.9L2807.6,855.9z"/>
		</g>
	</g>
</g>
</svg>
