<?xml version="1.0" encoding="utf-8"?>
<!-- Generator: Adobe Illustrator 23.0.2, SVG Export Plug-In . SVG Version: 6.00 Build 0)  -->
<svg version="1.1" xmlns="http://www.w3.org/2000/svg" xmlns:xlink="http://www.w3.org/1999/xlink" x="0px" y="0px"
	 viewBox="0 0 4096 2160" style="enable-background:new 0 0 4096 2160;" xml:space="preserve">
<style type="text/css">
	.st0{display:none;}
	.st1{display:inline;}
</style>
<g id="Ebene_22">
	<g>
		<g>
			<path d="M2757.3,748.5c0.7-2.8,2.5-6.7,3.9-9.3c3-5.8,6.2,3.2,6.9,5.9c1.2,4.7,1.6,10.1,5.1,13.8c1.3,1.4,3.4-0.7,2.1-2.1
				c-5.4-5.7-1.9-18-9.6-22.1c-2.5-1.3-4.9-0.3-6.4,2c-1,1.4-1.5,3.1-2.1,4.7c-0.8,2.2-2.2,4.1-2.7,6.4
				C2754,749.5,2756.9,750.3,2757.3,748.5L2757.3,748.5z"/>
		</g>
	</g>
</g>
</svg>
