<?xml version="1.0" encoding="utf-8"?>
<!-- Generator: Adobe Illustrator 23.0.2, SVG Export Plug-In . SVG Version: 6.00 Build 0)  -->
<svg version="1.1" xmlns="http://www.w3.org/2000/svg" xmlns:xlink="http://www.w3.org/1999/xlink" x="0px" y="0px"
	 viewBox="0 0 4096 2160" style="enable-background:new 0 0 4096 2160;" xml:space="preserve">
<style type="text/css">
	.st0{display:none;}
	.st1{display:inline;}
    .st0{
    fill:white;
    }
</style>
<g id="Ebene_28">
	<g>
		<g>
			<path d="M2583.3,722.2c1.2-1.5,1.7-3.5,2.2-5.3c0.4-1.4,1-6,2.4-6.7c1-0.5,2.2,4.5,2.6,5.5c1.2,3,3.5,5.3,5.8,7.6
				c1.4,1.4,3.5-0.7,2.1-2.1c-1.8-1.8-3.6-3.5-4.8-5.8c-0.6-1.3-1-2.8-1.5-4.1c-0.7-1.9-1.9-4.8-4.4-4.4c-5.2,0.9-4,10-6.6,13.2
				C2580,721.5,2582.1,723.7,2583.3,722.2L2583.3,722.2z"/>
		</g>
	</g>
	<g>
		<g>
			<path d="M2693.3,682.2c1.4,1.5,3.7,2.3,4.1,4.6c0.3,1.5-0.3,3.5-0.8,5c-0.9,3.1-3.5,9.3-7.8,7.2c-2.3-1.1-3.1-4.7-3.5-7
				c-0.2-1.3-0.5-2.9-0.3-4.3c0.1-1,0.7-1.9,1.1-2.8c0,0.1,2-3.9,2.4-2.3c0.5,1.9,3.4,1.1,2.9-0.8c-0.6-2.2-2.9-2.9-5-2
				c-2.2,0.9-3.8,4.4-4.3,6.6c-1,4.3,0.6,11.3,4,14.3c4.5,4,10-0.1,12-4.6c1.3-2.8,2.3-6.2,2.2-9.4c-0.1-3.7-2.7-4.4-5-6.7
				C2694.1,678.7,2692,680.9,2693.3,682.2L2693.3,682.2z"/>
		</g>
	</g>
	<g>
		<g>
			<path d="M2755.9,655.3c0.3,0.5,0.6,1,0.9,1.5c0.6,1.3,2.9,0.7,2.8-0.8c-0.1-2.1,1.5-4.4,2.3-6.4c0.3-0.8,0.6-2.8,1.3-3.4
				c0.5-0.4,0-0.6,0.6-0.4c0.5,0.2,0.9,2.8,1,3.3c1.2,5.1,2.1,12.1,6.2,15.8c1.4,1.3,3.6-0.8,2.1-2.1c-3.4-3.1-4.3-9.6-5.3-13.9
				c-0.5-2.2-1.3-6.7-4.2-6.7c-2.3,0-3.4,3.1-4,4.9c-1,2.6-3.2,6-3,8.9c0.9-0.3,1.9-0.5,2.8-0.8c-0.5-1-0.7-1.2-1.4-2.1
				C2756.8,651.6,2754.7,653.8,2755.9,655.3L2755.9,655.3z"/>
		</g>
	</g>
</g>
</svg>
