<?xml version="1.0" encoding="utf-8"?>
<!-- Generator: Adobe Illustrator 23.0.2, SVG Export Plug-In . SVG Version: 6.00 Build 0)  -->
<svg version="1.1" xmlns="http://www.w3.org/2000/svg" xmlns:xlink="http://www.w3.org/1999/xlink" x="0px" y="0px"
	 viewBox="0 0 4096 2160" style="enable-background:new 0 0 4096 2160;" xml:space="preserve">
<style type="text/css">
	.st0{display:none;}
	.st1{display:inline;}
    .st0{
    fill:white;
    }
</style>
<g id="Ebene_25">
	<g>
		<g>
			<path d="M2704.3,751c0.2-0.4,0.4-0.8,0.6-1.2c0.7-1.4-1.2-3.2-2.4-1.8c-0.2,0.3-0.4,0.5-0.6,0.8c0.9,0.4,1.7,0.7,2.6,1.1
				c-0.6-7.9,13.4-3.8,13.5,3.1c0,3-1,5.7-2.6,8.2c-1.2,1.7-3,5.3-4.8,6.4c-5.2,3.2-9.3-4.4-9.4-8.8c0-2.7,1.5-11.3,4.4-12.4
				c1.8-0.6,1-3.5-0.8-2.9c-5.9,2.1-7.7,14.5-5.8,19.6c1.1,2.9,3.8,7.8,7.2,8.3c3.1,0.5,6.1-0.9,7.9-3.2c4.9-6.1,11.1-16.8,2.8-22.9
				c-5.1-3.8-16.1-4.3-15.5,4.6c0.1,1.1,1.7,2.2,2.6,1.1c0.2-0.3,0.4-0.5,0.6-0.8c-0.8-0.6-1.6-1.2-2.4-1.8
				c-0.2,0.4-0.4,0.8-0.6,1.2C2700.9,751.2,2703.5,752.7,2704.3,751L2704.3,751z"/>
		</g>
	</g>
	<g>
		<g>
			<path d="M2651.5,761.8c1.1-2.5,1.9-5.1,3.2-7.5c0.6-1.2,1.7-3.4,3.1-3.7c2.4-0.5,3.5,4,4.1,5.4c1.1,2.8,1.5,5.6,2.2,8.6
				c0.6,2.3,1.4,4.8,4,5.5c1.9,0.5,2.7-2.4,0.8-2.9c-2.6-0.7-2.7-8.2-3.5-10.5c-1.1-3-2.3-7.6-5.6-8.8c-6.4-2.3-9.1,8.5-10.9,12.5
				C2648.1,762,2650.7,763.5,2651.5,761.8L2651.5,761.8z"/>
		</g>
	</g>
	<g>
		<g>
			<path d="M2821,711.4c0.2-3.6,3.5-3.3,5.5-1.2c1.3,1.3,2,3.2,2.3,4.9c0.6,2.7,1.2,7.1-0.6,9.5c-3.9,5.4-9.3-3.6-10.2-6.8
				c-0.6-2.1-0.9-8.9,2.5-9.2c1.9-0.2,1.9-3.2,0-3c-6.2,0.7-6.7,9.5-5,14.1c1.8,4.9,9.2,13.9,14.5,7.6c3.9-4.7,2.7-13.9-0.8-18.4
				c-3.8-5-10.9-4.3-11.3,2.5C2817.9,713.3,2820.9,713.3,2821,711.4L2821,711.4z"/>
		</g>
	</g>
	<g>
		<g>
			<path d="M2631.1,870.3c0.6-2.7,2.1-5,3-7.6c0.9-2.8,1-5.6,2.5-8.2c-0.7,0.2-1.4,0.4-2.1,0.5c2.5,1.2,3.1,4.8,4,7.2
				c1.3,3.1,2.3,6.4,3.8,9.4c0.9,1.7,3.4,0.2,2.6-1.5c-1.8-3.7-3.1-7.7-4.5-11.5c-0.9-2.4-1.9-5-4.3-6.2c-0.8-0.4-1.6-0.2-2.1,0.5
				c-1.5,2.5-1.8,5.2-2.6,7.9c-0.8,3-2.6,5.5-3.2,8.5C2627.8,871.4,2630.7,872.2,2631.1,870.3L2631.1,870.3z"/>
		</g>
	</g>
</g>
</svg>
