<?xml version="1.0" encoding="utf-8"?>
<!-- Generator: Adobe Illustrator 23.0.2, SVG Export Plug-In . SVG Version: 6.00 Build 0)  -->
<svg version="1.1" xmlns="http://www.w3.org/2000/svg" xmlns:xlink="http://www.w3.org/1999/xlink" x="0px" y="0px"
	 viewBox="0 0 4096 2160" style="enable-background:new 0 0 4096 2160;" xml:space="preserve">
<style type="text/css">
	.st0{display:none;}
	.st1{display:inline;}
</style>
<g id="Ebene_4">
	<g>
		<g>
			<path d="M2797.3,936.8c0.2-4,2.8-10.4,7.9-7.8c3,1.5,5.6,6.8,5,9.9c-0.4,2.3-2.1,4.7-4.6,4.9c-2.6,0.2-3.7-1.9-4.7-4
				c-1-2-2.5-8,0.6-9.1c1.8-0.6,1-3.5-0.8-2.9c-5.4,1.7-4.4,9.5-2.4,13.5c1.3,2.7,3.2,5.6,6.5,5.8c3.2,0.2,6.1-2.3,7.5-5
				c2.7-5.4-1-13.8-6.5-16.1c-7.1-2.8-11.2,5.1-11.5,10.9C2794.2,938.7,2797.2,938.7,2797.3,936.8L2797.3,936.8z"/>
		</g>
	</g>
</g>
</svg>
