<?xml version="1.0" encoding="utf-8"?>
<!-- Generator: Adobe Illustrator 23.0.2, SVG Export Plug-In . SVG Version: 6.00 Build 0)  -->
<svg version="1.1" xmlns="http://www.w3.org/2000/svg" xmlns:xlink="http://www.w3.org/1999/xlink" x="0px" y="0px"
	 viewBox="0 0 4096 2160" style="enable-background:new 0 0 4096 2160;" xml:space="preserve">
<style type="text/css">
	.st0{display:none;}
	.st1{display:inline;}
</style>
<g id="Ebene_18">
	<g>
		<g>
			<path d="M2656.6,886.1c1.4-1.5,2.1-3.6,2.9-5.4c0.7-1.5,2.2-6.5,4.2-6.7c3.3-0.4,3.3,7.2,3.3,9.2c0.1,3,0.3,6.1,2.6,8.3
				c1.4,1.4,3.5-0.7,2.1-2.1c-2.9-2.9-1.3-8.7-2.3-12.5c-0.7-2.6-2.4-6.2-5.7-6c-5.9,0.4-6.1,9.7-9.2,13.1
				C2653.2,885.4,2655.3,887.5,2656.6,886.1L2656.6,886.1z"/>
		</g>
	</g>
	<g>
		<g>
			<path d="M2846.5,813.2c1.9,0,1.9-3,0-3C2844.6,810.2,2844.5,813.2,2846.5,813.2L2846.5,813.2z"/>
		</g>
	</g>
	<g>
		<g>
			<path d="M2846.1,812.1c0.1,0.1,0.3,0.2,0.4,0.2c0.6,0.6,1.6,0.6,2.1,0c1.6-1.7,2.2-4.1,3.8-5.7c2.4-2.4,6-0.4,8,1.5
				c4.2,4.2,3.1,9.6-0.9,13.4c-3.7,3.5-9.8,4.6-11.5-1.6c-1.2-4.5,2.7-9.1,4.2-13.1c0.6-1.8-2.3-2.6-2.9-0.8
				c-2.3,6.5-7.9,13.6-1.2,19.6c4.7,4.2,11.2,0.9,14.7-3.2c4.5-5.3,4.5-12.4-1.1-17c-2.2-1.9-5.4-3.4-8.3-2.7c-3.9,0.9-4.6,5-7,7.6
				c0.7,0,1.4,0,2.1,0c-0.6-0.6-0.9-0.8-1.8-1C2845,808.7,2844.2,811.6,2846.1,812.1L2846.1,812.1z"/>
		</g>
	</g>
</g>
</svg>
