<?xml version="1.0" encoding="utf-8"?>
<!-- Generator: Adobe Illustrator 23.0.2, SVG Export Plug-In . SVG Version: 6.00 Build 0)  -->
<svg version="1.1" xmlns="http://www.w3.org/2000/svg" xmlns:xlink="http://www.w3.org/1999/xlink" x="0px" y="0px"
	 viewBox="0 0 4096 2160" style="enable-background:new 0 0 4096 2160;" xml:space="preserve">
<style type="text/css">
	.st0{display:none;}
	.st1{display:inline;}
    .st0{
    fill:white;
    }
</style>
<g id="Ebene_24">
	<g>
		<g>
			<path d="M2598.8,822.9c1.5-3.7,2.3-7.5,3.2-11.4c0.5-2.4,2.6-13.1,5.7-10.8c1,0.7,1.5,3.4,2.1,4.6c0.9,2,1.9,4,2.8,6.1
				c1.1,2.9,2.2,5.5,4.3,7.8c1.3,1.4,3.4-0.7,2.1-2.1c-3.5-3.8-5.4-10.8-7.5-15.5c-0.9-2.1-2.2-5.6-5.1-5.3
				c-3.4,0.4-4.9,5.9-5.7,8.5c-1.8,5.7-2.5,11.7-4.7,17.2C2595.1,823.9,2598,824.7,2598.8,822.9L2598.8,822.9z"/>
		</g>
	</g>
</g>
</svg>
