<?xml version="1.0" encoding="utf-8"?>
<!-- Generator: Adobe Illustrator 23.0.2, SVG Export Plug-In . SVG Version: 6.00 Build 0)  -->
<svg version="1.1" xmlns="http://www.w3.org/2000/svg" xmlns:xlink="http://www.w3.org/1999/xlink" x="0px" y="0px"
	 viewBox="0 0 4096 2160" style="enable-background:new 0 0 4096 2160;" xml:space="preserve">
<style type="text/css">
	.st0{display:none;}
	.st1{display:inline;}
</style>
<g id="Ebene_9">
	<g>
		<g>
			<path d="M2845.8,891.5c-0.3-2.8,2.7,0,3,0.3c0.6,0.7,1.6,1.8,2,2.6c0.6,1.3,1,3.4,1.1,4.8c0,0.4,0.1,1,0.2,0.6
				c-0.1,0.6-0.9,1.9-1.2,2.5c-1.1,2-2.6,3-4.9,3c-1.8,0-3.6-0.7-5.1-1.7c-1.5-1.1-2.8-2.5-1.9-4.6c0.3-0.7,1.1-1.5,1.6-2.1
				c2-2.6,3.7-5.3,4.1-8.6c0.2-1.9-2.8-1.9-3,0c-0.5,4.2-4.4,6.5-5.8,10.2c-1,2.7,0.5,5.2,2.6,7c3.9,3.4,10.7,4.2,14.1-0.2
				c1.1-1.5,2.8-4.2,2.5-6.1c-0.4-2.8-1.3-5.8-3-8c-1.5-1.9-3.4-4.1-6.1-3.9c-2.4,0.2-3.4,2.1-3.2,4.3
				C2843,893.4,2846,893.4,2845.8,891.5L2845.8,891.5z"/>
		</g>
	</g>
</g>
</svg>
