<?xml version="1.0" encoding="utf-8"?>
<!-- Generator: Adobe Illustrator 23.0.2, SVG Export Plug-In . SVG Version: 6.00 Build 0)  -->
<svg version="1.1" xmlns="http://www.w3.org/2000/svg" xmlns:xlink="http://www.w3.org/1999/xlink" x="0px" y="0px"
	 viewBox="0 0 4096 2160" style="enable-background:new 0 0 4096 2160;" xml:space="preserve">
<style type="text/css">
	.st0{display:none;}
	.st1{display:inline;}
</style>
<g id="Ebene_7">
	<g>
		<g>
			<path d="M2788.6,902.7c0.3-0.1,0.6-0.1,0.9-0.2c0.7-0.2,1-0.8,1.1-1.4c0.2-1.5,2.5-8.1,4.5-7.7c1.6,0.4,2.1,6.1,2.6,7.5
				c0.8,2.2,2.2,4.5,2,6.9c-0.2,1.9,2.8,1.9,3,0c0.4-3.7-2.2-7.3-3-10.8c-0.6-2.4-1.4-6.5-4.6-6.6c-4.4-0.2-7.2,7.3-7.5,10.7
				c0.4-0.5,0.7-1,1.1-1.4c-0.3,0.1-0.6,0.1-0.9,0.2C2786,900.2,2786.8,903.1,2788.6,902.7L2788.6,902.7z"/>
		</g>
	</g>
</g>
</svg>
