<?xml version="1.0" encoding="utf-8"?>
<!-- Generator: Adobe Illustrator 23.0.2, SVG Export Plug-In . SVG Version: 6.00 Build 0)  -->
<svg version="1.1" xmlns="http://www.w3.org/2000/svg" xmlns:xlink="http://www.w3.org/1999/xlink" x="0px" y="0px"
	 viewBox="0 0 4096 2160" style="enable-background:new 0 0 4096 2160;" xml:space="preserve">
<style type="text/css">
	.st1{display:inline;}
    #Ebene_1{
    fill:white;
    }
</style>
<g id="Ebene_2">
	<g>
		<g>
			<path d="M2723.9,975.3c-0.2-0.1-0.4-0.1-0.7-0.2c0.3,0.6,0.7,1.2,1,1.8c1.1-3.3,2.3-6.6,3.5-9.9c0.5-1.5,1-3.1,1.8-4.5
				c0.2-0.4,0.9-1.9,1.4-2c-0.5,0.1-0.1,0-0.1,1c0,2.2-0.1,4.3-0.2,6.5c-0.1,1.7-0.2,3.4-0.1,5.1c0.2,2,1.2,3.7,1.1,5.7
				c-0.1,1.9,2.9,1.9,3,0c0.1-2.8-1.2-5.4-1.2-8.2c0-1.7,0.1-3.4,0.2-5c0.1-2.1,0.7-6.8-1.7-8.1c-2.8-1.4-4.9,3-5.8,4.9
				c-1.9,4.4-3.3,9.2-4.9,13.7c-0.3,0.8,0.3,1.6,1,1.8c0.2,0.1,0.4,0.1,0.7,0.2C2725,978.7,2725.8,975.8,2723.9,975.3L2723.9,975.3z
				"/>
		</g>
	</g>
</g>
</svg>
