<?xml version="1.0" encoding="utf-8"?>
<!-- Generator: Adobe Illustrator 23.0.2, SVG Export Plug-In . SVG Version: 6.00 Build 0)  -->
<svg version="1.1" xmlns="http://www.w3.org/2000/svg" xmlns:xlink="http://www.w3.org/1999/xlink" x="0px" y="0px"
	 viewBox="0 0 4096 2160" style="enable-background:new 0 0 4096 2160;" xml:space="preserve">
<style type="text/css">
	.st0{display:none;}
	.st1{display:inline;}
</style>
<g id="Ebene_20">
	<g>
		<g>
			<path d="M2832.9,769.6c0-1.7,1-3.2,1-5c-0.9,0.4-1.7,0.7-2.6,1.1c1.4,1.2,2.2,1.4,3.9,1c0.9-0.2,1.8-1,2.8-0.7
				c1.5,0.4,2.8,3.1,3.3,4.4c1,2.8,1.9,9.5-0.2,12c-2.5,3.1-6-0.2-8.3-1.4c-1-0.5-2.7-0.7-3.3-1.7c-0.4-0.6-0.3-2.1-0.3-2.8
				c-0.1-1.9-0.1-4.1,0.6-5.9c0.5-1.4,2.3-4.7,3.8-4.9c1.9-0.2,1.9-3.2,0-3c-5.5,0.7-7.3,8.3-7.3,12.8c0,2.6,0,5.4,2.4,7
				c1.7,1,3.4,1.8,5.1,2.9c1.4,0.9,2.9,1.2,4.5,1.2c7.4-0.2,7.4-8.2,6.7-13.8c-0.4-3-1.4-5.8-3.5-8c-0.8-0.9-1.9-1.7-3.1-1.9
				c-1-0.2-4.3,1.1-4.8,0.7c-1-0.9-2.5-0.3-2.6,1.1c0,1.8-1,3.2-1,5C2829.9,771.6,2832.9,771.6,2832.9,769.6L2832.9,769.6z"/>
		</g>
	</g>
</g></svg>
