<?xml version="1.0" encoding="utf-8"?>
<!-- Generator: Adobe Illustrator 23.0.2, SVG Export Plug-In . SVG Version: 6.00 Build 0)  -->
<svg version="1.1" xmlns="http://www.w3.org/2000/svg" xmlns:xlink="http://www.w3.org/1999/xlink" x="0px" y="0px"
	 viewBox="0 0 3840 2160" style="enable-background:new 0 0 3840 2160;" xml:space="preserve">
<style type="text/css">
	.st0{display:none;}
	.st1{display:inline;}
</style>
<g id="Ebene_1" class="st0">
	
		<image style="display:inline;overflow:visible;" width="3840" height="2160" xlink:href="../scene06_layer01.png"  transform="matrix(1 0 0 1 -1 1)">
	</image>
	
		<image style="display:inline;overflow:visible;" width="3840" height="2160" xlink:href="../scene06_layer04.png"  transform="matrix(1 0 0 1 2 -2)">
	</image>
	
		<image style="display:inline;overflow:visible;" width="3840" height="2160" xlink:href="../scene06_layer03.png"  transform="matrix(1 0 0 1 -4 -4)">
	</image>
	
		<image style="display:inline;overflow:visible;" width="3840" height="2160" xlink:href="../scene06_layer06.png"  transform="matrix(1 0 0 1 -4 -2)">
	</image>
	
		<image style="display:inline;overflow:visible;" width="3840" height="2160" xlink:href="../scene06_layer01.png"  transform="matrix(1 0 0 1 -1 -4)">
	</image>
	
		<image style="display:inline;overflow:visible;" width="3840" height="2160" xlink:href="../scene06_layer05.png"  transform="matrix(1 0 0 1 -1 5)">
	</image>
</g>
<g id="Ebene_2" class="st0">
	<g class="st1">
		<g>
			<path d="M2643.1,862.4c0-1.3-0.4-6.3,2.2-5c1.3,0.7,2.1,3.5,2,4.8c-0.1,1.5-1.6,4.9-3.5,4.2c-1.7-0.6-3.3-3.2-3.1-4.9
				c0.1-1.9-2.9-1.9-3,0c-0.3,3.3,2.9,7.6,6.3,8c3.6,0.4,6.3-4.3,6.4-7.4c0.1-3-1.8-7.5-5-7.9c-4.8-0.7-5.2,4.8-5.2,8.1
				C2640.2,864.3,2643.2,864.3,2643.1,862.4L2643.1,862.4z"/>
		</g>
	</g>
	<g class="st1">
		<g>
			<path d="M2673.9,874.6c1.4,0.2,2.2-0.4,3.2-1.2c0.7-0.5,0.7-1.1,0.3,0c-0.3,0.7-0.6,1.4-0.8,2.2c-0.6,2-2.5,5.7,0.5,6.6
				c1.8,0.6,2.6-2.3,0.8-2.9c0.3,0.7,0.5,0.9,0.5,0.5c0-0.2,0.1-0.4,0.2-0.5c0.1-0.2,0.2-0.6,0.3-0.8c0.3-0.9,0.5-1.8,0.7-2.6
				c0.4-1.3,1.3-2.6,1-4c-0.3-1.4-1.6-2.1-2.9-1.9c-0.7,0.1-1.3,0.3-1.8,0.7c-0.3,0.2-0.7,0.5-0.9,0.8c-0.2,0.2-0.8,0.4-0.3,0.4
				C2672.8,871.5,2672,874.3,2673.9,874.6L2673.9,874.6z"/>
		</g>
	</g>
</g>
<g id="Ebene_3" class="st0">
	<g class="st1">
		<g>
			<path d="M2612.2,855.9c2.1-2.8,3.9-5.8,6.2-8.4c0.4-0.4,0.7-0.8,1.1-1.2c0.3-0.2,0.5-0.4,0.8-0.6c-0.1,0.2-0.3,0.3-0.4,0.5
				c0,1.7-0.2,3.4,0.2,5.1c0.1,0.5,0.6,0.9,1,1c0.2,0,0.4,0.1,0.7,0.1c1.9,0.4,2.7-2.5,0.8-2.9c-0.2,0-0.4-0.1-0.7-0.1
				c0.3,0.3,0.7,0.7,1,1c-0.4-2.1,0.7-5.1-0.9-6.9c-0.9-1.1-2.3-1-3.5-0.4c-1.7,0.9-2.9,2.7-4.1,4.2c-1.7,2.3-3.3,4.6-5,6.9
				C2608.4,855.9,2611,857.4,2612.2,855.9L2612.2,855.9z"/>
		</g>
	</g>
	<g class="st1">
		<g>
			<path d="M2699.5,847.8c0-0.8,1.1-2,1.7-2.4c1.1-0.7,2.4-0.1,3.2,0.8c1.2,1.5,0.6,3.2-0.4,4.7c-1,1.4-3.1,2.9-4.9,2.5
				c-2.5-0.6-0.4-4.6-0.2-6.2c0.3-1.9-2.6-2.7-2.9-0.8c-0.4,2.2-1.5,4.1-1,6.4c0.3,1.7,1.4,3.1,3.1,3.5c3.9,1,7.9-2,9.4-5.4
				c1.4-3.1,0.1-6.9-3-8.3c-3.4-1.5-8.2,1.4-8,5.2C2696.6,849.8,2699.6,849.8,2699.5,847.8L2699.5,847.8z"/>
		</g>
	</g>
</g>
<g id="Ebene_4" class="st0">
	<g class="st1">
		<g>
			<path d="M2587.3,876.5c0.4-1,1.8-1.8,2.5-2.7c0.4-0.5,1.5-2.3,2-1.8c-0.1-0.6-0.2-1.2-0.2-1.8c-1.1,1.7-1.3,3.7-1.8,5.6
				c-0.6,2.3-1.2,4.3-1.3,6.7c-0.1,1.9,2.9,1.9,3,0c0.1-2.1,0.7-3.9,1.2-5.9c0.5-1.6,0.5-3.5,1.5-4.9c0.4-0.6,0.2-1.3-0.2-1.8
				c-1.6-1.8-3.6-1.2-5.1,0.4c-1.5,1.6-3.6,3.3-4.3,5.3C2583.7,877.6,2586.6,878.3,2587.3,876.5L2587.3,876.5z"/>
		</g>
	</g>
	<g class="st1">
		<g>
			<path d="M2698.8,886.4c-3.6,2-6.4,5.5-4.3,9.7c0.9,1.7,2,2.2,3.8,2.3c1.3,0.1,2.3,0.6,3.6,0.4c1-0.1,2-0.6,2.8-1.1
				c3-1.8,5.9-5.6,3.5-9c-1.3-1.8-3.4-1.9-5.3-2.6c-2.5-0.8-4,0.2-6.5,0.5c-1.9,0.3-1.1,3.2,0.8,2.9c1.1-0.2,2-0.7,3.1-0.8
				c1.2-0.2,2.4,0.5,3.6,0.8c3.6,0.9,1.7,4-0.5,5.4c-1.3,0.8-2.4,0.8-3.8,0.5c-0.8-0.2-1.6,0.1-2.2-0.4c-2.5-2.2,1.2-5.2,2.9-6.1
				C2702.1,888.1,2700.5,885.5,2698.8,886.4L2698.8,886.4z"/>
		</g>
	</g>
</g>
<g id="Ebene_5" class="st0">
	<g class="st1">
		<g>
			<path d="M2578,850.5c1.1-1.3,1.2-2.7,2.6-3.9c0.5-0.4,0.9-0.5,1.6-0.7c0.8-0.2,1.3-0.5,2-0.8c-0.4,0.1-0.8,0.1-1.2,0.2
				c0.2,0,0-0.2,0.5,0.3c0.1,0.1,0.4,0.4,0.5,0.5c0.5,1.1-0.4,2.3-0.9,3.3c-0.6,1.1-2.1,4.8-3.8,4.5c-1.7-0.3,0.3-5,1.1-5.8
				c1.4-1.4-0.8-3.5-2.1-2.1c-2,2-3.2,6.1-2.2,8.7c0.5,1.4,1.8,2.2,3.3,2.2c2.2-0.1,3.8-1.7,5-3.4c2-3,4.9-8.1,0.6-10.7
				c-0.9-0.6-1.6-0.4-2.6,0c-0.8,0.3-1.9,0.5-2.7,0.9c-0.9,0.5-1.7,1.4-2.4,2.1c-0.8,0.8-0.7,1.9-1.4,2.7
				C2574.6,849.8,2576.7,852,2578,850.5L2578,850.5z"/>
		</g>
	</g>
</g>
<g id="Ebene_6" class="st0">
	<g class="st1">
		<g>
			<path d="M2656.8,828.8c0.4-1.1,2.6-2.1,3.5-2.7c0.4-0.3,0.8-0.7,1.2-0.8c0.7-0.3,0.9-0.4,0.5-0.3c0,0.6-0.1,1.1-0.3,1.6
				c-0.5,1.7-0.3,3.3-0.8,5c-0.5,2-0.6,3.6-0.6,5.7c0,1.9,3,1.9,3,0c0-2,0.1-3.4,0.6-5.3c0.4-1.6,0.3-3.2,0.7-4.8
				c0.5-1.7,0.8-4.2-1.1-5.1c-1.8-0.9-3.7,0.7-5.1,1.6c-1.7,1.1-3.7,2.3-4.5,4.2C2653.2,829.8,2656.1,830.6,2656.8,828.8
				L2656.8,828.8z"/>
		</g>
	</g>
</g>
<g id="Ebene_7" class="st0">
	<g class="st1">
		<g>
			<path d="M2629.1,813.7c0.8-0.3,1.4-0.7,2.1-1.2c0.7-0.6,1.3-1.8,2.3-1.9c-0.5-0.4-1-0.7-1.4-1.1c0.9,3.6-1.7,7-2.3,10.5
				c-0.3,1.9,2.6,2.7,2.9,0.8c0.7-4.1,3.5-7.7,2.3-12.1c-0.2-0.6-0.8-1.2-1.4-1.1c-1.1,0.1-1.9,0.3-2.7,1c-0.8,0.6-1.4,1.9-2.4,2.2
				C2626.5,811.4,2627.3,814.3,2629.1,813.7L2629.1,813.7z"/>
		</g>
	</g>
</g>
<g id="Ebene_8" class="st0">
	<g class="st1">
		<g>
			<path d="M2599,812.8c-1.2-1.1,1.5-3.6,2.3-3.9c1.8-0.6,3.4-0.1,3.4,1.8c0,2-1,4.5-2.2,6.1c-1.2,1.7-4.8,5-5,0.9
				c-0.1-2.3,0.7-4.5,1-6.8c0.3-1.9-2.6-2.7-2.9-0.8c-0.5,3.5-3,9.9,1.1,12.2c4.1,2.3,8.4-3.3,9.7-6.6c1.5-3.9,2.3-9.8-3.4-10.1
				c-2.6-0.2-4.8,1-6.1,3.2c-1.1,1.8-1.8,4.3,0,5.9C2598.3,816.2,2600.4,814.1,2599,812.8L2599,812.8z"/>
		</g>
	</g>
</g>
<g id="Ebene_9" class="st0">
	<g class="st1">
		<g>
			<path d="M2567.8,812.6c0.4-1.2,2.3-2.5,3.2-3.4c1.3-1.4,2.7-2.7,4.5-3.3c-0.6-0.3-1.2-0.7-1.8-1c1,3.8-1.9,7.5-1.6,11.4
				c0.2,1.9,3.2,1.9,3,0c-0.4-4.3,2.6-7.9,1.5-12.2c-0.2-0.7-1.1-1.3-1.8-1c-2.4,0.9-4.1,2.3-5.8,4.1c-1.4,1.5-3.3,2.7-4,4.7
				C2564.3,813.7,2567.2,814.4,2567.8,812.6L2567.8,812.6z"/>
		</g>
	</g>
</g>
<g id="Ebene_10">
	<g>
		<g>
			<path d="M2654.4,795.6c0.2-0.5,0.8-1,1.1-1.4c0.6-1.1,1-1.5,2-2.3c1-0.8,3.3-4.3,4.6-4.2c1.3,0.2,0.7,4.7,0.7,5.9
				c0,1.9,3,1.9,3,0c0-2.7,0.8-8.7-3.2-9c-2.9-0.2-4.6,2.8-6.4,4.5c-1,0.9-2.2,1.4-2.9,2.6c-0.3,0.5-0.5,1.1-0.9,1.6
				c-0.4,0.5-0.6,0.8-0.8,1.4C2650.8,796.7,2653.7,797.4,2654.4,795.6L2654.4,795.6z"/>
		</g>
	</g>
</g>
<g id="Ebene_11" class="st0">
	<g class="st1">
		<g>
			<path d="M2613.7,774.4c0.2,0.6,0.3,0.7,0.3,0.3c0-0.2,0.1-0.5,0.2-0.7c0.2-0.5,0.5-1,0.9-1.4c1.3-1.3,3-1.4,4.1,0.1
				c1.6,2.2-0.4,4.8-2.1,6.2c-1.7,1.4-4.3,2-4.3-0.9c0-2,0.7-3.9,1-5.8c0.3-1.9-2.6-2.7-2.9-0.8c-0.5,3.4-2.8,8.6,0.9,11.1
				c4,2.6,8.8-1.8,10.4-5.3c1.8-4-1.4-9.6-6.2-8.5c-2.2,0.5-4.1,2.4-4.8,4.5c-0.6,1.7-0.4,3.6,1.6,4.1
				C2614.8,777.7,2615.6,774.8,2613.7,774.4L2613.7,774.4z"/>
		</g>
	</g>
	<g class="st1">
		<g>
			<path d="M2681.2,808.2c-0.1-1.3,0.9-3.5,2.2-4c1.4-0.5,2.8,1.4,2.9,2.6c0.1,2-1.8,4.4-3.4,5.4c-0.9,0.5-2.1,0.9-2.6-0.2
				c-0.3-0.7-0.2-1.9,0-2.7c0.5-2.2,3.1-3.4,4.5-5c1.3-1.4-0.8-3.6-2.1-2.1c-1.5,1.7-3.7,2.8-4.8,4.9c-0.8,1.5-0.9,3.6-0.6,5.2
				c0.9,4.9,6.5,3.5,9,0.8c2.9-3.1,4.4-7.8,0.6-10.8c-1.7-1.3-3.7-1.7-5.5-0.4c-1.9,1.4-3.3,3.8-3.2,6.2
				C2678.3,810.1,2681.3,810.1,2681.2,808.2L2681.2,808.2z"/>
		</g>
	</g>
</g>
<g id="Ebene_12" class="st0">
	<g class="st1">
		<g>
			<path d="M2580.4,770.4c1.8-1.8,3.8-3.1,5.7-4.7c0.8-0.7,2.5-2.9,3.6-2.8c-0.5-0.4-1-0.7-1.4-1.1c0.4,1.2-1.1,3.4-1.5,4.6
				c-0.4,1.5-0.1,4.1-1.3,5.2c-1.4,1.3,0.7,3.4,2.1,2.1c1.7-1.7,1.5-4.4,2.1-6.5c0.5-1.9,2.1-4.1,1.5-6.2c-0.2-0.7-0.8-1.1-1.4-1.1
				c-1.8-0.1-3.6,1.7-4.8,2.8c-2.2,1.9-4.6,3.5-6.7,5.6C2576.9,769.7,2579,771.8,2580.4,770.4L2580.4,770.4z"/>
		</g>
	</g>
	<g class="st1">
		<g>
			<path d="M2652.4,765.6c0.7-0.9,1.5-2.2,2.4-2.8c1.5-0.9,1.9,0.1,1.5,1.4c-0.6,2.1-2.1,3.7-3.8,5.1c-1.3,1-4.9,3.5-5.2,0.5
				c-0.1-0.8,0.3-4.5,1.5-4.5c1.9-0.1,1.9-3.1,0-3c-3.6,0.1-4.9,5.4-4.4,8.3c0.7,4.8,6,3.9,9,1.8c2.9-2.1,6.7-6,6-9.9
				c-0.3-2-2.1-3.1-4.1-2.9c-2.4,0.2-3.8,2.3-5.2,4C2649.1,764.9,2651.2,767.1,2652.4,765.6L2652.4,765.6z"/>
		</g>
	</g>
</g>
<g id="Ebene_13" class="st0">
	<g class="st1">
		<g>
			<path d="M2597.5,728.3c-1.3,0.5-1.8,1.1-2.4,2.4c-0.6,1.3,1.2,2.2,2.2,1.7c3.2-1.6,5.4-4.7,8.6-6.2c0.2-0.1,0.8-0.5,1-0.4
				c0.4,0.2,0,0-0.1,0.5c-0.2,1.2-1.1,2.3-1.6,3.4c-1.2,2.7-2.5,5.4-3.8,8.2c-0.8,1.7,1.8,3.3,2.6,1.5c1.7-3.7,3.6-7.3,5.2-11.1
				c0.8-1.9,1.3-4.7-1.2-5.5c-4.3-1.4-8.8,5.2-12.2,6.9c0.7,0.6,1.5,1.1,2.2,1.7c0.1-0.1,0.2-0.2,0.3-0.3
				C2600.1,730.5,2599.3,727.6,2597.5,728.3L2597.5,728.3z"/>
		</g>
	</g>
</g>
<g id="Ebene_14" class="st0">
	<g class="st1">
		<g>
			<path d="M2669.4,744.5c0.9-0.9,1.7-2.1,2.7-2.9c0.3-0.3,0.6-0.5,0.9-0.6c0.2-0.9,0.2-1-0.2-0.5c-0.3,0.3-0.3,0.9-0.3,1.3
				c-0.4,2-0.5,4.1-0.9,6.1c-0.3,1.8-0.8,3.5-0.7,5.3c0.1,1.9,3.1,1.9,3,0c-0.2-2.9,0.9-6.2,1.3-9c0.1-1,0.4-1.8,0.6-2.7
				c0.2-0.8,0.1-1.5-0.3-2.3c-2.3-3.8-6.5,1.5-8.1,3.2C2665.9,743.8,2668.1,745.9,2669.4,744.5L2669.4,744.5z"/>
		</g>
	</g>
</g>
<g id="Ebene_15" class="st0">
	<g class="st1">
		<g>
			<path d="M2651.8,713.5c1.2-1.7,2.2-3.6,4.6-2.7c1.6,0.5,1.9,1.2,1.6,2.8c-0.3,2-1.8,4.6-3.3,6c-0.9,0.9-3,0.8-3.6-0.5
				c-0.4-0.8,0.5-1.9,0.9-2.5c1.1-1.7,2.3-3.3,2.5-5.4c0.2-1.9-2.8-1.9-3,0c-0.3,3.3-5.2,5.9-2.8,9.6c1,1.5,3.3,2.6,5.1,2.5
				c2-0.1,3.3-1.7,4.4-3.2c1.9-2.6,4.5-7.1,2.2-10.3c-1.2-1.6-3.8-2.5-5.7-2.3c-2.6,0.2-4,2.6-5.4,4.5
				C2648.1,713.5,2650.7,715,2651.8,713.5L2651.8,713.5z"/>
		</g>
	</g>
</g>
<g id="Ebene_16" class="st0">
	<g class="st1">
		<g>
			<path d="M2699.3,772c0.3-0.5,1.7-2.2,2.3-2.1c0.8,0.2,0.1,3-0.1,3.6c-0.6,2.9-1.6,5.5-1.8,8.5c-0.1,1.9,2.9,1.9,3,0
				c0.1-3.1,1.4-6,1.9-9c0.3-1.6,0.6-3.7-0.5-5.1c-2.1-2.7-6.4,0.4-7.5,2.6C2695.8,772.2,2698.4,773.7,2699.3,772L2699.3,772z"/>
		</g>
	</g>
	<g class="st1">
		<g>
			<path d="M2562.1,750.7c0.6-0.6,0.8-1.3,1.2-2c0.4-0.7,0.8-1.1,1.6-1.4c0.3-0.1,0.8,0,1.1-0.2c0.6-0.5-0.3-0.3-0.3-0.1
				c0-0.1,1.9,1.6,1.4,0.9c0.8,1,0.6,2.6,0.3,3.7c-0.6,2-4,5.4-6.3,4.6c-2.8-0.9,0.4-4.8,1.3-6.3c1-1.7-1.6-3.2-2.6-1.5
				c-1.8,3-4.9,7.4-1,10.3c3.5,2.5,9.1-1.4,10.8-4.6c1.8-3.4,1.4-7.7-2.2-9.6c-1.6-0.8-2.5-0.2-3.7,0.1c-2.5,0.6-2.2,2.5-3.6,4.1
				C2558.6,750,2560.8,752.2,2562.1,750.7L2562.1,750.7z"/>
		</g>
	</g>
</g>
<g id="Ebene_17" class="st0">
	<g class="st1">
		<g>
			<path d="M2713.6,723.8c0.8-1,1.4-1.6,2.7-1.8c1.7-0.3,2.9,0.2,2.8,2.1c-0.1,2.2-1.3,3.8-3,4.9c-0.9,0.6-1.9,1.4-3.1,1.3
				c-1.7-0.1-1.6-1.1-1.3-2.3c0.2-1.2,0.4-1.7,1.3-2.5c0.6-0.5,0.9-1.1,1-1.9c0.3-1.9-2.6-2.7-2.9-0.8c-0.1,0.7-1.1,1.2-1.5,1.8
				c-0.5,0.8-0.6,1.7-0.8,2.6c-0.3,1.6-0.6,3.2,0.5,4.6c2.8,3.4,7.7,0.8,10.2-1.6c2.3-2.2,3.5-6.7,1.7-9.5c-2.4-3.6-7.6-1.7-9.7,1
				C2710.3,723.1,2712.4,725.3,2713.6,723.8L2713.6,723.8z"/>
		</g>
	</g>
	<g class="st1">
		<g>
			<path d="M2681.7,686.4c1.7-0.6,3.3-4,4.8-4c-0.5-0.4-1-0.7-1.4-1.1c0.9,2.2-0.6,5.1-1,7.3c-0.6,2.6-1.1,5.2-1.5,7.8
				c-0.3,1.9,2.6,2.7,2.9,0.8c0.5-3.3,1.1-6.6,2-9.8c0.6-2.1,1.4-4.7,0.5-6.9c-0.3-0.6-0.7-1.1-1.4-1.1c-1.2-0.1-2,0.2-2.9,1
				c-0.9,0.8-1.5,2.6-2.7,3.1C2679.1,684.2,2679.9,687.1,2681.7,686.4L2681.7,686.4z"/>
		</g>
	</g>
	<g class="st1">
		<g>
			<path d="M2617,688.7c0-0.8,0.6-1.9,1.2-2.4c1.3-1,2.6-0.2,3.4,0.9c0.9,1.3,1,3.8,0.2,5.3c-0.9,1.6-3.8,3.9-4.5,0.8
				c-0.3-1.2,0.1-3.7,0.9-4.6c1.3-1.4-0.8-3.5-2.1-2.1c-2.3,2.4-2.7,7.7-0.3,10c3.1,3,7.3,0.2,8.8-3c1.6-3.4,0.6-8.2-2.8-10.1
				c-3.9-2.2-7.6,1.3-7.8,5.2C2613.9,690.7,2616.9,690.7,2617,688.7L2617,688.7z"/>
		</g>
	</g>
	<g class="st1">
		<g>
			<path d="M2571.4,696.1c1.4,0.2,1.7-0.2,2.7-1c0.6-0.4,1.2-0.7,1.8-1.1c0.4-0.3,0.9-1,1.4-1.2c1-0.4,0.5,0.2,0.3,1
				c-0.2,0.8-0.3,1.4-0.4,2.2c-0.2,2.3-0.6,4.6-0.9,6.9c-0.3,1.9,2.6,2.7,2.9,0.8c0.4-2.8,0.6-5.8,1.1-8.6c0.4-1.9,1.3-3.7-0.5-5.2
				c-1.3-1.1-3-0.5-4.2,0.4c-0.7,0.5-1.3,1.1-2.1,1.6c-0.4,0.2-0.8,0.4-1.1,0.7c-0.4,0.4-0.8,0.5-0.1,0.6
				C2570.3,693,2569.5,695.8,2571.4,696.1L2571.4,696.1z"/>
		</g>
	</g>
</g>
</svg>
