<?xml version="1.0" encoding="utf-8"?>
<!-- Generator: Adobe Illustrator 23.0.2, SVG Export Plug-In . SVG Version: 6.00 Build 0)  -->
<svg version="1.1" xmlns="http://www.w3.org/2000/svg" xmlns:xlink="http://www.w3.org/1999/xlink" x="0px" y="0px"
	 viewBox="0 0 4096 2160" style="enable-background:new 0 0 4096 2160;" xml:space="preserve">
<style type="text/css">
	.st0{display:none;}
	.st1{display:inline;}
</style>
<g id="Ebene_11">
	<g>
		<g>
			<path d="M2695.5,889.3c2.5-3,3.2-6.7,5.1-10c0.6-1,2.1-3.9,3.3-2.6c0.4,0.4,0.6,2.8,0.8,3.4c1,3.8,2.2,11.3,6.7,12.7
				c1.8,0.6,2.6-2.3,0.8-2.9c-2.4-0.8-3.5-6.8-4.1-8.9c-0.6-2-0.7-6-2.4-7.4c-5.9-4.9-10.3,11.1-12.2,13.4
				C2692.1,888.7,2694.2,890.8,2695.5,889.3L2695.5,889.3z"/>
		</g>
	</g>
</g>
</svg>
