<?xml version="1.0" encoding="utf-8"?>
<!-- Generator: Adobe Illustrator 23.0.2, SVG Export Plug-In . SVG Version: 6.00 Build 0)  -->
<svg version="1.1" xmlns="http://www.w3.org/2000/svg" xmlns:xlink="http://www.w3.org/1999/xlink" x="0px" y="0px"
	 viewBox="0 0 4096 2160" style="enable-background:new 0 0 4096 2160;" xml:space="preserve">
<style type="text/css">
	.st0{display:none;}
	.st1{display:inline;}
</style>
<g id="Ebene_10">
	<g>
		<g>
			<path d="M2680.7,939.4c0.3-2.1,1.1-3.9,1.9-5.8c0.8-1.9,1.2-4.1,2.2-5.9c0.5-1,1.4-2.9,2.8-2.3c0.5,0.2,0.9,2.1,1,2.4
				c0.4,1.1,0.6,2.2,0.8,3.3c0.9,4.1,1.9,10.2,6.6,11.5c1.9,0.5,2.7-2.4,0.8-2.9c-3.3-0.9-3.9-6.6-4.5-9.5c-0.6-2.5-1.2-6.3-3.3-7.9
				c-2.6-1.9-5,0.8-6.3,2.9c-1.2,1.8-1.7,3.9-2.5,6c-0.9,2.5-2.1,4.7-2.5,7.3C2677.6,940.5,2680.5,941.3,2680.7,939.4L2680.7,939.4z
				"/>
		</g>
	</g>
</g>
</svg>
