<?xml version="1.0" encoding="utf-8"?>
<!-- Generator: Adobe Illustrator 23.0.2, SVG Export Plug-In . SVG Version: 6.00 Build 0)  -->
<svg version="1.1" xmlns="http://www.w3.org/2000/svg" xmlns:xlink="http://www.w3.org/1999/xlink" x="0px" y="0px"
	 viewBox="0 0 4096 2160" style="enable-background:new 0 0 4096 2160;" xml:space="preserve">
<style type="text/css">
	.st0{display:none;}
	.st1{display:inline;}
</style>
<g id="Ebene_1" class="st0">
	
		<image style="display:inline;overflow:visible;" width="4096" height="2160" xlink:href="../scene06_layer06.png"  transform="matrix(1 0 0 1 4 1)">
	</image>
	
		<image style="display:inline;overflow:visible;" width="4096" height="2160" xlink:href="../scene06_layer03.png"  transform="matrix(1 0 0 1 0 -2)">
	</image>
	
		<image style="display:inline;overflow:visible;" width="4096" height="2160" xlink:href="../scene06_layer04.png"  transform="matrix(1 0 0 1 0.1538 -1.9231)">
	</image>
	
		<image style="display:inline;overflow:visible;" width="4096" height="2160" xlink:href="../scene06_layer01.png"  transform="matrix(1 0 0 1 0 1)">
	</image>
	
		<image style="display:inline;overflow:visible;" width="4096" height="2160" xlink:href="../scene06_layer05.png"  transform="matrix(1 0 0 1 -3 -10)">
	</image>
</g>
<g id="Ebene_2" class="st0">
	<g class="st1">
		<g>
			<path d="M2723.9,975.3c-0.2-0.1-0.4-0.1-0.7-0.2c0.3,0.6,0.7,1.2,1,1.8c1.1-3.3,2.3-6.6,3.5-9.9c0.5-1.5,1-3.1,1.8-4.5
				c0.2-0.4,0.9-1.9,1.4-2c-0.5,0.1-0.1,0-0.1,1c0,2.2-0.1,4.3-0.2,6.5c-0.1,1.7-0.2,3.4-0.1,5.1c0.2,2,1.2,3.7,1.1,5.7
				c-0.1,1.9,2.9,1.9,3,0c0.1-2.8-1.2-5.4-1.2-8.2c0-1.7,0.1-3.4,0.2-5c0.1-2.1,0.7-6.8-1.7-8.1c-2.8-1.4-4.9,3-5.8,4.9
				c-1.9,4.4-3.3,9.2-4.9,13.7c-0.3,0.8,0.3,1.6,1,1.8c0.2,0.1,0.4,0.1,0.7,0.2C2725,978.7,2725.8,975.8,2723.9,975.3L2723.9,975.3z
				"/>
		</g>
	</g>
</g>
<g id="Ebene_3" class="st0">
	<g class="st1">
		<g>
			<path d="M2752.2,947.6c0,0.2,0,0.4-0.1,0.7c-0.1,1.3,1.7,1.9,2.6,1.1c1.3-1.4,2.3-2.9,3.1-4.6c0.6-1.3,1.1-3.4,1.9-0.8
				c0.6,1.9,0,3.9,0.1,5.9c0.1,2.2,1,4.3,1.1,6.5c0.1,1.9,3.1,1.9,3,0c-0.1-1.4-0.3-2.7-0.7-4.1c-0.5-2-0.4-3.8-0.3-5.8
				c0.1-2.1-0.4-4.6-1.9-6.2c-1.1-1.2-2.8-1.4-4.1-0.2c-0.7,0.6-1,1.6-1.4,2.4c-0.7,1.8-1.6,3.5-3,4.9c0.9,0.4,1.7,0.7,2.6,1.1
				c0-0.2,0-0.4,0.1-0.7C2755.4,945.7,2752.4,945.7,2752.2,947.6L2752.2,947.6z"/>
		</g>
	</g>
</g>
<g id="Ebene_4" class="st0">
	<g class="st1">
		<g>
			<path d="M2797.3,936.8c0.2-4,2.8-10.4,7.9-7.8c3,1.5,5.6,6.8,5,9.9c-0.4,2.3-2.1,4.7-4.6,4.9c-2.6,0.2-3.7-1.9-4.7-4
				c-1-2-2.5-8,0.6-9.1c1.8-0.6,1-3.5-0.8-2.9c-5.4,1.7-4.4,9.5-2.4,13.5c1.3,2.7,3.2,5.6,6.5,5.8c3.2,0.2,6.1-2.3,7.5-5
				c2.7-5.4-1-13.8-6.5-16.1c-7.1-2.8-11.2,5.1-11.5,10.9C2794.2,938.7,2797.2,938.7,2797.3,936.8L2797.3,936.8z"/>
		</g>
	</g>
</g>
<g id="Ebene_5" class="st0">
	<g class="st1">
		<g>
			<path d="M2847.5,945.4c3.5-3.3,4.5-9.1,7.2-13c0.4-0.5,1.6-2.7,2.5-2.6c1.5,0.1,2.5,4.2,2.9,5.1c0.9,2.3,1.7,4.7,2.3,7.2
				c0.7,3,2.2,5.2,3.2,8.1c0.6,1.8,3.5,1,2.9-0.8c-0.5-1.4-1.2-2.6-1.8-3.9c-1-2.1-1.3-4.2-1.9-6.3c-0.9-3-2-6.2-3.4-9
				c-1.1-2.2-3-4.1-5.6-2.9c-6,2.8-5.8,12-10.2,16.1C2844,944.6,2846.1,946.8,2847.5,945.4L2847.5,945.4z"/>
		</g>
	</g>
</g>
<g id="Ebene_6" class="st0">
	<g class="st1">
		<g>
			<path d="M2722.8,934c1.6-0.6,2.5-1.5,3.2-3.1c0.4-0.9,0.6-1.8,1-2.7c0.2-0.5,0.6-1,0.6-1.5c0.1-0.5-0.5-1.3-0.2,0
				c0.6,2.5,1.5,5,2,7.6c0.5,2.7,1.2,5.2,2.6,7.6c1,1.7,3.5,0.2,2.6-1.5c-1.7-3-2.1-6.4-2.8-9.8c-0.4-1.8-0.9-5.4-2.3-6.7
				c-4.1-3.9-5.4,6.5-7.4,7.2C2720.2,931.7,2721,934.6,2722.8,934L2722.8,934z"/>
		</g>
	</g>
</g>
<g id="Ebene_7" class="st0">
	<g class="st1">
		<g>
			<path d="M2788.6,902.7c0.3-0.1,0.6-0.1,0.9-0.2c0.7-0.2,1-0.8,1.1-1.4c0.2-1.5,2.5-8.1,4.5-7.7c1.6,0.4,2.1,6.1,2.6,7.5
				c0.8,2.2,2.2,4.5,2,6.9c-0.2,1.9,2.8,1.9,3,0c0.4-3.7-2.2-7.3-3-10.8c-0.6-2.4-1.4-6.5-4.6-6.6c-4.4-0.2-7.2,7.3-7.5,10.7
				c0.4-0.5,0.7-1,1.1-1.4c-0.3,0.1-0.6,0.1-0.9,0.2C2786,900.2,2786.8,903.1,2788.6,902.7L2788.6,902.7z"/>
		</g>
	</g>
</g>
<g id="Ebene_8" class="st0">
	<g class="st1">
		<g>
			<path d="M2756.2,897.3c0.8-2,1.9-2.1,3.5-0.8c1,0.9,1.8,2,2.2,3.3c0.5,1.9,1.1,7.5-1.3,8.3c-1.6,0.5-4.8-0.8-6.2-1.5
				c-1.5-0.7-2.3-1.9-2.5-3.6c-0.1-1.1-0.1-3.2,1.2-3.6c1.8-0.6,1-3.5-0.8-2.9c-4.3,1.5-4.3,8.2-1.5,11.1c1.7,1.8,4.3,2.5,6.6,3.1
				c1.8,0.5,3.9,0.7,5.5-0.5c3.8-2.8,2.9-11,0.4-14.3c-1.2-1.6-3.2-3.5-5.4-3.5c-2.5-0.1-3.7,2-4.6,4
				C2752.6,898.3,2755.5,899.1,2756.2,897.3L2756.2,897.3z"/>
		</g>
	</g>
</g>
<g id="Ebene_9" class="st0">
	<g class="st1">
		<g>
			<path d="M2845.8,891.5c-0.3-2.8,2.7,0,3,0.3c0.6,0.7,1.6,1.8,2,2.6c0.6,1.3,1,3.4,1.1,4.8c0,0.4,0.1,1,0.2,0.6
				c-0.1,0.6-0.9,1.9-1.2,2.5c-1.1,2-2.6,3-4.9,3c-1.8,0-3.6-0.7-5.1-1.7c-1.5-1.1-2.8-2.5-1.9-4.6c0.3-0.7,1.1-1.5,1.6-2.1
				c2-2.6,3.7-5.3,4.1-8.6c0.2-1.9-2.8-1.9-3,0c-0.5,4.2-4.4,6.5-5.8,10.2c-1,2.7,0.5,5.2,2.6,7c3.9,3.4,10.7,4.2,14.1-0.2
				c1.1-1.5,2.8-4.2,2.5-6.1c-0.4-2.8-1.3-5.8-3-8c-1.5-1.9-3.4-4.1-6.1-3.9c-2.4,0.2-3.4,2.1-3.2,4.3
				C2843,893.4,2846,893.4,2845.8,891.5L2845.8,891.5z"/>
		</g>
	</g>
</g>
<g id="Ebene_10" class="st0">
	<g class="st1">
		<g>
			<path d="M2680.7,939.4c0.3-2.1,1.1-3.9,1.9-5.8c0.8-1.9,1.2-4.1,2.2-5.9c0.5-1,1.4-2.9,2.8-2.3c0.5,0.2,0.9,2.1,1,2.4
				c0.4,1.1,0.6,2.2,0.8,3.3c0.9,4.1,1.9,10.2,6.6,11.5c1.9,0.5,2.7-2.4,0.8-2.9c-3.3-0.9-3.9-6.6-4.5-9.5c-0.6-2.5-1.2-6.3-3.3-7.9
				c-2.6-1.9-5,0.8-6.3,2.9c-1.2,1.8-1.7,3.9-2.5,6c-0.9,2.5-2.1,4.7-2.5,7.3C2677.6,940.5,2680.5,941.3,2680.7,939.4L2680.7,939.4z
				"/>
		</g>
	</g>
</g>
<g id="Ebene_11" class="st0">
	<g class="st1">
		<g>
			<path d="M2695.5,889.3c2.5-3,3.2-6.7,5.1-10c0.6-1,2.1-3.9,3.3-2.6c0.4,0.4,0.6,2.8,0.8,3.4c1,3.8,2.2,11.3,6.7,12.7
				c1.8,0.6,2.6-2.3,0.8-2.9c-2.4-0.8-3.5-6.8-4.1-8.9c-0.6-2-0.7-6-2.4-7.4c-5.9-4.9-10.3,11.1-12.2,13.4
				C2692.1,888.7,2694.2,890.8,2695.5,889.3L2695.5,889.3z"/>
		</g>
	</g>
</g>
<g id="Ebene_12" class="st0">
	<g class="st1">
		<g>
			<path d="M2872.6,875c1.3-2.1,1.8-3.5,2.4-5.8c0.6-2,1.9-3.2,2.1-5.4c-0.9,0.4-1.7,0.7-2.6,1.1c2,2.1,2.3,7.3,3,10
				c0.8,3.4,1.8,6.6,3.3,9.8c0.8,1.7,3.4,0.2,2.6-1.5c-2-4.2-2.9-8.7-4-13.2c-0.6-2.5-0.9-5.3-2.7-7.2c-0.9-1-2.5-0.2-2.6,1.1
				c-0.1,1.5-1.4,2.4-1.9,3.8c-0.7,2.1-1,4-2.2,5.9C2869,875.1,2871.6,876.7,2872.6,875L2872.6,875z"/>
		</g>
	</g>
</g>
<g id="Ebene_13" class="st0">
	<g class="st1">
		<g>
			<path d="M2807.6,855.9c0.9-0.9,1.3-1.7,1.6-2.9c0.9-3.2,3.2-4,6.3-2.4c4.6,2.3,6.8,7,6.8,11.9c0,3.2-0.7,7.1-4.6,7.2
				c-2.2,0.1-4.9-0.9-6.8-1.9c-2.8-1.4-4.5-3.7-3.9-7c0.5-2.6,2-5.6,5-5.5c1.9,0,1.9-3,0-3c-6.5-0.1-10,8.9-7,14.2
				c2.9,5,13.2,8.7,17.9,4.4c5.6-5.1,2.2-16.4-2.7-20.7c-2.5-2.2-6-4.1-9.4-3.5c-1.2,0.2-2.3,0.8-3.1,1.7c-1.3,1.6-0.8,3.9-2.2,5.4
				C2804.2,855.2,2806.3,857.3,2807.6,855.9L2807.6,855.9z"/>
		</g>
	</g>
</g>
<g id="Ebene_14" class="st0">
	<g class="st1">
		<g>
			<path d="M2757.2,857.8c1.5-2.1,2.7-4.3,4.1-6.4c3.8-5.6,4.5,1.6,4.9,4.2c0.4,2.3,1,4.5,1.3,6.8c0.3,2.2,0.5,4.5,1.1,6.7
				c0.1,0.5,0.6,0.9,1,1c0.3,0.1,0.6,0.1,0.9,0.2c1.9,0.4,2.7-2.5,0.8-2.9c-0.5-0.1-1.5-9.6-1.8-10.8c-0.9-3.2-0.3-6.6-2.5-9.4
				c-5-6-10.2,5.9-12.4,9C2753.5,857.8,2756.1,859.3,2757.2,857.8L2757.2,857.8z"/>
		</g>
	</g>
</g>
<g id="Ebene_15" class="st0">
	<g class="st1">
		<g>
			<path d="M2726.4,846.6c0.1,0.1,0.3,0.1,0.4,0.2c0.6,0.5,1.2,0.5,1.8,0.2c1.8-0.8,9.3,14.3-1.3,15c-3.1,0.2-5.1-2-6.1-4.7
				c-0.8-2,0-3.8,0.6-5.7c0.6-2,1.1-3.4,3.6-2.7c1.9,0.5,2.7-2.4,0.8-2.9c-2.3-0.6-4.4-0.7-5.9,1.4c-1.5,2-2.7,6.4-2.5,8.8
				c0.5,5.1,5,9.2,10,8.9c13.9-0.8,7.3-24.2-0.6-20.5c0.6,0.1,1.2,0.2,1.8,0.2c-0.6-0.5-1-0.7-1.8-1
				C2725.3,843.2,2724.5,846.1,2726.4,846.6L2726.4,846.6z"/>
		</g>
	</g>
</g>
<g id="Ebene_16" class="st0">
	<g class="st1">
		<g>
			<path d="M2791.8,809.9c0.2-1.2,1.4-1.7,2.1-2.5c0.6-0.8,0.8-1.7,1.3-2.5c1.1-1.9,1.9-2.8,2.9-1.1c0.4,0.7,0.6,2.3,0.8,3
				c1.2,5.5-0.2,10.2-0.3,15.6c0,1.9,3,1.9,3,0c0.1-4.4,1.4-8.4,0.9-12.8c-0.3-2.7-0.7-7.2-2.8-9.3c-1.7-1.6-3.7-0.8-5.2,0.6
				c-1.5,1.4-1.9,3.4-3.2,4.9c-1.1,1.2-2,1.5-2.3,3.2C2788.7,811,2791.6,811.8,2791.8,809.9L2791.8,809.9z"/>
		</g>
	</g>
	<g class="st1">
		<g>
			<path d="M2855.5,842.3c1.5-0.6,2.4-1.5,3.6-2.6c2.1-2,3.5-2.1,6.2-1.3c1,0.3,2.4,0.6,3.1,1.4c2.2,2,1.2,4.1,0.5,6.1
				c-0.9,2.6-2.3,3.3-4.5,4.7c-1.4,0.9-2.7,2.4-4.3,3.1c-2.9,1.3-6.6-0.6-7.4-3.6c-0.5-1.8,0.7-10.8,3.5-11c1.9-0.1,1.9-3.1,0-3
				c-2.7,0.2-4,1.9-4.9,4.3c-1,2.8-2,6.2-1.7,9.1c0.7,6.8,8.5,9.4,13.7,5.7c2.5-1.8,6-3.4,7.6-6.1c1.6-2.8,2.9-7.2,1-10.1
				c-1.5-2.3-6-4.2-8.6-4.6c-3.9-0.6-5.5,3.9-8.5,5.1C2852.9,840.1,2853.7,843,2855.5,842.3L2855.5,842.3z"/>
		</g>
	</g>
</g>
<g id="Ebene_17" class="st0">
	<g class="st1">
		<g>
			<path d="M2732.8,804.1c0,0.2-0.1,0.5-0.1,0.7c-0.2,1.6,2.1,1.9,2.8,0.8c1-1.6,2.6-3,3.7-4.6c1-1.4,2.8-2.9,4.7-1.7
				c0.4,0.2,1.8,4.6,1.5,3.7c1.6,5,1.4,10.3,2.7,15.3c0.1,0.5,0.6,0.9,1,1c0.3,0.1,0.6,0.1,0.9,0.2c1.9,0.4,2.7-2.5,0.8-2.9
				c-0.7-0.2-1.8-11.7-2.1-13c-0.6-2.4-1.6-6.6-3.9-8.1c-1.9-1.2-4.1-0.6-5.7,0.7c-1.3,1-2.1,2.4-3,3.8c-1,1.5-2.4,2.5-3.3,4
				c0.9,0.3,1.9,0.5,2.8,0.8c0-0.2,0.1-0.5,0.1-0.7C2736,802.2,2733,802.3,2732.8,804.1L2732.8,804.1z"/>
		</g>
	</g>
	<g class="st1">
		<g>
			<path d="M2682.5,824.7c-1.1-1.2-1.1-4.3-0.6-6c0.5-1.8,1.9-2.3,3.1-3.6c-0.6,0.1-1.2,0.2-1.8,0.2c2.8,1.3,6.1,1.6,6.5,5.2
				c0.5,4.5-0.9,9.5-4.5,12.3c-2.1,1.6-4.8,2.3-6.6,0c-1.3-1.7-1.3-3.7-0.8-5.7c0.6-2.7,3.4-9,6.8-9.5c-0.5-0.4-1-0.7-1.4-1.1
				c0.1,0.3,0.1,0.7,0.2,1c0.4,1.9,3.3,1.1,2.9-0.8c-0.1-0.3-0.1-0.7-0.2-1c-0.1-0.6-0.8-1.2-1.4-1.1c-5.4,0.7-9.1,8.1-9.9,12.9
				c-0.7,4.3,2.2,11.3,7.5,10.4c6.1-1,9.8-7.9,10.4-13.4c0.3-2.7,0.6-6.1-1.2-8.4c-1.6-2-4.4-2.5-6.6-3.5c-0.6-0.3-1.3-0.3-1.8,0.2
				c-2.1,2.3-3.6,2.4-4,5.7c-0.3,2.9-0.5,5.8,1.5,8.1C2681.7,828.2,2683.8,826.1,2682.5,824.7L2682.5,824.7z"/>
		</g>
	</g>
</g>
<g id="Ebene_18">
	<g>
		<g>
			<path d="M2656.6,886.1c1.4-1.5,2.1-3.6,2.9-5.4c0.7-1.5,2.2-6.5,4.2-6.7c3.3-0.4,3.3,7.2,3.3,9.2c0.1,3,0.3,6.1,2.6,8.3
				c1.4,1.4,3.5-0.7,2.1-2.1c-2.9-2.9-1.3-8.7-2.3-12.5c-0.7-2.6-2.4-6.2-5.7-6c-5.9,0.4-6.1,9.7-9.2,13.1
				C2653.2,885.4,2655.3,887.5,2656.6,886.1L2656.6,886.1z"/>
		</g>
	</g>
	<g>
		<g>
			<path d="M2846.5,813.2c1.9,0,1.9-3,0-3C2844.6,810.2,2844.5,813.2,2846.5,813.2L2846.5,813.2z"/>
		</g>
	</g>
	<g>
		<g>
			<path d="M2846.1,812.1c0.1,0.1,0.3,0.2,0.4,0.2c0.6,0.6,1.6,0.6,2.1,0c1.6-1.7,2.2-4.1,3.8-5.7c2.4-2.4,6-0.4,8,1.5
				c4.2,4.2,3.1,9.6-0.9,13.4c-3.7,3.5-9.8,4.6-11.5-1.6c-1.2-4.5,2.7-9.1,4.2-13.1c0.6-1.8-2.3-2.6-2.9-0.8
				c-2.3,6.5-7.9,13.6-1.2,19.6c4.7,4.2,11.2,0.9,14.7-3.2c4.5-5.3,4.5-12.4-1.1-17c-2.2-1.9-5.4-3.4-8.3-2.7c-3.9,0.9-4.6,5-7,7.6
				c0.7,0,1.4,0,2.1,0c-0.6-0.6-0.9-0.8-1.8-1C2845,808.7,2844.2,811.6,2846.1,812.1L2846.1,812.1z"/>
		</g>
	</g>
</g>
<g id="Ebene_19" class="st0">
</g>
<g id="Ebene_20" class="st0">
	<g class="st1">
		<g>
			<path d="M2832.9,769.6c0-1.7,1-3.2,1-5c-0.9,0.4-1.7,0.7-2.6,1.1c1.4,1.2,2.2,1.4,3.9,1c0.9-0.2,1.8-1,2.8-0.7
				c1.5,0.4,2.8,3.1,3.3,4.4c1,2.8,1.9,9.5-0.2,12c-2.5,3.1-6-0.2-8.3-1.4c-1-0.5-2.7-0.7-3.3-1.7c-0.4-0.6-0.3-2.1-0.3-2.8
				c-0.1-1.9-0.1-4.1,0.6-5.9c0.5-1.4,2.3-4.7,3.8-4.9c1.9-0.2,1.9-3.2,0-3c-5.5,0.7-7.3,8.3-7.3,12.8c0,2.6,0,5.4,2.4,7
				c1.7,1,3.4,1.8,5.1,2.9c1.4,0.9,2.9,1.2,4.5,1.2c7.4-0.2,7.4-8.2,6.7-13.8c-0.4-3-1.4-5.8-3.5-8c-0.8-0.9-1.9-1.7-3.1-1.9
				c-1-0.2-4.3,1.1-4.8,0.7c-1-0.9-2.5-0.3-2.6,1.1c0,1.8-1,3.2-1,5C2829.9,771.6,2832.9,771.6,2832.9,769.6L2832.9,769.6z"/>
		</g>
	</g>
</g>
<g id="Ebene_21" class="st0">
	<g class="st1">
		<g>
			<path d="M2790.7,764.5c0.6,0.3,1.3,0.7,1.9,1c0.7,0.4,1.6,0.2,2.1-0.5c1.3-2,2.2-4.1,3.2-6.3c0.4-0.8,0.8-2.1,1.4-2.8
				c0.3-1.2,0.9-1.3,1.6-0.4c0.8,0.3,1.2,0.9,1.2,1.8c1.1,2.1,1.4,4.7,2.3,7c0.8,2,2.1,3.8,2.9,5.9c0.7,1.8,3.6,1,2.9-0.8
				c-1.5-3.8-3.5-7.2-4.7-11.1c-0.7-2.1-1.3-5.8-3.8-6.7c-1.8-0.7-3.3,0.5-4.4,1.8c-2.3,3-3.3,6.9-5.3,10.1c0.7-0.2,1.4-0.4,2.1-0.5
				c-0.6-0.3-1.3-0.6-1.9-1C2790.5,761,2789,763.5,2790.7,764.5L2790.7,764.5z"/>
		</g>
	</g>
	<g class="st1">
		<g>
			<path d="M2641.6,819.3c-0.3,0.2-0.6,0.4-0.8,0.7c0.6-0.1,1.2-0.2,1.8-0.2c-2.1-1.5-0.9-4.3,0.1-6.1c1.5-2.8,5.3-2.6,7.7-0.9
				c4.3,3.2,4.6,10.6,1.4,14.5c-2.8,3.4-10.1,7.2-13.1,2.5c-2.9-4.5-0.1-10.9,2-15.1c0.9-1.7-1.7-3.2-2.6-1.5
				c-2.2,4.3-3.9,8.4-3.3,13.4c0.4,3.2,1.9,8.4,5.6,9.4c3.2,0.9,8.3-2.4,10.8-4.1c3.1-2.1,5.6-5.7,5.9-9.5
				c0.6-6.5-4.5-14.8-11.8-14.1c-3.5,0.4-5.1,3.4-6.3,6.4c-1.3,3.4-1,5.6,2,7.7c0.6,0.4,1.3,0.2,1.8-0.2c0.3-0.2,0.6-0.4,0.8-0.7
				C2645.2,820.2,2643.1,818.1,2641.6,819.3L2641.6,819.3z"/>
		</g>
	</g>
</g>
<g id="Ebene_22" class="st0">
	<g class="st1">
		<g>
			<path d="M2757.3,748.5c0.7-2.8,2.5-6.7,3.9-9.3c3-5.8,6.2,3.2,6.9,5.9c1.2,4.7,1.6,10.1,5.1,13.8c1.3,1.4,3.4-0.7,2.1-2.1
				c-5.4-5.7-1.9-18-9.6-22.1c-2.5-1.3-4.9-0.3-6.4,2c-1,1.4-1.5,3.1-2.1,4.7c-0.8,2.2-2.2,4.1-2.7,6.4
				C2754,749.5,2756.9,750.3,2757.3,748.5L2757.3,748.5z"/>
		</g>
	</g>
</g>
<g id="Ebene_23" class="st0">
	<g class="st1">
		<g>
			<path d="M2859.8,725.8c1-3,5.9-2.5,7.9-1.2c2.4,1.6,4.3,4.6,5,7.4c0.9,3.1,0.9,7.3-1.3,9.8c-3.3,3.7-8.4,1.8-10.7-1.9
				c-2.5-4-6.1-16.8,2-16.2c1.9,0.1,1.9-2.9,0-3c-14.2-1.1-7.7,28.2,5.5,26.2c9.8-1.5,9.6-14.2,5.1-20.7c-2.1-3-4.6-5.3-8.3-5.5
				c-3.6-0.1-6.8,0.7-8,4.3C2856.3,726.8,2859.2,727.6,2859.8,725.8L2859.8,725.8z"/>
		</g>
	</g>
</g>
<g id="Ebene_24" class="st0">
	<g class="st1">
		<g>
			<path d="M2598.8,822.9c1.5-3.7,2.3-7.5,3.2-11.4c0.5-2.4,2.6-13.1,5.7-10.8c1,0.7,1.5,3.4,2.1,4.6c0.9,2,1.9,4,2.8,6.1
				c1.1,2.9,2.2,5.5,4.3,7.8c1.3,1.4,3.4-0.7,2.1-2.1c-3.5-3.8-5.4-10.8-7.5-15.5c-0.9-2.1-2.2-5.6-5.1-5.3
				c-3.4,0.4-4.9,5.9-5.7,8.5c-1.8,5.7-2.5,11.7-4.7,17.2C2595.1,823.9,2598,824.7,2598.8,822.9L2598.8,822.9z"/>
		</g>
	</g>
</g>
<g id="Ebene_25" class="st0">
	<g class="st1">
		<g>
			<path d="M2704.3,751c0.2-0.4,0.4-0.8,0.6-1.2c0.7-1.4-1.2-3.2-2.4-1.8c-0.2,0.3-0.4,0.5-0.6,0.8c0.9,0.4,1.7,0.7,2.6,1.1
				c-0.6-7.9,13.4-3.8,13.5,3.1c0,3-1,5.7-2.6,8.2c-1.2,1.7-3,5.3-4.8,6.4c-5.2,3.2-9.3-4.4-9.4-8.8c0-2.7,1.5-11.3,4.4-12.4
				c1.8-0.6,1-3.5-0.8-2.9c-5.9,2.1-7.7,14.5-5.8,19.6c1.1,2.9,3.8,7.8,7.2,8.3c3.1,0.5,6.1-0.9,7.9-3.2c4.9-6.1,11.1-16.8,2.8-22.9
				c-5.1-3.8-16.1-4.3-15.5,4.6c0.1,1.1,1.7,2.2,2.6,1.1c0.2-0.3,0.4-0.5,0.6-0.8c-0.8-0.6-1.6-1.2-2.4-1.8
				c-0.2,0.4-0.4,0.8-0.6,1.2C2700.9,751.2,2703.5,752.7,2704.3,751L2704.3,751z"/>
		</g>
	</g>
	<g class="st1">
		<g>
			<path d="M2651.5,761.8c1.1-2.5,1.9-5.1,3.2-7.5c0.6-1.2,1.7-3.4,3.1-3.7c2.4-0.5,3.5,4,4.1,5.4c1.1,2.8,1.5,5.6,2.2,8.6
				c0.6,2.3,1.4,4.8,4,5.5c1.9,0.5,2.7-2.4,0.8-2.9c-2.6-0.7-2.7-8.2-3.5-10.5c-1.1-3-2.3-7.6-5.6-8.8c-6.4-2.3-9.1,8.5-10.9,12.5
				C2648.1,762,2650.7,763.5,2651.5,761.8L2651.5,761.8z"/>
		</g>
	</g>
	<g class="st1">
		<g>
			<path d="M2821,711.4c0.2-3.6,3.5-3.3,5.5-1.2c1.3,1.3,2,3.2,2.3,4.9c0.6,2.7,1.2,7.1-0.6,9.5c-3.9,5.4-9.3-3.6-10.2-6.8
				c-0.6-2.1-0.9-8.9,2.5-9.2c1.9-0.2,1.9-3.2,0-3c-6.2,0.7-6.7,9.5-5,14.1c1.8,4.9,9.2,13.9,14.5,7.6c3.9-4.7,2.7-13.9-0.8-18.4
				c-3.8-5-10.9-4.3-11.3,2.5C2817.9,713.3,2820.9,713.3,2821,711.4L2821,711.4z"/>
		</g>
	</g>
	<g class="st1">
		<g>
			<path d="M2631.1,870.3c0.6-2.7,2.1-5,3-7.6c0.9-2.8,1-5.6,2.5-8.2c-0.7,0.2-1.4,0.4-2.1,0.5c2.5,1.2,3.1,4.8,4,7.2
				c1.3,3.1,2.3,6.4,3.8,9.4c0.9,1.7,3.4,0.2,2.6-1.5c-1.8-3.7-3.1-7.7-4.5-11.5c-0.9-2.4-1.9-5-4.3-6.2c-0.8-0.4-1.6-0.2-2.1,0.5
				c-1.5,2.5-1.8,5.2-2.6,7.9c-0.8,3-2.6,5.5-3.2,8.5C2627.8,871.4,2630.7,872.2,2631.1,870.3L2631.1,870.3z"/>
		</g>
	</g>
</g>
<g id="Ebene_26" class="st0">
	<g class="st1">
		<g>
			<path d="M2613.5,763.1c2.3-2.7,5-4.8,8.7-3.4c3.1,1.2,4,3.8,4.2,7.1c0.3,3.7-1.8,7.9-3.8,10.9c-2.2,3.3-6.4,5.9-10.1,2.9
				c-1.7-1.4-2.5-4.8-2.8-6.9c-0.4-3.2,0.6-8.2,2.8-10.6c1.3-1.4-0.8-3.5-2.1-2.1c-4.3,4.6-4.7,12.7-2.3,18.2c3.3,7.5,11,7.5,16,1.5
				c4.4-5.2,6.9-12.6,4.1-19.1c-3.4-8-12.2-6-16.8-0.5C2610.1,762.5,2612.2,764.6,2613.5,763.1L2613.5,763.1z"/>
		</g>
	</g>
	<g class="st1">
		<g>
			<path d="M2789.7,709.6c0.5-1.9,1.1-3.8,1.9-5.6c0.9-2.1,2.3-2.2,4.5-1.8c4.5,0.8,6.3,4.5,6.5,8.7c0.1,2.1-0.1,8.3-2.5,9.4
				c-1.5,0.6-4.5-0.9-5.3-2c-0.6-0.8-0.9-2-1.3-2.9c-0.8-1.8-2.3-3.5-2.7-5.5c-0.4-1.9-3.3-1.1-2.9,0.8c0.4,1.8,1.4,3,2.3,4.6
				c0.9,1.6,1.4,3.4,2.3,5c1.3,2.3,3.3,4.3,6.1,3.9c5.7-0.7,7-8.2,7-12.8c-0.1-5.6-2.3-10.6-8.3-12c-7.4-1.8-9,3.3-10.5,9.5
				C2786.3,710.7,2789.2,711.5,2789.7,709.6L2789.7,709.6z"/>
		</g>
	</g>
	<g class="st1">
		<g>
			<path d="M2853.4,689.1c0.3-0.1,0.6-0.1,0.9-0.2c0.5-0.1,0.9-0.6,1-1c0.2-0.8,0.8-1.4,1-2.2c0.5-1.5,0.1-3,0.7-4.5
				c0.6-1.7,1.8-3.1,1.7-4.9c-0.9,0.4-1.7,0.7-2.6,1.1c2.3,2.2,4.4,4.6,6.3,7.2c1.6,2.2,3.8,4.8,4.1,7.5c0.2,1.9,3.2,1.9,3,0
				c-0.4-3.2-2.2-5.8-4.1-8.4c-2.2-3.1-4.5-5.8-7.2-8.4c-0.9-0.8-2.7-0.3-2.6,1.1c0.1,1.7-1.4,3.3-1.9,4.9c-0.4,1.3-0.1,2.7-0.5,3.9
				c-0.3,0.7-0.8,1.2-1,2.1c0.3-0.3,0.7-0.7,1-1c-0.3,0.1-0.6,0.1-0.9,0.2C2850.7,686.7,2851.5,689.6,2853.4,689.1L2853.4,689.1z"/>
		</g>
	</g>
</g>
<g id="Ebene_27" class="st0">
	<g class="st1">
		<g>
			<path d="M2811.3,679.4c0.7-2.1,2.6-4,3.6-6c0.4-0.7,0.8-2.2,1.5-2.7c2-1.5,2.5,1.8,2.8,3.3c1,5.2,2.1,10.7,5.7,14.7
				c1.3,1.4,3.4-0.7,2.1-2.1c-3.1-3.4-4.1-8.5-4.9-12.9c-0.5-2.5-1.2-6.4-4.3-6.9c-2.3-0.4-3.7,1.7-4.7,3.5c-0.6,1.1-1,2.4-1.7,3.5
				c-1,1.7-2.4,3-3.1,4.9C2807.7,680.5,2810.6,681.2,2811.3,679.4L2811.3,679.4z"/>
		</g>
	</g>
	<g class="st1">
		<g>
			<path d="M2619.3,718.9c0-3.2-0.2-6.9,2.1-9.5c2.5-2.8,4.6-1.8,7.6-1.1c2.9,0.7,4.6,1,5.4,4.5c0.9,3.7,0.1,7.3-1.9,10.5
				c-1.8,2.9-4.4,5.3-7.5,6.8c-4.7,2.3-6.9-0.7-8.4-4.9c-1.3-3.7-2-12.8,1.2-16c1.4-1.4-0.8-3.5-2.1-2.1c-2.8,2.9-2.7,7.6-3,11.4
				c-0.4,4.2,1,9.2,3.5,12.6c5.7,7.7,16-1.2,19.3-7c2.3-4,2.9-8.4,1.7-12.8c-1.3-4.6-3.2-5-7.3-6c-4-1-6.2-1.9-9.8,1.2
				c-3.5,3.1-3.8,7.9-3.7,12.3C2616.3,720.9,2619.3,720.9,2619.3,718.9L2619.3,718.9z"/>
		</g>
	</g>
	<g class="st1">
		<g>
			<path d="M2580.3,759.6c1.4-2.5,3.2-4.7,4.4-7.3c0.6-1.3,1.1-2.8,2.1-1.2c0.5,0.8,0.6,2.2,0.8,3.1c0.9,4.1,1.4,9,4.3,12.2
				c1.3,1.4,3.4-0.7,2.1-2.1c-2.2-2.5-2.6-6.8-3.3-10c-0.5-2.1-0.7-5-2.5-6.5c-1.5-1.3-3.6-0.9-4.8,0.5c-1,1.2-1.4,2.9-2.2,4.3
				c-1,1.9-2.5,3.6-3.6,5.5C2576.7,759.8,2579.3,761.3,2580.3,759.6L2580.3,759.6z"/>
		</g>
	</g>
</g>
<g id="Ebene_28" class="st0">
	<g class="st1">
		<g>
			<path d="M2583.3,722.2c1.2-1.5,1.7-3.5,2.2-5.3c0.4-1.4,1-6,2.4-6.7c1-0.5,2.2,4.5,2.6,5.5c1.2,3,3.5,5.3,5.8,7.6
				c1.4,1.4,3.5-0.7,2.1-2.1c-1.8-1.8-3.6-3.5-4.8-5.8c-0.6-1.3-1-2.8-1.5-4.1c-0.7-1.9-1.9-4.8-4.4-4.4c-5.2,0.9-4,10-6.6,13.2
				C2580,721.5,2582.1,723.7,2583.3,722.2L2583.3,722.2z"/>
		</g>
	</g>
	<g class="st1">
		<g>
			<path d="M2693.3,682.2c1.4,1.5,3.7,2.3,4.1,4.6c0.3,1.5-0.3,3.5-0.8,5c-0.9,3.1-3.5,9.3-7.8,7.2c-2.3-1.1-3.1-4.7-3.5-7
				c-0.2-1.3-0.5-2.9-0.3-4.3c0.1-1,0.7-1.9,1.1-2.8c0,0.1,2-3.9,2.4-2.3c0.5,1.9,3.4,1.1,2.9-0.8c-0.6-2.2-2.9-2.9-5-2
				c-2.2,0.9-3.8,4.4-4.3,6.6c-1,4.3,0.6,11.3,4,14.3c4.5,4,10-0.1,12-4.6c1.3-2.8,2.3-6.2,2.2-9.4c-0.1-3.7-2.7-4.4-5-6.7
				C2694.1,678.7,2692,680.9,2693.3,682.2L2693.3,682.2z"/>
		</g>
	</g>
	<g class="st1">
		<g>
			<path d="M2755.9,655.3c0.3,0.5,0.6,1,0.9,1.5c0.6,1.3,2.9,0.7,2.8-0.8c-0.1-2.1,1.5-4.4,2.3-6.4c0.3-0.8,0.6-2.8,1.3-3.4
				c0.5-0.4,0-0.6,0.6-0.4c0.5,0.2,0.9,2.8,1,3.3c1.2,5.1,2.1,12.1,6.2,15.8c1.4,1.3,3.6-0.8,2.1-2.1c-3.4-3.1-4.3-9.6-5.3-13.9
				c-0.5-2.2-1.3-6.7-4.2-6.7c-2.3,0-3.4,3.1-4,4.9c-1,2.6-3.2,6-3,8.9c0.9-0.3,1.9-0.5,2.8-0.8c-0.5-1-0.7-1.2-1.4-2.1
				C2756.8,651.6,2754.7,653.8,2755.9,655.3L2755.9,655.3z"/>
		</g>
	</g>
</g>
</svg>
