<?xml version="1.0" encoding="utf-8"?>
<!-- Generator: Adobe Illustrator 23.0.2, SVG Export Plug-In . SVG Version: 6.00 Build 0)  -->
<svg version="1.1" xmlns="http://www.w3.org/2000/svg" xmlns:xlink="http://www.w3.org/1999/xlink" x="0px" y="0px"
	 viewBox="0 0 4096 2160" style="enable-background:new 0 0 4096 2160;" xml:space="preserve">
<style type="text/css">
	.st0{display:none;}
	.st1{display:inline;}
</style>
<g id="Ebene_15">
	<g>
		<g>
			<path d="M2726.4,846.6c0.1,0.1,0.3,0.1,0.4,0.2c0.6,0.5,1.2,0.5,1.8,0.2c1.8-0.8,9.3,14.3-1.3,15c-3.1,0.2-5.1-2-6.1-4.7
				c-0.8-2,0-3.8,0.6-5.7c0.6-2,1.1-3.4,3.6-2.7c1.9,0.5,2.7-2.4,0.8-2.9c-2.3-0.6-4.4-0.7-5.9,1.4c-1.5,2-2.7,6.4-2.5,8.8
				c0.5,5.1,5,9.2,10,8.9c13.9-0.8,7.3-24.2-0.6-20.5c0.6,0.1,1.2,0.2,1.8,0.2c-0.6-0.5-1-0.7-1.8-1
				C2725.3,843.2,2724.5,846.1,2726.4,846.6L2726.4,846.6z"/>
		</g>
	</g>
</g>
</svg>
