<?xml version="1.0" encoding="utf-8"?>
<!-- Generator: Adobe Illustrator 23.0.2, SVG Export Plug-In . SVG Version: 6.00 Build 0)  -->
<svg version="1.1" xmlns="http://www.w3.org/2000/svg" xmlns:xlink="http://www.w3.org/1999/xlink" x="0px" y="0px"
	 viewBox="0 0 4096 2160" style="enable-background:new 0 0 4096 2160;" xml:space="preserve">
<style type="text/css">
	.st0{display:none;}
	.st1{display:inline;}
    .st0{
    fill:white;
    }
</style>
<g id="Ebene_27">
	<g>
		<g>
			<path d="M2811.3,679.4c0.7-2.1,2.6-4,3.6-6c0.4-0.7,0.8-2.2,1.5-2.7c2-1.5,2.5,1.8,2.8,3.3c1,5.2,2.1,10.7,5.7,14.7
				c1.3,1.4,3.4-0.7,2.1-2.1c-3.1-3.4-4.1-8.5-4.9-12.9c-0.5-2.5-1.2-6.4-4.3-6.9c-2.3-0.4-3.7,1.7-4.7,3.5c-0.6,1.1-1,2.4-1.7,3.5
				c-1,1.7-2.4,3-3.1,4.9C2807.7,680.5,2810.6,681.2,2811.3,679.4L2811.3,679.4z"/>
		</g>
	</g>
	<g>
		<g>
			<path d="M2619.3,718.9c0-3.2-0.2-6.9,2.1-9.5c2.5-2.8,4.6-1.8,7.6-1.1c2.9,0.7,4.6,1,5.4,4.5c0.9,3.7,0.1,7.3-1.9,10.5
				c-1.8,2.9-4.4,5.3-7.5,6.8c-4.7,2.3-6.9-0.7-8.4-4.9c-1.3-3.7-2-12.8,1.2-16c1.4-1.4-0.8-3.5-2.1-2.1c-2.8,2.9-2.7,7.6-3,11.4
				c-0.4,4.2,1,9.2,3.5,12.6c5.7,7.7,16-1.2,19.3-7c2.3-4,2.9-8.4,1.7-12.8c-1.3-4.6-3.2-5-7.3-6c-4-1-6.2-1.9-9.8,1.2
				c-3.5,3.1-3.8,7.9-3.7,12.3C2616.3,720.9,2619.3,720.9,2619.3,718.9L2619.3,718.9z"/>
		</g>
	</g>
	<g>
		<g>
			<path d="M2580.3,759.6c1.4-2.5,3.2-4.7,4.4-7.3c0.6-1.3,1.1-2.8,2.1-1.2c0.5,0.8,0.6,2.2,0.8,3.1c0.9,4.1,1.4,9,4.3,12.2
				c1.3,1.4,3.4-0.7,2.1-2.1c-2.2-2.5-2.6-6.8-3.3-10c-0.5-2.1-0.7-5-2.5-6.5c-1.5-1.3-3.6-0.9-4.8,0.5c-1,1.2-1.4,2.9-2.2,4.3
				c-1,1.9-2.5,3.6-3.6,5.5C2576.7,759.8,2579.3,761.3,2580.3,759.6L2580.3,759.6z"/>
		</g>
	</g>
</g>
</svg>
