<?xml version="1.0" encoding="utf-8"?>
<!-- Generator: Adobe Illustrator 23.0.2, SVG Export Plug-In . SVG Version: 6.00 Build 0)  -->
<svg version="1.1" xmlns="http://www.w3.org/2000/svg" xmlns:xlink="http://www.w3.org/1999/xlink" x="0px" y="0px"
	 viewBox="0 0 4096 2160" style="enable-background:new 0 0 4096 2160;" xml:space="preserve">
<style type="text/css">
	.st0{display:none;}
	.st1{display:inline;}
</style>
<g id="Ebene_16">
	<g>
		<g>
			<path d="M2791.8,809.9c0.2-1.2,1.4-1.7,2.1-2.5c0.6-0.8,0.8-1.7,1.3-2.5c1.1-1.9,1.9-2.8,2.9-1.1c0.4,0.7,0.6,2.3,0.8,3
				c1.2,5.5-0.2,10.2-0.3,15.6c0,1.9,3,1.9,3,0c0.1-4.4,1.4-8.4,0.9-12.8c-0.3-2.7-0.7-7.2-2.8-9.3c-1.7-1.6-3.7-0.8-5.2,0.6
				c-1.5,1.4-1.9,3.4-3.2,4.9c-1.1,1.2-2,1.5-2.3,3.2C2788.7,811,2791.6,811.8,2791.8,809.9L2791.8,809.9z"/>
		</g>
	</g>
	<g>
		<g>
			<path d="M2855.5,842.3c1.5-0.6,2.4-1.5,3.6-2.6c2.1-2,3.5-2.1,6.2-1.3c1,0.3,2.4,0.6,3.1,1.4c2.2,2,1.2,4.1,0.5,6.1
				c-0.9,2.6-2.3,3.3-4.5,4.7c-1.4,0.9-2.7,2.4-4.3,3.1c-2.9,1.3-6.6-0.6-7.4-3.6c-0.5-1.8,0.7-10.8,3.5-11c1.9-0.1,1.9-3.1,0-3
				c-2.7,0.2-4,1.9-4.9,4.3c-1,2.8-2,6.2-1.7,9.1c0.7,6.8,8.5,9.4,13.7,5.7c2.5-1.8,6-3.4,7.6-6.1c1.6-2.8,2.9-7.2,1-10.1
				c-1.5-2.3-6-4.2-8.6-4.6c-3.9-0.6-5.5,3.9-8.5,5.1C2852.9,840.1,2853.7,843,2855.5,842.3L2855.5,842.3z"/>
		</g>
	</g>
</g>
</svg>
