<?xml version="1.0" encoding="utf-8"?>
<!-- Generator: Adobe Illustrator 23.0.2, SVG Export Plug-In . SVG Version: 6.00 Build 0)  -->
<svg version="1.1" xmlns="http://www.w3.org/2000/svg" xmlns:xlink="http://www.w3.org/1999/xlink" x="0px" y="0px"
	 viewBox="0 0 4096 2160" style="enable-background:new 0 0 4096 2160;" xml:space="preserve">
<style type="text/css">
	.st0{display:none;}
	.st1{display:inline;}
    .st0{
    fill:white;
    }
</style>
<g id="Ebene_23">
	<g>
		<g>
			<path d="M2859.8,725.8c1-3,5.9-2.5,7.9-1.2c2.4,1.6,4.3,4.6,5,7.4c0.9,3.1,0.9,7.3-1.3,9.8c-3.3,3.7-8.4,1.8-10.7-1.9
				c-2.5-4-6.1-16.8,2-16.2c1.9,0.1,1.9-2.9,0-3c-14.2-1.1-7.7,28.2,5.5,26.2c9.8-1.5,9.6-14.2,5.1-20.7c-2.1-3-4.6-5.3-8.3-5.5
				c-3.6-0.1-6.8,0.7-8,4.3C2856.3,726.8,2859.2,727.6,2859.8,725.8L2859.8,725.8z"/>
		</g>
	</g>
</g>
</svg>
