<?xml version="1.0" encoding="utf-8"?>
<!-- Generator: Adobe Illustrator 23.0.2, SVG Export Plug-In . SVG Version: 6.00 Build 0)  -->
<svg version="1.1" xmlns="http://www.w3.org/2000/svg" xmlns:xlink="http://www.w3.org/1999/xlink" x="0px" y="0px"
	 viewBox="0 0 4096 2160" style="enable-background:new 0 0 4096 2160;" xml:space="preserve">
<style type="text/css">
	.st0{display:none;}
	.st1{display:inline;}
</style>
<g id="Ebene_21">
	<g>
		<g>
			<path d="M2790.7,764.5c0.6,0.3,1.3,0.7,1.9,1c0.7,0.4,1.6,0.2,2.1-0.5c1.3-2,2.2-4.1,3.2-6.3c0.4-0.8,0.8-2.1,1.4-2.8
				c0.3-1.2,0.9-1.3,1.6-0.4c0.8,0.3,1.2,0.9,1.2,1.8c1.1,2.1,1.4,4.7,2.3,7c0.8,2,2.1,3.8,2.9,5.9c0.7,1.8,3.6,1,2.9-0.8
				c-1.5-3.8-3.5-7.2-4.7-11.1c-0.7-2.1-1.3-5.8-3.8-6.7c-1.8-0.7-3.3,0.5-4.4,1.8c-2.3,3-3.3,6.9-5.3,10.1c0.7-0.2,1.4-0.4,2.1-0.5
				c-0.6-0.3-1.3-0.6-1.9-1C2790.5,761,2789,763.5,2790.7,764.5L2790.7,764.5z"/>
		</g>
	</g>
	<g>
		<g>
			<path d="M2641.6,819.3c-0.3,0.2-0.6,0.4-0.8,0.7c0.6-0.1,1.2-0.2,1.8-0.2c-2.1-1.5-0.9-4.3,0.1-6.1c1.5-2.8,5.3-2.6,7.7-0.9
				c4.3,3.2,4.6,10.6,1.4,14.5c-2.8,3.4-10.1,7.2-13.1,2.5c-2.9-4.5-0.1-10.9,2-15.1c0.9-1.7-1.7-3.2-2.6-1.5
				c-2.2,4.3-3.9,8.4-3.3,13.4c0.4,3.2,1.9,8.4,5.6,9.4c3.2,0.9,8.3-2.4,10.8-4.1c3.1-2.1,5.6-5.7,5.9-9.5
				c0.6-6.5-4.5-14.8-11.8-14.1c-3.5,0.4-5.1,3.4-6.3,6.4c-1.3,3.4-1,5.6,2,7.7c0.6,0.4,1.3,0.2,1.8-0.2c0.3-0.2,0.6-0.4,0.8-0.7
				C2645.2,820.2,2643.1,818.1,2641.6,819.3L2641.6,819.3z"/>
		</g>
	</g>
</g>
</svg>
