<?xml version="1.0" encoding="utf-8"?>
<!-- Generator: Adobe Illustrator 23.0.2, SVG Export Plug-In . SVG Version: 6.00 Build 0)  -->
<svg version="1.1" xmlns="http://www.w3.org/2000/svg" xmlns:xlink="http://www.w3.org/1999/xlink" x="0px" y="0px"
	 viewBox="0 0 4096 2160" style="enable-background:new 0 0 4096 2160;" xml:space="preserve">
<style type="text/css">
	.st0{display:none;}
	.st1{display:inline;}
</style>
<g id="Ebene_6">
	<g>
		<g>
			<path d="M2722.8,934c1.6-0.6,2.5-1.5,3.2-3.1c0.4-0.9,0.6-1.8,1-2.7c0.2-0.5,0.6-1,0.6-1.5c0.1-0.5-0.5-1.3-0.2,0
				c0.6,2.5,1.5,5,2,7.6c0.5,2.7,1.2,5.2,2.6,7.6c1,1.7,3.5,0.2,2.6-1.5c-1.7-3-2.1-6.4-2.8-9.8c-0.4-1.8-0.9-5.4-2.3-6.7
				c-4.1-3.9-5.4,6.5-7.4,7.2C2720.2,931.7,2721,934.6,2722.8,934L2722.8,934z"/>
		</g>
	</g>
</g>
</svg>
