<?xml version="1.0" encoding="utf-8"?>
<!-- Generator: Adobe Illustrator 23.0.2, SVG Export Plug-In . SVG Version: 6.00 Build 0)  -->
<svg version="1.1" xmlns="http://www.w3.org/2000/svg" xmlns:xlink="http://www.w3.org/1999/xlink" x="0px" y="0px"
	 viewBox="0 0 4096 2160" style="enable-background:new 0 0 4096 2160;" xml:space="preserve">
<style type="text/css">
	.st0{display:none;}
	.st1{display:inline;}
    .st0{
    fill:white;
    }
</style>
<g id="Ebene_26">
	<g>
		<g>
			<path d="M2613.5,763.1c2.3-2.7,5-4.8,8.7-3.4c3.1,1.2,4,3.8,4.2,7.1c0.3,3.7-1.8,7.9-3.8,10.9c-2.2,3.3-6.4,5.9-10.1,2.9
				c-1.7-1.4-2.5-4.8-2.8-6.9c-0.4-3.2,0.6-8.2,2.8-10.6c1.3-1.4-0.8-3.5-2.1-2.1c-4.3,4.6-4.7,12.7-2.3,18.2c3.3,7.5,11,7.5,16,1.5
				c4.4-5.2,6.9-12.6,4.1-19.1c-3.4-8-12.2-6-16.8-0.5C2610.1,762.5,2612.2,764.6,2613.5,763.1L2613.5,763.1z"/>
		</g>
	</g>
	<g>
		<g>
			<path d="M2789.7,709.6c0.5-1.9,1.1-3.8,1.9-5.6c0.9-2.1,2.3-2.2,4.5-1.8c4.5,0.8,6.3,4.5,6.5,8.7c0.1,2.1-0.1,8.3-2.5,9.4
				c-1.5,0.6-4.5-0.9-5.3-2c-0.6-0.8-0.9-2-1.3-2.9c-0.8-1.8-2.3-3.5-2.7-5.5c-0.4-1.9-3.3-1.1-2.9,0.8c0.4,1.8,1.4,3,2.3,4.6
				c0.9,1.6,1.4,3.4,2.3,5c1.3,2.3,3.3,4.3,6.1,3.9c5.7-0.7,7-8.2,7-12.8c-0.1-5.6-2.3-10.6-8.3-12c-7.4-1.8-9,3.3-10.5,9.5
				C2786.3,710.7,2789.2,711.5,2789.7,709.6L2789.7,709.6z"/>
		</g>
	</g>
	<g>
		<g>
			<path d="M2853.4,689.1c0.3-0.1,0.6-0.1,0.9-0.2c0.5-0.1,0.9-0.6,1-1c0.2-0.8,0.8-1.4,1-2.2c0.5-1.5,0.1-3,0.7-4.5
				c0.6-1.7,1.8-3.1,1.7-4.9c-0.9,0.4-1.7,0.7-2.6,1.1c2.3,2.2,4.4,4.6,6.3,7.2c1.6,2.2,3.8,4.8,4.1,7.5c0.2,1.9,3.2,1.9,3,0
				c-0.4-3.2-2.2-5.8-4.1-8.4c-2.2-3.1-4.5-5.8-7.2-8.4c-0.9-0.8-2.7-0.3-2.6,1.1c0.1,1.7-1.4,3.3-1.9,4.9c-0.4,1.3-0.1,2.7-0.5,3.9
				c-0.3,0.7-0.8,1.2-1,2.1c0.3-0.3,0.7-0.7,1-1c-0.3,0.1-0.6,0.1-0.9,0.2C2850.7,686.7,2851.5,689.6,2853.4,689.1L2853.4,689.1z"/>
		</g>
	</g>
</g>
</svg>
