<?xml version="1.0" encoding="utf-8"?>
<!-- Generator: Adobe Illustrator 23.0.2, SVG Export Plug-In . SVG Version: 6.00 Build 0)  -->
<svg version="1.1" xmlns="http://www.w3.org/2000/svg" xmlns:xlink="http://www.w3.org/1999/xlink" x="0px" y="0px"
	 viewBox="0 0 4096 2160" style="enable-background:new 0 0 4096 2160;" xml:space="preserve">
<style type="text/css">
	.st0{display:none;}
	.st1{display:inline;}
</style>
<g id="Ebene_17">
	<g>
		<g>
			<path d="M2732.8,804.1c0,0.2-0.1,0.5-0.1,0.7c-0.2,1.6,2.1,1.9,2.8,0.8c1-1.6,2.6-3,3.7-4.6c1-1.4,2.8-2.9,4.7-1.7
				c0.4,0.2,1.8,4.6,1.5,3.7c1.6,5,1.4,10.3,2.7,15.3c0.1,0.5,0.6,0.9,1,1c0.3,0.1,0.6,0.1,0.9,0.2c1.9,0.4,2.7-2.5,0.8-2.9
				c-0.7-0.2-1.8-11.7-2.1-13c-0.6-2.4-1.6-6.6-3.9-8.1c-1.9-1.2-4.1-0.6-5.7,0.7c-1.3,1-2.1,2.4-3,3.8c-1,1.5-2.4,2.5-3.3,4
				c0.9,0.3,1.9,0.5,2.8,0.8c0-0.2,0.1-0.5,0.1-0.7C2736,802.2,2733,802.3,2732.8,804.1L2732.8,804.1z"/>
		</g>
	</g>
	<g>
		<g>
			<path d="M2682.5,824.7c-1.1-1.2-1.1-4.3-0.6-6c0.5-1.8,1.9-2.3,3.1-3.6c-0.6,0.1-1.2,0.2-1.8,0.2c2.8,1.3,6.1,1.6,6.5,5.2
				c0.5,4.5-0.9,9.5-4.5,12.3c-2.1,1.6-4.8,2.3-6.6,0c-1.3-1.7-1.3-3.7-0.8-5.7c0.6-2.7,3.4-9,6.8-9.5c-0.5-0.4-1-0.7-1.4-1.1
				c0.1,0.3,0.1,0.7,0.2,1c0.4,1.9,3.3,1.1,2.9-0.8c-0.1-0.3-0.1-0.7-0.2-1c-0.1-0.6-0.8-1.2-1.4-1.1c-5.4,0.7-9.1,8.1-9.9,12.9
				c-0.7,4.3,2.2,11.3,7.5,10.4c6.1-1,9.8-7.9,10.4-13.4c0.3-2.7,0.6-6.1-1.2-8.4c-1.6-2-4.4-2.5-6.6-3.5c-0.6-0.3-1.3-0.3-1.8,0.2
				c-2.1,2.3-3.6,2.4-4,5.7c-0.3,2.9-0.5,5.8,1.5,8.1C2681.7,828.2,2683.8,826.1,2682.5,824.7L2682.5,824.7z"/>
		</g>
	</g>
</g>
</svg>
