<?xml version="1.0" encoding="utf-8"?>
<!-- Generator: Adobe Illustrator 23.0.2, SVG Export Plug-In . SVG Version: 6.00 Build 0)  -->
<svg version="1.1" xmlns="http://www.w3.org/2000/svg" xmlns:xlink="http://www.w3.org/1999/xlink" x="0px" y="0px"
	 viewBox="0 0 4096 2160" style="enable-background:new 0 0 4096 2160;" xml:space="preserve">
<style type="text/css">
	.st0{display:none;}
	.st1{display:inline;}
</style>
<g id="Ebene_12">
	<g>
		<g>
			<path d="M2872.6,875c1.3-2.1,1.8-3.5,2.4-5.8c0.6-2,1.9-3.2,2.1-5.4c-0.9,0.4-1.7,0.7-2.6,1.1c2,2.1,2.3,7.3,3,10
				c0.8,3.4,1.8,6.6,3.3,9.8c0.8,1.7,3.4,0.2,2.6-1.5c-2-4.2-2.9-8.7-4-13.2c-0.6-2.5-0.9-5.3-2.7-7.2c-0.9-1-2.5-0.2-2.6,1.1
				c-0.1,1.5-1.4,2.4-1.9,3.8c-0.7,2.1-1,4-2.2,5.9C2869,875.1,2871.6,876.7,2872.6,875L2872.6,875z"/>
		</g>
	</g>
</g></svg>
