<?xml version="1.0" encoding="utf-8"?>
<!-- Generator: Adobe Illustrator 23.0.2, SVG Export Plug-In . SVG Version: 6.00 Build 0)  -->
<svg version="1.1" xmlns="http://www.w3.org/2000/svg" xmlns:xlink="http://www.w3.org/1999/xlink" x="0px" y="0px"
	 viewBox="0 0 4096 2160" style="enable-background:new 0 0 4096 2160;" xml:space="preserve">
<style type="text/css">
	.st0{display:none;}
	.st1{display:inline;}
</style>
<g id="Ebene_14">
	<g>
		<g>
			<path d="M2757.2,857.8c1.5-2.1,2.7-4.3,4.1-6.4c3.8-5.6,4.5,1.6,4.9,4.2c0.4,2.3,1,4.5,1.3,6.8c0.3,2.2,0.5,4.5,1.1,6.7
				c0.1,0.5,0.6,0.9,1,1c0.3,0.1,0.6,0.1,0.9,0.2c1.9,0.4,2.7-2.5,0.8-2.9c-0.5-0.1-1.5-9.6-1.8-10.8c-0.9-3.2-0.3-6.6-2.5-9.4
				c-5-6-10.2,5.9-12.4,9C2753.5,857.8,2756.1,859.3,2757.2,857.8L2757.2,857.8z"/>
		</g>
	</g>
</g>
</svg>
