<?xml version="1.0" encoding="utf-8"?>
<!-- Generator: Adobe Illustrator 23.0.2, SVG Export Plug-In . SVG Version: 6.00 Build 0)  -->
<svg version="1.1" xmlns="http://www.w3.org/2000/svg" xmlns:xlink="http://www.w3.org/1999/xlink" x="0px" y="0px"
	 viewBox="0 0 4096 2160" style="enable-background:new 0 0 4096 2160;" xml:space="preserve">
<style type="text/css">
	.st0{display:none;}
	.st1{display:inline;}
</style>
<g id="Ebene_3">
	<g>
		<g>
			<path d="M2752.2,947.6c0,0.2,0,0.4-0.1,0.7c-0.1,1.3,1.7,1.9,2.6,1.1c1.3-1.4,2.3-2.9,3.1-4.6c0.6-1.3,1.1-3.4,1.9-0.8
				c0.6,1.9,0,3.9,0.1,5.9c0.1,2.2,1,4.3,1.1,6.5c0.1,1.9,3.1,1.9,3,0c-0.1-1.4-0.3-2.7-0.7-4.1c-0.5-2-0.4-3.8-0.3-5.8
				c0.1-2.1-0.4-4.6-1.9-6.2c-1.1-1.2-2.8-1.4-4.1-0.2c-0.7,0.6-1,1.6-1.4,2.4c-0.7,1.8-1.6,3.5-3,4.9c0.9,0.4,1.7,0.7,2.6,1.1
				c0-0.2,0-0.4,0.1-0.7C2755.4,945.7,2752.4,945.7,2752.2,947.6L2752.2,947.6z"/>
		</g>
	</g>
</g>
</svg>
