<?xml version="1.0" encoding="utf-8"?>
<!-- Generator: Adobe Illustrator 23.0.2, SVG Export Plug-In . SVG Version: 6.00 Build 0)  -->
<svg version="1.1" xmlns="http://www.w3.org/2000/svg" xmlns:xlink="http://www.w3.org/1999/xlink" x="0px" y="0px"
	 viewBox="0 0 3000 2000" style="enable-background:new 0 0 3000 2000;" xml:space="preserve">
<style type="text/css">
	.st0{display:none;}
	.st1{display:inline;}
	.st2{fill:#F2F2F2;}
	.st3{fill:#FFFF00;}
</style>
<g id="Ebene_1" class="st0">
	
		<image style="display:inline;overflow:visible;" width="3000" height="2000" xlink:href="../sitting1.png"  transform="matrix(1.0005 0 0 1.0005 -2 0)">
	</image>
</g>
<g id="Ebene_2" class="st0">
	
		<image style="display:inline;overflow:visible;" width="3000" height="2000" xlink:href="../sitting2.png"  transform="matrix(1.0035 0 0 1.0035 -4 0)">
	</image>
	<g class="st1">
		<g>
			<path class="st2" d="M2044.2,1344.1c0.5,0.5,1.1,1.1,1.6,1.6c0.6,0.6,1.5,0.6,2.1,0c0.6-0.6,0.6-1.5,0-2.1
				c-0.5-0.5-1.1-1.1-1.6-1.6c-0.6-0.6-1.5-0.6-2.1,0C2043.6,1342.5,2043.6,1343.5,2044.2,1344.1L2044.2,1344.1z"/>
		</g>
	</g>
</g>
<g id="Ebene_3" class="st0">
	<g class="st1">
		<g>
			<path d="M2051.1,1363.6c0.2,0.7,0.5,1.2,1,1.7c0.1,0.1,0.3,0.4,0.5,0.5c0.1,0.1,0.1,0.1-0.1-0.1c0,0,0.1,0.1,0.1,0.1
				c0.1,0.1,0,0.1,0-0.1c0,0.1,0.1,0.2,0.1,0.2c0.2,0.8,1.1,1.3,1.8,1c0.8-0.2,1.2-1.1,1-1.8c-0.2-0.7-0.5-1.2-1-1.7
				c-0.1-0.1-0.3-0.4-0.5-0.5c-0.1-0.1-0.1-0.1,0.1,0.1c0,0-0.1-0.1-0.1-0.1c-0.1-0.1,0-0.1,0,0.1c0-0.1-0.1-0.2-0.1-0.2
				c-0.2-0.8-1.1-1.3-1.8-1C2051.3,1362,2050.9,1362.9,2051.1,1363.6L2051.1,1363.6z"/>
		</g>
	</g>
	<g class="st1">
		<g>
			<path class="st3" d="M2052,1363c-0.7-0.8-1.6-1.2-2.7-1.2c-0.8,0-1.5,0.7-1.5,1.5c0,0.8,0.7,1.5,1.5,1.5c0.3,0,0,0,0.1,0
				c0.1,0,0.4,0.1,0.1,0c0.1,0,0.2,0.1,0,0c0.1,0.1,0.2,0.2,0.3,0.3c0.5,0.6,1.6,0.5,2.1,0C2052.6,1364.5,2052.5,1363.6,2052,1363
				L2052,1363z"/>
		</g>
	</g>
</g>
<g id="Ebene_4" class="st0">
	<g class="st1">
		<g>
			<path class="st3" d="M2081.8,1348.7c0,0.3,0,0.5,0,0.8c0,0.8,0.7,1.5,1.5,1.5c0.8,0,1.5-0.7,1.5-1.5c0-0.3,0-0.5,0-0.8
				c0-0.8-0.7-1.5-1.5-1.5C2082.5,1347.2,2081.8,1347.8,2081.8,1348.7L2081.8,1348.7z"/>
		</g>
	</g>
	<g class="st1">
		<g>
			<path d="M2085.1,1346.7C2085.1,1346.8,2085.1,1346.9,2085.1,1346.7C2085.1,1346.9,2085.1,1346.9,2085.1,1346.7
				C2085,1346.9,2085,1346.9,2085.1,1346.7c0,0.2-0.1,0.2-0.1,0.3c-0.2,0.3-0.4,0.6-0.6,1c-0.4,0.7-0.2,1.6,0.5,2.1
				c0.7,0.4,1.7,0.2,2.1-0.5c0.2-0.4,0.5-0.9,0.7-1.3c0.3-0.7,0.4-1.5,0.2-2.3c-0.2-0.8-1.1-1.3-1.8-1
				C2085.3,1345,2084.9,1345.9,2085.1,1346.7L2085.1,1346.7z"/>
		</g>
	</g>
</g>
<g id="Ebene_5" class="st0">
	<g class="st1">
		<g>
			<path d="M2119.2,1333.3c0.2,0.3,0.4,0.6,0.6,1c0,0.1,0.1,0.2,0.1,0.2c-0.1-0.2-0.1-0.2,0,0c0-0.2,0-0.2,0,0c0-0.2,0-0.1,0,0.1
				c-0.2,0.8,0.2,1.7,1,1.8c0.8,0.2,1.7-0.2,1.8-1c0.2-0.8,0.1-1.5-0.2-2.3c-0.2-0.5-0.5-0.9-0.7-1.3c-0.4-0.7-1.4-0.9-2.1-0.5
				C2119,1331.6,2118.8,1332.5,2119.2,1333.3L2119.2,1333.3z"/>
		</g>
	</g>
	<g class="st1">
		<g>
			<path class="st3" d="M2122.1,1332.6c-0.3,0-0.5,0-0.8,0c-0.8,0-1.5,0.7-1.5,1.5c0,0.8,0.7,1.5,1.5,1.5c0.3,0,0.5,0,0.8,0
				c0.8,0,1.5-0.7,1.5-1.5C2123.6,1333.3,2123,1332.6,2122.1,1332.6L2122.1,1332.6z"/>
		</g>
	</g>
	<g class="st1">
		<g>
			<path d="M2130,1335.3c0.1-0.8,0.3-1.2,0.8-1.8c-0.9-0.5-1.7-1-2.6-1.5c-0.2,0.5-0.4,0.8-0.7,1.1c-0.5,0.6-0.6,1.5,0,2.1
				c0.6,0.6,1.6,0.6,2.1,0c0.5-0.5,0.9-1.1,1.1-1.7c0.3-0.7,0.2-1.6-0.5-2.1c-0.7-0.4-1.6-0.1-2.1,0.5c-0.5,0.8-0.9,1.6-1.1,2.5
				c-0.1,0.8,0.2,1.7,1,1.8C2128.9,1336.5,2129.9,1336.2,2130,1335.3L2130,1335.3z"/>
		</g>
	</g>
	<g class="st1">
		<g>
			<path d="M2129.2,1330.5C2129.2,1330.5,2129.2,1330.5,2129.2,1330.5c-0.2-0.6-0.8-1.2-1.5-1.2c0,0,0,0,0,0
				c-0.6,0.1-1.3,0.4-1.4,1.1c-0.1,0.5,0,1.1,0,1.6c0.9-0.3,1.9-0.5,2.8-0.8c0,0,0,0,0,0c-0.6-0.9-2-1-2.6,0
				c-0.2,0.3-0.3,0.6-0.5,0.9c0.9,0.4,1.8,0.8,2.7,1.2c0.1-0.2,0,0,0.1-0.3c0.1-0.2,0.2-0.3,0.3-0.5c0.2-0.3,0.3-0.5,0.5-0.7
				c0.5-0.6,0.6-1.5,0-2.1c-0.5-0.5-1.6-0.6-2.1,0c-0.7,0.8-1.2,1.8-1.7,2.8c-0.3,0.7,0.2,1.5,0.9,1.8c0.6,0.3,1.5,0.1,1.9-0.6
				c0.2-0.3,0.3-0.6,0.5-0.9c-0.9,0-1.7,0-2.6,0c0,0,0,0,0,0c0.8,1.2,2.8,0.8,2.8-0.8c0-0.2,0-0.4,0-0.6c0-0.1,0-0.2,0-0.4
				c0-0.2,0.1-0.5-0.1,0.1c-0.5,0.4-1,0.7-1.4,1.1c0,0,0,0,0,0c-0.5-0.4-1-0.7-1.4-1.1c0,0,0,0,0,0c0.2,0.8,1.1,1.3,1.8,1
				C2129,1332.1,2129.4,1331.3,2129.2,1330.5L2129.2,1330.5z"/>
		</g>
	</g>
</g>
<g id="Ebene_6" class="st0">
	<g class="st1">
		<g>
			<path class="st3" d="M2157.5,1317.5c0.4-1.4-0.1-3.1-1.7-3.4c-0.5-0.1-1,0-1.5,0.4c-0.4,0.4-0.5,0.9-0.4,1.5
				c0.2,0.7,0.5,1.3,0.8,1.9c0.4,0.7,1.3,1,2.1,0.5c0.7-0.4,1-1.4,0.5-2.1c-0.1-0.2-0.3-0.4-0.4-0.7c0,0-0.1-0.3-0.2-0.5
				c-0.6,0.6-1.2,1.2-1.8,1.8c0.2,0,0.3,0.1,0.1,0c-0.1-0.1-0.2-0.2-0.3-0.3c-0.1-0.2-0.1-0.2-0.1-0.1c0,0.1,0,0.1,0,0
				c0-0.1,0-0.1,0,0c0,0,0-0.1,0-0.1c0,0.1,0,0.2-0.1,0.3c-0.2,0.8,0.2,1.7,1,1.8C2156.5,1318.8,2157.3,1318.3,2157.5,1317.5
				L2157.5,1317.5z"/>
		</g>
	</g>
	<g class="st1">
		<g>
			<path class="st2" d="M2156.1,1315.4c0.9-0.1,1.6-0.4,2.2-1.2c-0.9-0.3-1.9-0.5-2.8-0.8c-0.1,0.4-0.1,0.9-0.1,1.3
				c0,0.8,0.7,1.5,1.5,1.5c0.8,0,1.5-0.7,1.5-1.5c0-0.4,0-0.9,0.1-1.3c0.1-0.6-0.5-1.3-1.1-1.4c-0.7-0.2-1.3,0.1-1.7,0.7
				c0.1-0.2,0.2-0.2,0.4-0.2c-0.8,0.1-1.5,0.6-1.5,1.5C2154.6,1314.6,2155.3,1315.5,2156.1,1315.4L2156.1,1315.4z"/>
		</g>
	</g>
</g>
<g id="Ebene_7" class="st0">
	<g class="st1">
		<g>
			<path class="st2" d="M2185.1,1303.4c0-0.1,0-0.2,0-0.3c0,0.2,0,0.2,0,0c0,0.1-0.1,0.2-0.1,0.2c0.1-0.1,0.1-0.1,0,0
				c-0.6-0.1-1.2-0.2-1.8-0.2c-0.1-0.2-0.2-0.4-0.1-0.6c0.1-0.4,0.1-0.4-0.1-0.2c0.7-0.2,1.4-0.4,2.1-0.5c-0.2-0.2-0.5-0.3-0.7-0.5
				c-0.7-0.5-1.7-0.1-2.1,0.5c-0.4,0.8-0.1,1.6,0.5,2.1c0.2,0.2,0.5,0.3,0.7,0.5c0.7,0.5,1.6,0,2.1-0.5c0.7-0.9,0.4-2-0.3-2.9
				c-0.4-0.5-1.3-0.6-1.8-0.2c-0.9,0.6-1.5,1.5-1.4,2.6c0.1,0.8,0.7,1.5,1.5,1.5C2184.4,1304.8,2185.2,1304.2,2185.1,1303.4
				L2185.1,1303.4z"/>
		</g>
	</g>
	<g class="st1">
		<g>
			<path class="st3" d="M2181.3,1301.8c0,0.2,0,0.3,0,0.5c0.9-0.3,1.9-0.5,2.8-0.8c-0.4-0.7-1.1-1.1-2-1.1c-0.7,0-1.3,0.4-1.4,1.1
				c-0.1,0.2-0.1,0.5-0.2,0.7c-0.2,0.8,0.3,1.7,1,1.8c0.8,0.2,1.6-0.2,1.8-1c0.1-0.2,0.1-0.5,0.2-0.7c-0.5,0.4-1,0.7-1.4,1.1
				c0.2,0,0.2,0-0.2-0.1c-0.2,0-0.3-0.1-0.4-0.2c0.3,0.6,1.1,0.9,1.7,0.7c0.6-0.2,1.2-0.8,1.1-1.4c0-0.2,0-0.3,0-0.5
				c-0.1-0.8-0.6-1.5-1.5-1.5C2182.1,1300.3,2181.2,1300.9,2181.3,1301.8L2181.3,1301.8z"/>
		</g>
	</g>
</g>
<g id="Ebene_8" class="st0">
	<g class="st1">
		<g>
			<path class="st2" d="M2221,1298.1c-0.1,0.4-0.1,0.4-0.4,0.5c0.6,0.3,1.2,0.7,1.8,1c0,0.1-0.2-0.5-0.2-0.3c-0.1-0.3-0.1,0,0-0.2
				c0.1-0.4-0.1,0.2,0.1-0.2c0.1-0.1,0.1-0.3,0.2-0.4c0.4-0.7,0.7-1.4,0.6-2.2c-0.1-0.8-0.6-1.5-1.5-1.5c-0.8,0-1.5,0.7-1.5,1.5
				c0,0.5,0.3,1.6-0.1,2c-0.8,0.9-0.3,2.7,1.1,2.6c0.2,0,0.3,0,0.5-0.1c0.8-0.1,1.5-0.6,1.5-1.5c0-0.7-0.7-1.6-1.5-1.5
				c-0.2,0-0.3,0-0.5,0.1c0.4,0.9,0.7,1.7,1.1,2.6c1.1-1.2,0.9-2.6,0.9-4.1c-1,0-2,0-3,0c0,0.1,0,0.2,0,0.3c0-0.1,0-0.1,0,0
				c0,0.1,0,0.1-0.1,0.2c0-0.1,0-0.1,0,0c-0.1,0.3-0.3,0.5-0.4,0.8c-0.4,0.9-0.5,1.8-0.1,2.8c0.3,0.8,1,1.2,1.8,1
				c1.3-0.2,2.2-1.4,2.5-2.6C2224.4,1297.1,2221.5,1296.3,2221,1298.1L2221,1298.1z"/>
		</g>
	</g>
	<g class="st1">
		<g>
			<path class="st3" d="M2220,1295.4c-0.7,0.1-1.4,0.3-1.9,0.9c-1,1.1-0.1,2.8,1.5,2.5c0,0,0.1,0,0.1,0c0.8-0.2,1.3-1.1,1-1.8
				c-0.2-0.8-1.1-1.2-1.8-1c-0.3,0.1,0.3,0-0.1,0c-0.1,0-0.3,0-0.4,0c0.5,0.5,1,1,1.5,1.5c0-0.1,0-0.3,0-0.4
				c0.1-0.8-0.7-1.5-1.5-1.5c-0.9,0-1.4,0.7-1.5,1.5c0,0.1,0,0.3,0,0.4c-0.1,0.8,0.8,1.5,1.5,1.5c0.4,0,0.9,0,1.3-0.1
				c-0.3-1-0.5-1.9-0.8-2.9c0,0-0.1,0-0.1,0c0.5,0.8,1,1.7,1.5,2.5c0.2-0.2,0,0-0.2,0c0.8-0.1,1.5-0.6,1.5-1.5
				C2221.5,1296.1,2220.8,1295.3,2220,1295.4L2220,1295.4z"/>
		</g>
	</g>
</g>
<g id="Ebene_9" class="st0">
	<g class="st1">
		<g>
			<path class="st3" d="M2251.2,1297.9C2250.8,1297.8,2251.1,1297.9,2251.2,1297.9c0.1,0.2,0.1,0.3,0.2,0.3c0-0.1,0-0.2,0-0.1
				c0,0.1,0,0.1,0-0.1c0,0.1,0,0.2,0,0.1c0-0.1,0-0.1,0.1-0.2c0,0.1,0,0.1,0-0.1c-0.8,0.1-1.6,0.2-2.4,0.3c0.2,0.2,0.1,0,0.2,0.2
				c0,0.1,0.1,0.3,0.1,0.3c0,0.1,0,0.1,0,0c0-0.1,0-0.1,0,0c0,0.1,0,0.1,0,0c0.1-0.1,0.1,0-0.1,0.1c0.5-0.1,1-0.3,1.5-0.4
				c-0.2-0.1-0.2-0.1-0.1,0c-0.1-0.1-0.2-0.1-0.1,0c0,0.1,0.2,0.4,0.1,0.1c-0.7,0.6-1.5,1.1-2.2,1.7c0,0,0.1,0.2,0.2,0.4
				c0.6-0.7,1.1-1.5,1.7-2.2c-0.7-0.1-1.2,0-1.7,0.6c-0.4,0.5-0.4,1.1-0.2,1.7c0.2,0.8,1,1.3,1.8,1c0.8-0.2,1.3-1.1,1-1.8
				c-0.1-0.2-0.1-0.2,0,0c-0.1,0.4-0.3,0.7-0.4,1.1c0,0,0,0,0,0c-0.5,0.1-1,0.3-1.5,0.4c0,0,0,0,0.1,0c1.3,0.2,2.3-0.9,1.7-2.2
				c-0.3-0.6-0.8-1.1-1.3-1.4c-1.1-0.8-2.6,0.5-2.2,1.7c0.2,0.8,0.7,1.4,1.4,1.8c0.4,0.2,0.9,0.4,1.4,0.3c0.6-0.1,1-0.5,1.3-1
				c0.9-1.4,0.4-3.2-0.7-4.3c-0.7-0.7-1.9-0.5-2.4,0.3c-0.9,1.6-0.6,4,1.5,4.4c0.8,0.2,1.6-0.2,1.8-1
				C2252.4,1299,2251.9,1298.1,2251.2,1297.9L2251.2,1297.9z"/>
		</g>
	</g>
	<g class="st1">
		<g>
			<path class="st2" d="M2254.2,1298.1c0,0.1,0,0.2-0.1,0.3c0.1-0.2,0,0.1,0,0c0.1-0.2-0.1,0.1,0,0c0.1-0.1-0.2,0.1,0,0
				c0.6,0.3,1.2,0.7,1.8,1c0,0.2,0,0,0,0c0,0.2,0,0.2,0,0.1c0-0.1,0-0.1,0,0c-0.1,0.1,0.1-0.1,0.1-0.1c0.1-0.1,0.1-0.2,0.2-0.3
				c0.3-0.4,0.5-0.7,0.7-1.2c-0.9,0-1.7,0-2.6,0c0,0,0.2,0.3,0.2,0.3c-0.1-0.1,0.2,0.3,0,0c0,0.1,0,0.2,0,0.1c0,0.3-0.1,0.1,0,0
				c-0.5,0.6-0.6,1.5,0,2.1c0.5,0.5,1.6,0.6,2.1,0c1-1.2,1.1-2.7,0.3-4c-0.6-0.9-2.1-1.1-2.6,0c-0.3,0.5-0.7,1-0.9,1.5
				c-0.4,0.8-0.5,1.5-0.3,2.4c0.2,0.8,1.1,1.3,1.8,1c1.1-0.4,2-1.2,2.1-2.4c0.1-0.8-0.2-1.6-1-1.8
				C2255.3,1296.9,2254.3,1297.3,2254.2,1298.1L2254.2,1298.1z"/>
		</g>
	</g>
</g>
<g id="Ebene_10" class="st0">
	<g class="st1">
		<g>
			<path class="st3" d="M2276.8,1306.6c0,0.2,0,0.4,0,0.5c1,0,2,0,3,0c0-0.4-0.1-0.9-0.1-1.3c0-0.2,0-0.6,0-0.6c0,0,0-0.1,0-0.1
				c-0.3,0-0.4,0.6-0.9,0.4c-0.4-0.1-0.2-0.4-0.3-0.1c0,0.1,0,0.4,0,0.6c0,0.2,0,0.5-0.1,0.7c-0.1,0.3-0.3,0.5,0,0.2
				c0.5-0.1,1-0.3,1.5-0.4c-0.3-0.1-0.3-0.6-0.2-0.8c0.1-0.2,0-0.1,0,0c0.2,0,0.2,0,0.1,0c0,0-0.1,0-0.1,0c-0.2-0.1-0.3-0.2-0.3-0.4
				c0,0.1,0,0.2,0,0.1c0,0,0,0.3-0.1,0.6c-0.1,0.3-0.2,0.6-0.3,0.8c-0.2,0.3-0.3,0.6-0.5,0.9c-0.1,0.2-0.1,0.1-0.4,0.4
				c-1.5,1.3,0.7,3.4,2.1,2.1c1.7-1.5,3.7-6.3,0.5-7.3c-1.7-0.5-3.5,0.6-3.9,2.3c-0.4,1.8,0.6,3.7,2.4,4.3c0.5,0.2,1.1,0,1.5-0.4
				c1.4-1.5,1.5-5.5-0.8-6.3c-1.3-0.5-2.6,0.2-3,1.6c-0.3,0.9-0.1,1.9-0.1,2.9c0,1.9,3,1.9,3,0c0-0.2,0-0.4,0-0.5
				C2279.8,1304.7,2276.8,1304.7,2276.8,1306.6L2276.8,1306.6z"/>
		</g>
	</g>
	<g class="st1">
		<g>
			<path class="st2" d="M2281.6,1305.8C2281.6,1306.2,2281.6,1306,2281.6,1305.8c0.8,0.6,1.5,1.2,2.3,1.8c0.3-1,0.6-2,0.9-2.9
				c-0.6,0.3-1.2,0.7-1.8,1c-0.1,0-0.2-0.1-0.3-0.2c-0.2-0.2-0.2-0.2-0.1,0c-0.1-0.1-0.1-0.2,0,0c0,0.1,0,0.1,0,0.2
				c0-0.2,0,0.1,0,0.2c0,0.2,0,0.3,0,0.5c0,0.6-0.1,1.2-0.1,1.7c1,0,2,0,3,0c0-1.2,0-2.3,0-3.5c0-1.4-2.1-2.1-2.8-0.8
				c-0.2,0.5-0.4,0.9-0.6,1.4c-0.7,1.6,1.9,2.6,2.7,1.2c0.3-0.5,0.5-1.1,0.6-1.7c0.1-0.8-0.2-1.6-1-1.8c-0.7-0.2-1.7,0.2-1.8,1
				c-0.1,0.4-0.1,0.7-0.3,1c0.9,0.4,1.8,0.8,2.7,1.2c0.1-0.2,0.2-0.5,0.3-0.7c-0.9-0.3-1.9-0.5-2.8-0.8c0,1.2,0,2.3,0,3.5
				c0,1.9,3,1.9,3,0c0-1.8,0.6-4.5-1.7-5.2c-0.8-0.2-1.6,0.3-1.8,1c-0.3,1-0.6,1.9-0.9,2.9c-0.3,1.2,1.1,2.5,2.2,1.7
				c0.9-0.7,1.4-1.5,1.4-2.7C2284.6,1303.9,2281.6,1303.9,2281.6,1305.8L2281.6,1305.8z"/>
		</g>
	</g>
</g>
<g id="Ebene_11" class="st0">
	<g class="st1">
		<g>
			<path class="st3" d="M2324,1337.2c0.2-0.1,0.4-0.1,0.7-0.2c0.5-0.1,1-0.6,1-1c0-0.3,0.1-0.6,0.2-0.8c-0.7,0.2-1.4,0.4-2.1,0.5
				c-0.1-0.1-0.3-0.3-0.3-0.5c0-0.1,0-0.2,0-0.3c0,0,0,0.1,0,0.1c0-0.1,0.1-0.2,0,0c-0.1,0.1-0.1,0.2-0.2,0.3
				c-0.3,0.5-0.5,1.1-0.5,1.7c0.1,0.8,0.6,1.5,1.5,1.5c0.8,0,1.5-0.7,1.5-1.5c0-0.6-0.1-1.2-0.5-1.7c-0.2-0.2-0.5-0.3-0.7-0.4
				c-0.1,0-0.5-0.2-0.2,0c0.2,0.6,0.5,1.1,0.7,1.7c0.2-0.7,0.5-1.3,0.7-2.1c0.2-0.8-0.2-1.6-1-1.8c-0.7-0.2-1.7,0.3-1.8,1
				c-0.1,0.7-0.5,1.4-0.7,2.1c-0.2,0.6,0.1,1.4,0.7,1.7c0.3,0.1,0.5,0.3,0.8,0.3c0,0,0,0,0.1,0c-0.6-0.2-0.9-0.6-0.9-1.1
				c0,0,0,0.4,0,0.4c1,0,2,0,3,0c0-0.2,0-0.2,0,0c0-0.1,0-0.2,0.1-0.2c-0.1,0.3,0-0.1,0.1-0.1c0.2-0.3,0.4-0.7,0.5-1
				c0.3-1.1-0.2-2-1.1-2.6c-0.6-0.5-1.7-0.1-2.1,0.5c-0.2,0.5-0.4,1-0.5,1.5c0.3-0.3,0.7-0.7,1-1c-0.2,0.1-0.4,0.1-0.7,0.2
				C2321.3,1334.8,2322.1,1337.7,2324,1337.2L2324,1337.2z"/>
		</g>
	</g>
	<g class="st1">
		<g>
			<path class="st2" d="M2328.2,1337.8C2328.1,1337.4,2328.3,1337.6,2328.2,1337.8c-0.2,0-0.5,0.3-0.3,0.3c0.2,0,0.5-0.2,0.6-0.3
				c0.6-0.3,1-0.9,1.2-1.5c0.3-0.9-0.5-2-1.4-1.9c-1.6,0.1-2.5,1.6-3,2.9c-0.5,1.2-1.1,3-0.6,4.3c0.3,0.9,1.3,1.5,2.2,0.9
				c1.6-1,2.9-2.3,3-4.3c0.1-1.9-2.9-1.9-3,0c0,0.7-1,1.3-1.6,1.7c0.7,0.3,1.5,0.6,2.2,0.9c-0.2-0.4,0.1-1.3,0.3-1.9
				c0.1-0.4,0.3-0.8,0.5-1.1c0.1-0.1,0.2-0.2,0.2-0.3c0.1-0.3,0.4,0-0.3,0c-0.5-0.6-1-1.3-1.4-1.9c0.1-0.4,0.4-0.3,0.1-0.2
				c-0.1,0-0.2,0.1-0.3,0.1c-0.3,0.2-0.6,0.3-0.9,0.6c-0.7,0.7-0.7,1.7-0.5,2.6C2325.8,1340.4,2328.7,1339.6,2328.2,1337.8
				L2328.2,1337.8z"/>
		</g>
	</g>
</g>
<g id="Ebene_12" class="st0">
</g>
<g id="Ebene_13" class="st0">
	<g class="st1">
		<g>
			<path d="M1967.2,1314.1C1966.8,1314,1967.2,1314.1,1967.2,1314.1c0.1,0.2,0.1,0.3,0.2,0.3c0-0.1,0-0.2,0-0.1c0,0.1,0,0.1,0-0.1
				c0,0.1,0,0.2,0,0.1c0-0.1,0-0.1,0.1-0.2c-0.1,0.1,0,0.1,0-0.1c-0.8,0.1-1.6,0.2-2.4,0.3c0.1,0,0.3,0.3,0.2,0.2
				c-0.1-0.1,0-0.2,0,0.1c0-0.2,0,0,0,0.1c0-0.2-0.1,0.3-0.1,0.3c0.5-0.4,1-0.7,1.4-1.1c-0.1,0-0.4,0-0.1,0c-0.1,0-0.4-0.1-0.1,0
				c-0.1,0-0.3-0.2-0.1-0.1c0,0-0.3-0.4-0.2-0.2c0.1,0.2-0.2-0.3-0.1-0.1c0,0.1,0,0.1,0-0.1c0,0.2,0,0.2,0,0.1c0-0.1,0-0.1,0,0.1
				c0-0.1,0-0.2,0-0.1c0,0.1-0.1,0.1-0.1,0.2c0.1-0.1,0.1-0.1,0.2-0.2c-0.8-0.1-1.6-0.2-2.4-0.3c0,0,0.1,0.2,0.1,0.1
				c0-0.1,0.1-0.3-0.1,0.1c-0.6,1.8,2.3,2.6,2.9,0.8c0.3-0.9,0.2-1.8-0.3-2.5c-0.6-0.8-1.6-1-2.4-0.3c-2.3,2,0.1,5.8,2.8,5.5
				c0.7-0.1,1.2-0.4,1.4-1.1c0.5-1.3,0.1-2.7-0.9-3.6c-0.7-0.6-1.9-0.6-2.4,0.3c-0.9,1.6-0.6,4,1.5,4.4c0.8,0.2,1.6-0.2,1.8-1
				C1968.4,1315.2,1968,1314.2,1967.2,1314.1L1967.2,1314.1z"/>
		</g>
	</g>
	<g class="st1">
		<g>
			<path class="st3" d="M1965.1,1314.7c0-0.3,0-0.5,0-0.8c0-0.8-0.7-1.5-1.5-1.5c-0.8,0-1.5,0.7-1.5,1.5c0,0.3,0,0.5,0,0.8
				c0,0.8,0.7,1.5,1.5,1.5C1964.4,1316.2,1965.1,1315.5,1965.1,1314.7L1965.1,1314.7z"/>
		</g>
	</g>
</g>
<g id="Ebene_14" class="st0">
	<g class="st1">
		<g>
			<path class="st3" d="M1948.5,1291.2c0.2,0.2,0.3,0.5,0.5,0.7c0.8-0.6,1.6-1.2,2.4-1.8c-0.2-0.2-0.3-0.7-0.4-1
				c-0.2-0.5-0.4-1.1-0.7-1.6c-1-1.7-3.5-0.2-2.6,1.5c0.3,0.6,0.7,1.2,1,1.7c0.1,0.3,0.3,0.5,0.4,0.8c0,0.1,0.1,0.3,0.1,0.4
				c0.1,0.1-0.1,0.4,0.1-0.1c0.7-0.2,1.4-0.4,2.1-0.5c-0.4-0.2-0.7-0.4-0.8-0.9c-0.1-0.8-0.6-1.5-1.5-1.5c-0.7,0-1.6,0.7-1.5,1.5
				c0.2,1.5,0.9,2.7,2.2,3.5c0.6,0.4,1.7,0.2,2.1-0.5c0.9-2.2-0.6-4-1.6-5.9c-0.9,0.5-1.7,1-2.6,1.5c0.6,1,0.7,2.3,1.6,3.2
				c1.2,1.1,3.3-0.3,2.4-1.8c-0.2-0.2-0.3-0.5-0.5-0.7C1950.1,1288.1,1947.5,1289.6,1948.5,1291.2L1948.5,1291.2z"/>
		</g>
	</g>
	<g class="st1">
		<g>
			<path d="M1953.7,1294.1c0,0-0.1-0.2,0-0.3c0,0,0,0.1,0,0.1c0,0.1,0,0.1,0.1-0.1c-0.7,0.2-1.4,0.4-2.1,0.5c-0.1-0.1-0.1-0.1,0,0
				c-0.1-0.1-0.1-0.1-0.1-0.2c0,0.2,0,0.2,0,0c0,0.1,0,0.2,0,0.3c0,0.8,0.7,1.5,1.5,1.5c0.8,0,1.5-0.7,1.5-1.5c0-1.1-0.5-2-1.4-2.7
				c-0.7-0.5-1.6-0.1-2.1,0.5c-0.5,0.8-0.6,1.7-0.3,2.5c0.2,0.8,1,1.3,1.8,1C1953.4,1295.7,1953.9,1294.9,1953.7,1294.1
				L1953.7,1294.1z"/>
		</g>
	</g>
</g>
<g id="Ebene_15" class="st0">
	<g class="st1">
		<g>
			<path class="st3" d="M1929.2,1270.9c1.1,0.4,2.3-0.2,2.3-1.5c-0.9,0.3-1.9,0.5-2.8,0.8c0,0.1,0.1,0.1,0.1,0.2
				c0.1,0.2,0.1,0.2,0.1,0c0.1-0.4-0.2,0.2-0.1,0c0.8-0.2,1.7-0.4,2.5-0.7c-0.6-0.6-0.6-1.7-1.1-2.4c-0.8,0.6-1.6,1.2-2.4,1.8
				c0.4,0.4,0.8,0.8,1.2,1.2c0.2,0.2,0.4,0.4,0.5,0.6c0.2,0.2,0.2,0.3,0.2,0.4c0.3-0.6,0.7-1.2,1-1.8c0,0-0.5,0.1-0.3,0.1
				c0.2,0-0.1-0.1-0.1,0c-0.3-0.2-0.5-0.3-0.7-0.6c-0.5-0.5-0.8-1.1-1.1-1.7c-0.7,0.7-1.4,1.4-2.1,2.1c0.4,0.2,0.7,0.6,1.1,1
				c0.1,0.2,0.3,0.4,0.4,0.6c0,0,0.1,0.2,0.1,0.2c0,0,0.1-0.3,0.1-0.4c0.7-0.2,1.4-0.4,2.1-0.5c0.1,0.1,0.1,0.4,0.1-0.1
				c0.1-1.9-2.9-1.9-3,0c0,1.1,0.5,2,1.4,2.6c0.6,0.4,1.7,0.2,2.1-0.5c1-2.1-0.9-4.5-2.7-5.6c-1.3-0.8-2.8,0.8-2.1,2.1
				c1,1.9,3.1,4.6,5.6,3.5c0.8-0.3,1.2-1,1-1.8c-0.3-1.4-1.7-2.4-2.6-3.4c-1.1-1.2-3.3,0.4-2.4,1.8c0.7,0.9,0.7,2.1,1.6,3
				c0.9,0.9,2.1,0.3,2.5-0.7c0.4-0.9,0.2-1.8-0.4-2.6c-0.8-1.2-2.7-0.8-2.8,0.8c0,0,0,0.1,0,0.1c0.2-0.4,0.5-0.9,0.7-1.3
				c0,0,0,0-0.1,0c0.3-0.1,0.5-0.1,0.8-0.2c0,0,0,0,0.1,0C1928.1,1267.3,1927.4,1270.2,1929.2,1270.9L1929.2,1270.9z"/>
		</g>
	</g>
	<g class="st1">
		<g>
			<path d="M1930.4,1272.5c1.9,0,1.9-3,0-3C1928.5,1269.5,1928.5,1272.5,1930.4,1272.5L1930.4,1272.5z"/>
		</g>
	</g>
	<g class="st1">
		<g>
			<path d="M1932.6,1273.9c0,0.2,0-0.1,0-0.2c0-0.1,0-0.1,0,0c0,0.1,0,0.1,0-0.1c-0.1,0.1,0.2-0.1,0.1-0.1c-0.8-0.4-1.5-0.9-2.3-1.3
				c0,0.9,0,1.8-0.1,2.7c-0.1,0.7,0.6,1.4,1.3,1.5c0.8,0.1,1.4-0.4,1.6-1.1c0.3-0.8,1.1-1.5,1.6-2.3c1-1.4-1.2-3-2.4-1.8
				c0,0,0,0-0.1,0.1c0.2-0.1,0.4-0.3,0.7-0.4c0,0,0,0,0,0c0.6,0.2,1.1,0.5,1.7,0.7c0,0,0,0,0,0c0.1,0.3,0.1,0.5,0.2,0.8
				c0-0.1,0-0.1,0,0c0.2-0.8-0.2-1.6-1-1.8c-0.7-0.2-1.7,0.2-1.8,1c-0.1,0.6-0.2,1,0.1,1.6c0.3,0.6,1.1,0.8,1.7,0.7
				c0.3-0.1,0.5-0.2,0.8-0.4c-0.8-0.6-1.6-1.2-2.4-1.8c-0.7,1-1.4,1.9-1.9,3c1,0.1,2,0.3,2.9,0.4c0.1-0.9,0.1-1.8,0.1-2.7
				c0-1.1-1.3-2-2.3-1.3c-1.3,1-1.9,2.2-1.5,3.8c0.2,0.8,1.1,1.3,1.8,1C1932.4,1275.5,1932.8,1274.7,1932.6,1273.9L1932.6,1273.9z"
				/>
		</g>
	</g>
</g>
<g id="Ebene_16" class="st0">
	<g class="st1">
		<g>
			<path class="st3" d="M1908.4,1254.4c-0.1-0.8-0.9-1.7-0.7-2.4c-0.6,0.3-1.2,0.7-1.8,1c0.1,0,0.2,0,0.3,0.1c0,0,0,0-0.1,0
				c0.2,0.1,0.2,0.1,0,0c0,0,0-0.1-0.1-0.1c0.1,0.2,0.1,0.2,0,0c0,0,0,0.1,0,0.1c0,0.1,0,0.2,0.1,0.3c0-0.1,0-0.1,0,0
				c0.1,0.6,0,1.3,0.1,1.9c0.9-0.4,1.7-0.7,2.6-1.1c-0.6-0.6-1.6-1-2-1.8c-0.9,0.5-1.7,1-2.6,1.5c0.3,0.4,0.2,0.4,0.4,0.9
				c0.4,1.6,3,1.3,2.9-0.4c0-0.2,0-0.3,0-0.5c-0.1-1.9-3.1-1.9-3,0c0,0.2,0,0.3,0,0.5c1-0.1,2-0.3,2.9-0.4c-0.2-0.6-0.4-1.1-0.7-1.6
				c-1.1-1.6-3.4-0.2-2.6,1.5c0.5,1.1,1.5,1.6,2.4,2.4c0.9,0.8,2.7,0.3,2.6-1.1c-0.1-1,0-1.9-0.2-2.9c-0.3-1.2-1.2-2.1-2.4-2.3
				c-0.8-0.1-1.6,0.2-1.8,1c-0.2,0.7-0.2,1.5,0,2.2c0.2,0.6,0.5,1.1,0.6,1.7c0.1,0.8,1.1,1.2,1.8,1
				C1908.2,1256.1,1908.5,1255.2,1908.4,1254.4L1908.4,1254.4z"/>
		</g>
	</g>
	<g class="st1">
		<g>
			<path d="M1911.6,1256.1c-0.4-2.2-3.1-2.7-4.3-0.8c-1,1.6,0,3.5,0.8,5c0.7,1.3,2.9,0.7,2.8-0.8c0-0.7,0-1.3,0-2c-1,0-2,0-3,0
				c0,0.7,0,1.5,0,2.2c0,1.9,3,1.9,3,0c0-0.7,0-1.5,0-2.2c0-1.9-3-1.9-3,0c0,0.7,0,1.3,0,2c0.9-0.3,1.9-0.5,2.8-0.8
				c-0.3-0.6-0.6-1.2-0.8-1.8c0,0.2,0-0.3,0-0.1c0,0.1-0.3,0.2,0,0c-0.3,0.2-0.4,0.2-0.8,0.1c-0.3-0.1-0.4-0.4-0.4-0.1
				c0.1,0.8,1.1,1.2,1.8,1C1911.4,1257.7,1911.8,1256.9,1911.6,1256.1L1911.6,1256.1z"/>
		</g>
	</g>
</g>
<g id="Ebene_17" class="st0">
	<g class="st1">
		<g>
			<path class="st3" d="M1882.8,1236.2c0,0.8,0,1.6,0,2.4c0,0.8,0.7,1.5,1.5,1.5c0.8,0,1.5-0.7,1.5-1.5c0-0.8,0-1.6,0-2.4
				c0-0.8-0.7-1.5-1.5-1.5C1883.5,1234.8,1882.8,1235.4,1882.8,1236.2L1882.8,1236.2z"/>
		</g>
	</g>
	<g class="st1">
		<g>
			<path class="st2" d="M1885.2,1240.3c0,0.2,0,0.3,0,0.5c0,0.8,0.7,1.5,1.5,1.5c0.8,0,1.5-0.7,1.5-1.5c0-0.2,0-0.3,0-0.5
				c0-0.8-0.7-1.5-1.5-1.5C1885.9,1238.8,1885.2,1239.4,1885.2,1240.3c0,0.2,0,0.3,0,0.5c0,0.8,0.7,1.5,1.5,1.5
				c0.8,0,1.5-0.7,1.5-1.5c0-0.2,0-0.3,0-0.5c0-0.8-0.7-1.5-1.5-1.5C1885.9,1238.8,1885.2,1239.4,1885.2,1240.3L1885.2,1240.3z"/>
		</g>
	</g>
</g>
<g id="Ebene_18" class="st0">
	<g class="st1">
		<g>
			<path class="st3" d="M1857.8,1226.1c-0.1,0.2-0.1,0.3-0.2,0.5c0.7-0.3,1.5-0.6,2.2-0.9c-0.2-0.2-0.4-0.3-0.7-0.5
				c-0.6-0.5-1.7-0.1-2.1,0.5c-0.5,0.8-0.1,1.6,0.5,2.1c0.2,0.2,0.4,0.3,0.7,0.5c0.8,0.6,1.9-0.1,2.2-0.9c0.1-0.2,0.1-0.3,0.2-0.5
				c0.2-0.8-0.3-1.7-1-1.8C1858.8,1224.9,1858,1225.3,1857.8,1226.1L1857.8,1226.1z"/>
		</g>
	</g>
	<g class="st1">
		<g>
			<path class="st2" d="M1917.4,1418.1c1.9,0,1.9-3,0-3C1915.5,1415.1,1915.5,1418.1,1917.4,1418.1L1917.4,1418.1z"/>
		</g>
	</g>
	<g class="st1">
		<g>
			<path class="st2" d="M1863.9,1228.6c-0.3-1.3-1.3-2.4-2.7-2.7c-0.8-0.2-1.7,0.2-1.8,1c-0.2,0.8,0.2,1.7,1,1.8
				c0.1,0,0.2,0,0.3,0.1c-0.1-0.1-0.1-0.1,0,0c0,0,0.1,0,0.1,0.1c-0.1-0.1-0.1-0.1,0,0c0.1,0.1,0.1,0.1,0.1,0
				c-0.1-0.1-0.1-0.1,0,0.1c0.1,0.2,0.1,0.2,0,0c0,0.1,0.1,0.2,0.1,0.3c0.2,0.8,1.1,1.3,1.8,1
				C1863.7,1230.2,1864.1,1229.3,1863.9,1228.6L1863.9,1228.6z"/>
		</g>
	</g>
</g>
<g id="Ebene_19" class="st0">
	<g class="st1">
		<g>
			<path class="st3" d="M1833.7,1222.3c0.2,0.1,0.4,0.1,0.7,0.2c-0.3-0.3-0.7-0.7-1-1c0.1,0.2,0.1,0.4,0.2,0.7
				c0.2,0.8,1.1,1.3,1.8,1c0.8-0.2,1.2-1.1,1-1.8c-0.1-0.2-0.1-0.4-0.2-0.7c-0.1-0.5-0.6-0.9-1-1c-0.2-0.1-0.4-0.1-0.7-0.2
				c-0.8-0.2-1.7,0.2-1.8,1C1832.5,1221.2,1832.9,1222.1,1833.7,1222.3L1833.7,1222.3z"/>
		</g>
	</g>
	<g class="st1">
		<g>
			<path class="st2" d="M1838.2,1223.2c1.9,0,1.9-3,0-3C1836.2,1220.2,1836.2,1223.2,1838.2,1223.2L1838.2,1223.2z"/>
		</g>
	</g>
	<g class="st1">
		<g>
			<path class="st2" d="M1837.4,1221.2c-0.5,0.3-0.9,0.5-1.4,0.7c0.7,0.3,1.5,0.6,2.2,0.9c-0.1-0.2-0.1-0.5-0.2-0.7
				c-0.2-0.8-1.1-1.3-1.8-1c-0.8,0.2-1.2,1.1-1,1.8c0.1,0.2,0.1,0.5,0.2,0.7c0.3,1,1.3,1.3,2.2,0.9c0.5-0.2,1-0.5,1.4-0.7
				c0.7-0.4,0.9-1.4,0.5-2.1C1839,1221,1838.1,1220.8,1837.4,1221.2L1837.4,1221.2z"/>
		</g>
	</g>
</g>
<g id="Ebene_20" class="st0">
	<g class="st1">
		<g>
			<path class="st3" d="M1808.6,1221.6c0.2,0.2,0.3,0.5,0.5,0.7c0.6-0.7,1.1-1.5,1.7-2.2c0.2,0.1,0.3,0.2,0.4,0.3
				c-0.3-0.7-1.2-0.9-1.9-0.6c-0.7,0.3-1,1-0.9,1.8c0,0.1-0.1,0.3-0.1,0.4c0.5-0.4,1-0.7,1.4-1.1c-0.2,0-0.1,0-0.1,0
				c0,0.1,0.3,0.1,0.1,0.1c-0.1,0,0,0,0-0.1c-0.1-0.2,0.1,0.3-0.1-0.2c-0.4-1.5-2.4-1.4-2.9,0c0.3-0.2,0.6-0.5,0.9-0.7
				c0.5,0.4,1,0.7,1.4,1.1c-0.1-0.2-0.1-0.5-0.2-0.7c-0.5-1.9-3.4-1.1-2.9,0.8c0.1,0.2,0.1,0.5,0.2,0.7c0.2,0.7,0.8,1.1,1.4,1.1
				c1,0.1,1.7-0.6,2-1.5c-1,0-1.9,0-2.9,0c0.4,1.3,1.5,2.4,2.9,2.3c0.7-0.1,1.2-0.4,1.4-1.1c0.3-0.7,0.2-1.3,0.1-2
				c-0.9,0.4-1.8,0.8-2.7,1.2c0.3,0.5,0.8,0.9,1.4,1.1c1.2,0.2,2.5-1,1.7-2.2c-0.2-0.2-0.3-0.5-0.5-0.7c-0.5-0.7-1.3-1-2.1-0.5
				C1808.4,1220,1808.1,1220.9,1808.6,1221.6L1808.6,1221.6z"/>
		</g>
	</g>
	<g class="st1">
		<g>
			<path class="st2" d="M1813.7,1224.5c0.1-0.2,0.1-0.5,0.2-0.7c-0.6,0.3-1.2,0.7-1.8,1c0.3,0.1,0-0.1,0.1,0c0.1,0,0.2,0.1,0.3,0.2
				c-0.1-0.1-0.1-0.1,0,0c0.2,0.4-0.1-0.3,0.1,0.1c0.8,1.3,2.7,0.7,2.8-0.8c0-1.1-0.6-1.9-1.5-2.4c-0.7-0.4-1.6-0.2-2.1,0.5
				c-0.4,0.7-0.2,1.6,0.5,2.1c0.2,0.1,0.2,0.1,0.1,0c0.1,0.1,0.1,0.1,0.1,0c-0.1-0.1-0.1-0.1-0.1-0.2c0-0.2,0-0.2,0,0
				c0.9-0.3,1.9-0.5,2.8-0.8c-0.5-0.9-1.3-1.5-2.3-1.7c-0.7-0.2-1.7,0.3-1.8,1c-0.1,0.2-0.1,0.5-0.2,0.7c-0.2,0.8,0.2,1.7,1,1.8
				C1812.6,1225.7,1813.6,1225.3,1813.7,1224.5L1813.7,1224.5z"/>
		</g>
	</g>
</g>
<g id="Ebene_21" class="st0">
	<g class="st1">
		<g>
			<path class="st3" d="M1784,1230.5c0.5,0,0.3-0.1-0.6-0.5c-0.1-0.3-0.1-0.5-0.2-0.8c0,0.2,0,0.2,0,0c0.5-0.4,1-0.7,1.4-1.1
				c0.3,0,0.4,0.2,0.6,0.4c0.2,0.1-0.1,0.2,0.1,0c-0.1,0.2,0.2-0.5,0.1-0.3c-0.6,0.2-1.1,0.5-1.7,0.7c0.2,0,0.2,0,0.3,0.2
				c0.1,0.2,0.2,0.4,0.3,0.6c0,0.1,0,0.3,0,0.4c0,0-0.2,0.1,0,0c0.1-0.1,0.2-0.1,0.4-0.2c0.2,0,0.3,0,0.4,0.1c-0.2,0,0.1,0.1,0,0
				c-0.1-0.1-0.2-0.2-0.1-0.1c-0.1-0.1-0.2-0.3-0.2-0.4c-0.1-0.2,0,0-0.1-0.1c0-0.1-0.1-0.2-0.1-0.4c0.1,0.3,0-0.2,0-0.2
				c0,0,0,0.1,0,0.1c0.1-0.2,0-0.2,0,0c-0.4,0.2-0.9,0.5-1.3,0.7c0.5,0,0.9,0.1,1.4,0.4c0.2,0.1,0.3,0.3,0.4,0.4c-0.1-0.2,0,0.1,0,0
				c0-0.1,0.1-0.4,0-0.1c0.7-0.2,1.4-0.4,2.1-0.5c0.2,0.1,0.1,0.3,0.1-0.1c0.1-1.9-2.9-1.9-3,0c0,1.2,0.5,2,1.4,2.7
				c0.6,0.5,1.7,0.1,2.1-0.5c1.6-2.7-1.7-5.4-4.3-5.2c-0.5,0-1.1,0.3-1.3,0.7c-0.5,1.2-0.4,2.6,0.3,3.7c0.6,1.1,1.8,2,3.2,1.7
				c1.5-0.4,2.1-2.2,1.9-3.6c-0.2-1.5-1.2-2.9-2.7-3.3c-0.6-0.1-1.4,0.1-1.7,0.7c-0.8,1.9-0.6,4.2,1.8,4.5c0.6,0.1,1.3-0.5,1.4-1.1
				c0.4-1.5-0.6-2.7-2.1-2.6C1782,1227.5,1782,1230.5,1784,1230.5L1784,1230.5z"/>
		</g>
	</g>
	<g class="st1">
		<g>
			<path class="st2" d="M1783.2,1230.7c-0.2,0-0.3,0-0.5,0c0.5,0.6,1,1.3,1.4,1.9c0-0.1,0-0.1,0-0.2c-0.1,0.2-0.3,0.4-0.4,0.7
				c0,0,0.1-0.1,0.1-0.1c-0.2,0.1-0.4,0.3-0.7,0.4c0.1,0,0.1,0,0.2-0.1c1-0.4,1.6-1.7,0.7-2.5c-0.4-0.3-0.7-0.7-1-1.1
				c-0.8,0.6-1.6,1.2-2.4,1.8c0.7,0.8,1.7,1.1,2.6,1.6c1.7,0.9,3.1-1.5,1.5-2.6c-1.1-0.8-2.1-1.8-3.3-2.7c-0.9-0.7-2.3,0.2-2.3,1.3
				c0,0.9,0.3,1.7,0.6,2.5c0.3,0.6,0.7,1.3,0.8,1.9c0.8-0.4,1.5-0.9,2.3-1.3c-1-0.6-1.5-1.7-1.8-2.8c-1,0.3-1.9,0.5-2.9,0.8
				c0.5,1.4,0.9,2.7,1.5,4c0.8-0.6,1.6-1.2,2.4-1.8c-0.2-0.2-0.3-0.4-0.5-0.6c-1.3-1.4-3.4,0.7-2.1,2.1c0.2,0.2,0.3,0.4,0.5,0.6
				c1.2,1.3,3.1-0.4,2.4-1.8c-0.6-1-0.9-2.2-1.2-3.3c-0.6-1.8-3.4-1.1-2.9,0.8c0.5,1.8,1.4,3.6,3.1,4.6c0.9,0.5,2.4-0.1,2.3-1.3
				c-0.1-0.9-0.4-1.7-0.8-2.5c-0.3-0.6-0.7-1.2-0.7-1.9c-0.8,0.4-1.5,0.9-2.3,1.3c1.1,0.8,2.1,1.8,3.3,2.7c0.5-0.9,1-1.7,1.5-2.6
				c-0.7-0.3-1.4-0.6-2-1.1c-1.2-1.2-3.4,0.4-2.4,1.8c0.4,0.6,0.9,1.2,1.5,1.7c0.2-0.8,0.4-1.7,0.7-2.5c-0.7,0.3-1.2,0.7-1.4,1.4
				c-0.2,1,0.4,1.9,1.4,1.9c0.2,0,0.3,0,0.5,0c0.8-0.1,1.5-0.6,1.5-1.5C1784.7,1231.4,1784,1230.6,1783.2,1230.7L1783.2,1230.7z"/>
		</g>
	</g>
</g>
<g id="Ebene_22" class="st0">
</g>
<g id="Ebene_23" class="st0">
	<g class="st1">
		<g>
			<path class="st3" d="M1941,1347.1c0,0.4,0.1,0.9,0.1,1.3c0,0.1-0.1,0.6,0,0.6c0,0.1,0,0.1,0,0.1c0.1-0.1,0.2-0.2,0.4-0.3
				c0.6,0.2,1.1,0.5,1.7,0.7c-0.3-0.8-0.1-2,0.1-2.8c-0.6,0.3-1.2,0.7-1.8,1C1941.3,1346.9,1941.1,1346.6,1941,1347.1
				c0.6-0.3,1.2-0.5,1.8-0.7c-0.2-0.1-0.4-0.8-0.5-1c-0.6-1.5-3-1.4-2.9,0.4c0,0.3,0,0.7,0,1c0.1,1.9,3,1.9,3,0c0-0.2,0-0.3,0-0.5
				c0-1.9-3-1.9-3,0c0,0.2,0,0.3,0,0.5c1,0,2,0,3,0c0-0.3,0-0.7,0-1c-1,0.1-2,0.3-2.9,0.4c0.5,1.4,1,2.7,2.6,3.1
				c0.6,0.2,1.4-0.1,1.7-0.7c0.7-1.6,0.4-3.2-1.4-3.7c-0.8-0.2-1.6,0.3-1.8,1c-0.5,1.7-0.5,3.5,0.2,5.1c0.2,0.6,1.1,0.9,1.7,0.7
				c2.1-0.8,1.7-2.8,1.7-4.6C1944,1345.1,1941,1345.1,1941,1347.1L1941,1347.1z"/>
		</g>
	</g>
	<g class="st1">
		<g>
			<path class="st2" d="M1938.6,1347.9c0,1.5,0,3.1,0,4.6c0,0.8,0.7,1.5,1.5,1.5c0.9,0,1.4-0.7,1.5-1.5c0.1-0.8,0.1-1.7-0.2-2.5
				c-0.3-0.8-1-1.2-1.8-1c-0.6,0.1-1,0.4-1.5,0.8c0.6-0.1,1.2-0.2,1.8-0.2c-0.2-0.2-0.4-0.3-0.6-0.5c-0.7-0.5-1.7-0.1-2.1,0.5
				c-0.4,0.8-0.1,1.6,0.5,2.1c0.2,0.2,0.4,0.3,0.6,0.5c0.6,0.4,1.3,0.2,1.8-0.2c-0.1,0.1-0.1,0.1,0.2,0c-0.6-0.3-1.2-0.7-1.8-1
				c0.2,0.6,0.2,1.1,0.1,1.7c1,0,2,0,3,0c0-1.5,0-3.1,0-4.6C1941.6,1345.9,1938.6,1345.9,1938.6,1347.9L1938.6,1347.9z"/>
		</g>
	</g>
</g>
<g id="Ebene_24" class="st0">
	<g class="st1">
		<g>
			<path class="st3" d="M1921.3,1351.5c-0.4-1.1-1.1-1.9-1.9-2.8c-0.9-1.1-3.1,0.1-2.5,1.5c0.2,0.5,0.5,1.1,0.5,1.7
				c0.4-0.5,0.7-1,1.1-1.4c-0.1,0.1-0.3,0.1-0.4,0.1c-0.7-0.1-1.5,0.1-1.8,0.9c-0.3,0.6-0.1,1.5,0.6,1.9c0.3,0.2,0.7,0.3,1,0.5
				c1.3,0.7,2.9-0.7,2.1-2.1c-0.4-0.7-0.6-2-0.3-2.7c-0.9,0-1.7,0-2.6,0c0.3,0.3,0.6,1,0.1,1.4c0.6,0.1,1.2,0.2,1.8,0.2
				c-0.3-0.3-0.2,0.1-0.1-0.3c0.1-1.9-2.9-1.9-3,0c0,0.9,0.3,1.8,1,2.4c0.5,0.4,1.3,0.6,1.8,0.2c1.7-1.3,2.3-3.6,1-5.5
				c-0.6-0.8-2.1-1.1-2.6,0c-0.8,1.7-0.8,4.1,0.3,5.7c0.7-0.7,1.4-1.4,2.1-2.1c-0.3-0.2-0.7-0.4-1-0.5c-0.4,0.9-0.8,1.8-1.2,2.7
				c0.7,0.1,1.3,0.1,2-0.1c0.6-0.2,1.1-0.8,1.1-1.4c0-0.9-0.3-1.6-0.6-2.5c-0.8,0.5-1.7,1-2.5,1.5c0.4,0.5,0.9,0.9,1.1,1.5
				c0.3,0.8,1,1.3,1.8,1C1921,1353.2,1921.6,1352.3,1921.3,1351.5L1921.3,1351.5z"/>
		</g>
	</g>
	<g class="st1">
		<g>
			<path class="st2" d="M1921.9,1348.9c-0.3-0.1,0,0.1-0.2-0.1c-0.8-0.9-2.7-0.2-2.6,1.1c0,0.3,0.1,0.7,0.1,1c0.2,1.9,2.9,1.9,3,0
				c0.1-0.7-0.3-1.4-0.7-2c-0.1-0.1-0.1-0.3-0.2-0.4c0.2,0.4,0,0,0-0.1c0,0.3,0,0.3,0,0.2c0,0.3-0.1,0.5-0.3,0.7
				c-0.1,0.1-0.2,0.2-0.3,0.2c-0.2,0-0.2,0,0,0c0.8,0,1.5-0.7,1.5-1.5c0-0.8-0.7-1.5-1.5-1.5c-0.7,0-1.3,0.2-1.8,0.7
				c-0.5,0.5-0.6,1.3-0.4,2c0.1,0.5,0.4,0.9,0.6,1.3c0.1,0.2,0.2,0.3,0.2,0.5c-0.2-0.4,0-0.1,0,0c0.1,0.3,0-0.4,0-0.1c1,0,2,0,3,0
				c0-0.3-0.1-0.7-0.1-1c-0.9,0.4-1.7,0.7-2.6,1.1c0.4,0.5,0.9,0.8,1.5,0.9c0.8,0.1,1.6-0.2,1.8-1
				C1923.1,1350,1922.7,1349,1921.9,1348.9L1921.9,1348.9z"/>
		</g>
	</g>
</g>
<g id="Ebene_25" class="st0">
	<g class="st1">
		<g>
			<path class="st3" d="M1889.3,1351.9c0,0.2,0,0.3,0,0.5c0.9-0.4,1.7-0.7,2.6-1.1c-0.3-0.3-0.7-0.6-0.9-1c-0.9-1.2-3,0.1-2.5,1.5
				c0.3,0.8,0.8,1.4,1.5,1.9c0.7,0.6,2.1,0,2.2-0.9c0.2-1.3-0.3-2.3-1.4-3c-0.7-0.4-1.7-0.1-2.1,0.5c-0.4,0.7-0.2,1.6,0.5,2.1
				c0.2,0.1,0.2,0.1,0,0c0.1,0.1,0.1,0.1,0,0c-0.1-0.2-0.1-0.2,0,0c0-0.1,0-0.2,0-0.3c0.7-0.3,1.5-0.6,2.2-0.9c0.2,0.2-0.2-0.2,0,0
				c0,0-0.2-0.4-0.1-0.2c-0.8,0.5-1.7,1-2.5,1.5c0.3,0.4,0.6,0.6,0.9,1c0.8,0.9,2.7,0.2,2.6-1.1c0-0.2,0-0.3,0-0.5
				c-0.1-0.8-0.6-1.5-1.5-1.5C1890,1350.5,1889.2,1351.1,1889.3,1351.9L1889.3,1351.9z"/>
		</g>
	</g>
	<g class="st1">
		<g>
			<path class="st2" d="M1893.2,1355c1.9,0,1.9-3,0-3C1891.2,1352,1891.2,1355,1893.2,1355L1893.2,1355z"/>
		</g>
	</g>
</g>
<g id="Ebene_26" class="st0">
	<g class="st1">
		<g>
			<path class="st3" d="M1852.3,1356.6c0.2,0.1,0.4,0.1,0.7,0.2c-0.3-0.3-0.7-0.7-1-1c0.1,0.4,0.2,0.8,0.4,1.2
				c0.2,0.5,0.4,0.8,0.9,1c0.4,0.2,1,0.2,1.3-0.1c0.9-0.7,1.4-1.5,1.4-2.7c0-0.8-0.7-1.5-1.5-1.5c-0.8,0-1.5,0.7-1.5,1.5
				c0,0.1,0,0.2,0,0.3c0-0.2,0-0.2,0,0c0.1-0.2,0.1-0.2,0,0c0-0.1,0.1-0.1,0.2-0.2c0.7,0.3,1.5,0.6,2.2,0.9
				c-0.2-0.4-0.3-0.8-0.4-1.2c-0.1-0.5-0.6-0.9-1-1c-0.2-0.1-0.4-0.1-0.7-0.2c-0.8-0.2-1.7,0.3-1.8,1
				C1851.1,1355.5,1851.5,1356.4,1852.3,1356.6L1852.3,1356.6z"/>
		</g>
	</g>
	<g class="st1">
		<g>
			<path class="st2" d="M1856.8,1354.5c-0.3,0-0.5,0-0.8,0c-0.8,0-1.5,0.7-1.5,1.5c0,0.8,0.7,1.5,1.5,1.5c0.3,0,0.5,0,0.8,0
				c0.8,0,1.5-0.7,1.5-1.5C1858.2,1355.2,1857.6,1354.5,1856.8,1354.5L1856.8,1354.5z"/>
		</g>
	</g>
</g>
<g id="Ebene_27" class="st0">
	<g class="st1">
		<g>
			<path class="st3" d="M1819.4,1358c0.4-1.9-0.5-3.5-2-4.7c-0.6-0.5-1.5-0.6-2.1,0c-0.5,0.5-0.6,1.6,0,2.1c0.3,0.3,0.8,0.6,1,0.9
				c0.1,0.2,0.2,0.3,0.2,0.4c0,0.1,0.1,0.2,0,0.4c-0.1,0.8,0.2,1.6,1,1.8C1818.3,1359.2,1819.2,1358.8,1819.4,1358L1819.4,1358z"/>
		</g>
	</g>
	<g class="st1">
		<g>
			<path class="st2" d="M1817.3,1356.8c0,0.3,0,0.5,0,0.8c0,0.8,0.7,1.5,1.5,1.5c0.8,0,1.5-0.7,1.5-1.5c0-0.3,0-0.5,0-0.8
				c0-0.8-0.7-1.5-1.5-1.5C1817.9,1355.3,1817.3,1355.9,1817.3,1356.8L1817.3,1356.8z"/>
		</g>
	</g>
</g>
<g id="Ebene_28" class="st0">
	<g class="st1">
		<g>
			<path class="st3" d="M1798.3,1355.4c0.1,0.1,0.2,0.2,0.3,0.3c0.1,0.1,0.1,0.1,0,0c-0.1-0.1,0,0,0,0.1c0-0.1,0-0.1,0,0
				c0.1,0.3,0-0.2,0,0.2c0,0.8,0.7,1.5,1.5,1.5c0.8,0,1.5-0.7,1.5-1.5c0-1-0.4-2-1.2-2.7c-0.6-0.5-1.5-0.6-2.1,0
				C1797.8,1353.8,1797.6,1354.9,1798.3,1355.4L1798.3,1355.4z"/>
		</g>
	</g>
	<g class="st1">
		<g>
			<path class="st2" d="M1802.6,1359.1c1.9,0,1.9-3,0-3C1800.6,1356.1,1800.6,1359.1,1802.6,1359.1L1802.6,1359.1z"/>
		</g>
	</g>
	<g class="st1">
		<g>
			<path class="st2" d="M1799.3,1356.7c0.3,0,0.5,0,0.8,0c0.8,0,1.5-0.7,1.5-1.5c0-0.8-0.7-1.5-1.5-1.5c-0.3,0-0.5,0-0.8,0
				c-0.8,0-1.5,0.7-1.5,1.5C1797.9,1356,1798.5,1356.7,1799.3,1356.7L1799.3,1356.7z"/>
		</g>
	</g>
	<g class="st1">
		<g>
			<path class="st3" d="M1804.9,1359.2c0-0.5,0-1.1,0-1.6c0-0.8-0.7-1.5-1.5-1.5c-0.8,0-1.5,0.7-1.5,1.5c0,0.5,0,1.1,0,1.6
				c0,0.8,0.7,1.5,1.5,1.5C1804.2,1360.7,1804.9,1360,1804.9,1359.2L1804.9,1359.2z"/>
		</g>
	</g>
</g>
<g id="Ebene_29" class="st0">
</g>
<g id="Ebene_30" class="st0">
	<g class="st1">
		<g>
			<path class="st3" d="M2003.7,1383.4c0.7-1.6,1.2-3.1,1-4.8c-0.1-0.8-0.6-1.5-1.5-1.5c-0.7,0-1.6,0.7-1.5,1.5
				c0.1,1.2-0.1,2.2-0.6,3.3c-0.3,0.7-0.2,1.6,0.5,2.1C2002.3,1384.3,2003.4,1384.2,2003.7,1383.4L2003.7,1383.4z"/>
		</g>
	</g>
	<g class="st1">
		<g>
			<path class="st2" d="M2009.9,1378.4c-0.3-0.3-0.5-0.5-0.8-0.8c-0.6-0.6-1.5-0.6-2.1,0c-0.6,0.6-0.6,1.5,0,2.1
				c0.3,0.3,0.5,0.5,0.8,0.8c0.6,0.6,1.5,0.6,2.1,0C2010.5,1379.9,2010.5,1378.9,2009.9,1378.4L2009.9,1378.4z"/>
		</g>
	</g>
</g>
<g id="Ebene_31" class="st0">
	<g class="st1">
		<g>
			<path class="st3" d="M2033.8,1389.5c0-0.2,0.1-0.4,0.1-0.7c-0.2,0.3-0.5,0.6-0.7,0.9c-0.2,0.1,0.3-0.1,0,0c0.2,0,0.1,0,0.3,0
				c0.8,0.2,1.7-0.2,1.8-1c0.2-0.8-0.2-1.6-1-1.8c-0.7-0.2-1.4-0.2-2,0c-0.4,0.2-0.9,0.4-1.1,0.8c-0.2,0.3-0.2,0.7-0.3,1
				c-0.2,0.8,0.2,1.7,1,1.8C2032.7,1390.8,2033.6,1390.4,2033.8,1389.5L2033.8,1389.5z"/>
		</g>
	</g>
	<g class="st1">
		<g>
			<path class="st2" d="M2036.8,1391.4c0.2,0.1,0.4,0.1,0.7,0.2c-0.3-0.3-0.7-0.7-1-1c0.1,0.2,0.1,0.4,0.2,0.7
				c0.2,0.8,1.1,1.3,1.8,1c0.8-0.2,1.2-1.1,1-1.8c-0.1-0.2-0.1-0.4-0.2-0.7c-0.1-0.5-0.6-0.9-1-1c-0.2-0.1-0.4-0.1-0.7-0.2
				c-0.8-0.2-1.7,0.2-1.8,1C2035.6,1390.3,2036,1391.2,2036.8,1391.4L2036.8,1391.4z"/>
		</g>
	</g>
</g>
<g id="Ebene_32" class="st0">
	<g class="st1">
		<g>
			<path class="st3" d="M2057,1400.6c-0.2-0.1-0.4-0.1-0.7-0.2c0.3,0.3,0.7,0.7,1,1c-0.1-0.2-0.1-0.4-0.2-0.7
				c-0.2-0.8-1.1-1.3-1.8-1c-0.8,0.2-1.2,1.1-1,1.8c0.1,0.2,0.1,0.4,0.2,0.7c0.1,0.5,0.6,0.9,1,1c0.2,0.1,0.4,0.1,0.7,0.2
				c0.8,0.2,1.7-0.2,1.8-1C2058.2,1401.7,2057.8,1400.8,2057,1400.6L2057,1400.6z"/>
		</g>
	</g>
	<g class="st1">
		<g>
			<path class="st2" d="M2057.4,1404.4c1.9,0,1.9-3,0-3C2055.5,1401.4,2055.5,1404.4,2057.4,1404.4L2057.4,1404.4z"/>
		</g>
	</g>
</g>
<g id="Ebene_33" class="st0">
	<g class="st1">
		<g>
			<path class="st3" d="M2080.7,1415.4c0.2-1.4,0-2.9-1.2-3.9c-0.6-0.5-1.5-0.6-2.1,0c-0.5,0.5-0.6,1.6,0,2.1
				c0.1,0.1,0.4,0.4,0.3,0.2c0.1,0.1,0.1,0.2,0.1,0.2c-0.1-0.1-0.1-0.1,0,0c0,0.1,0,0.1,0.1,0.2c0-0.2,0-0.2,0,0
				c0,0.1-0.1,0.6,0,0.3c-0.1,0.8,0.2,1.7,1,1.8C2079.6,1416.6,2080.6,1416.2,2080.7,1415.4L2080.7,1415.4z"/>
		</g>
	</g>
</g>
<g id="Ebene_34" class="st0">
	<g class="st1">
		<g>
			<path class="st2" d="M2083.2,1416.6c0-0.3,0-0.5,0-0.8c0-0.8-0.7-1.5-1.5-1.5c-0.8,0-1.5,0.7-1.5,1.5c0,0.3,0,0.5,0,0.8
				c0,0.8,0.7,1.5,1.5,1.5C2082.5,1418.1,2083.2,1417.5,2083.2,1416.6L2083.2,1416.6z"/>
		</g>
	</g>
</g>
<g id="Ebene_35" class="st0">
	<g class="st1">
		<g>
			<path class="st3" d="M2107.2,1432.6c0.5-0.1,1,0,1.6,0.1c-0.3-0.3-0.7-0.7-1-1c0.1,0.3,0.1,0.4,0.1,0.7c-0.2,0.8,0.2,1.7,1,1.8
				c0.8,0.2,1.7-0.2,1.8-1c0.3-1.2,0.2-2.9-1.1-3.3c-1-0.3-2.1-0.3-3.2-0.1c-0.8,0.1-1.2,1.1-1,1.8
				C2105.5,1432.4,2106.4,1432.8,2107.2,1432.6L2107.2,1432.6z"/>
		</g>
	</g>
	<g class="st1">
		<g>
			<path class="st2" d="M2110.8,1433.5c0.3,0,0,0,0.1,0c0.1,0,0.4,0.1,0.1,0c0.1,0,0.2,0.1,0,0c0.1,0.1,0.2,0.2,0.3,0.3
				c0.5,0.6,1.6,0.5,2.1,0c0.6-0.6,0.5-1.5,0-2.1c-0.7-0.8-1.6-1.2-2.7-1.2c-0.8,0-1.5,0.7-1.5,1.5
				C2109.3,1432.8,2110,1433.5,2110.8,1433.5L2110.8,1433.5z"/>
		</g>
	</g>
</g>
<g id="Ebene_36" class="st0">
	<g class="st1">
		<g>
			<path class="st3" d="M2127.2,1442.8c0.3-0.3,0.5-0.5,0.8-0.8c0.6-0.6,0.6-1.5,0-2.1c-0.6-0.6-1.5-0.6-2.1,0
				c-0.3,0.3-0.5,0.5-0.8,0.8c-0.6,0.6-0.6,1.5,0,2.1C2125.7,1443.4,2126.7,1443.4,2127.2,1442.8L2127.2,1442.8z"/>
		</g>
	</g>
	<g class="st1">
		<g>
			<path class="st2" d="M2130.6,1442.4C2130.3,1442.4,2131.1,1442.4,2130.6,1442.4C2130.7,1442.3,2131,1442.5,2130.6,1442.4
				C2130.8,1442.4,2130.9,1442.5,2130.6,1442.4c0.2,0,0.2,0.1,0.2,0.1c-0.1-0.1-0.1-0.2-0.1-0.1c0,0.1,0.1,0.2,0.2,0.3
				c-0.1-0.2,0-0.1,0,0.1c0,0.1,0.1,0.2,0.1,0.3c0,0.1,0.1,0.6,0,0.2c0.1,0.8,0.6,1.5,1.5,1.5c0.7,0,1.6-0.7,1.5-1.5
				c-0.1-1.1-0.4-2.1-1.1-2.9c-0.8-0.9-2-1.2-3.2-0.9c-0.8,0.1-1.2,1.1-1,1.8C2129,1442.1,2129.8,1442.5,2130.6,1442.4
				L2130.6,1442.4z"/>
		</g>
	</g>
</g>
<g id="Ebene_37" class="st0">
	<g class="st1">
		<g>
			<path class="st3" d="M2153.4,1463.5c0.1-0.1,0.1-0.2,0.2-0.3c-0.1,0.2,0-0.1,0.1-0.1c0.1-0.1,0.1-0.1,0.2-0.2
				c0.2-0.2-0.3,0.1,0.1-0.1c0.1-0.1,0.5-0.2,0.2-0.1c0.1,0,0.2-0.1,0.3-0.1c0.1,0,0.4-0.1,0.1,0c-0.5-0.5-1-1-1.5-1.5
				c0,0.1,0.1,0.4,0,0.2c0-0.1,0-0.1,0,0c0,0.1,0,0.1,0-0.1c0,0-0.1,0.2,0,0c0,0-0.3,0.3-0.1,0.1c-0.7,0.5-1,1.3-0.5,2.1
				c0.4,0.7,1.4,1,2.1,0.5c1-0.7,1.7-1.7,1.6-2.9c-0.1-0.7-0.6-1.6-1.5-1.5c-1.6,0.2-2.9,1-3.7,2.4c-0.4,0.7-0.1,1.7,0.5,2.1
				C2152,1464.5,2152.9,1464.2,2153.4,1463.5L2153.4,1463.5z"/>
		</g>
	</g>
	<g class="st1">
		<g>
			<path class="st2" d="M2149.6,1465.1c1.9,0,1.9-3,0-3C2147.7,1462.1,2147.7,1465.1,2149.6,1465.1L2149.6,1465.1z"/>
		</g>
	</g>
</g>
<g id="Ebene_38" class="st0">
	<g class="st1">
		<g>
			<path class="st3" d="M2179,1488.1c0.4-0.4,0.8-0.9,1.2-1.3c0.4-0.4,0.6-0.6,1.1-0.7c-0.6-0.7-1.1-1.5-1.7-2.2
				c-0.2,0.2-0.4,0.5-0.5,0.7c-0.5,0.7-0.1,1.7,0.5,2.1c0.8,0.4,1.6,0.1,2.1-0.5c0.2-0.2,0.4-0.5,0.5-0.7c0.3-0.5,0.2-1.2-0.1-1.7
				c-0.4-0.5-1-0.7-1.6-0.5c-1.6,0.4-2.6,1.6-3.6,2.7C2175.5,1487.4,2177.7,1489.5,2179,1488.1L2179,1488.1z"/>
		</g>
	</g>
	<g class="st1">
		<g>
			<path class="st2" d="M2181.4,1487.3c0.5-0.5,1.1-0.9,1.6-1c0,0,0.5,0,0.3,0c0.2,0,0.4,0.2,0.2,0c0.2,0.2,0.2,0.4,0.2,0.7
				c0,1.9,3,1.9,3,0c0-1.9-1.1-3.6-3.1-3.7c-1.6-0.1-3.2,0.7-4.3,1.8C2178,1486.6,2180.1,1488.7,2181.4,1487.3L2181.4,1487.3z"/>
		</g>
	</g>
</g>
<g id="Ebene_39" class="st0">
	<g class="st1">
		<g>
			<path class="st3" d="M2195.7,1516c1.9,0,1.9-3,0-3C2193.8,1513,2193.8,1516,2195.7,1516L2195.7,1516z"/>
		</g>
	</g>
	<g class="st1">
		<g>
			<path class="st2" d="M2200,1517.2c0.3-0.3,0.5-0.5,0.8-0.8c0.6-0.6,0.6-1.5,0-2.1c-0.6-0.6-1.5-0.6-2.1,0
				c-0.3,0.3-0.5,0.5-0.8,0.8c-0.6,0.6-0.6,1.5,0,2.1C2198.5,1517.8,2199.5,1517.8,2200,1517.2L2200,1517.2z"/>
		</g>
	</g>
</g>
<g id="Ebene_40">
	<g>
		<g>
			<path class="st2" d="M1986.5,1355.9c0.1,0.2,0.2,0.6,0.3,0.9c-0.1-0.3,0,0.2,0,0.3c0,0.2,0,0.5,0,0.7c0,0.8,0.7,1.5,1.5,1.5
				c0.8,0,1.5-0.7,1.5-1.5c0-1.2-0.2-2.3-0.7-3.5c-0.3-0.7-1.4-0.9-2.1-0.5C1986.3,1354.3,1986.2,1355.2,1986.5,1355.9
				L1986.5,1355.9z"/>
		</g>
	</g>
	<g>
		<g>
			<path class="st2" d="M1993.8,1354C1993.9,1354,1993.9,1353.9,1993.8,1354C1993.8,1354,1993.8,1354,1993.8,1354
				c-0.2-0.2,0.1,0,0.2,0.1c0.3,0.1,0.6,0.3,0.9,0.4c1,0.2,1.9-0.3,2.4-1.2c0.4-0.7,0.2-1.6-0.5-2.1c-0.7-0.4-1.6-0.2-2.1,0.5
				c-0.2,0.3,0.1-0.1,0.2-0.1c0.2-0.1,0.4-0.2,0.6-0.1c0.1,0,0.1,0,0.1,0c-0.2,0,0.2,0.1,0.1,0c-0.1,0-0.2-0.1-0.3-0.1
				c-0.5-0.2-1-0.4-1.5-0.4c-0.8,0-1.5,0.7-1.5,1.5C1992.3,1353.2,1992.9,1354,1993.8,1354L1993.8,1354z"/>
		</g>
	</g>
	<g>
		<g>
			<path class="st2" d="M1995.4,1348.1C1995.6,1348.3,1995.7,1348.4,1995.4,1348.1c0.1,0.1,0.1,0.1,0.1,0.1c0-0.2,0-0.2,0,0
				c0,0.3,0,0.6,0,1c0,0.8,0.7,1.5,1.5,1.5c0.8,0,1.5-0.7,1.5-1.5c0-1.2,0-2.4-1-3.2c-0.6-0.5-1.5-0.6-2.1,0
				C1994.9,1346.5,1994.8,1347.6,1995.4,1348.1L1995.4,1348.1z"/>
		</g>
	</g>
	<g>
		<g>
			<path class="st2" d="M1980.5,1367.2c0,0.1-0.1,0.2-0.1,0.3c0.7-0.3,1.5-0.6,2.2-0.9c-0.1-0.1-0.3-0.2-0.4-0.3
				c-0.6-0.5-1.7-0.1-2.1,0.5c-0.5,0.8-0.1,1.6,0.5,2.1c0.1,0.1,0.3,0.2,0.4,0.3c0.8,0.6,1.9-0.1,2.2-0.9c0-0.1,0.1-0.2,0.1-0.3
				c0.2-0.8-0.3-1.7-1-1.8C1981.5,1365.9,1980.7,1366.4,1980.5,1367.2L1980.5,1367.2z"/>
		</g>
	</g>
	<g>
		<g>
			<path class="st3" d="M1973.8,1364.7c1.9,0,1.9-3,0-3C1971.9,1361.7,1971.9,1364.7,1973.8,1364.7L1973.8,1364.7z"/>
		</g>
	</g>
	<g>
		<g>
			<path class="st3" d="M1978.4,1362.9c-0.2-0.1,0.3,0.3,0.3,0.3c-0.1-0.1,0.1,0.2,0.1,0.2c0.1,0.1,0,0,0-0.1
				c0.1,0.8,0.6,1.5,1.5,1.5c0.7,0,1.6-0.7,1.5-1.5c-0.1-1.3-0.8-2.2-1.8-2.9c-0.6-0.5-1.7-0.1-2.1,0.5
				C1977.5,1361.6,1977.8,1362.4,1978.4,1362.9L1978.4,1362.9z"/>
		</g>
	</g>
	<g>
		<g>
			<path class="st3" d="M1970.2,1362c0-0.1,0-0.1,0.1-0.2c0.3-0.2,0.6-0.5,0.9-0.7c-0.1,0-0.3,0.1-0.4,0.1c-0.8,0.2-1.3,1.1-1,1.8
				c0.2,0.8,1,1.2,1.8,1c0.7-0.1,1.2-0.4,1.5-1.1c0.2-0.6,0.2-1.2,0.1-1.8c-0.2-0.8-1.1-1.3-1.8-1
				C1970.4,1360.4,1970,1361.2,1970.2,1362L1970.2,1362z"/>
		</g>
	</g>
	<g>
		<g>
			<path class="st3" d="M1969,1354.5c1.9,0,1.9-3,0-3C1967,1351.5,1967,1354.5,1969,1354.5L1969,1354.5z"/>
		</g>
	</g>
	<g>
		<g>
			<path class="st3" d="M1956.6,1358.8c0.1,0,0.2,0,0.3,0c0.8,0,1.5-0.7,1.5-1.5c0-0.8-0.7-1.5-1.5-1.5c-0.1,0-0.2,0-0.3,0
				c-0.8,0-1.5,0.7-1.5,1.5C1955.1,1358.1,1955.7,1358.8,1956.6,1358.8c0.1,0,0.2,0,0.3,0c0.8,0,1.5-0.7,1.5-1.5
				c0-0.8-0.7-1.5-1.5-1.5c-0.1,0-0.2,0-0.3,0c-0.8,0-1.5,0.7-1.5,1.5C1955.1,1358.1,1955.7,1358.8,1956.6,1358.8L1956.6,1358.8z"/>
		</g>
	</g>
	<g>
		<g>
			<path class="st3" d="M1977.9,1356.5c0.3,0.2,0.6,0.3,0.9,0.5c1.3,0.9,2.8-0.8,2.1-2.1c-0.3-0.5-0.7-1-1.1-1.3
				c-0.6-0.5-1.5-0.6-2.1,0c-0.5,0.5-0.6,1.6,0,2.1c0.2,0.1,0.3,0.3,0.5,0.4c0.1,0.1,0.1,0.2,0,0.1c0.1,0.1,0.1,0.2,0.2,0.3
				c0.7-0.7,1.4-1.4,2.1-2.1c-0.3-0.2-0.6-0.3-0.9-0.5c-0.7-0.4-1.6-0.2-2.1,0.5C1977,1355.1,1977.2,1356,1977.9,1356.5
				L1977.9,1356.5z"/>
		</g>
	</g>
	<g>
		<g>
			<path class="st3" d="M1998.5,1364.7c-0.1,0-0.2,0-0.3-0.1c0.6,0.5,1.5,0.6,2.1,0c0.6-0.6,0.6-1.6,0-2.1c-0.4-0.3-0.8-0.6-1.3-0.7
				c-0.8-0.1-1.7,0.2-1.8,1c-0.2,0.7,0.2,1.7,1,1.8c0.3,0.1,0,0,0-0.1c0.7-0.7,1.4-1.4,2.1-2.1c-0.8-0.7-1.6-0.9-2.6-0.7
				c-0.8,0.1-1.2,1.1-1,1.8C1996.9,1364.5,1997.7,1364.8,1998.5,1364.7L1998.5,1364.7z"/>
		</g>
	</g>
	<g>
		<g>
			<path class="st3" d="M2005.6,1365.4c0.9,1,1.7,2,3.2,2.1c0.8,0,1.5-0.7,1.5-1.5c0-0.8-0.7-1.5-1.5-1.5c-0.2,0,0,0,0.1,0
				c0.1,0,0,0-0.1-0.1c-0.1-0.1,0.1,0.2-0.1,0c-0.1-0.1-0.2-0.2-0.2-0.2c-0.3-0.3-0.5-0.6-0.8-0.9c-0.6-0.6-1.6-0.6-2.1,0
				C2005.1,1363.8,2005.1,1364.8,2005.6,1365.4L2005.6,1365.4z"/>
		</g>
	</g>
	<g>
		<g>
			<path class="st3" d="M2026,1356.9c-0.1-0.3-0.2-0.6-0.3-0.9c-0.2-0.5,0,0.2-0.1-0.2c0-0.2-0.1-0.3-0.1-0.5
				c-0.2-0.8-1.1-1.3-1.8-1c-0.8,0.2-1.2,1-1,1.8c0.1,0.3,0.2,0.6,0.3,0.9c0.2,0.5,0-0.2,0.1,0.2c0,0.2,0.1,0.3,0.1,0.5
				c0.2,0.8,1.1,1.3,1.8,1C2025.7,1358.5,2026.1,1357.7,2026,1356.9L2026,1356.9z"/>
		</g>
	</g>
	<g>
		<g>
			<path class="st3" d="M2020.4,1350.2c0.1,0.6,0.6,1.2,0.5,1.8c-0.1,0.7-0.5,1.3-0.9,1.9c-0.5,0.7-0.1,1.7,0.5,2.1
				c0.8,0.5,1.6,0.1,2.1-0.5c0.6-0.8,1.1-1.8,1.2-2.8c0.2-1.2-0.3-2-0.5-3.2C2022.9,1347.5,2020,1348.3,2020.4,1350.2L2020.4,1350.2
				z"/>
		</g>
	</g>
	<g>
		<g>
			<path class="st3" d="M1953.1,1334.9c0.7,0.5,1.4,1.1,2.2,1.6c0.6,0.5,1.7,0.1,2.1-0.5c0.5-0.8,0.1-1.6-0.5-2.1
				c-0.7-0.5-1.4-1.1-2.2-1.6c-0.6-0.5-1.7-0.1-2.1,0.5C1952.1,1333.6,1952.4,1334.4,1953.1,1334.9L1953.1,1334.9z"/>
		</g>
	</g>
	<g>
		<g>
			<path class="st3" d="M1961.8,1329.1c0.1,0,0.2-0.1,0.3-0.1c0.8-0.3,1.5-1.4,0.9-2.2c-0.1-0.1-0.2-0.3-0.3-0.4
				c-0.5-0.6-1.3-1-2.1-0.5c-0.6,0.4-1,1.4-0.5,2.1c0.1,0.1,0.2,0.3,0.3,0.4c0.3-0.7,0.6-1.5,0.9-2.2c-0.1,0-0.2,0.1-0.3,0.1
				c-0.8,0.2-1.3,1-1,1.8C1960.2,1328.8,1961,1329.3,1961.8,1329.1L1961.8,1329.1z"/>
		</g>
	</g>
	<g>
		<g>
			<path class="st3" d="M1945.5,1348.4c0.7,0.9,1.2,1.8,2.4,2.2c0.8,0.3,1.7-0.3,1.8-1c0-0.2,0.1-0.3,0.1-0.5c0.2-0.8-0.2-1.7-1-1.8
				c-0.8-0.2-1.6,0.2-1.8,1c0,0.2-0.1,0.3-0.1,0.5c0.6-0.3,1.2-0.7,1.8-1c0.3,0.1-0.1-0.1,0.1,0.1c-0.1-0.1-0.1-0.1-0.2-0.2
				c0.1,0.1,0.1,0.1,0,0c-0.2-0.2-0.3-0.5-0.5-0.8c-0.5-0.6-1.3-1-2.1-0.5C1945.4,1346.7,1945.1,1347.7,1945.5,1348.4L1945.5,1348.4
				z"/>
		</g>
	</g>
	<g>
		<g>
			<path class="st3" d="M2001.9,1356.7c0.1,0,0.2,0,0.3,0c0.8,0,1.5-0.7,1.5-1.5c0-0.8-0.7-1.5-1.5-1.5c-0.1,0-0.2,0-0.3,0
				c-0.8,0-1.5,0.7-1.5,1.5C2000.4,1356,2001,1356.7,2001.9,1356.7c0.1,0,0.2,0,0.3,0c0.8,0,1.5-0.7,1.5-1.5c0-0.8-0.7-1.5-1.5-1.5
				c-0.1,0-0.2,0-0.3,0c-0.8,0-1.5,0.7-1.5,1.5C2000.4,1356,2001,1356.7,2001.9,1356.7L2001.9,1356.7z"/>
		</g>
	</g>
</g>
</svg>
